<svg xmlns="http://www.w3.org/2000/svg" xml:space="preserve" width="63.214" height="66.17" viewBox="-89.99 350.588 63.214 66.17"><g fill="#F8F9F6"><path d="M-39.645 379.02a1.874 1.874 0 0 0-1.872 1.871v.508a4.669 4.669 0 0 1-2.128 3.915h4v-6.294z"/><path d="M-46.685 412.442h-36.262a2.731 2.731 0 0 1-2.728-2.727V357.63a2.73 2.73 0 0 1 2.728-2.726l24.962-.026v9.225a4.886 4.886 0 0 0 4.884 4.886l9.039-.026.004 1.636a11.131 11.131 0 0 1 4.412-.912v-2.432l-16.726-16.668h-26.576c-3.883 0-7.043 3.16-7.043 7.042v52.085c0 3.881 3.16 7.042 7.043 7.042h36.262c3.62 0 6.577-2.76 6.964-6.28h-4.393c-.333 1.128-1.337 1.966-2.57 1.966z"/><path d="M-30.126 387.529h-.531v-6.638c0-4.957-4.033-8.989-8.988-8.989-4.956 0-8.989 4.032-8.989 8.989v.508a2.452 2.452 0 0 0 4.903 0v-.508a4.091 4.091 0 0 1 4.086-4.086 4.091 4.091 0 0 1 4.086 4.086v6.638h-13.605a3.35 3.35 0 0 0-3.35 3.351v14.032a3.35 3.35 0 0 0 3.35 3.351h19.039c1.85 0 3.35-1.5 3.35-3.351V390.88a3.352 3.352 0 0 0-3.351-3.351zm-7.681 10.639v2.435a1.838 1.838 0 1 1-3.677 0v-2.435a3.156 3.156 0 0 1-1.328-2.569 3.167 3.167 0 1 1 6.333 0c0 1.06-.526 1.995-1.328 2.569z"/></g></svg>