<?xml version="1.0" encoding="utf-8"?>
<!-- Generator: Adobe Illustrator 15.0.0, SVG Export Plug-In . SVG Version: 6.00 Build 0)  -->
<!DOCTYPE svg PUBLIC "-//W3C//DTD SVG 1.1//EN" "http://www.w3.org/Graphics/SVG/1.1/DTD/svg11.dtd">
<svg version="1.1" id="Calque_1" xmlns="http://www.w3.org/2000/svg" xmlns:xlink="http://www.w3.org/1999/xlink" x="0px" y="0px"
	 width="35.434px" height="56.692px" viewBox="8.716 4.58 35.434 56.692" enable-background="new 8.716 4.58 35.434 56.692"
	 xml:space="preserve">
<g id="页面-1">
	<g id="Transport" transform="translate(-768.000000, -48.000000)">
		<g id="walk_fill" transform="translate(768.000000, 48.000000)">
			<path id="形状" fill="#113653" d="M28.558,4.58c4.696,0,8.505,3.808,8.505,8.504c0,3.843-2.55,7.091-6.051,8.144l-0.483,0.13
				l6.882,7.864l5.173,2.585c1.399,0.7,1.967,2.403,1.267,3.803c-0.65,1.299-2.164,1.882-3.499,1.399l-0.304-0.131l-5.171-2.585
				c-0.493-0.246-0.947-0.564-1.35-0.941l-0.381-0.396l-2.888-3.299l-1.869,7.478c-0.176,0.702-0.474,1.339-0.867,1.896
				l-0.313,0.403l5.467,4.997c0.704,0.645,1.233,1.454,1.539,2.354l0.135,0.457l2.091,8.362h0.622c1.565,0,2.834,1.27,2.834,2.834
				c0,1.455-1.095,2.652-2.504,2.816l-0.33,0.019h-2.614c-1.312,0-2.469-0.818-2.918-2.024l-0.106-0.338l-2.573-10.296l-8.531-7.799
				c-2.169-1.101-3.429-3.508-3.025-5.968l0.096-0.461l1.454-5.817l-0.914,0.652l-3.949,6.582c-0.804,1.342-2.546,1.776-3.888,0.971
				c-1.246-0.748-1.711-2.303-1.127-3.595l0.154-0.294l3.948-6.581c0.321-0.533,0.725-1.009,1.199-1.41l0.368-0.286l7.828-5.593
				c-1.491-1.532-2.409-3.624-2.409-5.932C20.055,8.388,23.862,4.58,28.558,4.58z M20.951,42.993c1.486,0.495,2.289,2.1,1.793,3.586
				l-1.206,3.616c-0.279,0.835-0.748,1.594-1.371,2.217l-4.696,4.695c0.569,1.072,0.403,2.433-0.5,3.335
				c-1.106,1.107-2.901,1.107-4.008,0l-1.397-1.397c-1.118-1.117-1.118-2.93,0-4.048l6.593-6.593l1.206-3.617
				C17.86,43.301,19.466,42.497,20.951,42.993z"/>
		</g>
	</g>
</g>
</svg>
