<?xml version="1.0" encoding="utf-8"?>
<!-- Generator: Adobe Illustrator 15.0.0, SVG Export Plug-In . SVG Version: 6.00 Build 0)  -->
<!DOCTYPE svg PUBLIC "-//W3C//DTD SVG 1.1//EN" "http://www.w3.org/Graphics/SVG/1.1/DTD/svg11.dtd">
<svg version="1.1" id="Calque_1" xmlns="http://www.w3.org/2000/svg" xmlns:xlink="http://www.w3.org/1999/xlink" x="0px" y="0px"
	 width="49.363px" height="56.693px" viewBox="8.406 9.652 49.363 56.693" enable-background="new 8.406 9.652 49.363 56.693"
	 xml:space="preserve">
<g>
	<path fill="#113653" d="M35.717,22.025l-4.749-10.892c15.007-4.82,26.654,2.408,26.654,17.554H35.124L35.717,22.025z
		 M47.969,44.604c-1.033,0-2.395,0-3.945,0L31.008,32.087h26.76c0,7.432-4.678,12.516-9.834,12.516H47.969z M47.929,49.056
		c11.227,0,11.509,17.29,0.783,17.29c-8.728,0-11.029-8.128-8.069-13.238l-4.604-4.604l-4.774,4.782
		C34.086,58.4,31.877,66.34,24.61,66.34c-12.732,0-11.799-17.291-0.782-17.291c1.148-0.008,2.287,0.2,3.36,0.611l5.097-4.906
		c-3.887,0.046-7.484,0.079-9.682,0.079c-7.28,0-9.996-6.116-9.996-12.747h6.958L9.556,22.083c-3.748-3.762,2.565-7.319,6.044-5.615
		l0.184,4.971l28.687,28.28c1.087-0.446,2.253-0.672,3.427-0.665L47.929,49.056L47.929,49.056z M24.148,61.307
		c4.472,0,4.354-7.233-0.323-7.233C19.15,54.073,18.847,61.307,24.148,61.307z M48.251,61.307c4.473,0,4.354-7.233-0.322-7.233
		C43.254,54.073,42.95,61.307,48.251,61.307z"/>
</g>
</svg>
