<?xml version="1.0" encoding="utf-8"?>
<!-- Generator: Adobe Illustrator 15.0.0, SVG Export Plug-In . SVG Version: 6.00 Build 0)  -->
<!DOCTYPE svg PUBLIC "-//W3C//DTD SVG 1.1//EN" "http://www.w3.org/Graphics/SVG/1.1/DTD/svg11.dtd">
<svg version="1.1" id="Calque_1" xmlns="http://www.w3.org/2000/svg" xmlns:xlink="http://www.w3.org/1999/xlink" x="0px" y="0px"
	 width="84.21px" height="61.613px" viewBox="0 0 84.21 61.613" enable-background="new 0 0 84.21 61.613" xml:space="preserve">
<g>
	<path fill="#103653" d="M11.832,47.799c-4.974-0.324-8.752-4.605-8.452-9.58V23.394c-0.3-4.975,3.478-9.258,8.452-9.581h6.306
		c1.891-0.012,3.713-0.707,5.133-1.956l8.798-7.589c2.674-2.108,6.356-2.397,9.327-0.734c2.971,1.664,4.649,4.953,4.25,8.335v37.876
		c0.399,3.382-1.279,6.671-4.25,8.336c-2.971,1.663-6.653,1.372-9.327-0.735l-8.809-7.589c-1.42-1.249-3.242-1.944-5.133-1.957
		L11.832,47.799L11.832,47.799z"/>
	<path fill="#103653" d="M71.213,30.806l8.38-8.381c1.672-1.669,1.672-4.378,0-6.048c-1.669-1.67-4.377-1.67-6.049,0l-8.38,8.38
		l-8.38-8.38c-1.67-1.67-4.38-1.67-6.049,0c-1.67,1.669-1.67,4.378,0,6.048l8.38,8.381l-8.38,8.38c-1.67,1.67-1.67,4.379,0,6.049
		c1.669,1.669,4.378,1.669,6.049,0l8.38-8.381l8.38,8.381c1.672,1.669,4.38,1.669,6.049,0c1.672-1.67,1.672-4.379,0-6.049
		L71.213,30.806z"/>
</g>
</svg>
