<?xml version="1.0" encoding="utf-8"?>
<!-- Generator: Adobe Illustrator 15.0.0, SVG Export Plug-In . SVG Version: 6.00 Build 0)  -->
<!DOCTYPE svg PUBLIC "-//W3C//DTD SVG 1.1//EN" "http://www.w3.org/Graphics/SVG/1.1/DTD/svg11.dtd">
<svg version="1.1" id="Calque_1" xmlns="http://www.w3.org/2000/svg" xmlns:xlink="http://www.w3.org/1999/xlink" x="0px" y="0px"
	 width="60.835px" height="56.692px" viewBox="7.752 3.629 60.835 56.692" enable-background="new 7.752 3.629 60.835 56.692"
	 xml:space="preserve">
<path fill="#113653" d="M67.904,45.021c-0.839-0.839-2.097-0.839-2.936,0c-0.627,0.629-1.048,1.048-1.677,1.677l-5.24-12.995
	c0-0.21-0.208-0.418-0.208-0.629l8.173,2.096c0.629,0.21,1.468,0,1.886-0.418c0.419-0.419,0.839-1.047,0.629-1.887L67.065,20.29
	c-0.629-3.563-3.564-6.078-6.917-6.078c-1.887,0-3.564,0.839-4.82,2.096L51.135,20.5H36.674l-2.305-6.707
	c-1.258-3.354-3.563-6.078-6.707-7.964c-4.402-2.935-10.27-2.935-14.671,0L8.799,8.344c-0.838,0.21-1.047,1.048-1.047,1.887
	l2.095,16.767c0.211,1.047,1.048,1.887,2.097,1.887h4.192c0.838,0,1.467-0.419,1.886-1.258l1.676-3.354
	c0.839,6.078,0,12.156-2.515,17.814l-2.095,4.611c-0.419-0.42-1.048-1.048-1.676-1.677c-0.839-0.839-2.096-0.839-2.936,0
	c-0.837,0.838-0.837,2.096,0,2.935c7.546,7.964,17.815,12.365,28.713,12.365c10.898,0,21.169-4.4,28.713-12.365
	C68.743,47.117,68.743,45.859,67.904,45.021z M24.31,52.776c2.725-5.449,8.593-9.222,14.881-9.222
	c6.287,0,12.155,3.772,14.881,9.222c-4.612,2.096-9.643,3.354-14.881,3.354C33.952,56.13,28.921,54.872,24.31,52.776z"/>
</svg>
