<?xml version="1.0" encoding="utf-8"?>
<!-- Generator: Adobe Illustrator 15.0.0, SVG Export Plug-In . SVG Version: 6.00 Build 0)  -->
<!DOCTYPE svg PUBLIC "-//W3C//DTD SVG 1.1//EN" "http://www.w3.org/Graphics/SVG/1.1/DTD/svg11.dtd">
<svg version="1.1" id="Calque_1" xmlns="http://www.w3.org/2000/svg" xmlns:xlink="http://www.w3.org/1999/xlink" x="0px" y="0px"
	 width="56.693px" height="56.693px" viewBox="7.128 3.487 56.693 56.693" enable-background="new 7.128 3.487 56.693 56.693"
	 xml:space="preserve">
<g>
	<path fill="#113653" d="M45.451,44.595c0.495-0.388,0.946-0.837,1.847-1.737L58.515,31.64c0.271-0.271,0.146-0.738-0.215-0.864
		c-1.324-0.459-3.048-1.321-4.658-2.934c-1.612-1.611-2.473-3.333-2.934-4.657c-0.126-0.363-0.592-0.486-0.864-0.215L38.625,34.188
		c-0.899,0.9-1.352,1.351-1.735,1.845c-0.458,0.586-0.849,1.22-1.167,1.889c-0.273,0.569-0.474,1.173-0.875,2.38l-0.521,1.56
		l-0.827,2.48l-0.774,2.325c-0.198,0.594-0.043,1.249,0.398,1.692c0.443,0.443,1.098,0.597,1.69,0.398l2.327-0.774l2.48-0.827
		l1.56-0.521l0,0c1.207-0.402,1.811-0.604,2.38-0.875C44.233,45.443,44.866,45.051,45.451,44.595z"/>
	<path fill="#113653" d="M62.027,28.128c2.394-2.395,2.394-6.277,0-8.672c-2.395-2.393-6.276-2.393-8.67,0l-0.361,0.361
		c-0.349,0.349-0.505,0.834-0.418,1.318c0.054,0.305,0.155,0.751,0.34,1.282c0.37,1.063,1.065,2.458,2.377,3.77
		c1.313,1.313,2.708,2.008,3.771,2.378c0.532,0.185,0.978,0.285,1.282,0.34c0.483,0.086,0.972-0.07,1.318-0.419L62.027,28.128z"/>
	<path fill="#113653" d="M10.448,6.809c-3.32,3.321-3.32,8.666-3.32,19.356v11.339c0,10.69,0,16.037,3.32,19.356
		c3.322,3.32,8.667,3.32,19.358,3.32h5.67c10.691,0,16.035,0,19.355-3.32c3.269-3.268,3.32-8.496,3.32-18.846l-7.988,7.989
		c-0.765,0.764-1.392,1.392-2.099,1.943c-0.828,0.647-1.726,1.202-2.674,1.653c-0.811,0.387-1.65,0.666-2.677,1.007l-6.553,2.185
		c-2.122,0.708-4.463,0.155-6.042-1.427c-1.583-1.581-2.134-3.922-1.428-6.044l0.774-2.325l1.348-4.041l0.063-0.186
		c0.341-1.026,0.621-1.868,1.007-2.677c0.452-0.95,1.007-1.846,1.652-2.675c0.552-0.708,1.18-1.333,1.944-2.098l11.357-11.357
		l3.151-3.152l0.36-0.361c2.029-2.026,4.688-3.04,7.345-3.04c-0.428-2.922-1.258-4.997-2.862-6.601
		c-3.32-3.321-8.665-3.321-19.356-3.321h-5.67C19.115,3.487,13.771,3.487,10.448,6.809z M19.176,23.331
		c0-1.173,0.952-2.126,2.125-2.126h18.427c1.173,0,2.126,0.952,2.126,2.126s-0.951,2.126-2.126,2.126H21.301
		C20.127,25.457,19.176,24.503,19.176,23.331z M19.176,34.669c0-1.174,0.952-2.127,2.125-2.127h7.087
		c1.174,0,2.127,0.952,2.127,2.127c0,1.174-0.953,2.126-2.127,2.126h-7.087C20.127,36.795,19.176,35.843,19.176,34.669z
		 M19.176,46.008c0-1.173,0.952-2.126,2.125-2.126h4.252c1.174,0,2.127,0.951,2.127,2.126s-0.953,2.126-2.127,2.126h-4.252
		C20.127,48.134,19.176,47.182,19.176,46.008z"/>
</g>
</svg>
