<?xml version="1.0" encoding="utf-8"?>
<!-- Generator: Adobe Illustrator 15.0.0, SVG Export Plug-In . SVG Version: 6.00 Build 0)  -->
<!DOCTYPE svg PUBLIC "-//W3C//DTD SVG 1.1//EN" "http://www.w3.org/Graphics/SVG/1.1/DTD/svg11.dtd">
<svg version="1.1" id="Calque_1" xmlns="http://www.w3.org/2000/svg" xmlns:xlink="http://www.w3.org/1999/xlink" x="0px" y="0px"
	 width="56.693px" height="56.693px" viewBox="322.028 316.264 56.693 56.693"
	 enable-background="new 322.028 316.264 56.693 56.693" xml:space="preserve">
<path fill="#113653" d="M350.375,316.264c-5.317,0-9.783,0.281-13.464,1.1c-3.714,0.826-6.8,2.234-9.174,4.608
	c-2.374,2.375-3.783,5.461-4.609,9.173c-0.817,3.682-1.099,8.148-1.099,13.466c0,5.316,0.281,9.783,1.099,13.464
	c0.826,3.712,2.235,6.799,4.609,9.173c2.375,2.374,5.46,3.783,9.174,4.608c3.682,0.819,8.147,1.1,13.464,1.1s9.783-0.281,13.464-1.1
	c3.715-0.826,6.8-2.234,9.175-4.608c2.374-2.375,3.783-5.461,4.609-9.173c0.817-3.682,1.099-8.148,1.099-13.464
	c0-5.318-0.281-9.785-1.099-13.466c-0.826-3.712-2.235-6.799-4.609-9.173c-2.375-2.374-5.46-3.783-9.175-4.608
	C360.157,316.545,355.692,316.264,350.375,316.264z M352.5,333.272c-2.685,0-4.808,2.036-6.048,4.252h6.759
	c1.564,0,2.834,1.27,2.834,2.835s-1.27,2.834-2.834,2.834h-8.443c-0.082,0.925-0.082,1.909,0,2.834h5.607
	c1.566,0,2.835,1.27,2.835,2.834c0,1.566-1.27,2.835-2.835,2.835h-3.923c1.241,2.215,3.363,4.252,6.048,4.252
	c1.515,0,3.031-0.66,4.373-2.003c1.105-1.106,2.9-1.11,4.008-0.003c1.108,1.106,1.11,2.9,0.004,4.008
	c-2.212,2.216-5.113,3.667-8.386,3.667c-4.027,0-7.457-2.183-9.784-5.284c-1.022-1.364-1.856-2.93-2.471-4.637h-1.208
	c-1.566,0-2.835-1.27-2.835-2.835c0-1.298,0.873-2.392,2.065-2.728c0.266-0.075,0.54-0.107,0.816-0.107
	c-0.061-0.937-0.061-1.897,0-2.834c-0.276,0-0.55-0.03-0.816-0.106c-1.192-0.336-2.065-1.43-2.065-2.729
	c0-1.565,1.269-2.835,2.835-2.835h1.208c0.615-1.707,1.449-3.273,2.471-4.635c2.327-3.103,5.757-5.286,9.784-5.286
	c3.273,0,6.173,1.451,8.386,3.667c1.106,1.107,1.104,2.903-0.004,4.009s-2.903,1.105-4.008-0.004
	C355.531,333.931,354.014,333.272,352.5,333.272z"/>
</svg>
