<svg xmlns="http://www.w3.org/2000/svg" xml:space="preserve" width="90.59" height="89"><path fill="#F8DCB8" d="M14.91 22.457c-2.578 11.783-3.986 24.498-1.073 36.348 1.547 6.301 4.203 11.917 9.026 16.398 6.616 6.151 15.91 7.984 24.616 8.42 3.394.165 11.19-1.261 11.19-5.98 0-4.948-7.79-5.809-11.19-5.979 2.565.131-1.332-.237-1.825-.325 1.213.276 1.248.26.106-.051-2.611-.77 1.555.815-.818-.298-2.171-1.017-2.749-1.566-4.85-4.003-.481-.557-2.081-3.573-2.764-5.179-.973-2.291-1.536-4.645-1.947-7.089-1.789-10.615-.368-21.834 1.912-32.262 1.019-4.657-8.631-5.978-11.191-5.978-4.271 0-10.14 1.164-11.192 5.978z" opacity=".75"/><g fill="#103653"><path d="M36.134 37.2h.008a9.443 9.443 0 0 0 5.425-2.268 9.587 9.587 0 0 0 2.975-4.999 1.517 1.517 0 0 0-1.459-1.913c-.656 0-1.236.426-1.438 1.043h-.025v.085c-.12.434-.251.864-.396 1.29l-.018.04-.101.209a6.17 6.17 0 0 1-.285.517 9.613 9.613 0 0 1-.389.573l-.066.081-.052.06a7.639 7.639 0 0 1-.802.807l-.17.142-.165.118a7.13 7.13 0 0 1-.856.535 2.076 2.076 0 0 1-.386.206.642.642 0 0 0-.122.039c-.093.036-.184.07-.28.101-.356.125-.723.22-1.097.285l-.099.016-.085.015h-.002c-.008.005-.019.005-.026.008l-.093-.003a1.513 1.513 0 0 0-1.51 1.511 1.521 1.521 0 0 0 1.514 1.502zm8.197 22.54c.072.253.207.483.399.676l.297.229c.201.116.429.186.664.203l.292.04.093.013c.035.003.079-.003.113.005h.031l.1-.005c.139-.015.293-.032.448-.061l.06-.013c.232-.071.455-.165.669-.278.325-.212.569-.53.691-.899.06-.193.071-.399.026-.598a1.147 1.147 0 0 0-.186-.58l-.23-.295a1.516 1.516 0 0 0-.681-.389l-.39-.052c-.219 0-.432.046-.629.136l-.174-.022-.129-.016-.051-.002a1.105 1.105 0 0 0-.537.133 1.552 1.552 0 0 0-.925 1.393l.049.382zm6.712 5.986a1.49 1.49 0 0 0-1.057.434l-.096.081-.109.09-.12.079a3.465 3.465 0 0 1-.387.212c-.06.031-.12.061-.181.089l-.099.038a7.557 7.557 0 0 1-2.628.477h-.223c-.481 0-.963-.033-1.442-.102l-.054-.009a8.558 8.558 0 0 1-1.305-.344 3.647 3.647 0 0 0-.236-.096l-.058-.028a4.449 4.449 0 0 1-.489-.28c-.029-.022-.058-.048-.094-.07a.394.394 0 0 0-.135-.099l-.037-.033a1.442 1.442 0 0 0-.383-.274l-.109-.077.042.047a1.507 1.507 0 0 0-1.99.767c-.203.454-.168.979.093 1.402l-.119-.046.329.32c1.728 1.69 4.484 1.942 5.977 1.942h.006c1.49 0 4.252-.255 5.98-1.942a1.51 1.51 0 0 0-.011-2.133l-.007-.006a1.479 1.479 0 0 0-1.058-.439zM32.591 55.683h.01c1.99-.017 2.953-1.032 3.415-1.885.932-1.72.558-4.009-.263-5.285a3.519 3.519 0 0 0-2.915-1.566c-.854 0-2.421.342-3.359 2.643-.378 1.217-.293 3.242.607 4.595.585.884 1.427 1.389 2.505 1.498zm15.597-17.204c.136-.002.271-.021.402-.056a8.736 8.736 0 0 0 4.082-3.276 8.431 8.431 0 0 0 1.437-4.785 1.513 1.513 0 0 0-3.019-.093l-.005.094c0 .159 0 .315-.01.474l-.013.19-.008.108a7.844 7.844 0 0 1-.212.9 4.97 4.97 0 0 1-.207.553c-.022.04-.038.071-.038.095a7.445 7.445 0 0 1-.479.845l-.051.076-.083.12-.013.019-.053.067a.63.63 0 0 1-.059.075l-.07.082-.083.101a7.213 7.213 0 0 1-.873.821 7.137 7.137 0 0 1-.845.515l-.103.048-.129.06a1.548 1.548 0 0 0-1.039 1.856 1.544 1.544 0 0 0 1.471 1.111zm10.557 17.204h.012c1.076-.108 1.918-.613 2.505-1.499.896-1.353.981-3.378.602-4.602-.933-2.294-2.501-2.636-3.354-2.636-1.164 0-2.311.614-2.916 1.566-.823 1.278-1.193 3.567-.263 5.288.458.85 1.426 1.866 3.414 1.883z"/><path d="M70.743 76.98c4.175-4.237 5.837-7.168 6.974-10.528a14.342 14.342 0 0 0 4.203-1.769c.04-.021.077-.051.115-.075a12.078 12.078 0 0 0 3.617-4.094c1.929-3.376 1.895-6.907 1.594-9.927a7.09 7.09 0 0 0-.957-3.152c-.036-.066-.079-.126-.117-.188a6.724 6.724 0 0 0-4.724-2.754c-.042-.007-.081-.007-.119-.013l.411-1.911.029-.158c.588-4.143.919-7.512-.213-13.187-1.472-7.378-5.149-12.849-12.303-18.299-5.851-4.456-14.433-7.199-23.555-7.531l-.113-.002c-17.86.282-30.791 8.298-35.472 21.987a34.059 34.059 0 0 0-.754 2.521c-1.292 4.977-1.054 10.984.58 15.063l.26 1.47a7.47 7.47 0 0 0-1.196.054 6.769 6.769 0 0 0-4.78 2.763 2.407 2.407 0 0 0-.118.185 7.188 7.188 0 0 0-.953 3.149c-.298 3.021-.336 6.555 1.563 9.873a12.145 12.145 0 0 0 3.648 4.153c.038.024.074.054.115.075a14.405 14.405 0 0 0 4.23 1.773c1.046 3.71 3.453 7.788 7.156 11.32 0 0 1.694 1.812 4.609 3.621 0 0 3.902 2.695 7.94 3.754l2.923.734c2.616.521 5.581.798 8.7.798 4.375 0 11.059-1.093 14.526-2.401 6.78-2.24 12.181-7.304 12.181-7.304zM16.705 64.106a2.215 2.215 0 0 0-2.004-1.806l-.322-.022a10.02 10.02 0 0 1-3.498-1.326 7.805 7.805 0 0 1-2.283-2.646c-1.322-2.312-1.261-5.003-1.029-7.332l.008-.099c.022-.39.127-.775.31-1.12a2.367 2.367 0 0 1 1.639-.87 2.975 2.975 0 0 1 2.179.554 2.211 2.211 0 0 0 3.492-2.171l-.931-5.311a1.995 1.995 0 0 0-.145-.481c-1.354-3.201-1.548-8.327-.474-12.468.195-.753.416-1.49.657-2.19 5.525-16.15 21.95-18.836 31.289-18.993 8.208.311 15.847 2.722 20.969 6.625 6.303 4.803 9.388 9.333 10.644 15.641.991 4.958.721 7.831.185 11.616l-1.047 4.848a2.21 2.21 0 0 0 1.686 2.635 2.21 2.21 0 0 0 1.301-.106 3.119 3.119 0 0 1 1.613-.191 2.314 2.314 0 0 1 1.574.859c.182.349.291.733.309 1.119a.863.863 0 0 0 .01.101c.242 2.447.285 5.032-1.061 7.391a7.709 7.709 0 0 1-2.252 2.585 9.833 9.833 0 0 1-3.525 1.328l-.313.041a2.219 2.219 0 0 0-1.85 1.65c-1.593 6.229-8.138 13.879-19.213 16.943-2.828.842-6.685 1.327-10.588 1.327-3.41 0-6.591-.355-9.164-1.002a29.029 29.029 0 0 1-3.625-1.264c-.126-.054-.251-.113-.375-.167-.424-.184-.842-.38-1.256-.584a26.837 26.837 0 0 1-.581-.306c-.4-.215-.804-.427-1.19-.653-.52-.31-1.03-.63-1.528-.97l-.084-.06c-5.361-3.686-8.721-8.774-9.527-13.125z"/></g></svg>