<?xml version="1.0" encoding="utf-8"?>
<!-- Generator: Adobe Illustrator 15.0.0, SVG Export Plug-In . SVG Version: 6.00 Build 0)  -->
<!DOCTYPE svg PUBLIC "-//W3C//DTD SVG 1.1//EN" "http://www.w3.org/Graphics/SVG/1.1/DTD/svg11.dtd">
<svg version="1.1" id="Calque_1" xmlns="http://www.w3.org/2000/svg" xmlns:xlink="http://www.w3.org/1999/xlink" x="0px" y="0px"
	 width="841.9px" height="597.197px" viewBox="0 0 841.9 597.197" enable-background="new 0 0 841.9 597.197" xml:space="preserve">
<path fill="#103857" d="M982.5,1564.302c1.576-0.822,3.322-1.27,5.1-1.302c4,0,7.604,2.101,9.604,5.302
	c6.411-10.322,19.975-13.492,30.296-7.08c1.916,1.188,3.638,2.666,5.104,4.379c-0.661-2.514-1-5.1-1-7.699
	c0-17,14.104-30.801,31.5-30.801c17.179-0.187,31.25,13.586,31.438,30.762c0.021,1.855-0.126,3.71-0.438,5.539
	c1.638-0.389,3.313-0.59,5-0.6c8,0,15,4.198,18.696,10.397c3.158-4.894,9.498-6.618,14.7-4
	c5.703-16.377,23.604-25.026,39.979-19.324c0.72,0.25,1.426,0.523,2.116,0.824c1.605-16.088,15.234-28.281,31.4-28.104
	c10.6,0,20,5.104,25.7,13c5.871-5.452,13.586-8.488,21.6-8.5c17.176-0.145,31.214,13.666,31.354,30.848
	c0.022,2.924-0.364,5.837-1.152,8.652c3.771-0.442,7.521,1.019,10,3.896c0.832-0.313,1.711-0.48,2.6-0.5
	c1.063-16.563,14.905-29.395,31.5-29.196c12.2,0,22.801,6.801,28,16.696c1.135-0.343,2.314-0.512,3.5-0.5c1.604,0,3.2,0.304,4.604,1
	c4.896-16.862,22.547-26.563,39.409-21.663c4.728,1.372,9.069,3.825,12.688,7.163c5.7-8,15-13,25.6-13c16.5,0,30,12.398,31.4,28.104
	c3.871-1.59,8.016-2.403,12.2-2.396c14,0,25.692,8.801,29.896,21c1.577-0.822,3.325-1.27,5.104-1.301c4,0,7.6,2.101,9.6,5.191
	c4.94-8.062,14.511-12.019,23.7-9.799c-0.336-1.814-0.503-3.655-0.5-5.5c0-17,14.1-30.804,31.5-30.804
	c17.175-0.146,31.219,13.654,31.368,30.83c0.021,2.55-0.271,5.093-0.868,7.57c7.925-9.209,21.813-10.25,31.021-2.326
	c1.714,1.474,3.188,3.203,4.373,5.127c3.168-4.948,9.577-6.681,14.808-4c4.435-12.642,16.401-21.075,29.8-21
	c16.397,0,30,12.299,31.397,28c1.772-1.092,3.813-1.681,5.896-1.701c1.9,0,3.7,0.5,5.3,1.301c0.108-6.071,5.12-10.909,11.194-10.803
	l0.104,0.002c4,0,7.398,2,9.398,5c1.943-1.326,4.249-2.022,6.602-2c2.5,0,4.806,0.701,6.604,2c1.8-3.799,5.8-6.5,10.396-6.5h0.5v511
	h-842v-531.687c3.935-1.615,8.147-2.434,12.398-2.4C966.5,1543.4,978.3,1552.099,982.5,1564.302L982.5,1564.302z"/>
<path fill="#6FC3C6" d="M827.3,60c-2.541-5.7-9.223-8.261-14.922-5.72c-1.938,0.864-3.595,2.258-4.778,4.02
	c-1.938-1.331-4.245-2.029-6.6-2c-1.9,0-3.6,0.4-5.2,1.2c-0.2-6-5.1-10.8-11.3-10.8c-3.6,0-6.8,1.699-8.9,4.3
	c-5.321-10.689-16.252-17.436-28.192-17.398c-13.407-0.104-25.394,8.34-29.808,21c-1.545-0.812-3.255-1.256-5-1.302
	c-2.692,0-5,0.9-7,2.302c-1.977-10.179-10.934-17.494-21.3-17.399c-9.5,0-17.5,6-20.396,14.3c-0.951-0.396-1.973-0.601-3-0.601
	c-2.46,0.016-4.766,1.204-6.2,3.2c-5-3.302-11-5.2-17.5-5.2c-4.925-0.015-9.786,1.115-14.2,3.301c-0.6-11.101-10-20-21.6-20
	c-10.404-0.144-19.417,7.188-21.4,17.399c-2.015-1.521-4.477-2.33-7-2.302c-1.8,0-3.5,0.5-5,1.302
	c-4.411-12.66-16.395-21.104-29.8-21c-16.161-0.17-29.741,12.104-31.2,28.198c-3.869-1.595-8.015-2.409-12.2-2.398
	c-8.396,0-16,3.2-21.6,8.398c-5.7-7.8-15-13-25.604-13c-12.628-0.044-24.053,7.48-29,19.102c-1.755-1.043-3.758-1.596-5.8-1.602h-1
	c-3.634-13.746-16.08-23.316-30.3-23.3c-12.188-0.04-23.299,6.979-28.5,18c-0.95-0.396-1.97-0.601-3-0.601c-0.8,0-1.7,0.2-2.5,0.5
	c-2.173-2.545-5.354-4.008-8.7-4c-5,0-9.3,3.2-10.7,7.601c-13.176-11.443-33.135-10.042-44.579,3.136
	c-0.605,0.695-1.179,1.419-1.721,2.164c-9.083-8.438-22.262-10.782-33.7-6c-1.508-16.109-15.119-28.372-31.3-28.198
	c-13.369-0.063-25.301,8.375-29.7,21c-1.575-0.826-3.322-1.271-5.1-1.302c-2.6,0-5,0.9-7,2.302
	c-1.97-10.142-10.871-17.445-21.2-17.399c-11.6,0-21,8.899-21.6,20c-4.444-2.2-9.341-3.33-14.3-3.301c-6.5,0-12.5,1.898-17.5,5.2
	c-1.437-1.996-3.741-3.187-6.2-3.2c-1,0-2,0.2-3,0.5c-3.073-8.603-11.267-14.305-20.4-14.199
	c-10.366-0.095-19.323,7.223-21.3,17.399c-3.483-2.593-8.136-2.979-12-1C32.215,47.088,15.86,38.278,0,42.4v113h842L841.9,61
	c-2.143-2.08-5.018-3.229-8-3.2c-2.4,0-4.7,0.802-6.604,2.102L827.3,60L827.3,60z"/>
<path fill="#007595" d="M809,88.3c-1.572-0.709-3.275-1.084-5-1.1c-2.7,0-5,0.8-7,2c-1.8-9-10.6-15.801-21.3-15.801
	c-9.5,0-17.5,5.398-20.5,13c-0.933-0.333-1.912-0.502-2.9-0.5c-2.396-0.01-4.672,1.055-6.2,2.898
	c-9.663-5.802-21.571-6.438-31.8-1.698c-0.6-10.2-10-18.2-21.6-18.2c-10.604,0-19.5,6.801-21.3,15.801c-1.9-1.301-4.308-2-6.9-2
	c-1.752-0.031-3.49,0.311-5.1,1c-4.2-11-16-19-29.7-19c-16.5,0-30,11.3-31.3,25.6c-11.452-4.239-24.289-2.15-33.808,5.5
	c-6.313-7.598-15.722-11.936-25.6-11.8c-7.482-0.008-14.758,2.453-20.7,7c-1.396-4-5.7-7-10.7-7c-3.282-0.009-6.425,1.328-8.692,3.7
	c-1.783-0.61-3.72-0.61-5.5,0c-5.809-10.146-16.714-16.292-28.4-16c-14.7,0-27,9-30.4,21.1c-0.333-0.013-0.666-0.013-1,0
	c-2.1,0-4.1,0.5-5.8,1.5c-5.517-10.881-16.804-17.613-29-17.3c-10.6,0-20,4.602-25.7,11.7c-9.514-7.652-22.35-9.741-33.8-5.5
	C338,69,324.5,57.7,308,57.7c-13.8,0-25.6,8-29.8,19c-1.572-0.712-3.275-1.086-5-1.101c-2.7,0-5,0.8-7,2
	c-1.8-9-10.6-15.802-21.3-15.802c-11.6,0-21,8-21.6,18.2c-10.215-4.616-22.037-3.981-31.7,1.699c-1.55-1.873-3.869-2.94-6.3-2.899
	c-1,0-2,0.2-2.9,0.5c-3-7.5-11-13-20.5-13c-10.6,0-19.5,6.899-21.3,15.899c-3.545-2.422-8.103-2.802-12-1c-4.2-11-15.9-19-29.7-19
	C87.3,61.946,76.471,67.992,70.6,78c-2-2.398-5.3-3.898-8.9-3.898c-6.1,0-11.1,4.398-11.3,9.8c-1.625-0.771-3.4-1.182-5.2-1.199
	c-2.5,0-4.7,0.699-6.6,2c-2-2.801-5.5-4.601-9.4-4.601c-4.6,0-8.5,2.5-10.3,6c-1.9-1.2-4.2-2-6.7-2c-5,0-9.2,3-10.7,6.898L0,143.4
	h842v-74c-1.031-0.078-2.065-0.11-3.1-0.102c-13.9,0-25.604,8-29.808,19L809,88.3L809,88.3z"/>
<path fill="#332F1C" d="M121.6,43.7c0,0.399-0.4,0.5,0,0.699c0,0.2-0.2,0.2-0.4,0.2l0.3,0.198l-0.2,0.602
	c-0.1-0.3-0.2-0.3-0.6-0.199c0-0.5,0.2-0.801,0.6-1c-0.4,0-0.2,0-0.4-0.301C121,43.6,121.3,43.6,121.6,43.7z M119.1,52.8l-0.3,0.2
	c0,0.102,0.2,0.102,0.1,0.3c-0.3,0.2-0.1,0.5-0.5,0.7C118,53.4,118.5,52.5,119.1,52.8z M122.3,41.2l0.4-0.5
	c-0.296-1.074-0.364-2.198-0.2-3.301l0.3-0.102c0.7,0.5,0.4,2,0.8,2.899c0,0,1.4,0.2,1.7,0.4c0.183,0.75-1,0.898-1,0.898
	c0.5,0.8,0.9,3-0.6,3c-1-0.101-0.7-1.5-1.1-2.301C122.2,42.1,122,41.6,122.3,41.2z M116.1,44.4c0,0-0.784-0.76,0.5-1.699
	c-0.2-1-0.9-1.5-1.1-2.5c1.3-0.601,1.4,1.399,2,2v0.101l1.2,0.101c0.4,0.101,0.7,0.801,0.2,1l-0.2,0.101l-0.1,0.102
	c0.5,0.601,0.6,2.199,0.3,3l-0.5,0.199c-0.1,0-1.5-0.5-1.7-1.199c0-0.301,0.3-1-0.2-1L116.1,44.4z M139.6,40.4v0.2
	c0,0.3-0.2,0.398-0.3,0.601H139c-0.3-0.2-0.9-0.101-1.1,0.101c-0.1,0.301,0.3,0.5,0.4,0.801c0.3,0.398,0.2,0.898,0.1,1.3l-0.1,0.2
	c-0.3,0-0.7,0.398-0.9,0V43.5c-4.215,3.619-2.1-0.601-2.1-0.601c0-0.199,0.4-0.5,0.2-0.699h-0.2c-0.4-0.2-0.4-0.9,0-1l0.3-0.101
	C138.159,39.775,139.6,40.4,139.6,40.4L139.6,40.4z M110,46.4c-0.4-0.899,0-2.3,0.7-2.699c0.6-0.301,0.4,1.699,0.3,2.3
	c0,0.2,0.5,0,0.7,0c0,0,0.9-0.199,0.4,1.301c0.3,0.899,0.4,2.5-0.6,2.699c-0.9-0.199-1.3-0.898-1.5-1.699h-0.5l-0.2-0.101
	c0.054-0.305,0.02-0.616-0.1-0.899c0-0.301,0.4-0.301,0.5-0.601h0.1c0.2,0,0.2-0.2,0.3-0.301H110z M132.7,47.7
	c0.7,0,1,0.699,1.2,1.3c0.4,0.7,1,1.399,0.8,2.3c0.063,0.352,1,1,1,1c0.1,0.5-0.3,1-0.7,0.602c0-0.102-0.2,0.801-0.3,1
	c0.109,2.22-1.5,2-1.5,2c-0.9-0.199-0.6-1.699-1.2-2.3c0-0.5,1-1.302,1.1-1.5l0.4-0.7C133.7,51.2,132.3,48.4,132.7,47.7z M120.8,49
	c0,0,1.4-0.271,2.7,1.7h0.3c0.9,0,2.3,0.3,1.6,1.199h-0.8L124.5,52c0.1,0.5,0.7,1.2,1.1,1.602c0.4,0.898-0.3,1.198-1,1.398
	c-1.3,0.3-2.4-2-2.4-2c0.2-1,0.6-2.3-0.3-2.8c0,0-1.4-0.101-1.5-0.7C120.4,49.2,120.6,49.2,120.8,49z"/>
<path fill="#332F1C" d="M123.4,57.1c0.519-0.669-0.2,2.198,0.3,3l1.1,0.398c0.6,0.199,1,2.399-0.1,1.602
	c-0.2-0.302-0.2-0.602-0.6-0.7c0.241,3.375-0.8,3-0.8,3c-0.4,0-1-1.699-1-1.699h-0.2c-1.1,0.199-0.7-1-0.4-1.801
	c0.1-0.3,0.5-0.5,0.7-0.8C122.4,59.1,123.4,57.1,123.4,57.1z M137.8,57.6c0.7,0.398,0,1.101-0.8,1c-0.5,0-1.4,0.8-1,1.198l0.8,0.399
	c0.885,0.403,0.1,1.9-0.3,1.601h-0.1c0.05,3.336-2.7,1.899-2.6,1c0,0-1.568,0.43-0.4-2.3C133.4,60.5,134.435,58.197,137.8,57.6
	L137.8,57.6z"/>
<path fill="#103754" d="M59.227,86.887c-0.105,0.457-0.561,0.741-1.018,0.637h-0.001c-3.245-0.749-6.788-1.857-10.756-3.344
	c1.838,4.48,3.288,9.118,4.279,13.841c0.075,0.464-0.24,0.899-0.704,0.978c-0.434,0.069-0.851-0.202-0.96-0.628
	c-0.813-3.869-1.919-7.672-3.31-11.372c-0.055,0.521-1.594,7.979-1.51,10.064c0.019,0.468-0.345,0.861-0.813,0.883h-0.001
	l-0.035,0.001c-0.456,0-0.831-0.359-0.849-0.815c-0.092-2.3,1.675-12.043,1.671-13.652c-0.536,0.854-4.837,7.285-5.504,9.648
	c-0.126,0.451-0.594,0.716-1.045,0.588l-0.002-0.001c-0.452-0.127-0.714-0.598-0.587-1.049c0.74-2.625,5.173-9.245,5.668-10.04
	l-0.08-0.035c-3.568-1.605-7.256-3.27-10.987-3.345c-0.469-0.01-0.841-0.396-0.832-0.865V78.38v-0.001
	c0.009-0.47,0.36-0.871,0.867-0.832c4.028,0.082,8.002,1.854,11.521,3.438c-0.668-1.549-4.953-12.04-6.879-15.471
	c-0.22-0.415-0.063-0.931,0.351-1.15c0.401-0.213,0.9-0.072,1.131,0.318c1.979,3.522,5.85,13.029,6.277,14.055
	c-0.02-2.032,0.432-9.112,0.432-11.138c0-0.471,0.381-0.852,0.85-0.852c0.47,0,0.85,0.381,0.85,0.852
	c0,2.083-0.388,8.308-0.423,9.661c0,0,4.009-6.739,4.13-7.762c0.051-0.463,0.468-0.799,0.932-0.747l0.011,0.001
	c0.466,0.056,0.8,0.479,0.745,0.942c-0.165,1.403-5.779,10.938-5.779,10.938c0.018,0.516,8.267,4.435,11.725,5.232
	C59.048,85.974,59.332,86.43,59.227,86.887L59.227,86.887z"/>
<path fill="#103653" d="M208.245,31.307c0.326,0.337,0.316,0.875-0.021,1.2l0,0c-2.396,2.313-5.258,4.68-8.667,7.194
	c4.756,0.895,9.421,2.218,13.937,3.958c0.438,0.17,0.655,0.662,0.485,1.103c-0.17,0.438-0.663,0.653-1.101,0.483
	c-3.687-1.428-7.477-2.571-11.337-3.426c0.401,0.33,5.819,5.684,7.613,6.752c0.404,0.24,0.536,0.763,0.296,1.165l-0.018,0.03
	c-0.249,0.382-0.754,0.499-1.146,0.268c-1.979-1.177-9.182-7.97-10.535-8.845c0.423,0.904,3.471,8.029,5.089,9.875
	c0.309,0.353,0.274,0.888-0.077,1.197l-0.002,0.002c-0.354,0.309-0.89,0.271-1.199-0.08c-1.797-2.052-4.921-9.343-5.327-10.224
	c0,0-6.769,4.351-8.867,7.437c-0.264,0.389-0.793,0.489-1.181,0.226l0,0c-0.388-0.264-0.534-0.774-0.225-1.181
	c2.265-3.333,5.915-5.698,9.162-7.785c-1.663-0.283-12.793-2.41-16.721-2.667c-0.468-0.039-0.814-0.45-0.774-0.919
	c0.039-0.455,0.43-0.799,0.887-0.776c4.033,0.265,14.112,2.2,15.204,2.399c-1.715-1.092-7.403-5.329-9.103-6.435
	c-0.394-0.256-0.506-0.782-0.25-1.177c0.255-0.395,0.782-0.506,1.176-0.25c1.746,1.137,6.755,4.855,7.869,5.622
	c0,0-3.462-7.034-4.255-7.691c-0.361-0.295-0.414-0.826-0.12-1.188c0-0.001,0.001-0.001,0.001-0.003l0.007-0.009
	c0.3-0.36,0.836-0.41,1.197-0.109c1.086,0.902,6.021,10.809,6.021,10.809c0.44,0.265,8.225-4.513,10.779-6.977
	C207.38,30.959,207.919,30.969,208.245,31.307L208.245,31.307z"/>
<path fill="#FDCD8C" d="M33.891,61.086c-0.398-0.013-1.731,0.654-1.231,1.654s2.348,1.672,3.5,0.835
	c1.34-0.976,3.103-3.025,0.04-5.554c-1.675-1.383-4.096-1.615-3.652,0.219C32.992,60.075,33.891,61.086,33.891,61.086z
	 M39.266,31.896c-0.398-0.014-1.731,0.655-1.231,1.655s2.348,1.671,3.5,0.834c1.341-0.977,0.181-1.739,0.631-4.489
	c0.351-2.146-4.686-2.681-4.242-0.845C38.368,30.885,39.266,31.896,39.266,31.896z M108.425,80.177
	c-0.044,0.396,0.514,1.776,1.55,1.358c1.037-0.418,1.855-2.206,1.113-3.422c-0.864-1.414-1.719-0.319-4.424-0.989
	c-2.108-0.521-3.046,4.456-1.183,4.161C107.344,80.99,108.425,80.177,108.425,80.177z M30.453,19.834
	c0.398-0.013,1.731,0.654,1.231,1.654s-2.348,1.672-3.5,0.834c-1.341-0.975-3.104-3.024-0.041-5.553
	c1.675-1.383,4.096-1.615,3.652,0.219S30.453,19.834,30.453,19.834z M609.785,99.656c-0.398-0.012-1.731,0.655-1.231,1.655
	s2.351,1.671,3.5,0.834c1.341-0.977,3.104-3.024,0.041-5.555c-1.675-1.383-4.096-1.613-3.647,0.221
	C608.887,98.644,609.785,99.656,609.785,99.656z"/>
<path fill="#568A6E" d="M74.125,65.972c2.688,1.802,7.291,3.802,7.391,3.9v0.1l-0.233,0.251c-0.5-0.3-5.842-1.734-6.542-2.333
	c-0.155-0.117-9.208-6.208-9.208-6.208c-1.1-0.9-3.817-4.91-3.817-4.91c-1-1.5-5.3-10.5-5.5-10.901l-0.801-2.698
	c-0.2-0.7,0.1-8.998,0.1-8.998c0-0.3,0.7-3.898,0.9-4.601l1.6-4c0.4-0.699,3.209-6.213,6-8.399c0,0,5.5-4.8,6-5.398L80.534,5.64
	c1.91-0.727,8.55-2.517,10.25-2.917l5.083-0.375c2.2-0.104,8.648,0.624,8.648,0.624c3.4,0.2,12.5,6.601,12.5,6.601
	s4.7,7.8,5.1,8.699c0.4,1.398,1.8,7.198,1.8,7.198v7.399l-0.8,7.402c-0.3,1.5-1.3,6.3-1.5,7.198c-0.2,0.899-1,3.302-1.1,3.5
	l-2.1,5.602c0,0-2.748,5.211-3.3,6.101c0,0-1.506,2.102-2.9,3.2c-0.2,0-3.3,2.3-3.3,2.3s-2.523,1.396-2.6,1.399
	c-4.894,1.5-9.2,1.5-9.2,1.5l-0.9-0.199c0.4-0.4,0.7-1,0.3-1.2l1.3,0.2c0,0,6.3-0.7,6.7-0.799l5.4-2.699c0,0,2.8-2.101,3.1-2.801
	c0.7-0.699,3.6-5.602,4.3-7c0,0,3.7-12.602,4.2-14.899c0,0,1.3-9.8,1.1-11v-4.502c-0.2-1.8-0.7-3.3-1.2-5c-0.4-2-1.2-3.601-2-5.3
	c-0.2-0.5-0.7-1.3-0.7-1.3c-0.3-0.5-4.8-5.801-5-5.801l-1.9-1.101c0,0-3.7-2.2-5.3-2.8L92.95,4.182c0,0-9.935,1.89-11.035,2.39
	c-1.9,0.899-5.3,2.801-5.3,2.801s-4.4,1.899-6,3.399l-9.4,9.2c-1.8,2.9-3.4,6-4.2,9.9c-0.1,0.1-0.6,3.199-0.6,3.199
	c-0.14,0.453,0.451,7.902,0.451,7.902s5.173,11.531,5.373,11.73c0.6,0.7,4.376,5.766,4.576,5.866L74.125,65.972L74.125,65.972z"/>
<path fill="#332F1C" d="M74.06,104.908c0.934-1.089,3.287-14.955,3.38-15.573c1.758-11.707,3.164-17.923,4.405-19.462
	c0.085-0.252,13.356-0.52,13.586-0.136c0.12,0.134,0.226,0.362,0.152,0.734c-0.049,0.244-0.538,1.39-1,1.856l0.013,0.011
	C93.759,73.51,91.44,89.8,91.993,92.523c0.03,0.147-0.008,0.3-0.103,0.416c-0.095,0.116-0.237,0.184-0.387,0.184
	c-0.056,0-0.12,0.014-0.206,0.112c-1.266,1.46,1.209,22.634,1.25,23.134c0.747,5.464,0.748,6.305,0.359,6.751
	C92.777,123.268,72.934,106.222,74.06,104.908z M92.165,122.097c0.007-1.046-2.999-27.931-1.623-29.518
	c0.122-0.141,2.219-19.536,3.271-20.862c0.016-0.021,0.034-0.04,0.053-0.057c0.522-1.187-11.077-1.015-11.338-1.043
	c-0.766,1.072-4.247,19.851-4.303,20.106c-0.048,10.918-2.316,13.564-3.406,14.835C74.292,106.174,92.044,121.983,92.165,122.097z"
	/>
<path fill="#332F1C" d="M127.9,34.599h0.5c1,0,1.9,0.301,2.8,0.5c0.9,0.2,1.8,0.301,2.5,0.601c0.4,0,0.7,0.301,1,0.399
	c1,0.301,2.1,0.398,3.1,0.801c0.7,0.3,1.4,0.899,2,1.3c0.808,0.58,1.546,1.251,2.2,2l0.5,0.5c2.3,2.7,3.4,6.7,3,11.602
	c0,2.8-1,4.5-1.7,6.601c-0.305,1.051-0.742,2.06-1.3,3c-0.6,0.8-1.3,1.399-1.9,2.399c-1,1.601-1.8,3.398-2.6,5
	c-0.2,0.3-1.6,14-1.7,15c0,0-0.7,10.699-0.8,11c-0.1,1.3,0,5.099,0,5.099s-1.3,28.1-1.6,28.1c-1.4-0.2-11.4-3.399-11.8-3.199
	c0,0,1.1-9.401,1.1-9.702l0.4-3.999l0.3-2.399c0.6-3,0-6,0.2-9c0.3-4.301,0.3-8.199,0-12.398c-0.2-0.801-0.4-11.7-0.5-11.902
	c0.1-0.5,0.3-2.898-0.2-3.398c0,0-5.3-1-6.9-2.102c-2.2-0.699-3.6-2.199-5.5-3.1c-2.2-2.9-5.1-5.7-5.5-10.5c-0.1-1.5-0.2-3.2,0-4.5
	c0.492-2.77,3.1-7.9,3.3-7.802c2.8-4,6.8-7.3,12.5-8.601l3-0.699C125.4,34.899,126.3,34.498,127.9,34.599L127.9,34.599z
	 M144.5,48.198c-0.4-3.7-1.6-5.7-3.6-7.898c-1-1-2.5-2.2-3.9-2.7l-2.1-0.602c-2-0.6-4.5-1.5-6.7-1.6c-1.9-0.2-2.8,0.399-4.4,0.8
	c-2.2,0.5-4.1,1-6,1.7c-1.957,0.699-3.733,1.827-5.2,3.3c-0.8,0.7-1.8,1.602-2.3,2.3l-0.3,0.7c-0.4,0.602-1,1-1.4,1.7
	c-0.7,1.1-1.1,2.399-1.6,3.8l-0.6,1.8c-0.3,1.5-0.2,2.802-0.1,4.2c-0.061,2.527,0.751,5,2.3,7c1.2,1.7,2.4,3.399,3.8,4.5l1.6,1
	c0.6,0.399,1.2,0.899,1.7,1c0,0,2.9,1.2,4.1,1.399l3.2,0.601c0,0,2.4,0.102,2.8,0c2.2-0.398,8.3-1.2,8.3-1.2
	c0.8-0.1,2.7-0.5,2.7-0.5c0.2,0,0.2-0.1,0.2-0.198c0-0.5,0-0.802,0.2-1l0.1-0.2l2.2-4c1.1-2,2.8-3.399,3.5-5.8
	c0.3-1.899,1.5-3,1.5-5v-0.102c0.3-1.601,0.2-3.398,0-4.898V48.198L144.5,48.198z M134.8,93.806c0.1-0.801,0.5-9.399,0.5-10
	c0.2-1.801,0.6-4,0.6-5.602c0-2.601,1-5,0.9-7.3c-0.084-0.048-7.1,0.8-8.9,1.101h-0.1l-2.8,0.5c-0.7,0-0.8,1.699-0.9,1.801v2
	c-0.1,0,0.9,9.302,0.6,9.903c0,0,1,3.099,0.2,3.898c0.1,0,0.8,3.2,0.5,4.899c0,0-0.1,7.199-0.1,10.801c0-0.102,0,0,0,0
	c-0.1,1.398-1.4,13.099-2.2,16.998c0.5,0.5,9.9,3.692,9.9,3.692L134.8,93.806z"/>
<g>
	<path fill="#FECE8C" d="M729.587,123.865c-3.431,0-6.824-0.168-9.69-0.333c-3.633-0.208-6.182-1.413-9.133-2.808
		c-1.541-0.728-3.246-1.317-4.895-1.887c-2.073-0.716-4.216-1.457-6.177-2.508c-4.558-2.444-8.121-7.057-10.717-10.802
		c-1.156-1.669-2.057-3.437-2.927-5.146c-0.251-0.492-6.01-16-5.384-17.551c0.198-0.49,2.675-8.633,2.675-8.633
		c0.925-3.188,1.882-6.485,3.279-9.72c0,0,2.943-6.873,5.641-9.372c2.496-2.313,8.791-7.185,8.791-7.185
		c2.774-2.152,5.644-4.377,8.846-5.91c2.472-1.183,10.104-2.792,11.317-3.126c3.558-0.979,10.988-2.031,10.988-2.031
		c1.699-0.24,7.855,0.18,8.915,0.522c0.635,0.205,2.874,0.736,3.4,0.819c0.894,0.14,5.609,2.147,6.803,3.072
		c0.381,0.295,2.11,1.519,2.615,1.845c1.139,0.735,4.984,4.387,5.702,5.344c0.372,0.496,0.746,0.995,1.146,1.482
		c5.229,6.368,8.597,14.65,9.006,22.154c0.217,3.993,0.327,8.167,0.327,12.409c0,5.479-3.059,17.999-3.059,17.999
		c-1.527,5.207-3.259,11.108-8.089,14.452c-2.102,1.455-4.687,2.231-7.187,2.981c-1.027,0.308-9.066,2.858-12.128,3.299
		C736.69,123.657,733.397,123.865,729.587,123.865z M684.599,91.169c0.13,0.487,5.802,11.146,6.843,12.649
		c2.404,3.469,13.355,11.474,15.407,12.183c1.725,0.596,19.384,4.863,22.738,4.863c3.666,0,15.235-1.719,18.272-2.824
		c0.981-0.357,7.692-2.372,9.403-3.556c3.957-2.739,7.255-13.975,7.255-13.975c1.847-6.202,2.6-10.84,2.6-16.008
		c0-4.188-0.108-8.308-0.323-12.246c-0.375-6.889-13.429-25.941-14.485-26.624c-0.545-0.352-11.445-5.186-12.113-5.401
		c-0.957-0.309-26.856,3.459-29.004,4.486c-2.913,1.394-14.494,10.367-16.893,12.589c-2.229,2.065-3.319,4.61-4.581,7.557
		c0,0-2.556,6.928-3.497,10.169c0,0-1.877,6.194-2.19,7.324C683.896,82.843,684.347,90.22,684.599,91.169z"/>
	<path fill="#FECE8C" d="M693.618,52.377c-0.13,0-0.262-0.017-0.394-0.053c-1.445-0.392-8.107-5.109-9.576-5.874
		c-0.561-0.292-5.167-2.544-7.032-3.315c-0.819-0.339-9.036-4.845-10.269-5.386c-0.759-0.333-1.104-1.218-0.771-1.977
		c0.334-0.758,1.219-1.102,1.977-0.771c1.428,0.626,13.979,6.918,15.852,7.929c0.536,0.289,9.771,6.271,10.605,6.497
		c0.8,0.217,1.271,1.041,1.055,1.84C694.884,51.937,694.278,52.377,693.618,52.377z"/>
	<path fill="#FECE8C" d="M722.117,39.377c-0.151,0-0.305-0.023-0.457-0.072c-0.789-0.252-1.224-1.097-0.972-1.886
		c0.979-3.064,0.876-14.467,1.094-16.569c0.242-2.327,2.781-8.582,3.109-9.719c0.616-2.13,0.593-4.337,0.568-6.673
		c-0.005-0.469-0.01-0.94-0.01-1.416c0-0.829,0.672-1.5,1.5-1.5s1.5,0.671,1.5,1.5c0,0.464,0.005,0.926,0.01,1.384
		c0.025,2.45-1.552,10.041-2.028,11.216c-0.755,1.859-1.468,3.615-1.665,5.518c-0.201,1.934-0.183,3.97-0.163,6.126
		c0.034,3.699,0.069,7.524-1.058,11.047C723.342,38.97,722.753,39.377,722.117,39.377z"/>
	<path fill="#FECE8C" d="M756.282,44.543c-0.226,0-0.454-0.051-0.669-0.158c-0.741-0.37-1.042-1.271-0.672-2.012
		c2.594-5.199,16-22.172,18.367-26.396c0.406-0.724,1.319-0.979,2.042-0.575c0.723,0.405,0.98,1.319,0.575,2.042
		c-2.483,4.431-15.845,21.348-18.301,26.27C757.363,44.239,756.833,44.543,756.282,44.543z"/>
	<path fill="#FECE8C" d="M769.45,74.543c-0.602,0-1.17-0.365-1.399-0.96c-0.298-0.773,0.087-1.641,0.859-1.939
		c4.765-1.838,9.187-4.218,14.361-7.227c1.349-0.784,15.762-6.576,16.993-7.208c0.738-0.377,1.642-0.088,2.02,0.649
		c0.379,0.737,0.088,1.641-0.648,2.02c-1.468,0.753-26.405,12.543-31.646,14.565C769.813,74.51,769.63,74.543,769.45,74.543z"/>
</g>
<path fill="#103653" d="M827.3,101.4c-1.8-3.5-5.7-6-10.3-6c-4,0-7.4,1.801-9.4,4.5c-3.55-2.25-8.009-2.515-11.8-0.699
	c-0.2-5.399-5.1-9.7-11.3-9.7c-3.368-0.039-6.599,1.34-8.9,3.801c-5.9-9.898-16.673-15.857-28.192-15.601
	c-12.854-0.451-24.678,7.006-29.808,18.8c-1.579-0.678-3.279-1.018-5-1c-2.692,0-5,0.7-7,2c-1.8-9-10.6-15.699-21.3-15.699
	c-9.5,0-17.5,5.399-20.396,12.899c-0.962-0.347-1.979-0.516-3-0.5c-2.381-0.037-4.654,0.989-6.2,2.8
	c-9.665-5.699-21.511-6.299-31.7-1.601c-0.6-10.102-10-18.102-21.6-18.102c-10.7,0-19.5,6.802-21.308,15.7c-2-1.3-4.3-2-7-2
	c-1.718-0.018-3.42,0.323-5,1c-4.192-11-16-18.8-29.8-18.8c-16.396,0-29.896,11.199-31.2,25.399
	c-11.434-4.248-24.258-2.199-33.8,5.398c-6.356-7.525-15.748-11.816-25.6-11.699c-12.174-0.334-23.455,6.356-29,17.199
	c-1.789-0.937-3.781-1.417-5.8-1.398h-1c-3.4-12-15.7-21-30.4-21c-11.718-0.31-22.661,5.835-28.5,16c-1.783-0.609-3.717-0.609-5.5,0
	c-0.55-3.903-3.256-6.677-6.3-8.403c-4.75-2.697-11.25-2.697-15,1c-4.5-6.25-12.037-11.088-19.5-11
	c-9.861-0.159-17.918,2.439-24.25,10c-9.519-7.563-21.544-5.293-32.95-1.083c-1.4-14.3-22.097-15.442-32-14.917
	c-14.05,1.75-25.316,8.706-30.4,20.504c-1.603-0.726-3.341-1.101-5.1-1.101c-2.6,0-5,0.8-7,2c-1.7-9-10.6-15.7-21.2-15.7
	c-11.6,0-21,8-21.6,18.101c-10.247-4.636-22.106-4.001-31.8,1.7c-1.508-1.885-3.787-2.986-6.2-3c-1,0-2,0.3-3,0.6
	c-3.508-8.091-11.584-13.236-20.4-13c-10.6,0-19.5,6.9-21.3,15.9c-3.545-2.423-8.103-2.803-12-1c-4.2-11-15.9-19-29.7-19
	c-2.7,0-5.3,0.399-7.8,1L0,644.198h842L841.9,102.3c-2.237-1.875-5.082-2.869-8-2.8C831.5,99.5,829.2,100.2,827.3,101.4L827.3,101.4
	z"/>
<path fill="#FDCD8C" d="M65.644,128.51c-0.398-0.013-1.731,0.654-1.231,1.654s2.348,1.671,3.5,0.834
	c1.34-0.976,3.103-3.024,0.04-5.554c-1.675-1.383-4.096-1.614-3.652,0.22C64.745,127.498,65.644,128.51,65.644,128.51z
	 M71.019,99.319c-0.398-0.013-1.731,0.655-1.231,1.655s2.348,1.671,3.5,0.834c1.341-0.977,0.181-1.739,0.631-4.489
	c0.351-2.146-4.686-2.68-4.242-0.845C70.121,98.308,71.019,99.319,71.019,99.319z M140.178,147.6
	c-0.044,0.396,0.514,1.776,1.55,1.358c1.037-0.418,1.855-2.206,1.113-3.421c-0.864-1.415-1.719-0.319-4.424-0.99
	c-2.108-0.521-3.046,4.456-1.183,4.161C139.097,148.414,140.178,147.6,140.178,147.6z M62.206,87.257
	c0.398-0.012,1.731,0.655,1.231,1.655s-2.348,1.671-3.5,0.834c-1.341-0.976-3.104-3.024-0.041-5.554
	c1.675-1.383,4.096-1.614,3.652,0.22C63.104,86.246,62.206,87.257,62.206,87.257z"/>
<path fill="#FECE8C" d="M681.104,71.494c-0.093,0.09-0.199,0.17-0.318,0.237c-1.309,0.729-9.371,2.005-10.956,2.484
	c-0.604,0.183-5.475,1.788-7.348,2.539c-0.823,0.33-9.852,2.843-11.111,3.317c-0.775,0.292-1.641-0.101-1.933-0.876
	c-0.29-0.776,0.104-1.64,0.877-1.932c1.459-0.548,14.837-4.812,16.883-5.396c0.585-0.167,11.373-2.336,12.128-2.756
	c0.724-0.403,1.637-0.143,2.04,0.581C681.703,70.295,681.577,71.032,681.104,71.494z"/>
<path fill="#6FC3C6" d="M256.279,84.642c-3.18,1.576-10.471,6.284-10.505,6.307c0.105,0.492,7.975,9.476,8.46,10.801
	c0.161,0.439-0.064,0.929-0.504,1.092h-0.001c-0.437,0.161-0.923-0.061-1.086-0.496l0,0l-0.004-0.013
	c-0.354-0.968-5.812-6.593-5.812-6.593c0.35,1.346,2.165,7.276,2.647,9.3c0.096,0.46-0.199,0.91-0.659,1.006
	c-0.441,0.093-0.877-0.177-0.994-0.61c-0.469-1.975-2.546-8.755-2.997-10.738c-0.177,1.089-1.746,11.241-2.855,15.127
	c-0.149,0.444-0.631,0.686-1.076,0.534c-0.417-0.14-0.658-0.573-0.557-1.001c1.08-3.785,2.819-14.968,3.114-16.643
	c-3.057,2.355-6.514,4.997-10.414,6.011c-0.485,0.153-0.918-0.155-1.036-0.607c-0.119-0.454,0.154-0.918,0.608-1.037l0,0h0.001
	c3.612-0.938,6.816-3.407,9.915-5.796l0.07-0.054c-0.692-0.679-6.509-6.072-7.837-8.456c-0.216-0.417-0.053-0.93,0.364-1.146
	c0.399-0.207,0.891-0.066,1.121,0.318c1.196,2.146,6.868,7.409,7.586,8.115c-0.369-1.567-4.343-10.635-4.785-12.896
	c-0.09-0.461,0.211-0.906,0.672-0.996c0.449-0.088,0.886,0.194,0.99,0.642l0.006,0.026c0.401,2.051,3.62,8.954,3.796,9.442
	c0.496-3.922,0.693-7.877,0.589-11.828c-0.003-0.471,0.375-0.854,0.845-0.854c0.456-0.002,0.833,0.354,0.854,0.81v0.001
	c0.12,4.839-0.202,9.678-0.961,14.456c3.517-2.363,6.707-4.263,9.691-5.741c0.419-0.209,0.928-0.039,1.138,0.38
	c0,0.001,0.001,0.002,0.001,0.003C256.873,83.924,256.7,84.433,256.279,84.642L256.279,84.642z"/>
<path fill="#6FC3C6" d="M638.47,95.824c-0.104,0.457-0.562,0.742-1.019,0.637c-3.246-0.749-6.789-1.857-10.757-3.344
	c1.838,4.48,3.288,9.12,4.275,13.841c0.11,0.456-0.17,0.915-0.627,1.025c-0.456,0.109-0.915-0.172-1.023-0.628
	c-0.004-0.017-0.007-0.032-0.01-0.05c-0.813-3.869-1.924-7.671-3.313-11.372c-0.056,0.521-1.593,7.979-1.51,10.064
	c0.02,0.469-0.345,0.863-0.813,0.884c-0.001,0-0.001,0-0.002,0h-0.002l-0.034,0.001c-0.455-0.004-0.827-0.361-0.85-0.814
	c-0.093-2.302,1.67-12.045,1.67-13.654c-0.534,0.854-4.834,7.285-5.5,9.648c-0.125,0.45-0.592,0.715-1.042,0.59c0,0,0,0-0.001,0
	l-0.005-0.001c-0.451-0.13-0.713-0.599-0.586-1.051c0.74-2.625,5.172-9.245,5.667-10.04l-0.08-0.033
	c-3.566-1.607-7.257-3.271-10.986-3.347c-0.468-0.01-0.841-0.396-0.832-0.862c0-0.001,0-0.003,0-0.003v-0.003
	c0.016-0.469,0.358-0.869,0.866-0.831c4.028,0.081,8.003,1.853,11.521,3.438c-0.669-1.549-4.953-12.04-6.88-15.471
	c-0.223-0.415-0.063-0.931,0.351-1.15c0.401-0.213,0.899-0.072,1.131,0.318c1.979,3.522,5.85,13.029,6.28,14.055
	c-0.021-2.032,0.432-9.112,0.432-11.138c0-0.472,0.382-0.854,0.854-0.854c0.471,0,0.853,0.382,0.853,0.854
	c0,2.083-0.389,8.31-0.422,9.662c0,0,4.009-6.74,4.133-7.763c0.052-0.464,0.472-0.798,0.938-0.746c0.004,0,0.008,0.001,0.012,0.001
	c0.466,0.057,0.8,0.479,0.745,0.942c-0.165,1.403-5.621,12.517-5.621,12.517c4.313,1.658,8.104,2.856,11.563,3.655
	C638.296,94.916,638.575,95.37,638.47,95.824z"/>
<path fill="#007595" d="M806.736,101.844c0.326,0.337,0.316,0.875-0.021,1.2l0,0c-2.396,2.313-5.258,4.68-8.666,7.194
	c4.756,0.895,9.42,2.218,13.937,3.958c0.438,0.17,0.655,0.662,0.485,1.103c-0.17,0.438-0.664,0.653-1.102,0.483
	c-3.688-1.428-7.477-2.571-11.337-3.426c0.401,0.33,5.819,5.684,7.612,6.752c0.404,0.24,0.537,0.763,0.297,1.165l-0.018,0.03
	c-0.25,0.382-0.754,0.499-1.146,0.268c-1.979-1.177-9.182-7.97-10.535-8.845c0.423,0.904,3.471,8.029,5.089,9.875
	c0.31,0.353,0.274,0.888-0.077,1.197l-0.002,0.002c-0.354,0.309-0.89,0.271-1.199-0.08c-1.797-2.052-4.92-9.343-5.326-10.224
	c0,0-6.77,4.351-8.867,7.437c-0.264,0.389-0.793,0.489-1.182,0.226l0,0c-0.388-0.264-0.533-0.774-0.225-1.181
	c2.266-3.333,5.915-5.698,9.162-7.785c-1.663-0.283-12.793-2.41-16.721-2.667c-0.469-0.039-0.814-0.45-0.774-0.919
	c0.039-0.455,0.431-0.799,0.888-0.776c4.032,0.265,14.111,2.2,15.203,2.399c-1.715-1.092-7.402-5.329-9.103-6.435
	c-0.394-0.256-0.507-0.782-0.25-1.177c0.255-0.395,0.782-0.506,1.176-0.25c1.746,1.137,6.755,4.855,7.869,5.622
	c0,0-3.462-7.034-4.255-7.691c-0.361-0.295-0.414-0.826-0.12-1.188c0-0.001,0.001-0.001,0.001-0.003l0.007-0.009
	c0.3-0.36,0.836-0.41,1.197-0.109c1.086,0.902,6.021,10.809,6.021,10.809c0.44,0.265,8.225-4.513,10.779-6.977
	C805.871,101.496,806.41,101.507,806.736,101.844L806.736,101.844z"/>
</svg>
