<svg xmlns="http://www.w3.org/2000/svg" xml:space="preserve" width="80" height="80"><g fill="#F8F9F6" stroke="#F8F9F6" stroke-miterlimit="10"><path d="M65.062 22.62a30.506 30.506 0 0 0-13.533-11.049 1.192 1.192 0 1 0-.915 2.203 28.06 28.06 0 0 1 17.321 25.974c0 15.506-12.615 28.123-28.123 28.123-15.508 0-28.124-12.615-28.124-28.122s12.616-28.123 28.124-28.123a1.193 1.193 0 0 0 0-2.386c-16.823 0-30.509 13.687-30.509 30.509 0 16.822 13.686 30.507 30.509 30.507S70.32 56.57 70.32 39.749a30.361 30.361 0 0 0-5.258-17.129z"/><path d="M45.312 10.826a1.192 1.192 0 1 0 2.383 0 1.192 1.192 0 0 0-2.383 0z"/></g><path fill="#F8F9F6" d="M60.271 42.313a1.602 1.602 0 0 0-1.257-.605H20.608c-.488 0-.951.224-1.255.605a1.604 1.604 0 0 0-.298 1.362 21.27 21.27 0 0 0 20.754 16.378 21.273 21.273 0 0 0 20.755-16.378c.12-.476.008-.979-.293-1.362zM39.813 56.862a18.084 18.084 0 0 1-17.066-11.965h34.131a18.092 18.092 0 0 1-17.065 11.965zM25.975 27.487a3.952 3.952 0 1 1 7.904-.002 3.952 3.952 0 0 1-7.904.002zm19.771 0a3.953 3.953 0 0 1 3.953-3.953 3.952 3.952 0 0 1 0 7.906 3.955 3.955 0 0 1-3.953-3.953z"/></svg>