<?xml version="1.0" encoding="utf-8"?>
<!-- Generator: Adobe Illustrator 15.0.0, SVG Export Plug-In . SVG Version: 6.00 Build 0)  -->
<!DOCTYPE svg PUBLIC "-//W3C//DTD SVG 1.1//EN" "http://www.w3.org/Graphics/SVG/1.1/DTD/svg11.dtd">
<svg version="1.1" id="Calque_1" xmlns="http://www.w3.org/2000/svg" xmlns:xlink="http://www.w3.org/1999/xlink" x="0px" y="0px"
	 width="800px" height="800px" viewBox="0 0 800 800" enable-background="new 0 0 800 800" xml:space="preserve">
<g>
	<path fill="#F79927" d="M159.943,63.673h32v96h-32V63.673z"/>
	<path fill="#F8F9F6" d="M64,719.913c0,8.839,7.164,16,16,16h640c8.837,0,16-7.161,16-16v-432H64V719.913z"/>
	<path fill="#50C2C8" d="M720,128.172h-48v32c0,17.674-14.327,32-32,32h-32c-17.673,0-32-14.326-32-32v-32H448v32
		c0,17.674-14.327,32-32,32h-32c-17.674,0-32-14.326-32-32v-32H224v32c0,17.674-14.327,32-32,32h-32c-17.673,0-32-14.326-32-32v-32
		H80c-8.836,0-16,7.164-16,16v112h672v-112C736,135.336,728.837,128.172,720,128.172z"/>
	<path fill="#103653" d="M720,96h-48V64c0-17.673-14.327-32-32-32h-32c-17.673,0-32,14.327-32,32v32H448V64
		c0-17.673-14.327-32-32-32h-32c-17.673,0-32,14.327-32,32v32H224V64c0-17.673-14.327-32-32-32h-32c-17.673,0-32,14.327-32,32v32H80
		c-26.51,0-48,21.49-48,48v576c0,26.511,21.49,48,48,48h640c26.51,0,48-21.489,48-48V144C768,117.49,746.51,96,720,96z M608,64h32
		v96h-32V64z M384,64h32v46.08c0,0,0,0,0,1.92s0,0,0,2.24V160h-32V64z M160,64h32v96h-32V64z M80,128h48v32
		c0,17.673,14.327,32,32,32h32c17.673,0,32-14.327,32-32v-32h128v32c0,17.673,14.327,32,32,32h32c17.673,0,32-14.327,32-32v-32h128
		v32c0,17.673,14.327,32,32,32h32c17.673,0,32-14.327,32-32v-32h48c8.837,0,16,7.164,16,16v112H64V144C64,135.164,71.164,128,80,128
		z M720,736H80c-8.836,0-16-7.162-16-16V288h672v432C736,728.838,728.837,736,720,736z"/>
	<path fill="#F79927" d="M416,113.913c0-2.24,0-0.319,0-2.24c0-1.92,0-1.92,0-1.92v-46.08h-32v96h32V113.913z"/>
	<rect x="607.943" y="63.673" fill="#F79927" width="32" height="96"/>
	<g>
		<path fill="#103653" d="M468.326,407.318H117.292c-11.046,0-20-8.955-20-20s8.954-20,20-20h351.035c11.046,0,20,8.954,20,20
			S479.372,407.318,468.326,407.318z"/>
		<path fill="#103653" d="M607.943,407.318h-73.61c-11.046,0-20-8.955-20-20s8.954-20,20-20h73.61c11.046,0,20,8.954,20,20
			S618.989,407.318,607.943,407.318z"/>
		<path fill="#103653" d="M607.943,492.115H117.292c-11.045,0-20-8.954-20-20s8.955-20,20-20h490.652c11.046,0,20,8.954,20,20
			S618.989,492.115,607.943,492.115z"/>
		<path fill="#103653" d="M271.807,576.913H117.292c-11.046,0-20-8.954-20-20s8.954-20,20-20h154.515c11.046,0,20,8.954,20,20
			S282.853,576.913,271.807,576.913z"/>
		<path fill="#103653" d="M607.943,576.913H362.617c-11.046,0-20-8.954-20-20s8.954-20,20-20h245.326c11.046,0,20,8.954,20,20
			S618.989,576.913,607.943,576.913z"/>
	</g>
</g>
</svg>
