<svg xmlns="http://www.w3.org/2000/svg" xml:space="preserve" width="80" height="80"><g fill="#F8F9F6"><path d="M29.337 19.103a10.53 10.53 0 0 0-2.028 1.285 1.594 1.594 0 0 0 2.028 2.459 7.436 7.436 0 0 1 1.41-.888 1.595 1.595 0 0 0-1.41-2.856zM45.904 27.239c-4.969 0-9.366 3.271-10.834 8.001h-2.158v2.858h1.648c-.008.163-.014.333-.014.496.002.416.028.832.079 1.244H32.91v2.863h2.419a11.366 11.366 0 0 0 10.574 7.25c.991 0 1.979-.133 2.936-.393l.378-.102v-4.021l-.688.254a7.546 7.546 0 0 1-2.625.482 7.529 7.529 0 0 1-6.355-3.473h7.624l.591-2.861h-9.326a7.683 7.683 0 0 1-.106-1.244c.001-.166.007-.331.019-.496h9.768l.593-2.858h-9.583c1.27-2.553 3.905-4.218 6.779-4.218a7.506 7.506 0 0 1 2.922.599l.572.244.773-3.79-.413-.15a11.25 11.25 0 0 0-3.858-.685zM22.604 24.235c-1.547 1.298-3.03 3.223-4.225 5.555-1.189 2.329-2.078 5.064-2.293 7.961-.061.878.6 1.642 1.478 1.707a1.593 1.593 0 0 0 1.703-1.474c.173-2.389.927-4.743 1.948-6.743 1.017-1.997 2.318-3.635 3.432-4.56a1.598 1.598 0 0 0 .203-2.246 1.596 1.596 0 0 0-2.246-.2z"/><path d="M74.764 30.13c-3.566-.664-6.222-2.336-9.162-4.488.302-1.193.785-2.294 1.256-3.366 1.031-2.346 2.198-5.005-.057-7.26-.87-.871-2.247-1.331-3.982-1.331-2.958 0-6.713 1.393-8.742 4.003a69.115 69.115 0 0 0-2.321-1.275c-4.274-2.238-9.055-3.421-13.823-3.421-7.866 0-15.251 3.159-20.287 8.503-.008-.004-.014-.01-.021-.014-1.137-.567-2.354-1.875-3.352-3.339 2.2-1.033 2.954-2.944 3.168-4.552.168-1.266-.152-2.444-.902-3.318-.734-.854-1.831-1.337-3.087-1.361-1.331-.037-2.471.529-3.194 1.56-1.11 1.582-1.008 3.989-.569 5.342-2.766-.333-5.926-1.974-6.643-4.13a1.5 1.5 0 1 0-2.847.946c1.404 4.219 7.162 6.389 10.976 6.231 1.127 1.875 2.711 3.847 4.53 4.97-.377.514-.74 1.04-1.077 1.584l-1.179 2.144a23.232 23.232 0 0 0-1.125 2.767c-2.363 7.053-1.563 15.114 2.102 21.489L23.13 69.17a3.465 3.465 0 0 0 3.112 1.92h5.219a3.487 3.487 0 0 0 3.483-3.484v-5.258h13.558v5.258a3.487 3.487 0 0 0 3.483 3.484h4.992a3.48 3.48 0 0 0 3.322-2.426l3.175-9.961c1.855-1.145 3.791-2.854 5.516-4.377 1.311-1.158 2.548-2.25 3.267-2.648 1.389-.77 5.312-3.033 5.312-3.033.406-.236.68-.646.738-1.111l1.369-10.862c.255-1.327.431-3.021-.479-4.355-.884-1.297-2.412-1.812-4.433-2.187zM12.797 15.518a10.708 10.708 0 0 1-.234-.568c-.254-.663-.303-2.111.148-2.754.098-.138.235-.285.649-.285h.033c.276.005.65.064.868.317.183.213.257.565.203.966-.158 1.196-.663 1.925-1.667 2.324zM76.715 36.2l-1.291 10.218c-1.165.67-3.594 2.066-4.621 2.635-1.004.557-2.299 1.699-3.798 3.023-1.775 1.568-3.788 3.346-5.521 4.32-.331.186-.579.49-.693.852l-3.347 10.5a.489.489 0 0 1-.466.342h-4.992a.484.484 0 0 1-.483-.484v-6.758a1.5 1.5 0 0 0-1.5-1.5H33.444a1.5 1.5 0 0 0-1.5 1.5v6.76a.482.482 0 0 1-.483.482h-5.219a.479.479 0 0 1-.431-.266l-8.747-17.43c-3.284-5.717-3.994-12.864-1.898-19.117.275-.823.605-1.636.944-2.343l1.104-2.006c4.176-6.746 12.114-10.937 20.718-10.937 4.286 0 8.585 1.065 12.431 3.079a64.37 64.37 0 0 1 3.439 1.939 1.498 1.498 0 0 0 2.14-.659c1.037-2.264 4.377-3.665 6.877-3.665 1.04 0 1.652.244 1.861.452.705.705.513 1.471-.568 3.932-.629 1.431-1.341 3.053-1.654 4.966a1.502 1.502 0 0 0 .585 1.446c3.45 2.567 6.673 4.76 11.174 5.598.529.099 2.141.397 2.502.927.147.217.269.757-.004 2.194z"/><path d="M64.732 33.585a2.48 2.48 0 1 0-.145 4.957 2.48 2.48 0 0 0 .145-4.957z"/></g></svg>