<svg xmlns="http://www.w3.org/2000/svg" xml:space="preserve" width="90.59" height="89" viewBox="0 0 90.59 89"><g fill="#103653"><path d="M71.628 16.081a2.25 2.25 0 0 0-1.577-.716l-42.526-.001a2.26 2.26 0 0 0-2.265 2.184v67.904c0 1.316.993 2.307 2.31 2.307h43.962v-4.615h-7.766v-6.676h4.024c.337.846 1.146 1.414 2.141 1.414 1.316 0 2.31-.994 2.31-2.314l-.001-57.859a2.25 2.25 0 0 0-.612-1.628M33.732 83.142h-3.854v-6.676h3.854zm0-11.293h-3.854v-6.682h3.854zm-3.853-11.295v-6.686h3.854v6.686zm3.853-11.303h-3.854v-6.679h3.854zm0-11.295h-3.854v-6.677h3.854zm0-11.295h-3.854v-6.678h3.854zm8.472 56.481H38.35v-6.676h3.854zm0-11.293H38.35v-6.682h3.854zm0-11.295H38.35v-6.686h3.854zm0-11.303H38.35v-6.679h3.854zm0-11.295H38.35v-6.677h3.854zm0-11.295H38.35v-6.678h3.854zm8.474 56.481h-3.854v-6.676h3.854zm0-11.293h-3.854v-6.682h3.854zm0-11.295h-3.854v-6.686h3.854zm0-11.303h-3.854v-6.679h3.854zm0-11.295h-3.854v-6.677h3.854zm0-11.295h-3.854v-6.678h3.854zm8.475 56.481h-3.857v-6.676h3.857zm0-11.293h-3.857v-6.682h3.857zm0-11.295h-3.857v-6.686h3.857zm0-11.303h-3.857v-6.679h3.857zm0-11.295h-3.857v-6.677h3.857zm0-11.295h-3.857v-6.678h3.857zm8.469 45.188h-3.856v-6.682h3.856zm0-11.295h-3.856v-6.686h3.856zm0-11.303h-3.856v-6.679h3.856zm0-11.295h-3.856v-6.677h3.856zm0-11.295h-3.856v-6.678h3.856z"/><path d="M77.894 12.057c.041-1.249-.942-2.299-2.157-2.339l-9.146-.002-.001-3.306a2.265 2.265 0 0 0-2.204-2.345h-9.09l-.001-.479a2.265 2.265 0 0 0-2.204-2.344l-8.62-.001a2.26 2.26 0 0 0-2.266 2.185l-.001.639h-9.033c-1.229 0-2.224.962-2.259 2.123l-.005 3.528-9.034-.001c-1.228 0-2.22.962-2.254 2.101l-.015.207.007 71.12H4.977c-1.316 0-2.309.994-2.309 2.311 0 1.314.993 2.305 2.309 2.305l16.988.002c1.228 0 2.222-.963 2.258-2.123l.005-71.303h8.988c1.319 0 2.313-.992 2.313-2.308V8.684l9.034.001c1.224 0 2.218-.96 2.262-2.187l.001-.639h3.854l.001.484a2.27 2.27 0 0 0 2.187 2.34h9.111v1.033h-23.16c-1.229 0-2.224.963-2.26 2.12l-.01.189.006.059c.028 1.287 1.012 2.25 2.309 2.25H73.27v57.708c0 1.314.993 2.305 2.311 2.305s2.314-.99 2.314-2.305z"/></g></svg>