<svg xmlns="http://www.w3.org/2000/svg" xml:space="preserve" width="80" height="80"><path fill="#F8F9F6" d="m46.554 48.54-.138 4.703 2.88.054h5.413a9.152 9.152 0 0 0 6.25 2.454 9.163 9.163 0 0 0 5.348-1.713l2.674-2.23c1.857.932 3.388 1.399 4.613 1.398.985 0 1.774-.3 2.375-.901 2.355-2.355 1.15-6.408.423-8.248a9.12 9.12 0 0 0 2.021-5.755 9.13 9.13 0 0 0-2.691-6.501c-1.256-1.26-2.337-2.049-4.517-2.476l-1.438-.205a9.226 9.226 0 0 0-3.964.644l-3.392-1.641c2.345-1.021 4.4-2.698 5.776-4.755a6.37 6.37 0 0 0 5.252 2.913c.364-.003.704-.149.954-.408.254-.259.392-.602.388-.955a1.37 1.37 0 0 0-.13-.573c-.138-.287-.127-1.046.354-2.239a18.402 18.402 0 0 0 1.29-4.967C77.074 9.588 73.711 3 68.294 1.476A12.102 12.102 0 0 0 65.003 1c-3.57 0-5.918 1.737-6.913 2.662a13.697 13.697 0 0 0-.539-.014 12.65 12.65 0 0 0-8.993 3.759 12.65 12.65 0 0 0-3.703 9.019c.014 5.036 2.959 9.502 7.517 11.551-.381.146-.624.252-.624.252a10.53 10.53 0 0 0-5.19 8.88l-.004 11.431zM64.68 34.25a2.563 2.563 0 0 1 1.819-.753c.69 0 1.335.268 1.819.753.487.484.752 1.13.752 1.82 0 .688-.265 1.333-.752 1.82a2.549 2.549 0 0 1-1.819.751 2.563 2.563 0 0 1-2.57-2.571c0-.69.263-1.336.751-1.82zm2.873-30.169c4.15 1.165 6.693 6.543 6.052 12.782a15.638 15.638 0 0 1-1.105 4.235c-.306.755-.501 1.459-.583 2.103-.931-.451-1.868-1.383-2.125-3.293a12.73 12.73 0 0 0-7.936-15.521c1.365-.615 3.497-.934 5.697-.306zM57.551 6.344c4.971.009 9.086 3.546 9.893 8.358a7.762 7.762 0 0 1-4.332-3.45 1.337 1.337 0 0 0-1.201-.738 1.352 1.352 0 0 0-1.033.478c-3.336 3.928-10.201 3.692-13.153 3.379.95-4.61 5.076-8.021 9.826-8.027zM47.549 17.082c.82.086 1.898.164 3.113.164 3.315 0 7.85-.583 11.056-3.281a10.368 10.368 0 0 0 5.801 3.552c-.576 5.022-4.86 8.889-9.964 8.895-5.28-.007-9.639-4.134-10.006-9.33zm5.069 33.342h-3.195V37.3c0-4.221 3.436-7.654 7.654-7.654h1.376c1.762 0 3.439.601 4.785 1.679-.179.153-.35.31-.515.475l-8.262 8.262c-2.797 2.797-3.411 6.963-1.843 10.362zm21.32-.149c-.106.106-.94.221-2.983-.706l3.189-3.19c.401 1.453.569 3.119-.206 3.896zm-.248-7.505-5.379 5.377a43.044 43.044 0 0 1-3.401-2.307 1.44 1.44 0 0 0-2.015.268c-.48.629-.36 1.53.268 2.012a44.256 44.256 0 0 0 3.064 2.114l-.594.594c-.01.012-.027.023-.037.036l-.165.168c-2.468 2.464-6.477 2.464-8.938 0a6.274 6.274 0 0 1-1.854-4.47c0-1.688.658-3.275 1.854-4.47l4.719-4.719c.23.957.721 1.834 1.436 2.548 1.029 1.027 2.396 1.593 3.851 1.593s2.825-.564 3.852-1.593a5.407 5.407 0 0 0 1.596-3.852 5.403 5.403 0 0 0-1.596-3.852l-.165-.159c1.28.195 2.52.786 3.505 1.773a6.28 6.28 0 0 1 1.85 4.47 6.275 6.275 0 0 1-1.851 4.469z"/><g fill="#F8F9F6"><path d="M6.089 55.797h29.337a2.599 2.599 0 0 0 2.596-2.596V31.229a2.598 2.598 0 0 0-2.595-2.595h-7.869v-1.531a3.648 3.648 0 0 0-3.644-3.643h-6.301a3.648 3.648 0 0 0-3.644 3.643v1.531h-7.88a2.599 2.599 0 0 0-2.596 2.595v21.972a2.6 2.6 0 0 0 2.596 2.596zm10.965-28.862c0-.302.246-.548.548-.548h6.3c.302 0 .548.246.548.548v1.531h-7.396v-1.531zM6.591 31.729h28.336v6.343H24.391V37.5a2.598 2.598 0 0 0-2.595-2.596H19.71a2.598 2.598 0 0 0-2.596 2.596v.572H6.591v-6.343zm15.206 11.046h-2.09V37.5h2.087l.003 5.275zM6.59 41.166h10.521v1.609a2.598 2.598 0 0 0 2.595 2.596h2.087a2.599 2.599 0 0 0 2.596-2.596v-1.609h10.537v11.535H6.59V41.166zM4.522 62.532a4.459 4.459 0 0 0 4.454 4.454h29.753l-3.404 6.899c-.213.43-.188.931.065 1.339.25.4.698.649 1.171.649h7.924a1.38 1.38 0 0 0 1.379-1.379c0-.303-.097-.59-.229-.752l-3.337-6.757h29.756c2.455 0 4.453-1.998 4.453-4.454s-1.998-4.454-4.453-4.454H8.976a4.46 4.46 0 0 0-4.454 4.455zm38.531 11.085h-5.079l2.54-5.146 2.539 5.146zm30.695-11.085c0 .936-.761 1.696-1.695 1.696H8.976c-.936 0-1.696-.761-1.696-1.696s.761-1.696 1.696-1.696h63.077c.934 0 1.695.761 1.695 1.696z"/></g></svg>