<svg xmlns="http://www.w3.org/2000/svg" xml:space="preserve" width="80" height="80"><path fill="#F8F9F6" d="M64.33 18.646c-.875 0-1.757.372-1.757.372-1.804 1.021-5.304 3.191-7.239 2.869-2.518-.419-8.318-.466-13.2.598-.313-.208-.626-.42-.936-.61-.944-.579-1.87-1.067-2.79-1.435-.891-.355-1.778-.6-2.707-.647v-.006a48.963 48.963 0 0 0-3.992-.163c-1.879.003-3.481.109-4.671.303v-.001l-.019.001c-.094.008-.56-.07-1.111-.272-.842-.296-1.917-.814-2.909-1.341-1-.53-1.915-1.058-2.575-1.414a1.956 1.956 0 0 0-1.049-.233c-5.537.298-9.963 2.459-12.979 5.332-3.011 2.884-4.694 6.438-4.714 9.789 0 1.022.166 2.027.531 2.973.341.88.87 1.697 1.564 2.381.125.158.239.284.361.412.295.299.646.619 1.06.997C6.427 39.664 8.194 41.26 9.34 42.7c1.138 1.422 1.871 2.718 2.479 3.874.305.576.577 1.119.864 1.638.121.218.248.427.381.636l-.203.202a3.752 3.752 0 0 0-1.137 2.658 3.762 3.762 0 0 0 1.079 2.688 3.762 3.762 0 0 0 4.706.551 3.754 3.754 0 0 0-.631 2.045 3.757 3.757 0 0 0 1.079 2.682 3.747 3.747 0 0 0 4.915.406c-1.172 1.47-1.107 3.612.239 4.991a3.742 3.742 0 0 0 2.7 1.136h.001c.994 0 1.934-.384 2.648-1.086l.699-.69a3.744 3.744 0 0 0-.474 1.758 3.764 3.764 0 0 0 1.078 2.686 3.779 3.779 0 0 0 5.357.048l.439-.444c.216.178.414.34.575.465l.315.24c.106.073.167.127.366.241.799.438 1.564.628 2.172.763.303.063.563.105.755.135l.236.027.072.008.028.002.018.004.018.002.026.003c.022 0 .012.002.133.004l.143-.004c1.332-.101 2.592-.556 3.627-1.349a6.168 6.168 0 0 0 1.096-1.111 6.567 6.567 0 0 0 2.014.328c2.884-.002 5.309-1.856 6.211-4.43.449.096.906.159 1.38.159 2.833-.004 5.228-1.79 6.17-4.294l.233.023a6.608 6.608 0 0 0 6.61-6.608 10.457 10.457 0 0 0-.524-3.3c2.509-2.217 6.18-5.637 6.844-7.494.32-.895 1.09-2.909 1.613-3.64.789-.864 2.857-2.809 2.857-2.809 4.627-4.304-.958-16.468-14.217-17.198zm-3.184 37.077c-.36 0-.697-.072-1.015-.199-.098-.045-.2-.063-.302-.088l-2.813-3.347a1.717 1.717 0 0 0-2.422-.176 1.718 1.718 0 0 0-.182 2.426l2.922 3.474a2.642 2.642 0 0 1-2.596 2.181c-.667 0-1.26-.24-1.733-.654-.09-.077-.198-.124-.299-.188l-2.567-3.061a1.72 1.72 0 1 0-2.604 2.246l2.208 2.65c.006.063-.007.129.004.193.03.159.043.307.043.438a2.647 2.647 0 0 1-2.642 2.645c-.457 0-.877-.115-1.25-.316l-3.241-3.344a1.722 1.722 0 0 0-2.43.069 1.72 1.72 0 0 0 .073 2.431l1.884 2.067a1.991 1.991 0 0 1-.558.692c-.351.27-.831.453-1.378.516a6.68 6.68 0 0 1-.636-.122 3.717 3.717 0 0 1-.824-.28 11.189 11.189 0 0 1-.353-.275c-.144-.113-.325-.262-.521-.422a3.768 3.768 0 0 0-.972-3.498 3.744 3.744 0 0 0-2.702-1.139c-.512 0-1.006.104-1.466.301l-.07-.061a3.76 3.76 0 0 0-.043-5.229 3.745 3.745 0 0 0-4.903-.412 3.742 3.742 0 0 0 .828-2.293 3.756 3.756 0 0 0-1.077-2.686 3.748 3.748 0 0 0-2.703-1.137 3.75 3.75 0 0 0-2.646 1.084l-.638.632c.787-1.424.605-3.247-.589-4.468a3.759 3.759 0 0 0-2.704-1.137c-.817 0-1.588.271-2.239.754-.688-1.285-1.668-3.418-3.555-5.772-1.113-1.388-2.471-2.679-3.6-3.72-.563-.519-1.07-.972-1.442-1.316a21.292 21.292 0 0 1-.429-.412l-.092-.099-.001-.001-.004.004-.25-.291a2.8 2.8 0 0 1-.707-1.06c-.167-.428-.263-.943-.263-1.536-.019-1.951 1.125-4.691 3.481-6.915 2.26-2.144 5.576-3.837 9.936-4.193.807.447 1.964 1.105 3.19 1.708.762.374 1.547.729 2.329 1.005.788.271 1.549.491 2.434.501.219 0 .424-.019.612-.045l.03-.005c.839-.143 2.326-.255 4.048-.253a43.803 43.803 0 0 1 3.665.149l.091.004c.313.009.836.121 1.471.377l.145.066c-5.353 2.417-12.937 7.066-15.43 7.898-2.846.948-3.084 4.746 3.32 5.456 6.406.712 12.099-3.324 13.521-4.031 1.022-.513 7.511.113 11.104.505a125.435 125.435 0 0 1 3.988 4.115l7.895 9.65.035.041c1.012 1.17 1.563 2.121 1.87 2.938.308.814.402 1.516.404 2.318a2.643 2.643 0 0 1-2.64 2.647z"/></svg>