<svg xmlns="http://www.w3.org/2000/svg" xml:space="preserve" width="80" height="80"><g fill="#F8F9F6"><path d="M12.37 50.104.683 38.415l18.991-18.99L31.36 31.111 12.37 50.104zM3.604 38.415l8.766 8.767 16.068-16.071-8.765-8.765L3.604 38.415zM53.271 63.249 38.664 48.641l1.46-1.459 13.147 13.145 2.192-2.19-14.608-14.612 1.459-1.459 16.071 16.071zM49.62 66.898 35.012 52.292l1.461-1.46L49.62 63.979l1.461-1.459 1.461 1.459zM45.968 70.553l-2.922-2.923 1.461-1.46 1.461 1.46 1.462-1.46 1.461 1.46zM21.589 53.836l-2.199-1.775v-3.006l-2.463-2.621 1.522-1.43 3.031 3.223v2.836l1.421 1.148zM42.314 74.205l-2.92-2.924 1.461-1.459 1.459 1.459 1.463-1.459 1.461 1.459zM67.881 48.641 48.159 28.92l11.687-11.687 19.723 19.722-11.688 11.686zm-16.8-19.721 16.8 16.799 8.766-8.764-16.801-16.8-8.765 8.765z"/><path d="M32.821 47.531a6.179 6.179 0 0 1-4.383-1.813l-.73-.73L39.697 33h4.383l3.35-3.349 1.461 1.46-3.955 3.954h-4.383l-9.832 9.832a4.09 4.09 0 0 0 2.1.574 4.11 4.11 0 0 0 2.921-1.211l6.572-6.575 3.652 3.652c.781.779 1.82 1.21 2.924 1.21s2.141-.431 2.92-1.21l1.461 1.461a6.158 6.158 0 0 1-4.381 1.815 6.167 6.167 0 0 1-4.384-1.815l-2.19-2.19-5.112 5.111a6.178 6.178 0 0 1-4.383 1.812zM34.28 36.954l-3.65-3.652 1.46-1.46 3.651 3.65zM56.188 54.488l-1.481-1.472 4.063-4.077v-2.923l2.505-2.498 1.476 1.479-1.892 1.888v2.92zM28.438 48.641l-8.765 8.766 16.06 16.063 8.765-8.766-16.06-16.063zm-5.843 8.765 5.843-5.844 2.192 2.188-5.843 5.847-2.192-2.191zm9.495-2.192 2.188 2.187-5.844 5.844-2.188-2.186 5.844-5.845zm-2.191 9.496 5.843-5.845 2.182 2.184-5.843 5.846-2.182-2.185zm3.647 3.645 5.843-5.842 2.187 2.188-5.843 5.842-2.187-2.188z"/></g></svg>