<svg xmlns="http://www.w3.org/2000/svg" xml:space="preserve" width="80" height="80"><path fill="none" d="M250.5 251.5H439V440H250.5V251.5z"/><path fill="#F8F9F6" d="M55.46 11.762a2.138 2.138 0 0 1-.708 1.064c-.4.332-.777.617-.777.617-2.609 1.792-8.203 2.724-13.76 2.724-.227 0-.451-.006-.676-.009l-.443-.997 1.416-.528c8.227-.048 13.463-2.094 13.463-3.512 0-1.434-5.359-3.516-13.76-3.516-.258 0-.504.008-.756.012l.326-.713c.115-.259.156-.543.117-.823.105 0 .209-.005.313-.005 7.6 0 15.289 1.733 15.289 5.046 0-.001.038.354-.044.64zm-24.418 3.181a3.058 3.058 0 1 1 .001-6.117 3.058 3.058 0 0 1-.001 6.117zm-1.529-3.057a1.529 1.529 0 1 0 3.057-.001 1.529 1.529 0 0 0-3.057.001zm-5.831 5.626 1.086-2.359-.361-.999-2.539-.972v-2.523l2.426-.902.45-.959-1.111-2.488 1.782-1.784 2.359 1.086.999-.362.973-2.538h2.522l.902 2.425.96.452 2.483-1.107 1.783 1.785-1.078 2.351.358.999 2.538.972v2.523l-2.425.902-.452.96 1.107 2.483-1.777 1.789-2.359-1.085-.998.361-.973 2.538h-2.522l-.902-2.425-.96-.451-2.487 1.112-1.784-1.784zm1.897-4.305.663 1.842-.902 1.961.628.627 2.141-.957 1.775.833.749 2.017h.89l.838-2.182 1.844-.664 1.957.899.628-.632-.952-2.139.832-1.771 2.016-.75v-.889l-2.181-.838-.663-1.84.894-1.958-.63-.629-2.136.95-1.771-.832-.749-2.014h-.89l-.838 2.182-1.844.664-1.962-.902-.626.628.958 2.141-.833 1.775-2.017.749v.89l2.181.839zM48.02 35.256c0 .733.33 1.328.733 1.328.405 0 .733-.591.733-1.328 0-.734-.322-1.33-.733-1.33-.405 0-.733.595-.733 1.33z"/><ellipse cx="36.83" cy="35.258" fill="#F8F9F6" rx=".734" ry="1.329"/><path fill="#F8F9F6" d="M39.066 39.803a.928.928 0 1 0-1.264 1.361 7.94 7.94 0 0 0 9.98 0 .93.93 0 0 0-1.266-1.361 5.799 5.799 0 0 1-3.725 1.263 5.92 5.92 0 0 1-3.725-1.263z"/><path fill="#F8F9F6" d="M29.988 39.168a14.689 14.689 0 0 0 7.399 6.563c-.973.303-1.918.69-2.826 1.151a.928.928 0 0 0-.15.078 18.28 18.28 0 0 0-9.882 16.226v12.1a.93.93 0 0 0 1.86 0v-12.1a16.403 16.403 0 0 1 8.021-14.103l7.504 20.203a.92.92 0 0 0 .545.543.928.928 0 0 0 1.197-.543l7.504-20.203a16.407 16.407 0 0 1 8.027 14.103v12.1a.93.93 0 0 0 .93.928.93.93 0 0 0 .931-.928v-12.1a18.287 18.287 0 0 0-9.87-16.23.826.826 0 0 0-.154-.078 17.769 17.769 0 0 0-2.822-1.146 14.59 14.59 0 0 0 9.141-13.491c.024-8.059-6.488-14.612-14.548-14.637-.304 0-1.284-.018-1.584 0l-1.81.386a14.62 14.62 0 0 0-11.2 14.168v.027c.001 1.416.209 2.823.616 4.178l.61 1.578.561 1.227zm25.41-8.786c-2.91.378-12.563 1.163-17.127-4.21a.926.926 0 0 0-1.533.176 10.006 10.006 0 0 1-6.634 4.753 12.753 12.753 0 0 1 12.688-11.652 12.753 12.753 0 0 1 12.606 10.933zM38.66 55.174a8.624 8.624 0 0 0 8.259 0l-4.128 11.117-4.131-11.117zm10.845-6.959-1.534 4.131c-.625.479-2.813 2.021-5.18 2.021-2.366 0-4.563-1.539-5.179-2.02l-1.533-4.134a16.422 16.422 0 0 1 13.426.002zM30.083 32.987a11.845 11.845 0 0 0 7.619-4.716c5.354 5.093 14.672 4.381 17.823 3.973C55.484 39.25 49.8 44.91 42.791 44.92a12.752 12.752 0 0 1-12.708-11.933zM-52.833-117.167H80v97H-52.833z"/></svg>