<svg xmlns="http://www.w3.org/2000/svg" xml:space="preserve" width="70.521" height="70.521" viewBox="-229.139 293.794 70.521 70.521"><g fill="#F8F9F6"><path d="M-227.139 337.707a1.99 1.99 0 0 0 1.414-.586l36.499-36.499v5.15a2 2 0 0 0 4 0v-9.979c0-.131-.014-.262-.04-.392-.012-.06-.034-.114-.051-.171-.02-.068-.036-.136-.063-.202-.028-.067-.066-.128-.101-.192-.028-.051-.05-.104-.083-.152a1.988 1.988 0 0 0-.554-.554c-.05-.034-.105-.057-.158-.086-.062-.033-.121-.071-.187-.098-.067-.028-.136-.044-.206-.064-.056-.017-.11-.039-.168-.05a1.983 1.983 0 0 0-.392-.04h-9.979a2 2 0 0 0 0 4h5.15l-36.499 36.499a2 2 0 0 0 1.418 3.416zM-160.617 360.316h-8.315v-51.217h-9.978v51.217h-9.978v-31.261h-9.979v31.261h-9.978v-11.305h-9.978v11.305h-8.315a2 2 0 0 0 0 4h66.521a2 2 0 0 0 0-4z"/></g></svg>