<svg xmlns="http://www.w3.org/2000/svg" xml:space="preserve" width="780" height="48.186"><path fill="#96D2CA" d="M-5.5-6.407h804.946v60H-5.5v-60z"/><path fill="#103653" d="M6.498 29.124c-2.821-.008-5.533 1.145-7.555 3.213v15.849h800.504V13.841a28.902 28.902 0 0 0-7.396-.975c-13.138 0-24.288 8.75-28.271 20.895a10.415 10.415 0 0 0-4.867-1.209c-2.356-.002-4.653.813-6.537 2.309-1.729-9.93-10.138-17.468-20.265-17.468-9.018 0-16.661 5.975-19.454 14.282a7.072 7.072 0 0 0-2.755-.557c-2.355-.002-4.572 1.178-5.952 3.186-4.747-3.273-10.46-5.193-16.607-5.193a28.963 28.963 0 0 0-13.555 3.354c-.594-11.176-9.554-20.06-20.55-20.06-10.134 0-18.539 7.536-20.27 17.464-1.881-1.499-4.178-2.313-6.537-2.307a10.38 10.38 0 0 0-4.854 1.21c-3.988-12.146-15.131-20.896-28.271-20.896-15.643 0-28.456 12.387-29.729 28.158a29.03 29.03 0 0 0-11.589-2.402c-7.941 0-15.154 3.205-20.503 8.42-5.411-7.832-14.284-12.938-24.328-12.938-7.526 0-14.4 2.878-19.648 7.606-1.41-4.419-5.433-7.606-10.198-7.606-3.179-.017-6.201 1.452-8.262 4.006a7.13 7.13 0 0 0-2.469-.45 7.149 7.149 0 0 0-2.756.56c-4.735-10.524-15.08-17.839-27.086-17.839-13.985 0-25.723 9.912-28.953 23.288a11.009 11.009 0 0 0-.895-.046 10.409 10.409 0 0 0-5.573 1.622c-4.479-11.167-15.143-19.028-27.597-19.028-10.046 0-18.921 5.115-24.328 12.947-5.349-5.215-12.561-8.42-20.506-8.42a28.9 28.9 0 0 0-11.585 2.4C316.03 12.386 303.206-.003 287.572-.003c-13.138 0-24.284 8.75-28.267 20.896a10.407 10.407 0 0 0-4.864-1.21c-2.36-.003-4.657.813-6.539 2.312-1.726-9.935-10.132-17.472-20.262-17.472-10.999 0-19.958 8.886-20.55 20.063a29.074 29.074 0 0 0-13.556-3.357c-6.15 0-11.861 1.916-16.61 5.199-1.38-2.009-3.596-3.201-5.952-3.188-.978 0-1.9.202-2.749.561-2.799-8.304-10.443-14.283-19.459-14.283-10.133 0-18.536 7.537-20.264 17.463-1.812-1.438-4.074-2.303-6.538-2.303a10.407 10.407 0 0 0-4.865 1.209C113.114 13.74 101.964 4.99 88.829 4.99c-11.821 0-22.027 7.069-26.861 17.341-1.964-2.592-5.02-4.271-8.458-4.271-5.842 0-10.583 4.816-10.721 10.795a10.502 10.502 0 0 0-5.001-1.271 10.462 10.462 0 0 0-6.212 2.052c-2.013-3.111-5.366-4.967-8.945-4.953-4.379 0-8.139 2.706-9.807 6.581-1.776-1.34-3.958-2.14-6.326-2.14z"/></svg>