<svg xmlns="http://www.w3.org/2000/svg" xml:space="preserve" width="780" height="125.68"><path fill="#96D2CA" d="M-5-16.66h797.5V140.5H-5V-16.66z"/><path fill="#103653" d="M17.813 71.281C9.294 71.259 1.105 74.74-5 80.986v47.854h2417.098V25.15c-7.142-1.886-14.614-2.942-22.329-2.942-39.667 0-73.33 26.421-85.361 63.093-4.418-2.316-9.384-3.648-14.696-3.648-7.113-.008-14.048 2.448-19.736 6.972-5.221-29.983-30.608-52.744-61.188-52.744-27.222 0-50.304 18.037-58.739 43.125a21.44 21.44 0 0 0-8.319-1.683c-7.111-.014-13.805 3.557-17.97 9.619-14.333-9.893-31.583-15.684-50.146-15.684-14.209-.027-28.228 3.439-40.93 10.127-1.791-33.746-28.851-60.564-62.052-60.564-30.593 0-55.97 22.76-61.191 52.729-5.68-4.523-12.614-6.979-19.738-6.957-5.279 0-10.253 1.327-14.664 3.653-12.039-36.679-45.688-63.097-85.361-63.097-47.236 0-85.921 37.398-89.771 85.021a87.637 87.637 0 0 0-34.992-7.257c-23.977 0-45.76 9.68-61.907 25.425-16.339-23.647-43.132-39.073-73.458-39.073-22.726 0-43.48 8.689-59.329 22.975-4.258-13.347-16.409-22.975-30.796-22.975-9.594-.045-18.729 4.394-24.939 12.094-2.356-.862-4.855-1.356-7.456-1.356-2.944 0-5.749.622-8.319 1.688-14.299-31.78-45.535-53.862-81.785-53.862-42.229 0-77.661 29.926-87.426 70.317a31.193 31.193 0 0 0-2.69-.141c-5.933 0-11.75 1.688-16.838 4.896-13.511-33.722-45.712-57.456-83.315-57.456-30.334 0-57.135 15.446-73.459 39.095-16.149-15.746-37.93-25.425-61.918-25.425a87.237 87.237 0 0 0-34.979 7.253c-3.848-47.61-42.566-85.022-89.775-85.022-39.667 0-73.326 26.42-85.35 63.096-4.417-2.319-9.394-3.653-14.689-3.653-7.125-.008-14.059 2.449-19.744 6.972-5.222-29.991-30.607-52.751-61.19-52.751-33.216 0-60.268 26.825-62.054 60.582-12.29-6.455-26.19-10.14-40.932-10.14-18.57 0-35.814 5.784-50.154 15.698-4.167-6.063-10.86-9.659-17.969-9.625-2.854 0-5.681.574-8.309 1.688-8.451-25.07-31.529-43.129-58.756-43.129-30.597 0-55.967 22.757-61.186 52.729-5.474-4.35-12.306-6.953-19.742-6.953-5.104-.004-10.126 1.248-14.689 3.648C339.737 24.834 306.07-1.584 266.41-1.584c-35.694 0-66.511 21.351-81.107 52.355-5.93-7.828-15.157-12.896-25.539-12.896-17.639 0-31.955 14.545-32.371 32.596-4.509-2.435-9.639-3.838-15.101-3.838-6.709-.011-13.255 2.153-18.756 6.192-6.078-9.395-16.204-14.996-27.01-14.955-13.222 0-24.575 8.172-29.611 19.871-5.363-4.041-11.951-6.46-19.102-6.46z"/></svg>