<svg xmlns="http://www.w3.org/2000/svg" xml:space="preserve" width="780" height="125.68"><path fill="#103653" d="M36.915 46.099C41.951 57.798 53.304 65.97 66.526 65.97c10.806.041 20.932-5.56 27.01-14.955 5.501 4.039 12.047 6.203 18.756 6.192 5.462 0 10.592-1.403 15.101-3.838.416 18.051 14.732 32.596 32.371 32.596 10.382 0 19.609-5.067 25.539-12.896 14.596 31.004 45.413 52.354 81.107 52.354 39.66 0 73.327-26.418 85.352-63.092 4.563 2.4 9.585 3.652 14.689 3.648 7.436 0 14.268-2.604 19.742-6.953 5.219 29.972 30.589 52.729 61.186 52.729 27.228 0 50.305-18.059 58.756-43.129a21.296 21.296 0 0 0 8.31 1.688c7.108.033 13.802-3.563 17.969-9.625 14.34 9.914 31.584 15.697 50.154 15.697 14.741 0 28.642-3.685 40.932-10.14 1.786 33.757 28.838 60.582 62.054 60.582 30.583 0 55.968-22.76 61.189-52.751 5.686 4.523 12.619 6.98 19.744 6.972 5.295 0 10.272-1.334 14.689-3.652 12.023 36.676 45.683 63.096 85.35 63.096 47.209 0 85.927-37.412 89.775-85.022a87.235 87.235 0 0 0 34.979 7.254c23.988 0 45.77-9.68 61.918-25.426 16.324 23.649 43.125 39.096 73.459 39.096 37.604 0 69.805-23.734 83.315-57.456 5.088 3.208 10.905 4.896 16.838 4.896.906 0 1.797-.063 2.689-.141 9.766 40.391 45.197 70.316 87.427 70.316 36.25 0 67.485-22.082 81.785-53.861 2.569 1.065 5.375 1.688 8.318 1.688 2.602 0 5.101-.494 7.456-1.355 6.21 7.699 15.346 12.139 24.939 12.094 14.387 0 26.538-9.628 30.796-22.975 15.849 14.285 36.603 22.975 59.329 22.975 30.326 0 57.119-15.426 73.458-39.073 16.146 15.745 37.93 25.425 61.907 25.425a87.619 87.619 0 0 0 34.991-7.257c3.851 47.623 42.535 85.021 89.771 85.021 39.673 0 73.321-26.418 85.36-63.098 4.411 2.326 9.385 3.653 14.664 3.653 7.124.022 14.059-2.434 19.738-6.957 5.221 29.969 30.598 52.729 61.191 52.729 33.201 0 60.261-26.818 62.052-60.564 12.702 6.688 26.721 10.154 40.93 10.127 18.563 0 35.813-5.791 50.146-15.684 4.165 6.062 10.858 9.633 17.97 9.619 2.857 0 5.686-.574 8.319-1.684 8.435 25.088 31.517 43.125 58.739 43.125 30.58 0 55.967-22.761 61.188-52.744 5.688 4.524 12.623 6.98 19.736 6.973 5.312 0 10.277-1.332 14.695-3.648 12.031 36.672 45.694 63.093 85.361 63.093 7.715 0 15.188-1.056 22.329-2.941V-5H-5v47.854c6.105 6.246 14.294 9.727 22.813 9.705 7.151.001 13.739-2.419 19.102-6.46z"/></svg>