<?xml version="1.0" encoding="utf-8"?>
<!-- Generator: Adobe Illustrator 15.0.0, SVG Export Plug-In . SVG Version: 6.00 Build 0)  -->
<!DOCTYPE svg PUBLIC "-//W3C//DTD SVG 1.1//EN" "http://www.w3.org/Graphics/SVG/1.1/DTD/svg11.dtd">
<svg version="1.1" id="Calque_1" xmlns="http://www.w3.org/2000/svg" xmlns:xlink="http://www.w3.org/1999/xlink" x="0px" y="0px"
	 width="780px" height="125.68px" viewBox="0 0 780 125.68" enable-background="new 0 0 780 125.68" xml:space="preserve">
<path fill="#103653" d="M-5-16.66h797.5V140.5H-5V-16.66z"/>
<path fill="#007595" d="M17.813,71.281C9.294,71.259,1.105,74.74-5,80.986v47.854h2417.098V25.15
	c-7.142-1.886-14.614-2.941-22.329-2.941c-39.667,0-73.33,26.421-85.361,63.093c-4.418-2.316-9.384-3.648-14.695-3.648
	c-7.113-0.008-14.049,2.448-19.736,6.973c-5.221-29.983-30.607-52.744-61.188-52.744c-27.223,0-50.305,18.037-58.739,43.125
	c-2.634-1.11-5.462-1.682-8.319-1.684c-7.111-0.014-13.805,3.558-17.97,9.619c-14.333-9.893-31.583-15.684-50.146-15.684
	c-14.209-0.027-28.228,3.438-40.93,10.127c-1.791-33.746-28.851-60.564-62.052-60.564c-30.594,0-55.971,22.761-61.191,52.729
	c-5.68-4.523-12.614-6.979-19.738-6.957c-5.279,0-10.253,1.327-14.664,3.653c-12.039-36.68-45.688-63.098-85.36-63.098
	c-47.236,0-85.921,37.398-89.771,85.021c-11.042-4.797-22.953-7.268-34.991-7.257c-23.978,0-45.761,9.68-61.907,25.425
	c-16.339-23.647-43.132-39.073-73.458-39.073c-22.727,0-43.48,8.689-59.329,22.975c-4.258-13.347-16.409-22.975-30.796-22.975
	c-9.594-0.045-18.729,4.395-24.939,12.094c-2.355-0.861-4.854-1.355-7.456-1.355c-2.943,0-5.749,0.622-8.318,1.688
	c-14.3-31.779-45.535-53.861-81.785-53.861c-42.229,0-77.661,29.926-87.427,70.316c-0.894-0.086-1.791-0.133-2.689-0.141
	c-5.933,0-11.75,1.688-16.838,4.896c-13.511-33.722-45.712-57.456-83.315-57.456c-30.334,0-57.135,15.446-73.459,39.096
	c-16.148-15.746-37.93-25.426-61.918-25.426c-12.035-0.021-23.944,2.449-34.979,7.254c-3.849-47.61-42.566-85.022-89.775-85.022
	c-39.667,0-73.326,26.42-85.35,63.096c-4.417-2.318-9.395-3.652-14.689-3.652c-7.125-0.009-14.059,2.448-19.744,6.972
	C741.521,19.77,716.136-2.99,685.553-2.99c-33.216,0-60.269,26.825-62.055,60.582c-12.29-6.455-26.189-10.14-40.932-10.14
	c-18.57,0-35.813,5.783-50.154,15.697c-4.167-6.063-10.859-9.658-17.969-9.625c-2.854,0-5.681,0.574-8.309,1.688
	c-8.451-25.07-31.529-43.129-58.756-43.129c-30.598,0-55.968,22.757-61.187,52.729c-5.474-4.35-12.306-6.953-19.742-6.953
	c-5.104-0.004-10.126,1.248-14.688,3.648C339.737,24.834,306.07-1.584,266.41-1.584c-35.694,0-66.511,21.351-81.107,52.354
	c-5.93-7.828-15.157-12.896-25.539-12.896c-17.639,0-31.955,14.545-32.371,32.596c-4.509-2.435-9.639-3.838-15.101-3.838
	c-6.709-0.011-13.255,2.153-18.756,6.192c-6.078-9.396-16.204-14.996-27.01-14.955c-13.222,0-24.575,8.172-29.611,19.871
	C31.552,73.7,24.964,71.281,17.813,71.281z"/>
</svg>
