<svg xmlns="http://www.w3.org/2000/svg" xml:space="preserve" width="58.953" height="69.964" viewBox="-614.298 31.298 58.953 69.964"><g fill="#F8F9F6"><path d="M-593.998 97.367h-11.011a5.4 5.4 0 0 1-5.394-5.393V47.928a5.4 5.4 0 0 1 5.394-5.394h5.393v5.394c0 1.076.872 1.948 1.948 1.948h22.023a1.948 1.948 0 0 0 1.948-1.948v-5.394h5.394a5.4 5.4 0 0 1 5.393 5.394v18.353a1.948 1.948 0 1 0 3.896 0V47.928c0-5.123-4.167-9.29-9.288-9.29h-5.603c-.898-4.189-4.626-7.34-9.08-7.34h-7.341c-4.454 0-8.182 3.151-9.08 7.34h-5.602c-5.122 0-9.289 4.167-9.289 9.29v44.046c0 5.122 4.167 9.289 9.289 9.289h11.011a1.948 1.948 0 1 0-.001-3.896zm-1.722-56.781a5.4 5.4 0 0 1 5.393-5.393h7.341a5.4 5.4 0 0 1 5.394 5.393v5.394h-18.127v-5.394z"/><path d="m-558.67 79.585-16.975 16.975-5.964-5.963a1.948 1.948 0 1 0-2.755 2.755l7.341 7.341c.38.38.879.57 1.377.57s.997-.19 1.377-.57l18.353-18.352a1.948 1.948 0 0 0-2.754-2.756z"/></g></svg>