<svg xmlns="http://www.w3.org/2000/svg" xml:space="preserve" width="90.59" height="89" viewBox="0 0 90.59 89"><path fill="#97d0c9" d="M47.26 78.391c-1.358 3.221-.915 1.739.546.58.854-.679 1.776-1.279 2.678-1.893 1.616-1.098 3.21-2.172 4.715-3.42 4.548-3.777 8.598-7.75 10.633-13.435.866-2.42 1.428-7.442-1.797-8.56-3.258-1.13-5.842 3.192-6.708 5.612.515-1.437-.701.787-1.025 1.11-.873.869-1.836 1.653-2.776 2.447a54 54 0 0 1-4.688 3.541c-4.469 3.006-7.937 5.991-10.079 11.068-1 2.368-1.335 7.475 1.796 8.56 3.349 1.163 5.706-3.241 6.705-5.61" opacity=".75"/><path fill="#f8dcb8" d="M31.471 24.952c6.745-.595 13.254-2.783 20.067-3.029 6.712-.243 4.562 7.586 4.439 11.836-.094 3.279 2.789 4.693 5.512 3.182 3.203-1.777 5.2-5.598 5.303-9.185.188-6.541 1.294-12.862-4.015-17.71-3.049-2.784-8.45-1.804-12.07-1.277-4.657.677-9.422 2.051-14.076 2.461-3.585.316-6.105 3.151-7.335 6.418-.672 1.786-1.419 7.621 2.175 7.304" opacity=".75"/><path fill="#103653" d="m21.957 75.708-.215 7.279 4.458.083h8.377a14.18 14.18 0 0 0 9.673 3.799 14.2 14.2 0 0 0 8.277-2.651l4.139-3.45c2.874 1.441 5.244 2.164 7.14 2.162 1.525 0 2.746-.464 3.676-1.395 3.646-3.644 1.78-9.918.656-12.766a14.13 14.13 0 0 0 3.127-8.905 14.15 14.15 0 0 0-4.164-10.063c-1.945-1.95-3.618-3.171-6.991-3.831l-2.226-.317a14.3 14.3 0 0 0-6.137.996l-5.249-2.539c3.629-1.582 6.81-4.176 8.94-7.359a9.85 9.85 0 0 0 8.128 4.508 2.07 2.07 0 0 0 1.475-.632 2.08 2.08 0 0 0 .401-2.363c-.212-.444-.197-1.621.548-3.468a28.4 28.4 0 0 0 1.997-7.687c1.206-11.686-4-21.882-12.384-24.24a18.6 18.6 0 0 0-5.093-.737c-5.524 0-9.16 2.688-10.7 4.12a19 19 0 0 0-.834-.021 19.58 19.58 0 0 0-13.917 5.816 19.57 19.57 0 0 0-5.731 13.959c.021 7.794 4.58 14.706 11.634 17.877-.589.227-.966.39-.966.39a16.3 16.3 0 0 0-8.032 13.745zm28.051-22.116a3.984 3.984 0 0 1 5.632 0 3.95 3.95 0 0 1 1.163 2.817 3.964 3.964 0 0 1-3.979 3.977 3.97 3.97 0 0 1-3.978-3.955v-.022a3.94 3.94 0 0 1 1.162-2.817m4.447-46.693c6.424 1.803 10.359 10.126 9.367 19.783a24.2 24.2 0 0 1-1.711 6.554c-.475 1.17-.775 2.258-.902 3.255-1.44-.698-2.891-2.14-3.289-5.096 2.892-9.994-2.487-20.513-12.282-24.022 2.113-.953 5.413-1.446 8.817-.474m-15.48 3.502c7.693.015 14.062 5.49 15.31 12.937a12.03 12.03 0 0 1-6.705-5.34 2.06 2.06 0 0 0-1.856-1.142c-.615 0-1.202.27-1.6.74-5.163 6.079-15.788 5.713-20.357 5.229 1.471-7.134 7.857-12.415 15.208-12.424m-15.48 16.62c1.27.133 2.939.254 4.819.254 5.13 0 12.149-.902 17.11-5.078a16.05 16.05 0 0 0 8.979 5.499c-.892 7.771-7.522 13.757-15.422 13.766-8.171-.013-14.918-6.4-15.486-14.441m7.845 51.603h-4.945V58.313c0-6.533 5.318-11.846 11.847-11.846h2.129c2.727 0 5.323.93 7.407 2.599-.279.236-.542.479-.799.734L34.193 62.588c-4.329 4.329-5.28 10.775-2.853 16.036m32.997-.229c-.164.163-1.454.341-4.616-1.095l4.936-4.937c.619 2.25.879 4.827-.32 6.032m-.384-11.618-8.325 8.321a66 66 0 0 1-5.264-3.569 2.23 2.23 0 0 0-3.119.414 2.23 2.23 0 0 0 .416 3.115 69 69 0 0 0 4.741 3.271l-.919.92c-.016.018-.043.036-.058.055l-.253.259c-3.822 3.814-10.026 3.814-13.835 0a9.7 9.7 0 0 1-2.87-6.916 9.72 9.72 0 0 1 2.87-6.919l7.303-7.303a8.3 8.3 0 0 0 2.223 3.943c1.592 1.588 3.708 2.465 5.96 2.465s4.372-.872 5.963-2.465a8.38 8.38 0 0 0 2.469-5.963 8.38 8.38 0 0 0-2.469-5.961l-.257-.244a9.73 9.73 0 0 1 5.427 2.743 9.72 9.72 0 0 1 2.862 6.918 9.7 9.7 0 0 1-2.865 6.916"/></svg>