<svg xmlns="http://www.w3.org/2000/svg" xml:space="preserve" width="90.59" height="89"><path fill="#F8DCB8" d="M19.535 8.409h3.434v10.302h-3.434V8.409z" opacity=".75"/><path fill="#F8F9F6" d="M9.238 78.83c0 .949.769 1.717 1.717 1.717h68.678c.948 0 1.718-.768 1.718-1.717V32.472H9.238V78.83z"/><path fill="#97D0C9" d="M78.917 17.165h-5.151v3.433a3.434 3.434 0 0 1-3.434 3.435h-3.434a3.435 3.435 0 0 1-3.434-3.435v-3.433H49.729v3.433a3.434 3.434 0 0 1-3.434 3.435h-3.434a3.435 3.435 0 0 1-3.434-3.435v-3.433H25.691v3.433a3.435 3.435 0 0 1-3.434 3.435h-3.434a3.435 3.435 0 0 1-3.434-3.435v-3.433h-5.151c-.948 0-1.717.769-1.717 1.716V30.9h72.113V18.881a1.716 1.716 0 0 0-1.717-1.716z" opacity=".75"/><path fill="#103653" d="M79.634 11.878h-5.151V8.444a3.434 3.434 0 0 0-3.434-3.434h-3.434a3.435 3.435 0 0 0-3.434 3.434v3.434H50.445V8.444a3.434 3.434 0 0 0-3.434-3.434h-3.434a3.435 3.435 0 0 0-3.434 3.434v3.434H26.408V8.444a3.435 3.435 0 0 0-3.434-3.434H19.54a3.435 3.435 0 0 0-3.434 3.434v3.434h-5.151a5.15 5.15 0 0 0-5.151 5.151V78.84a5.15 5.15 0 0 0 5.151 5.15h68.678a5.151 5.151 0 0 0 5.151-5.15V17.029a5.15 5.15 0 0 0-5.15-5.151zM67.615 8.444h3.434v10.301h-3.434V8.444zm-24.037 0h3.434V18.745h-3.434V8.444zm-24.037 0h3.434v10.301h-3.434V8.444zm-8.585 6.868h5.151v3.434a3.434 3.434 0 0 0 3.434 3.434h3.434a3.434 3.434 0 0 0 3.434-3.434v-3.434h13.735v3.434a3.434 3.434 0 0 0 3.434 3.434h3.434a3.434 3.434 0 0 0 3.434-3.434v-3.434h13.736v3.434a3.433 3.433 0 0 0 3.434 3.434h3.434a3.434 3.434 0 0 0 3.434-3.434v-3.434h5.151c.948 0 1.718.769 1.718 1.717v12.018H9.238V17.029c0-.948.769-1.717 1.718-1.717zm68.678 65.245H10.956c-.948 0-1.717-.77-1.717-1.717V32.482h72.113V78.84c0 .947-.77 1.717-1.718 1.717z"/><path fill="#F8DCB8" d="M47.012 13.8V8.409h-3.434v10.302h3.434V13.8zM67.609 8.409h3.434v10.302h-3.434z" opacity=".75"/><g fill="#103653"><path d="M52.627 45.285H14.958a2.145 2.145 0 1 1 0-4.292h37.669a2.146 2.146 0 1 1 0 4.292zM67.609 45.285H59.71a2.146 2.146 0 1 1 0-4.292h7.899a2.146 2.146 0 0 1 0 4.292zM67.609 54.385H14.958a2.146 2.146 0 1 1 0-4.291H67.61a2.146 2.146 0 1 1-.001 4.291zM31.539 63.484H14.958a2.146 2.146 0 1 1 0-4.291h16.581a2.145 2.145 0 1 1 0 4.291zM67.609 63.484H41.283a2.146 2.146 0 1 1 0-4.291h26.326a2.145 2.145 0 1 1 0 4.291z"/></g></svg>