<svg xmlns="http://www.w3.org/2000/svg" xml:space="preserve" width="90.59" height="89"><path fill="#F8DCB8" d="M67.727 53.59c-.363 1.456-1.818 2.182-3.272 1.819l-20.363-4c-.727 0-1.455-.728-2.182-1.092-1.455-.727-2.182-1.818-2.182-3.272l.728-29.09c0-1.818 1.455-2.908 2.909-2.908 1.454 0 2.909 1.453 2.909 2.908l.364 25.09 18.908 6.546c1.817.364 2.544 2.182 2.181 3.999z" opacity=".75"/><path fill="#103653" d="M45.295 86.998c-23.434 0-42.499-19.065-42.499-42.499S21.861 2.001 45.295 2.001c11.396 0 22.08 4.409 30.085 12.414s12.414 18.689 12.413 30.084c0 23.434-19.064 42.499-42.498 42.499zm0-79.997c-20.677 0-37.499 16.822-37.499 37.498 0 20.677 16.822 37.499 37.499 37.499 20.677 0 37.498-16.822 37.498-37.499 0-10.06-3.888-19.488-10.948-26.549-7.062-7.06-16.49-10.949-26.55-10.949zm21.832 48.454a5.58 5.58 0 0 1-1.276-.149l-20.137-3.955c-1.089-.091-1.917-.643-2.535-1.055-.154-.104-.305-.212-.458-.289-2.296-1.147-3.563-3.104-3.563-5.508l.729-29.152C39.886 12.376 42.262 10 45.295 10c2.83 0 5.408 2.578 5.408 5.409l.338 23.3 17.117 5.926c2.916.691 4.607 3.62 3.951 6.899l-.026.115c-.568 2.277-2.56 3.806-4.956 3.806zm-20.805-9.081 20.668 4.063a.544.544 0 0 0 .234.005c.045-.335.039-.891-.24-.946l-.326-.089-20.564-7.119-.39-26.842c-.03-.147-.28-.4-.433-.445-.133.005-.385.062-.385.409l-.729 29.152c.001.236.001.574.8.974.383.192.709.409.997.602.11.071.26.172.368.236z"/></svg>