<svg xmlns="http://www.w3.org/2000/svg" xml:space="preserve" width="80" height="80"><g fill="#F8F9F6" stroke="#F8F9F6" stroke-miterlimit="10"><path d="M29.697 50.533h-5.41a.87.87 0 1 0-.004 1.742h5.412a.871.871 0 0 0 .002-1.742c.001 0 0 0 0 0z"/><path d="M30.195 6.642c-6.114-1.729-9.949 1.414-11.042 2.496a13.35 13.35 0 0 0-.849-.029c-7.545.023-13.644 6.159-13.621 13.704a13.66 13.66 0 0 0 8.56 12.633c-.909.283-1.793.643-2.643 1.073a1.015 1.015 0 0 0-.147.075A17.123 17.123 0 0 0 1.212 51.79v11.332a.872.872 0 0 0 1.742 0V51.791a15.363 15.363 0 0 1 7.517-13.203l7.026 18.916a.872.872 0 0 0 1.632 0l7.026-18.916a15.36 15.36 0 0 1 7.51 13.203v11.332c.02.48.425.855.906.836a.87.87 0 0 0 .835-.836V51.791a17.116 17.116 0 0 0-9.253-15.19.868.868 0 0 0-.142-.074 16.94 16.94 0 0 0-2.646-1.08 13.735 13.735 0 0 0 6.928-6.144 6.457 6.457 0 0 0 5.819 3.938h.036a.874.874 0 0 0 .78-1.245c-.29-.606-.147-1.72.385-3.046a19.898 19.898 0 0 0 1.402-5.398c.845-8.168-2.743-15.283-8.52-16.91zm-11.89 4.196a11.942 11.942 0 0 1 11.88 10.911 9.36 9.36 0 0 1-6.212-4.451.867.867 0 0 0-1.436-.166C18.263 22.165 9.226 21.428 6.5 21.075a11.942 11.942 0 0 1 11.805-10.237zm0 43.863-3.865-10.41a8.094 8.094 0 0 0 7.733 0l-3.868 10.41zm6.285-16.927-1.436 3.871c-.576.449-2.633 1.892-4.85 1.892-2.216 0-4.264-1.442-4.85-1.896l-1.437-3.867c4-1.792 8.575-1.792 12.573 0zm-6.285-3.086c-6.561-.007-11.886-5.308-11.923-11.869 2.949.383 11.674 1.05 16.688-3.719a11.087 11.087 0 0 0 7.134 4.416c-.404 6.277-5.609 11.165-11.899 11.172zm18.68-11.305a18.147 18.147 0 0 1-1.284 4.927c-.465 1.152-.685 2.167-.661 3.032-1.286-.348-3.265-1.417-3.649-4.667.381-1.27.574-2.588.576-3.913v-.024A13.691 13.691 0 0 0 21.479 9.469c1.528-1.034 4.337-2.261 8.239-1.152 4.969 1.397 8.023 7.734 7.267 15.066z"/><path d="M29.917 68.588h11.515a.86.86 0 0 0 .889-.889V18.69h6.787c.518 0 .892-.374.892-.889v-2.95h6.788a.86.86 0 0 0 .889-.889v-1.031h3.979v1.031a.86.86 0 0 0 .89.889h6.787v2.061H52.947a.862.862 0 0 0-.891.89c0 .515.375.889.891.889h24.061v39.896c0 .515.375.888.891.888.517 0 .891-.373.891-.888V17.801a.861.861 0 0 0-.891-.89H71.11v-2.95a.86.86 0 0 0-.889-.889h-6.787v-1.03a.86.86 0 0 0-.889-.889h-5.759a.86.86 0 0 0-.89.889v1.03h-6.789a.86.86 0 0 0-.889.889v2.95h-6.787a.86.86 0 0 0-.889.888v49.012H29.917c-.515 0-.889.373-.889.889s.374.888.889.888z"/><path d="M74.059 20.75H45.271a.86.86 0 0 0-.89.889v46.06c0 .516.374.889.89.889h29.196v-1.777h-5.278v-5.897h3.98v.069c0 .517.374.892.889.892.516 0 .89-.375.89-.892V21.639a.861.861 0 0 0-.889-.889zm-23.92 46.061H46.16v-5.897h3.979v5.897zm0-7.676H46.16v-5.898h3.979v5.898zm0-7.676H46.16v-5.9h3.979v5.9zm0-7.68H46.16v-5.898h3.979v5.898zm0-7.676H46.16v-5.897h3.979v5.897zm0-7.676H46.16V22.53h3.979v5.897zm5.757 38.384h-3.979v-5.897h3.979v5.897zm0-7.676h-3.979v-5.898h3.979v5.898zm0-7.676h-3.979v-5.9h3.979v5.9zm0-7.68h-3.979v-5.898h3.979v5.898zm0-7.676h-3.979v-5.897h3.979v5.897zm0-7.676h-3.979V22.53h3.979v5.897zm5.758 38.384h-3.979v-5.897h3.979v5.897zm0-7.676h-3.979v-5.898h3.979v5.898zm0-7.676h-3.979v-5.9h3.979v5.9zm0-7.68h-3.979v-5.898h3.979v5.898zm0-7.676h-3.979v-5.897h3.979v5.897zm0-7.676h-3.979V22.53h3.979v5.897zm5.759 38.384h-3.979v-5.897h3.979v5.897zm0-7.676h-3.979v-5.898h3.979v5.898zm0-7.676h-3.979v-5.9h3.979v5.9zm0-7.68h-3.979v-5.898h3.979v5.898zm0-7.676h-3.979v-5.897h3.979v5.897zm0-7.676h-3.979V22.53h3.979v5.897zm5.757 30.708h-3.98v-5.898h3.98v5.898zm0-7.676h-3.98v-5.9h3.98v5.9zm0-7.68h-3.98v-5.898h3.98v5.898zm0-7.676h-3.98v-5.897h3.98v5.897zm0-7.676h-3.98V22.53h3.98v5.897z"/></g></svg>