<svg xmlns="http://www.w3.org/2000/svg" xml:space="preserve" width="78.409" height="65.52" viewBox="-110.782 370.038 78.409 65.52"><path fill="#F8F9F6" d="M-32.582 411.398a1.558 1.558 0 0 0-1.209-.774c-.328-.03-7.225-.626-15.208 1.73 4.032-10.23 3.199-19.995 3.155-20.473a1.562 1.562 0 0 0-2.209-1.275c-.364.168-8.12 3.798-14.74 11.291-1.883-10.55-7.234-18.229-7.509-18.616a1.562 1.562 0 0 0-2.55 0c-.274.388-5.625 8.066-7.508 18.616-6.62-7.493-14.376-11.123-14.74-11.291a1.562 1.562 0 0 0-2.209 1.275c-.044.478-.877 10.242 3.155 20.473-7.983-2.355-14.881-1.761-15.208-1.73a1.559 1.559 0 0 0-1.275 2.209c.212.46 5.316 11.346 16.018 17.524 7.915 4.569 16.527 5.2 20.681 5.2 1.204 0 2.032-.053 2.362-.078.33.025 1.158.078 2.361.078 4.154 0 12.768-.631 20.681-5.2 10.702-6.179 15.806-17.064 16.019-17.524a1.568 1.568 0 0 0-.067-1.435zm-60.476 16.254c-7.09-4.094-11.604-10.631-13.583-13.986 3.057.023 8.588.422 14.266 2.582.232.442.473.884.727 1.323 4.047 7.01 9.916 11.851 14.144 14.688-4.221-.366-10.129-1.475-15.554-4.607zm4.116-11.642c-4.682-8.11-5.321-17.186-5.331-21.421 3.064 1.776 8.836 5.624 13.372 11.569a39.07 39.07 0 0 0-.109 2.884c0 8.433 2.813 15.844 5.137 20.529-3.937-2.665-9.378-7.169-13.069-13.561zm17.365 14.933c-2.161-3.748-6.309-12.206-6.309-21.901s4.148-18.153 6.309-21.901c2.162 3.749 6.309 12.207 6.309 21.901 0 9.695-4.148 18.153-6.309 21.901zm9.433-21.901c0-.976-.039-1.938-.109-2.884 4.538-5.946 10.313-9.796 13.375-11.571-.005 4.229-.639 13.29-5.334 21.423-3.68 6.374-9.125 10.882-13.065 13.552 2.324-4.686 5.133-12.093 5.133-20.52zm12.048 18.61c-5.425 3.132-11.333 4.241-15.554 4.606 4.228-2.837 10.097-7.678 14.144-14.688.253-.439.495-.881.727-1.323 5.66-2.153 11.202-2.553 14.264-2.579-1.981 3.357-6.493 9.891-13.581 13.984z"/><path fill="#F8F9F6" d="M-84.229 383.471a4.612 4.612 0 0 0-4.608 4.607c0 2.54 2.067 4.607 4.608 4.607s4.607-2.067 4.607-4.607a4.611 4.611 0 0 0-4.607-4.607zm0 6.091c-.818 0-1.484-.665-1.484-1.483s.666-1.484 1.484-1.484 1.484.666 1.484 1.484-.666 1.483-1.484 1.483zM-58.925 383.471a4.612 4.612 0 0 0-4.608 4.607 4.613 4.613 0 0 0 4.608 4.607 4.612 4.612 0 0 0 4.607-4.607 4.613 4.613 0 0 0-4.607-4.607zm0 6.091c-.818 0-1.484-.665-1.484-1.483s.666-1.484 1.484-1.484 1.483.666 1.483 1.484-.665 1.483-1.483 1.483zM-71.577 370.038a4.612 4.612 0 0 0-4.607 4.608c0 2.54 2.067 4.607 4.607 4.607s4.608-2.067 4.608-4.607a4.614 4.614 0 0 0-4.608-4.608zm0 6.092a1.484 1.484 0 0 1 0-2.967c.818 0 1.484.666 1.484 1.484s-.666 1.483-1.484 1.483zM-70.014 420.026a1.562 1.562 0 0 0-1.99.958c-.192.548-.32.852-.321.853a1.563 1.563 0 0 0 2.874 1.225c.017-.039.169-.4.395-1.045a1.562 1.562 0 0 0-.958-1.991zM-66.963 408.214a1.561 1.561 0 1 0-3.122.1 35.607 35.607 0 0 1-.7 8.149 1.562 1.562 0 1 0 3.063.614c.597-2.975.852-5.957.759-8.863z"/></svg>