<svg xmlns="http://www.w3.org/2000/svg" xml:space="preserve" width="81.629" height="76.981" viewBox="386.26 323.018 81.629 76.981"><path fill="#F8DCB8" d="M389.529 338.73c.797 4.06 3.026 6.923 6.737 8.728 1.72.836 3.653 1.306 5.462 1.905 2.156.713 2.71.654 2.714 2.931.013 6.699-.222 13.368.229 20.07.428 6.343.897 13.997 6.55 17.887 4.888 3.364 10.784 6.445 16.403 8.388 6.012 2.079 12.951-11.104 7.5-12.99-5.451-1.885-10.805-4.909-15.693-7.928-4.477-2.765-4.008-10.99-4.191-16.217-.212-6.043.979-13.146-.281-19.031-1.791-8.372-13.474-4.811-15.02-12.687-.698-3.554-4.792-2.367-6.677-.749-2.712 2.327-4.433 6.126-3.733 9.693z" opacity=".86"/><g fill="#103653"><path d="M466.84 329.011a4.882 4.882 0 0 0-2.709-1.722l-16.76-3.946v.001a9.342 9.342 0 0 0-2.441-.326c-1.896 0-3.77.575-5.361 1.681l-3.695 2.57a13.94 13.94 0 0 1-7.967 2.498 13.935 13.935 0 0 1-8.9-3.204l-1.641-1.354a9.394 9.394 0 0 0-5.986-2.157c-.744 0-1.492.092-2.231.272v-.001l-19.018 4.002a4.875 4.875 0 0 0-3.861 5.067l.75 12.563a4.868 4.868 0 0 0 5.413 4.554l.054-.005 7.521-.856.129-.007a1.156 1.156 0 0 1 1.156 1.152v27.813a10.9 10.9 0 0 0 3.922 8.375l12.951 10.795a13.906 13.906 0 0 0 8.909 3.224c3.159 0 6.329-1.077 8.908-3.224l12.952-10.795a10.905 10.905 0 0 0 3.92-8.375v-27.812a1.153 1.153 0 0 1 1.155-1.152l.127.007h.004l7.572.862a4.882 4.882 0 0 0 3.687-1.111 4.869 4.869 0 0 0 1.729-3.443l.754-12.634a4.89 4.89 0 0 0-1.043-3.312zm-2.676 3.091-.753 12.633a1.148 1.148 0 0 1-1.149 1.084l-.132-.007-7.571-.863h.003a4.97 4.97 0 0 0-.554-.029 4.876 4.876 0 0 0-4.875 4.872v27.813a7.177 7.177 0 0 1-2.582 5.517L433.6 393.915a10.165 10.165 0 0 1-6.526 2.364c-2.322 0-4.636-.786-6.527-2.364l-12.95-10.792a7.172 7.172 0 0 1-2.585-5.517v-27.812a4.864 4.864 0 0 0-1.628-3.634 4.87 4.87 0 0 0-3.799-1.209l-7.569.862-.132.007a1.155 1.155 0 0 1-1.151-1.085l-.75-12.581v.004l-.001-.064c0-.272.094-.521.257-.723.164-.203.388-.347.658-.404l19.055-4.009.037-.009a5.681 5.681 0 0 1 5.008 1.129l1.637 1.354a17.664 17.664 0 0 0 11.273 4.058c3.516 0 7.049-1.05 10.09-3.164l3.696-2.569a5.67 5.67 0 0 1 4.757-.808l.035.01.036.007 16.758 3.945a1.15 1.15 0 0 1 .89 1.12l-.005.071z"/><path d="m426.99 361.622.086-.004.082.004a7.398 7.398 0 0 0 6.818-10.28c-.268-.6-.625-1.132-.625-1.132a.515.515 0 0 0-.409-.26.514.514 0 0 0-.442.198l-2.129 2.786-2.81-3.628a.515.515 0 0 0-.403-.198l-.082.01-.086-.01a.51.51 0 0 0-.402.198l-2.81 3.628-2.13-2.786a.515.515 0 0 0-.443-.198.517.517 0 0 0-.407.26s-.357.532-.626 1.132a7.398 7.398 0 0 0 6.818 10.28zM422.832 365.315c-1.607-1.234-3.632-1.437-5.109-.66-.365 1.627.352 3.532 1.959 4.767 1.607 1.235 3.631 1.436 5.109.66.367-1.629-.35-3.531-1.959-4.767zM431.316 365.4c-1.609 1.236-2.328 3.138-1.959 4.768 1.477.774 3.502.574 5.109-.66 1.609-1.236 2.326-3.141 1.958-4.768-1.473-.776-3.501-.573-5.108.66zM426.049 362.891v8.114h2.053v-8.114a6.31 6.31 0 0 1-2.053 0z"/></g></svg>