<svg xmlns="http://www.w3.org/2000/svg" xml:space="preserve" width="80.171" height="80.171" viewBox="254.275 364.025 80.171 80.171"><path fill="#F8DCB8" d="M287.92 384.077c7.49 0 27.11 3.854 23.308 15.18-.768 2.288-1.396 6.969 2.175 7.305 3.379.317 6.394-3.615 7.335-6.419 2.492-7.425 2.799-15.468-3.204-21.284-6.116-5.926-16.159-8.504-24.454-8.505-5.872.001-11.598 13.723-5.16 13.723z"/><path fill="#103653" d="M328.326 432.089c3.957-3.938 6.12-9.148 6.12-14.807 0-5.125-1.824-9.936-5.137-13.726a27.986 27.986 0 0 0 1.362-8.674c0-17.88-16.064-30.857-38.198-30.857-22.133 0-38.198 12.978-38.198 30.857 0 8.126 3.388 15.584 9.572 21.144l-2.367 14.124a2.333 2.333 0 0 0 3.498 2.391l14.198-8.469c1.917.514 3.914.896 5.964 1.173 3.533 8.696 12.52 14.035 23.877 14.035 2.96 0 5.785-.36 8.415-1.074l8.803 5.623a2.339 2.339 0 0 0 2.534-.014 2.334 2.334 0 0 0 1.03-2.316l-1.473-9.41zm-40.832-11.285a2.314 2.314 0 0 0-.917-.092c-2.464-.289-4.838-.743-7.08-1.399a2.338 2.338 0 0 0-1.853.235l-10.725 6.397 1.75-10.444a2.336 2.336 0 0 0-.817-2.188c-5.745-4.737-8.908-11.283-8.908-18.432 0-15.419 13.787-26.188 33.528-26.188S326 379.462 326 394.881c0 2.905-.491 5.646-1.417 8.18a2.338 2.338 0 0 0-.154.388c-4.135 10.692-16.128 17.62-31.957 17.62a50.56 50.56 0 0 1-4.978-.265zm36.788 8.677a2.333 2.333 0 0 0-.762 2.111l.863 5.513-5.331-3.404a2.332 2.332 0 0 0-1.956-.26c-2.473.776-5.191 1.17-8.079 1.17-8.333 0-15.065-3.348-18.439-8.928.631.021 1.255.057 1.894.057 16.005 0 28.833-6.788 34.711-17.307 1.699 2.592 2.592 5.595 2.592 8.849.001 4.738-1.95 9.071-5.493 12.199z"/></svg>