<svg xmlns="http://www.w3.org/2000/svg" xml:space="preserve" width="79.461" height="77.973" viewBox="360.27 332.535 79.461 77.973"><path fill="#F8DCB8" d="M401.02 391.853a2.129 2.129 0 0 0 2.296-.001c7.477-4.771 11.471-7.732 13.945-11.65 2.163-3.428 2.307-7.557.385-11.045-1.781-3.23-5.047-5.238-8.523-5.238-1.69 0-4.242.478-6.955 2.699-2.715-2.223-5.267-2.699-6.957-2.699-3.476 0-6.742 2.008-8.523 5.239-1.922 3.487-1.779 7.616.385 11.044 2.473 3.918 6.468 6.879 13.947 11.651z" opacity=".86"/><g fill="#103653"><path d="M386.156 355.669c.564 0 1.096-.218 1.524-.64.406-.4.632-.935.637-1.504a2.118 2.118 0 0 0-.614-1.514c-.799-.813-2.179-.85-3.044.002-.407.399-.633.934-.637 1.504s.214 1.107.613 1.514c.403.411.944.638 1.521.638zM398.853 393.216a2.129 2.129 0 0 0 2.296-.001c7.477-4.771 11.471-7.732 13.945-11.65 2.163-3.428 2.308-7.557.386-11.045-1.781-3.23-5.048-5.238-8.524-5.238-1.69 0-4.241.478-6.955 2.699-2.714-2.223-5.266-2.699-6.956-2.699-3.476 0-6.742 2.008-8.523 5.239-1.922 3.487-1.779 7.616.385 11.044 2.473 3.917 6.467 6.878 13.946 11.651zm-10.593-20.635c1.03-1.869 2.863-3.03 4.785-3.03 1.802 0 3.669.973 5.401 2.814.805.854 2.306.852 3.108 0 1.732-1.842 3.6-2.814 5.401-2.814 1.921 0 3.754 1.161 4.784 3.031 1.16 2.104 1.064 4.609-.256 6.703-1.958 3.101-5.414 5.682-11.484 9.594-6.07-3.912-9.527-6.494-11.483-9.596-1.32-2.092-1.416-4.597-.256-6.702z"/><path d="M361.811 372.851c.397.399.948.629 1.513.629h5.042v26.338c0 5.895 4.796 10.689 10.691 10.689h41.886c5.895 0 10.691-4.795 10.691-10.689V373.48h5.042c.571 0 1.108-.223 1.515-.63l.076-.077a4.976 4.976 0 0 0 1.463-3.541 4.967 4.967 0 0 0-1.462-3.54l-29.563-29.563a12.22 12.22 0 0 0-8.705-3.594c-3.296 0-6.387 1.275-8.704 3.594l-29.563 29.563c-.944.942-1.463 2.2-1.463 3.54s.519 2.596 1.458 3.535l.083.084zm2.94-4.14 29.563-29.564a7.985 7.985 0 0 1 5.686-2.342c2.155 0 4.175.832 5.685 2.344l29.564 29.564a.718.718 0 0 1 .212.498H429.5a2.137 2.137 0 0 0-2.135 2.135v28.471a6.43 6.43 0 0 1-6.422 6.422h-41.886a6.43 6.43 0 0 1-6.422-6.422v-28.471a2.137 2.137 0 0 0-2.134-2.135h-5.961a.721.721 0 0 1 .211-.5z"/><path d="M422.962 385.482c1.177 0 2.136.957 2.136 2.133 0 1.246-.959 2.204-2.136 2.204s-2.134-.958-2.134-2.136c0-1.244.957-2.201 2.134-2.201zM420.828 392.329a2.136 2.136 0 0 1 4.27 0v7.487a2.136 2.136 0 0 1-4.27 0v-7.487zM388.146 348.524l7.773-7.772c.807-.807 2.213-.807 3.019 0a2.139 2.139 0 0 1 0 3.02l-7.773 7.772c-.404.403-.94.626-1.509.626-.57 0-1.106-.223-1.51-.625a2.14 2.14 0 0 1 0-3.021z"/></g></svg>