<svg xmlns="http://www.w3.org/2000/svg" xml:space="preserve" width="90.59" height="89" viewBox="348.577 258.166 90.59 89"><path fill="#F8DCB8" d="M410.694 282.945c-6.203 6.062-12.31 12.21-18.593 18.191-5.792 5.514-10.603 11.947-16.029 17.801-2.002 2.16-3.826 6.835-1.891 9.562 2.1 2.958 5.779-.006 7.413-1.769 4.983-5.376 9.394-11.289 14.71-16.35 5.862-5.581 11.546-11.336 17.335-16.993 2.436-2.38 4.736-6.118 3.732-9.694-.922-3.285-4.692-2.686-6.677-.748z"/><path fill="#F8DCB8" d="M381.167 285.718v5.65h5.649v5.65h-5.649v5.648h-5.649v-5.648h-5.651v-5.65h5.651v-5.65z" opacity=".86"/><g fill="#103653"><path d="M359.791 318.492h11.664a6.232 6.232 0 0 0 .467 5.306l-2.295 2.297-.037.039a4.45 4.45 0 0 0 .037 6.252l.742.74-8.762 8.763a2.391 2.391 0 0 0 3.38 3.382l8.762-8.762.74.74a4.416 4.416 0 0 0 3.147 1.304h.01a4.404 4.404 0 0 0 3.133-1.304l2.301-2.295a6.213 6.213 0 0 0 3.16.854h.014a6.222 6.222 0 0 0 4.422-1.84l32.879-32.877a6.274 6.274 0 0 0 .402-8.395l6.627-6.624 3.5 3.501a2.392 2.392 0 1 0 3.383-3.382l-16.779-16.778a2.392 2.392 0 0 0-3.383 3.383l3.504 3.502-6.627 6.626c-2.463-2.023-6.117-1.882-8.41.419l-9.829 9.828v-8.595c0-6.787-5.779-9.683-10.168-10.565v-2.54a4.364 4.364 0 0 0 3.953-4.341v-3.41a4.361 4.361 0 0 0-4.355-4.358h-20.361v.001a4.363 4.363 0 0 0-4.357 4.357v3.422a4.36 4.36 0 0 0 3.953 4.329v2.55c-4.385.902-10.166 3.812-10.166 10.556v28.442c-.001 2.865 2.548 5.473 5.349 5.473zm17.845 15.138-2.131-2.131a1.886 1.886 0 0 0-.063-.064c-.021-.022-.045-.043-.066-.064l-2.131-2.13 1.916-1.917 4.393 4.393-1.918 1.913zm46.555-53.95 3.01 3.01-6.605 6.604-3.01-3.01 6.605-6.604zm-29.279 21.288a2.42 2.42 0 0 0 .605-.606l13.641-13.641a1.484 1.484 0 0 1 2.094-.005l.021.021 8.887 8.885c.578.576.58 1.516-.004 2.102l-4.352 4.354-4.703-4.702a2.392 2.392 0 1 0-3.381 3.382l4.701 4.701-3.012 3.012-4.699-4.701a2.39 2.39 0 1 0-3.383 3.381l4.701 4.701-3.01 3.01-4.7-4.701a2.39 2.39 0 0 0-3.381-.001 2.39 2.39 0 0 0-.002 3.382l4.7 4.701-3.01 3.01-4.699-4.699a2.388 2.388 0 0 0-3.381 0 2.388 2.388 0 0 0 0 3.382l4.699 4.7-5.957 5.955c-.279.28-.65.436-1.045.436h-.004a1.46 1.46 0 0 1-1.041-.43 1.494 1.494 0 0 0-.057-.054l-1.926-1.926c-.014-.016-.029-.03-.045-.046l-4.861-4.863-.045-.043-1.977-1.977c-.279-.279-.436-.65-.436-1.045a1.47 1.47 0 0 1 .459-1.074l1.646-1.646c.104-.088.199-.183.285-.286l16.672-16.669zm-29.475-36.824h19.508v2.562h-19.508v-2.562zm-6.213 20.432c0-5.492 7.604-6.065 7.92-6.087a2.392 2.392 0 0 0 2.246-2.387v-4.613h11.602v4.613a2.39 2.39 0 0 0 2.26 2.387c.322.019 7.908.501 7.908 6.087v13.378l-15.754 15.755-15.58.003c-.221-.048-.588-.471-.602-.693v-28.443z"/><path d="M366.716 299.991h3.857v3.855c0 .99.803 1.793 1.793 1.793h5.65c.99 0 1.793-.803 1.793-1.793v-3.855h3.855c.99 0 1.793-.803 1.793-1.793v-5.65c0-.99-.803-1.793-1.793-1.793h-3.855v-3.857c0-.99-.803-1.793-1.793-1.793h-5.65c-.99 0-1.793.803-1.793 1.793v3.857h-3.857c-.99 0-1.793.803-1.793 1.793v5.65c0 .99.803 1.793 1.793 1.793zm1.795-5.65h3.855c.99 0 1.793-.803 1.793-1.793v-3.856h2.063v3.856c0 .99.803 1.793 1.795 1.793h3.855v2.063h-3.855c-.992 0-1.795.803-1.795 1.794v3.854h-2.063v-3.854c0-.991-.803-1.794-1.793-1.794h-3.855v-2.063z"/></g></svg>