<svg xmlns="http://www.w3.org/2000/svg" xml:space="preserve" width="78.871" height="78.643"><path fill="#F8DCB8" d="M59.169 30.468c-4.592-.053-11.224-1.216-15.502.665-2.156.948-2.072 3.993-2.47 3.328-1.048-1.747-1.948-3.589-2.866-5.407-1.479-2.93-2.736-6.343-4.846-8.895-2.875-3.479-6.939 1.057-8.549 3.415-1.26 1.843-2.145 3.897-3.021 5.943-.328.797-.66 1.591-.998 2.384-.422.996 2.441-.817-.398-.213-4.426.943-9.334-.628-13.908.146-5.539.939-10.206 14.787-2.542 13.489 6.269-1.063 14.026 2.08 19.866-1.502 5.816-3.568 5.25-7.375 5.25-7.375 1.848 6.875 1.848 9.25 4.703 12.172 3.504 3.744 7.659.109 9.801-3.147.791-1.203.121-1.462 2.621-1.203 3.662.192 4.033-.119 7.699-.077 5.873.067 11.629-13.648 5.16-13.723z"/><path fill="#103653" d="M57.454 4.254c-3.016 0-6.049.733-9.012 2.18-3.205 1.563-6.234 3.991-8.336 6.646-2.104-2.657-5.133-5.086-8.336-6.646-2.965-1.446-5.996-2.18-9.013-2.18-5.519 0-10.927 2.49-15.642 7.203-8.973 8.977-8.973 23.58 0 32.555l28.529 28.529a6.245 6.245 0 0 0 4.457 1.848h.023a6.298 6.298 0 0 0 4.439-1.846l28.531-28.531c8.973-8.975 8.973-23.578 0-32.553-4.713-4.714-10.121-7.205-15.64-7.205zm12.632 36.748L41.557 69.533c-.775.773-2.127.771-2.9 0L11.522 42.399h11.871c.811 0 1.541-.451 1.904-1.178l4.148-8.294 6.596 16.493a2.129 2.129 0 0 0 3.675.482l5.631-7.506h7.293a2.13 2.13 0 0 0 0-4.256h-8.357c-.668 0-1.303.318-1.703.852l-3.994 5.328-6.949-17.377c-.313-.775-1.053-1.3-1.971-1.336a2.15 2.15 0 0 0-1.908 1.176l-5.68 11.357h-14.3a18.712 18.712 0 0 1 2.35-23.672c3.879-3.88 8.263-5.931 12.678-5.931 2.369 0 4.758.579 7.1 1.722 2.842 1.385 6.516 4.133 8.299 7.691.205.406.541.742.951.949 1.027.514 2.346.066 2.854-.949 1.785-3.557 5.457-6.305 8.301-7.691 2.342-1.142 4.73-1.721 7.098-1.721 4.416 0 8.799 2.051 12.68 5.93 3.537 3.537 5.486 8.249 5.486 13.267s-1.951 9.73-5.489 13.267z"/></svg>