<svg xmlns="http://www.w3.org/2000/svg" xml:space="preserve" width="80" height="80"><path fill="#F8DCB8" d="M72.645 27.942c-.342-5.347 4.484-10.59-.068-15.55-4.621-5.033-12.233 2.609-15.622 5.583-5.509 4.834-16.285 1.449-22.841.431-7.007-1.089-13.802-9.479-21.159-6.669-5.799 2.216-8.494 9.481-7.31 15.275.758 3.711 3.308 5.966 4.73 9.32 1.07 2.524.397 5.311-.161 7.857-1.185 5.408-2.057 10.705 1.231 15.568 4.061 6.01 13.538 8.364 20.13 9.922 4.689 1.105 9.998-10.211 4.341-11.548-5.36-1.265-11.841-3.118-15.927-7.062-3.005-2.897-1.481-6.604-.71-10.125.985-4.495 1.122-9.15-.699-13.443-1.009-2.38 8.354 2.114 14.509 2.922 6.138.806 12.549 2.23 18.693.828 4.996-1.14 8.068-5.532 12.087-8.26 2.67-1.813 1.116 1.963.784 3.073-.684 2.27-1.258 4.54-1.105 6.928.475 7.503 9.404-.231 9.097-5.05z" opacity=".86"/><g fill="#103653"><path d="M42.988 56.62c0 .642-1.344 1.161-3 1.161s-3.001-.52-3.001-1.161c0-.644 1.344-1.162 3.001-1.162s3 .521 3 1.162zM52.939 47.665c0 1.604-.807 2.907-1.801 2.907s-1.8-1.303-1.8-2.907.806-2.908 1.8-2.908c.996 0 1.801 1.304 1.801 2.908zM30.612 47.665c0 1.604-.806 2.907-1.8 2.907s-1.801-1.303-1.801-2.907.806-2.908 1.801-2.908 1.8 1.304 1.8 2.908zM77.128 56.078c-.267 0-.537-.074-.776-.229-1.638-1.058-9.215-3.842-11.826-3.842a1.439 1.439 0 0 1 0-2.876c3.276 0 11.345 2.983 13.385 4.301.667.43.857 1.319.428 1.985a1.43 1.43 0 0 1-1.211.661zM71.124 65.381c-.267 0-.537-.074-.776-.23l-.464-.299c-1.758-1.148-5.418-3.539-7.761-3.539-.793 0-1.438-.646-1.438-1.438s.645-1.437 1.438-1.437c3.197 0 7.189 2.605 9.332 4.006l.449.295c.669.431.859 1.318.428 1.984a1.434 1.434 0 0 1-1.208.658zM2.704 56.078c-.472 0-.935-.23-1.208-.658a1.433 1.433 0 0 1 .428-1.984c2.04-1.317 10.107-4.302 13.384-4.302a1.44 1.44 0 0 1 1.438 1.438 1.44 1.44 0 0 1-1.438 1.437c-2.61 0-10.188 2.784-11.825 3.841a1.447 1.447 0 0 1-.779.228zM8.706 65.381a1.435 1.435 0 0 1-.781-2.644l.454-.295c2.143-1.399 6.132-4.004 9.328-4.004a1.437 1.437 0 1 1 0 2.875c-2.341 0-5.999 2.389-7.757 3.535l-.466.305a1.441 1.441 0 0 1-.778.228z"/></g><path fill="#103653" d="M67.719 33.807c-.402-.162-1.18-1.041-1.535-1.442a16.519 16.519 0 0 0-.752-.812l-.713-.694-2.74 2.792.715.701c.168.164.348.37.586.64.973 1.098 2.441 2.756 4.508 2.756.078 0 .154-.002.199-.005.67-.019 3.531-.776 4.246-3.934 1.123-4.975.746-11.836.744-11.836 0-3.504-1.184-6.376-3.424-8.305-2.455-2.117-5.371-2.434-6.893-2.434-1.184 0-2.584.373-4.283 1.14-.887.402-3.389 1.805-5.424 2.944-.955.535-1.732.971-2.004 1.11-.482.248-.861.423-1.07.502-.107.03-.35.075-.559.114-.619-.02-1.654-.115-2.869-.268-1.309-.16-2.912-.309-5.766-.309-2.86 0-4.461.148-5.774.309l-.6.077c-.742.095-1.338.171-2.139.189-.848-.266-1.59-.532-1.752-.615-.775-.397-1.639-.898-2.695-1.51-1.035-.59-3.57-2.019-4.738-2.545-1.699-.767-3.1-1.14-4.279-1.14-1.52 0-4.436.316-6.891 2.432-2.242 1.932-3.428 4.81-3.428 8.344l.182 9.193.018.181c.143.985.346 1.869.605 2.628.283.823.625 1.494 1.047 2.052l.072.097-.053.105c-.928 1.835-1.506 3.886-1.768 6.275-.234 2.145-.182 4.395-.137 6.42.018.74.033 1.436.033 2.084 0 9.363 6.838 14.475 12.574 17.113 6.559 3.014 14.486 4.088 19.719 4.088 5.232 0 13.16-1.074 19.721-4.088 5.059-2.326 11.318-6.764 12.41-14.695l.137-.99-3.881-.535-.135.99c-.85 6.172-5.998 9.756-10.164 11.674-5.982 2.748-13.266 3.727-18.086 3.727-4.821 0-12.102-.979-18.083-3.727-4.695-2.16-10.293-6.268-10.293-13.557 0-.676-.016-1.406-.035-2.174-.043-1.869-.094-3.988.113-5.904.209-1.91.658-3.523 1.371-4.936l1.158-2.296-1.557-2.041c-.162-.214-.314-.533-.457-.95a10.53 10.53 0 0 1-.418-1.805l-.178-8.969c0-2.326.715-4.172 2.068-5.337 1.496-1.291 3.357-1.483 4.334-1.483.418 0 1.219.138 2.67.792 1.027.465 3.83 2.043 4.49 2.425.975.564 1.895 1.098 2.76 1.543.715.37 2.494.911 2.693.971l.283.086.297-.002c1.195-.007 2.025-.113 2.912-.227l.58-.073c1.186-.146 2.648-.28 5.293-.28 2.639 0 4.117.138 5.32.285.859.108 2.455.29 3.553.295l.268-.032c.947-.172 1.186-.248 1.314-.298.451-.165.975-.402 1.596-.724.27-.139 1-.546 1.914-1.058l.236-.132c1.406-.789 4.334-2.431 5.102-2.779 1.451-.654 2.252-.792 2.668-.792.977 0 2.84.192 4.336 1.484 1.35 1.163 2.064 3.026 2.068 5.442.004.064.318 6.562-.652 10.869-.114.53-.46.764-.688.864z"/></svg>