<svg xmlns="http://www.w3.org/2000/svg" xml:space="preserve" width="80" height="80"><path fill="#F8DCB8" d="M8.249 38.317c.419 8.136 1.916 16.244 2.57 24.38.455 5.664 1.335 12.646 7.408 14.857 5.036 1.834 10.659.629 15.825.063 8.558-.939 17.663-1.059 26.278-1.141 6.428-.063 12.666-15.09 5.648-15.021-12.231.117-24.451 1.891-36.646 2.023-6.041.065-6.375-3.619-6.805-8.969-.61-7.599-2.048-15.175-2.439-22.766-.18-3.492-2.855-5.247-6.033-3.483-3.303 1.835-6.003 6.222-5.806 10.057z" opacity=".86"/><g fill="#103653"><path d="M40.365 12.521c-6.158 0-11.168 5.01-11.168 11.168v8.359h22.354v-8.359c.001-6.158-5.018-11.168-11.186-11.168zm6.996 15.338H33.385v-4.17a6.987 6.987 0 0 1 6.979-6.979c3.859 0 6.998 3.131 6.998 6.979v4.17zM40.359 43.251c-3.5.01-6.338 2.203-7.23 5.588-.777 2.946.171 5.852 2.479 7.705V60.7c0 3.083 2.451 4.747 4.756 4.747s4.755-1.663 4.758-4.746l.002-4.151c2.317-1.849 3.271-4.753 2.494-7.706-.893-3.398-3.74-5.593-7.259-5.593zm2.131 11.24-.557.313-.003 5.896c0 1.151-.844 1.56-1.566 1.56s-1.566-.41-1.566-1.56v-5.894l-.553-.314c-2.123-1.211-2.421-3.364-2.032-4.842.39-1.477 1.711-3.203 4.155-3.211 2.449.002 3.775 1.732 4.165 3.213.388 1.483.087 3.637-2.043 4.839z"/><path d="M66.575 27.863h-2.83v-4.17C63.745 10.8 53.256.31 40.361.31 27.468.31 16.978 10.8 16.978 23.693v4.17h-2.83c-3.396 0-6.16 2.77-6.16 6.176v38.794c.004 3.392 2.767 6.154 6.16 6.159h52.433c3.39-.007 6.15-2.77 6.155-6.16V34.039c0-3.406-2.763-6.176-6.161-6.176zm1.972 44.968a1.978 1.978 0 0 1-1.972 1.972H14.148a1.978 1.978 0 0 1-1.971-1.971V34.037a1.984 1.984 0 0 1 1.972-1.984h7.018v-8.359c0-10.584 8.61-19.194 19.194-19.194 10.583 0 19.193 8.61 19.193 19.194v8.359h7.017a1.987 1.987 0 0 1 1.976 1.986v38.792z"/></g></svg>