<?xml version="1.0" encoding="utf-8"?>
<!-- Generator: Adobe Illustrator 15.0.0, SVG Export Plug-In . SVG Version: 6.00 Build 0)  -->
<!DOCTYPE svg PUBLIC "-//W3C//DTD SVG 1.1//EN" "http://www.w3.org/Graphics/SVG/1.1/DTD/svg11.dtd">
<svg version="1.1" id="Calque_1" xmlns="http://www.w3.org/2000/svg" xmlns:xlink="http://www.w3.org/1999/xlink" x="0px" y="0px"
	 width="78.871px" height="78.643px" viewBox="0 0 78.871 78.643" enable-background="new 0 0 78.871 78.643" xml:space="preserve">
<g>
	<path fill="#97D0C9" d="M24.031,28.003c4.499-0.069,8.793-1.387,13.264-1.7c4.498-0.315,9.053,0.099,13.557,0.14
		c4.526,0.042,4.522-6.975,0-7.017c-4.521-0.042-9.034-0.302-13.557-0.14c-4.484,0.161-8.778,1.63-13.264,1.7
		C19.511,21.056,19.504,28.073,24.031,28.003L24.031,28.003z"/>
	<path fill="#F8DCB8" d="M57.38,11.963c-2.125-1.412-3.676-3.418-5.918-4.696c-2.667-1.519-6.474-1.469-9.431-1.792
		c-7.033-0.768-13.998-0.459-20.971,0.7c-4.195,0.697-8.224,2.069-10.714,5.718c-3.486,5.11-3.549,11.925-4.129,17.866
		c-1.076,11.033-0.842,26.273,6.12,35.67c7.991,10.783,25.022,7.809,36.625,7.721c4.927-0.037,4.896-14.07,0-14.033
		c-9.737,0.072-20.715,1.848-29.768-2.635c-6.973-3.451-6.731-16.673-6.21-22.992c0.257-3.122-0.34-9.191,2.492-11.306
		c3.019-2.254,7.716-2.354,11.282-2.757c5.576-0.631,11.11-0.373,16.671,0.234c2.584,0.282,4.982,0.464,7.286,1.776
		c1.743,0.994,3.088,2.921,4.799,4.058C59.61,28.216,61.375,14.616,57.38,11.963L57.38,11.963z"/>
	<path fill="#103653" d="M37.441,76.763c-15.566,0-23.38,0-28.704-5.916C3.511,65.04,3.511,56.445,3.511,39.321
		c0-17.123,0-25.719,5.227-31.526C14.062,1.88,21.875,1.88,37.441,1.88c15.567,0,23.381,0,28.705,5.915
		c3.73,4.146,4.716,9.946,5.051,17.381c0.058,1.29-0.942,2.383-2.233,2.441c-1.286,0.047-2.383-0.942-2.441-2.232
		c-0.35-7.809-1.394-11.728-3.854-14.461c-3.93-4.366-11.047-4.366-25.228-4.366c-14.18,0-21.297,0-25.227,4.366
		c-4.026,4.473-4.026,12.468-4.026,28.396s0,23.924,4.026,28.397c3.93,4.367,11.047,4.367,25.227,4.367
		c14.181,0,21.298,0,25.228-4.367c4.025-4.473,4.025-12.469,4.025-28.397c0-1.292,1.047-2.339,2.339-2.339s2.339,1.047,2.339,2.339
		c0,17.124,0,25.719-5.226,31.526C60.822,76.763,53.009,76.763,37.441,76.763z"/>
	<path fill="#103653" d="M47.973,34.64H26.911c-1.777,0-2.756,0-3.724-0.26c-2.616-0.701-4.676-2.762-5.377-5.377
		c-0.259-0.967-0.259-1.946-0.259-3.722c0-1.777,0-2.756,0.259-3.723c0.7-2.617,2.761-4.677,5.378-5.378
		c0.967-0.259,1.945-0.259,3.723-0.259h21.062c1.777,0,2.757,0,3.723,0.259c2.617,0.7,4.678,2.761,5.378,5.377
		c0.259,0.966,0.259,1.945,0.259,3.723c0,1.777,0,2.755-0.26,3.723c-0.7,2.615-2.76,4.676-5.377,5.377
		C50.729,34.64,49.75,34.64,47.973,34.64z M26.911,20.599c-1.334,0-2.14,0-2.512,0.1c-1.007,0.27-1.8,1.062-2.069,2.068
		c-0.1,0.372-0.1,1.178-0.1,2.514c0,1.335,0,2.14,0.1,2.513c0.27,1.006,1.062,1.798,2.069,2.068c0.373,0.1,1.178,0.1,2.513,0.1
		h21.062c1.335,0,2.141,0,2.512-0.1c1.008-0.27,1.8-1.063,2.07-2.069c0.1-0.373,0.1-1.178,0.1-2.513c0-1.335,0-2.141-0.1-2.512
		c-0.271-1.008-1.063-1.8-2.068-2.069c-0.373-0.1-1.179-0.1-2.514-0.1H26.911z"/>
	<circle fill="#103653" cx="23.401" cy="42.831" r="3.51"/>
	<circle fill="#103653" cx="23.401" cy="56.873" r="3.511"/>
	<circle fill="#103653" cx="37.441" cy="42.831" r="3.51"/>
	<circle fill="#103653" cx="37.441" cy="56.873" r="3.511"/>
	<circle fill="#103653" cx="51.482" cy="42.831" r="3.51"/>
	<circle fill="#103653" cx="51.482" cy="56.873" r="3.511"/>
</g>
</svg>
