<svg xmlns="http://www.w3.org/2000/svg" xml:space="preserve" width="800" height="800"><path fill="#F8F9F6" d="M147.645 614.434c.892.279 1.801.529 2.708.785 54.805 70.641 143.036 133.9 239.604 133.9h10.74c95.234 0 182.361-61.521 237.313-130.971 5.961-.805 11.588-2.033 16.955-3.717C750.18 584.565 800 464.016 800 360.37c0-87.424-47.455-234.148-133.262-270.762-16.1-6.871-32.656-10.209-50.615-10.209-37.523 0-73.787 14.932-108.855 29.373-33.252 13.689-64.666 26.627-95.139 26.627h-21.651c-30.466 0-61.88-12.936-95.137-26.627-35.07-14.441-71.333-29.373-108.851-29.373-17.961 0-34.516 3.338-50.612 10.209C50.067 126.223 2.609 272.946 2.609 360.37c0 103.642 49.817 224.195 145.036 254.064z"/><path fill="#96D2CA" d="M661.639 101.552c-85.014-36.278-168.243 46.833-249.51 46.833h-21.65c-81.26 0-164.495-83.112-249.501-46.833C61.185 135.597 15.596 277.645 15.596 360.37c0 91.361 42.57 212.389 135.935 241.671 64.465 20.228 167.473-38.093 238.949-38.093h21.649c71.481 0 174.484 58.317 238.948 38.093 93.372-29.282 135.937-150.31 135.937-241.671 0-82.725-45.583-224.773-125.375-258.818zM129.282 360.895c-17.835 0-32.293-14.458-32.293-32.294 0-17.833 14.458-32.291 32.293-32.291s32.293 14.458 32.293 32.291c0 17.836-14.457 32.294-32.293 32.294zm272.023 173.891c-139.05 0-214.32-88.378-214.32-185.439 0-97.063 117.257-166.059 214.32-166.059 97.063 0 212.722 71.784 212.722 168.851-.003 97.061-115.661 182.647-212.722 182.647zm272.023-172.567c-17.833 0-32.295-14.458-32.295-32.297 0-17.833 14.462-32.291 32.295-32.291 17.836 0 32.294 14.457 32.294 32.291 0 17.838-14.458 32.297-32.294 32.297z" opacity=".5"/><path fill="none" stroke="#103653" stroke-miterlimit="10" stroke-width="20.778" d="M390.479 563.948c-71.478 0-174.483 58.317-238.948 38.093C58.167 572.759 15.596 451.731 15.596 360.37c0-82.725 45.589-224.771 125.379-258.814 85.009-36.278 168.244 46.833 249.504 46.833"/><path fill="#103653" d="M129.282 370.347c-23.018 0-41.744-18.729-41.744-41.747 0-23.02 18.726-41.743 41.744-41.743 23.017 0 41.744 18.726 41.744 41.743 0 23.019-18.727 41.747-41.744 41.747zm0-64.586c-12.596 0-22.843 10.243-22.843 22.839s10.247 22.843 22.843 22.843 22.843-10.247 22.843-22.843c0-12.593-10.247-22.839-22.843-22.839z"/><path fill="#103653" d="M620.205 619.288h-.003c-33.825 0-72.362-11.185-109.632-22.001-34.479-10.005-70.125-20.352-98.441-20.352H390.48c-28.316 0-63.965 10.347-98.438 20.352-37.27 10.816-75.807 22.001-109.636 22.001-12.974 0-24.344-1.588-34.761-4.854C52.427 584.565 2.61 464.013 2.61 360.37c0-87.423 47.458-234.146 133.269-270.762 16.096-6.87 32.651-10.209 50.612-10.209 37.518 0 73.78 14.932 108.851 29.373 33.257 13.691 64.671 26.628 95.137 26.628h21.65c30.473 0 61.887-12.938 95.14-26.628 35.068-14.441 71.332-29.373 108.854-29.373 17.959 0 34.517 3.339 50.615 10.209C752.545 126.221 800 272.947 800 360.37c0 103.646-49.819 224.195-145.037 254.063-10.417 3.267-21.787 4.855-34.758 4.855zm-229.726-68.321h21.647c32.011 0 69.462 10.869 105.681 21.381 35.526 10.311 72.264 20.972 102.396 20.972 10.295 0 19.125-1.198 26.987-3.663 49.342-15.477 79.013-57.979 95.22-90.902 20.093-40.831 31.618-91.27 31.618-138.381 0-42.055-12.154-96.684-31.729-142.567-22.766-53.379-53.223-90.422-85.759-104.307-12.813-5.468-26.032-8.124-40.421-8.124-32.383 0-66.231 13.938-98.962 27.416-34.128 14.052-69.42 28.585-105.031 28.585h-21.65c-35.604 0-70.896-14.533-105.023-28.585-32.735-13.479-66.583-27.416-98.962-27.416-14.387 0-27.609 2.656-40.417 8.124-32.54 13.884-62.999 50.928-85.763 104.307-19.572 45.881-31.728 100.51-31.728 142.564 0 47.111 11.525 97.55 31.621 138.38 16.205 32.928 45.878 75.43 95.214 90.901 7.756 2.431 16.836 3.665 26.989 3.665 30.135 0 66.87-10.661 102.395-20.972 36.218-10.514 73.668-21.378 105.677-21.378z"/><path fill="#103653" d="M667.268 370.347c-23.019 0-41.742-18.729-41.742-41.747 0-23.019 18.727-41.743 41.742-41.743 23.021 0 41.741 18.727 41.741 41.743 0 23.02-18.722 41.747-41.741 41.747zm0-64.586c-12.596 0-22.843 10.244-22.843 22.839 0 12.596 10.247 22.843 22.843 22.843 12.597 0 22.844-10.247 22.844-22.843-.004-12.592-10.251-22.839-22.844-22.839z"/><path fill="#F8F9F6" d="M185.292 378.367c-102.591-5.975 5.195 284.248 207.601 283.744h9.695c202.406.504 310.191-289.719 207.604-283.744l-2.144-36.75c27.747-1.617 51.539 10.016 65.313 31.912 27.296 43.387 18.424 140.644-9.575 191.188-43.411 78.366-143 174.014-260.676 174.014h-10.739c-117.676 0-217.262-95.646-260.675-174.016-27.997-50.545-36.869-147.802-9.572-191.188 13.772-21.896 37.561-33.528 65.309-31.912l-2.141 36.752z"/><path fill="#103653" d="M400.696 749.121h-10.74c-117.075 0-221.905-92.979-269.762-179.369-28.885-52.149-39.465-153.771-9.278-201.754 15.85-25.198 43.044-38.606 74.708-36.751l-1.21 20.743c-23.807-1.384-44.215 8.479-55.911 27.071-25.378 40.338-15.622 134.606 9.867 180.622 44.999 81.23 142.923 168.66 251.586 168.66h10.74c108.667 0 206.589-87.428 251.586-168.66 25.49-46.016 35.246-140.283 9.869-180.622-11.696-18.596-32.107-28.46-55.911-27.071l-1.209-20.743c31.628-1.839 58.854 11.553 74.707 36.751 30.187 47.982 19.604 149.604-9.281 201.754-47.853 86.387-152.682 179.369-269.761 179.369z"/><path fill="#103653" d="M389.931 672.505c-106.167.002-186.452-76.597-226.213-148.371-30.588-55.223-39.084-108.813-21.645-136.531 6.096-9.688 18.252-20.952 41.409-19.604l-1.208 20.743c-10.616-.606-18.021 2.629-22.614 9.926-13.053 20.748-3.91 68.203 22.234 115.399 36.889 66.593 110.896 137.661 208.064 137.661h10.709c97.204 0 171.203-71.063 208.095-137.663 26.146-47.195 35.286-94.649 22.231-115.397-4.59-7.297-11.97-10.537-22.613-9.926l-1.208-20.743c23.168-1.347 35.314 9.917 41.41 19.604 17.438 27.719 8.943 81.312-21.646 136.531-39.759 71.771-120.054 148.36-226.238 148.369h-10.22l-.547.002z"/><path fill="#103653" d="M398.448 546.29c-125.211 0-227.075-84-227.075-187.253 0-103.252 101.864-187.255 227.075-187.255 125.214 0 227.08 84.003 227.08 187.255 0 103.253-101.866 187.253-227.08 187.253zm0-351.495c-112.521 0-204.065 73.681-204.065 164.242 0 90.564 91.544 164.244 204.065 164.244 112.522 0 204.066-73.68 204.066-164.244.004-90.564-91.54-164.242-204.066-164.242z"/><g fill="#103653" stroke="#103653" stroke-linecap="round" stroke-linejoin="round" stroke-miterlimit="10" stroke-width="3.204"><path d="m249.863 367.01-.549-.274c-2.564-.671-5.281-1.099-8.149-1.282-2.871-.183-5.8-.58-8.791-1.19a100.1 100.1 0 0 0 8.607 1.419c2.807.336 5.586.962 8.333 1.877a4.987 4.987 0 0 1-2.747.824 32.18 32.18 0 0 1-3.434-.549 31.543 31.543 0 0 0-3.617-.549c0-.366.092-.641.274-.824-1.771 0-3.525-.183-5.265-.549a82.993 82.993 0 0 1-5.083-1.236 238.92 238.92 0 0 0-4.807-1.282c-1.556-.396-3.008-.595-4.35-.595 0 .183-.031.275-.092.275a25.61 25.61 0 0 1 4.487 1.281c1.403.55 2.99.978 4.761 1.282 1.708.428 3.373.732 4.991.916 1.617.184 3.22.428 4.807.733a90.235 90.235 0 0 1-7.829-1.099 154.259 154.259 0 0 1-7.829-1.647l-4.304-1.1c-1.527 3.908-3.068 7.737-4.625 11.492s-3.068 7.555-4.533 11.401a.715.715 0 0 0-.595-.413c-.274-.031-.55-.046-.824-.046s-.535-.077-.778-.229c-.244-.153-.366-.474-.366-.962 0-.489.122-1.176.366-2.06.243-.884.702-2.061 1.374-3.526-.123-.122-.321-.197-.595-.229a6.284 6.284 0 0 0-.595-.046c-1.222 2.564-2.397 4.533-3.525 5.906-1.13 1.374-2.03 2.061-2.702 2.061-.732 0-1.099-.702-1.099-2.106 0-1.16.213-2.641.641-4.441.426-1.8.961-3.738 1.602-5.814a161.587 161.587 0 0 1 2.152-6.456 609.11 609.11 0 0 0 2.289-6.547 7.08 7.08 0 0 0-2.152-.915 25.009 25.009 0 0 0-2.518-.458c.183-.244.275-.549.275-.916 0-.366.03-.732.091-1.099.06-.366.183-.671.366-.916.184-.243.519-.366 1.008-.366.122 0 .488.061 1.099.183v-.824c-.977-.488-1.726-1.067-2.243-1.74-.52-.671-.778-1.342-.778-2.015 0-1.465 1.404-2.198 4.212-2.198.792 0 1.603.046 2.427.137.824.092 1.663.199 2.518.321l4.212-9.615a189.429 189.429 0 0 1 2.977-6.409 50.544 50.544 0 0 1 3.8-6.501 46.744 46.744 0 0 1 4.99-6.089c1.862-1.923 4.013-3.647 6.456-5.174l1.373-.549c1.708.428 3.098.779 4.167 1.053 1.067.275 1.937.474 2.609.595.61.245 1.1.398 1.465.458h-.091l.091.275c0 .062-.032.123-.091.183l1.099 1.923a134.976 134.976 0 0 1 10.073 20.694c2.747 7.142 5.096 14.163 7.05 21.061a70.322 70.322 0 0 0 1.786 4.898c.702 1.74 1.374 3.389 2.015 4.945s1.175 2.961 1.603 4.212c.426 1.251.641 2.151.641 2.701 0 .428-.092.687-.275.779-.183.091-.428.137-.732.137a409.462 409.462 0 0 1-4.487-11.721 619.735 619.735 0 0 1-4.12-11.446 355.678 355.678 0 0 0 3.846 11.446c1.403 3.846 2.807 7.753 4.212 11.721h-.641c-.367 0-.611.183-.732.549.122.123.275.444.458.961.183.518.367 1.067.549 1.648a17.1 17.1 0 0 1 .458 1.786c.122.609.183 1.067.183 1.373 0 1.342-.397 2.015-1.19 2.015-.428 0-.764-.091-1.007-.274a7.952 7.952 0 0 1-.824-.732l-.915-.916a9.065 9.065 0 0 0-1.374-1.099l-8.791-25.273c1.282 3.969 2.548 7.937 3.8 11.904a396.268 396.268 0 0 0 3.892 11.72c-.978-1.16-1.877-2.563-2.702-4.212a58.053 58.053 0 0 1-2.289-5.219 100.405 100.405 0 0 1-1.968-5.631 166.83 166.83 0 0 0-1.831-5.448c0 .123.014.229.045.321.03.091.046.199.046.32 0 .978-.306 1.71-.915 2.198l-.827.822zm-.55-9.522c.122 0 .305-.046.549-.137.243-.092.427-.138.549-.138a998.657 998.657 0 0 0-5.998-14.743 149.811 149.811 0 0 0-6.547-13.735l-.55.549 1.374 2.472a122.217 122.217 0 0 1 5.769 12.087 244.464 244.464 0 0 1 4.853 12.82 295.804 295.804 0 0 0-5.723-14.239c-2.046-4.73-4.228-9.019-6.547-12.865l-.367.183c-2.076 2.138-4.015 4.702-5.814 7.692a148.47 148.47 0 0 0-5.082 9.157l-2.381 5.769 1.557.366a72.26 72.26 0 0 1 2.701.778 20.22 20.22 0 0 1 2.335.87c1.342.672 3.113 1.19 5.311 1.556 2.197.366 4.35.719 6.456 1.053 2.106.336 3.938.703 5.494 1.099 1.557.398 2.335.961 2.335 1.694l-11.171-1.282c.671.123 1.495.26 2.472.412.976.154 1.969.321 2.976.504s1.999.352 2.976.503c.976.153 1.8.291 2.472.412 0 .184-.016.352-.046.503a2.092 2.092 0 0 0-.045.413c0 .123.076.199.229.229.151.032.334.062.549.092.213.031.412.107.595.229.183.062.366.245.549.549l-1.83-4.852zm-19.87-19.596c.122 0 .168.077.138.229-.031.153-.016.229.046.229.122 0 .488-.427 1.099-1.282.61-.854 1.312-1.832 2.106-2.93a201.04 201.04 0 0 1 2.289-3.113c.732-.976 1.25-1.617 1.556-1.923l-.458-.641c-1.282 1.222-2.473 2.656-3.571 4.304s-2.168 3.357-3.205 5.127zm5.311-12.819.732 1.922-.091-1.922c-.124 0-.261-.03-.413-.092a1.154 1.154 0 0 0-.412-.092l.184.184zm2.381 2.655-.641.457.549.733.549-.55-.457-.64zm1.282-.184h.091l-.458-.641v.091l.367.55zm.274.459a110.669 110.669 0 0 1 5.403 10.347 264.993 264.993 0 0 1 4.487 10.622 96.013 96.013 0 0 0-4.212-10.622 111.454 111.454 0 0 0-5.585-10.347h-.093zm.55-2.015c.793.183 1.343.366 1.648.549.305.183.518.275.641.275l.092-.275c.06 0-.062-.03-.367-.092a6.08 6.08 0 0 1-.732-.183l.183-.367-1.099-.366-.366.459zm13.461 15.75a711.066 711.066 0 0 1 5.585 14.925 383.37 383.37 0 0 0-5.402-14.651 169.691 169.691 0 0 0-6.135-14.376 177.61 177.61 0 0 1 5.952 14.102zM282.002 367.194c.976.306 2.152.855 3.526 1.648a86.312 86.312 0 0 0 4.624 2.472c1.708.856 3.586 1.618 5.632 2.289 2.044.673 4.226 1.008 6.547 1.008h1.007c.367 0 .792-.06 1.282-.184l1.007.733c2.381-.733 4.333-2.121 5.86-4.167 1.525-2.044 2.289-4.807 2.289-8.286 0-2.502-.595-4.227-1.786-5.174-1.19-.946-3.374-1.419-6.547-1.419-1.954 0-3.983.137-6.089.412a51.277 51.277 0 0 1-6.639.412c-1.039 0-2.106-.045-3.205-.137a19.615 19.615 0 0 1-3.388-.595v.549a29.72 29.72 0 0 0 7.234.916c2.319 0 4.532-.138 6.639-.412a47.025 47.025 0 0 1 6.089-.412c1.648 0 2.944.169 3.891.504.946.336 1.663.778 2.152 1.328.488.549.809 1.206.961 1.969.152.764.229 1.602.229 2.518 0 2.87-.764 5.312-2.289 7.326-1.465 1.893-3.205 3.083-5.22 3.571 2.258-.793 4.029-2.166 5.311-4.12 1.342-2.075 2.015-4.396 2.015-6.959 0-1.832-.474-3.235-1.419-4.212-.947-.976-2.58-1.465-4.899-1.465-1.893 0-4.029.123-6.41.366a74.37 74.37 0 0 1-7.6.366c-1.648 0-3.557-.213-5.723-.641a19.318 19.318 0 0 1-6.181-2.38c-1.954-1.159-3.603-2.762-4.944-4.808-1.344-2.045-2.014-4.716-2.014-8.012 0-2.624.533-5.05 1.602-7.28a19.766 19.766 0 0 1 4.257-5.86 20.434 20.434 0 0 1 6.09-3.983 19.16 19.16 0 0 1 7.096-1.557c2.319 0 4.533.321 6.639.962a33.546 33.546 0 0 1 5.998 2.472 48.647 48.647 0 0 1 5.403 3.343 81.591 81.591 0 0 1 4.761 3.663l-1.832 1.831c-.427 0-1.068-.259-1.923-.778-.855-.518-2.167-1.419-3.937-2.701l-.55.824c2.198 1.771 3.801 3.419 4.808 4.944 1.007 1.526 1.511 2.717 1.511 3.571-.123.49-.428.733-.916.733-.49 0-1.465-.397-2.931-1.19a440.364 440.364 0 0 0-4.99-2.656 55.39 55.39 0 0 0-5.906-2.656c-2.076-.792-3.969-1.19-5.677-1.19-.978 0-1.955.184-2.931.549a9.493 9.493 0 0 0-2.656 1.511 8.078 8.078 0 0 0-1.968 2.335 6.02 6.02 0 0 0-.778 3.022c0 1.771.824 2.961 2.472 3.571 1.648.611 3.815.916 6.501.916.55 0 1.146-.015 1.786-.046a10.32 10.32 0 0 0 1.786-.229c1.403 0 2.335-.046 2.792-.138.458-.091.9-.137 1.328-.137 2.624 0 5.249.183 7.875.55 2.624.366 4.975 1.16 7.051 2.381 2.075 1.221 3.754 2.961 5.036 5.219 1.282 2.259 1.923 5.281 1.923 9.065 0 2.625-.444 5.235-1.328 7.83a20.783 20.783 0 0 1-3.983 6.959c-1.771 2.046-3.969 3.694-6.593 4.944-2.625 1.25-5.708 1.877-9.249 1.877-2.137 0-4.655-.412-7.554-1.236a65.145 65.145 0 0 1-8.241-2.93c-2.596-1.129-4.793-2.304-6.593-3.525-1.801-1.221-2.702-2.258-2.702-3.114 0-.244.152-.426.458-.549 3.723 2.747 7.509 5.006 11.354 6.776 3.785 1.648 7.661 2.564 11.63 2.747a28.132 28.132 0 0 1-5.861-1.007 50.725 50.725 0 0 1-5.998-2.243 45.527 45.527 0 0 1-5.677-3.022 114.911 114.911 0 0 1-5.173-3.434l1.373-1.19c-.183-.061-.519-.275-1.007-.641-.49-.366-.961-.824-1.419-1.374s-.87-1.129-1.236-1.74c-.366-.61-.549-1.19-.549-1.74 0-.61.122-1.007.366-1.19.244-.183.518-.275.824-.275.304 0 .945.215 1.923.641.978.425 2.168.883 3.573 1.371zm20.237 9.34c-2.138 0-4.502-.442-7.096-1.328a37.521 37.521 0 0 1-7.372-3.434c1.892 1.282 3.998 2.426 6.318 3.434 2.32 1.007 5.005 1.511 8.058 1.511 4.089 0 7.34-1.25 9.753-3.754 2.41-2.502 3.617-5.86 3.617-10.073v-.916c-.307-1.953-.962-3.555-1.969-4.807-1.007-1.25-2.55-1.937-4.624-2.061 1.281.245 2.335.641 3.159 1.19.824.55 1.465 1.207 1.923 1.969.458.764.778 1.603.962 2.518.183.916.274 1.863.274 2.839-.245 4.029-1.527 7.188-3.846 9.477-2.321 2.29-5.373 3.435-9.157 3.435zm3.48-2.381h-.183.183zm8.149 5.952c1.525-.976 2.747-2.166 3.663-3.571a30.653 30.653 0 0 0 2.381-4.396c-1.282 2.564-3.038 4.823-5.265 6.776-2.229 1.954-4.869 3.173-7.92 3.663a35.642 35.642 0 0 0 3.617-.779 10.702 10.702 0 0 0 3.524-1.693zm8.699-17.215c0-.671-.123-1.312-.366-1.923a11.416 11.416 0 0 1-.458-1.557l.091 1.19c.061.49.092 1.16.092 2.014 0 1.648-.183 3.237-.549 4.762a37.913 37.913 0 0 1-1.374 4.487 84.377 84.377 0 0 0 1.603-4.258 18.54 18.54 0 0 0 .961-4.715zm-.824-3.755v.275-.275zM340.24 367.194c.977.306 2.152.855 3.526 1.648a87.088 87.088 0 0 0 4.624 2.472c1.708.856 3.585 1.618 5.631 2.289 2.045.673 4.227 1.008 6.547 1.008h1.008c.367 0 .792-.06 1.282-.184l1.007.733c2.381-.733 4.334-2.121 5.861-4.167 1.525-2.044 2.289-4.807 2.289-8.286 0-2.502-.595-4.227-1.786-5.174-1.19-.946-3.374-1.419-6.546-1.419a47.04 47.04 0 0 0-6.09.412 51.288 51.288 0 0 1-6.639.412c-1.039 0-2.106-.045-3.205-.137a19.615 19.615 0 0 1-3.388-.595v.549c2.441.611 4.853.916 7.234.916 2.319 0 4.532-.138 6.639-.412a47.037 47.037 0 0 1 6.089-.412c1.648 0 2.944.169 3.892.504.945.336 1.662.778 2.151 1.328.488.549.809 1.206.961 1.969.151.764.229 1.602.229 2.518 0 2.87-.764 5.312-2.289 7.326-1.465 1.893-3.206 3.083-5.22 3.571 2.258-.793 4.029-2.166 5.311-4.12 1.342-2.075 2.015-4.396 2.015-6.959 0-1.832-.475-3.235-1.42-4.212-.947-.976-2.58-1.465-4.899-1.465-1.893 0-4.029.123-6.41.366a74.405 74.405 0 0 1-7.601.366c-1.648 0-3.557-.213-5.723-.641a19.321 19.321 0 0 1-6.18-2.38c-1.955-1.159-3.603-2.762-4.945-4.808-1.343-2.045-2.014-4.716-2.014-8.012 0-2.624.534-5.05 1.603-7.28a19.766 19.766 0 0 1 4.257-5.86 20.429 20.429 0 0 1 6.089-3.983 19.166 19.166 0 0 1 7.097-1.557c2.319 0 4.532.321 6.639.962a33.576 33.576 0 0 1 5.998 2.472 48.647 48.647 0 0 1 5.403 3.343 81.624 81.624 0 0 1 4.762 3.663l-1.832 1.831c-.427 0-1.068-.259-1.922-.778-.856-.518-2.168-1.419-3.938-2.701l-.549.824c2.198 1.771 3.801 3.419 4.808 4.944 1.006 1.526 1.51 2.717 1.51 3.571-.123.49-.428.733-.916.733-.489 0-1.465-.397-2.93-1.19a459.098 459.098 0 0 0-4.991-2.656 55.39 55.39 0 0 0-5.906-2.656c-2.076-.792-3.969-1.19-5.678-1.19-.977 0-1.954.184-2.93.549a9.473 9.473 0 0 0-2.655 1.511 8.081 8.081 0 0 0-1.969 2.335c-.52.916-.778 1.922-.778 3.022 0 1.771.824 2.961 2.473 3.571 1.648.611 3.814.916 6.501.916.549 0 1.145-.015 1.786-.046a10.32 10.32 0 0 0 1.786-.229c1.404 0 2.335-.046 2.793-.138.458-.091.9-.137 1.327-.137 2.625 0 5.25.183 7.875.55 2.625.366 4.974 1.16 7.051 2.381 2.074 1.221 3.753 2.961 5.036 5.219 1.281 2.259 1.923 5.281 1.923 9.065 0 2.625-.444 5.235-1.328 7.83a20.8 20.8 0 0 1-3.983 6.959c-1.771 2.046-3.97 3.694-6.593 4.944-2.626 1.25-5.709 1.877-9.249 1.877-2.138 0-4.655-.412-7.554-1.236a65.145 65.145 0 0 1-8.241-2.93c-2.595-1.129-4.793-2.304-6.593-3.525-1.801-1.221-2.702-2.258-2.702-3.114 0-.244.151-.426.458-.549 3.723 2.747 7.509 5.006 11.355 6.776 3.785 1.648 7.66 2.564 11.629 2.747a28.112 28.112 0 0 1-5.86-1.007 50.725 50.725 0 0 1-5.998-2.243 45.54 45.54 0 0 1-5.678-3.022 116.101 116.101 0 0 1-5.174-3.434l1.374-1.19c-.184-.061-.52-.275-1.008-.641a8.474 8.474 0 0 1-1.419-1.374 13.712 13.712 0 0 1-1.236-1.74c-.366-.61-.549-1.19-.549-1.74 0-.61.122-1.007.366-1.19.243-.183.518-.275.824-.275.305 0 .946.215 1.922.641.978.425 2.168.883 3.573 1.371zm20.237 9.34c-2.138 0-4.503-.442-7.097-1.328a37.486 37.486 0 0 1-7.371-3.434c1.892 1.282 3.998 2.426 6.318 3.434 2.319 1.007 5.005 1.511 8.058 1.511 4.089 0 7.34-1.25 9.752-3.754 2.411-2.502 3.618-5.86 3.618-10.073v-.916c-.307-1.953-.962-3.555-1.969-4.807-1.007-1.25-2.55-1.937-4.625-2.061 1.282.245 2.334.641 3.159 1.19.824.55 1.465 1.207 1.923 1.969.458.764.778 1.603.961 2.518s.275 1.863.275 2.839c-.245 4.029-1.526 7.188-3.846 9.477-2.32 2.29-5.372 3.435-9.156 3.435zm3.48-2.381h-.184.184zm8.149 5.952c1.525-.976 2.747-2.166 3.663-3.571a30.548 30.548 0 0 0 2.38-4.396c-1.281 2.564-3.037 4.823-5.265 6.776-2.229 1.954-4.869 3.173-7.92 3.663a35.642 35.642 0 0 0 3.617-.779 10.707 10.707 0 0 0 3.525-1.693zm8.699-17.215c0-.671-.124-1.312-.367-1.923a11.56 11.56 0 0 1-.458-1.557l.091 1.19c.06.49.092 1.16.092 2.014 0 1.648-.183 3.237-.549 4.762a38.285 38.285 0 0 1-1.373 4.487 83.437 83.437 0 0 0 1.602-4.258c.519-1.494.839-3.066.962-4.715zm-.824-3.755v.275-.275zM431.534 377.541c0-2.015-.138-4.059-.412-6.135a45.993 45.993 0 0 1-.413-6.043v-2.473c-.306-2.38-.673-5.174-1.099-8.379a95.891 95.891 0 0 0-1.648-9.11c-.673-2.869-1.496-5.311-2.473-7.326s-2.197-3.022-3.661-3.022c-2.14 0-4.337.993-6.595 2.976-2.258 1.984-4.151 4.869-5.677 8.653a32.287 32.287 0 0 0-1.511 6.776 169.453 169.453 0 0 0-.687 7.508 518.569 518.569 0 0 0-.504 8.104 100.278 100.278 0 0 1-.87 8.653 6.745 6.745 0 0 0-.32 1.099c-.092.427-.169.794-.229 1.099h-11.264v-7.417a71.612 71.612 0 0 1-.183-2.198 84.468 84.468 0 0 0-.229-2.61 80.414 80.414 0 0 1-.229-2.609 88.648 88.648 0 0 0-.183-2.198c0-4.945-.199-9.889-.595-14.834a268.637 268.637 0 0 1-.778-15.109l2.106-.458c.183 0 .38.168.595.503.213.337.396.962.549 1.878.152.915.305 2.213.458 3.891.152 1.68.29 3.862.412 6.547a.71.71 0 0 0 .275-.091c.243-.122.426-.184.549-.184 0-.426-.016-.854-.046-1.282a17.69 17.69 0 0 1-.045-1.282c0-5.249.351-9.294 1.054-12.133.701-2.838 1.296-4.258 1.785-4.258.366 0 .732.794 1.098 2.381.367 1.588.763 4.091 1.19 7.509a37.45 37.45 0 0 1 3.571-4.762 23.51 23.51 0 0 1 4.533-3.983 23.265 23.265 0 0 1 5.448-2.701c1.953-.671 4.088-1.007 6.408-1.007 2.017 0 3.786.428 5.313 1.282a15.198 15.198 0 0 1 4.074 3.342c1.19 1.374 2.198 2.931 3.022 4.67s1.54 3.479 2.152 5.219a55.898 55.898 0 0 1 1.511 5.036c.396 1.619.747 2.976 1.053 4.075 0 .123.03.26.092.412.06.153.121.291.184.412.731-1.953 1.647-4.196 2.745-6.73a37.63 37.63 0 0 1 4.121-7.188 24.629 24.629 0 0 1 5.815-5.723c2.227-1.557 4.808-2.335 7.738-2.335 2.868 0 5.311.764 7.325 2.289 2.014 1.526 3.709 3.479 5.081 5.86 1.374 2.381 2.473 5.022 3.296 7.921.825 2.9 1.45 5.739 1.878 8.516.426 2.778.701 5.327.824 7.646.122 2.32.183 4.09.183 5.311 0 1.954-.076 3.388-.228 4.304-.154.916-.566 1.373-1.237 1.373a528.98 528.98 0 0 1-.32-7.417 105.588 105.588 0 0 0-.549-7.555 84.061 84.061 0 0 0-1.145-7.463 58.193 58.193 0 0 0-1.923-7.05c1.524 4.823 2.411 9.646 2.654 14.468.306 4.885.55 9.707.733 14.468-.428-.426-.765-.642-1.007-.642-.184 0-.307.124-.367.367v2.748c0 .794.014 1.618.046 2.472.03.855.105 1.589.229 2.198-.124 2.504-.229 4.29-.321 5.357-.091 1.067-.32 1.754-.686 2.061-.491 0-.917-.275-1.282-.825-.366-.549-.719-1.25-1.054-2.106-.337-.854-.656-1.8-.962-2.838a202.23 202.23 0 0 0-.915-3.022v-2.472c0-2.686-.016-5.494-.047-8.424-.03-2.93-.152-5.783-.364-8.562a77.144 77.144 0 0 0-1.009-7.921c-.458-2.502-1.069-4.715-1.83-6.639-.765-1.922-1.74-3.434-2.931-4.532-1.19-1.099-2.642-1.648-4.351-1.648-1.404 0-2.686.366-3.845 1.099-.673.428-1.345.978-2.016 1.648a12.552 12.552 0 0 1 2.107-1.556 6.89 6.89 0 0 1 3.753-1.099h.367c1.524 0 2.823.595 3.892 1.785 1.067 1.19 1.953 2.763 2.654 4.716.702 1.954 1.237 4.183 1.603 6.685.367 2.504.656 5.098.871 7.783.214 2.687.35 5.357.412 8.012.06 2.656.122 5.082.184 7.28-.367-1.708-.688-3.738-.962-6.089a771.23 771.23 0 0 1-.824-7.372 152.1 152.1 0 0 0-1.007-7.6c-.398-2.503-.902-4.746-1.512-6.73-.611-1.983-1.373-3.585-2.289-4.807-.916-1.221-2.046-1.832-3.389-1.832-.549 0-1.038.045-1.464.137-.428.091-.978.412-1.648.961l-.916-.458c-2.076 1.832-3.815 4.274-5.22 7.326-1.405 3.053-2.596 6.334-3.57 9.843a121.984 121.984 0 0 0-2.473 10.76 840.712 840.712 0 0 1-1.924 10.164v3.479a569.32 569.32 0 0 0 2.701-14.239 81.632 81.632 0 0 1 3.618-13.598 81.767 81.767 0 0 0-2.839 11.721 364.644 364.644 0 0 1-2.289 12.362c0 .427-.092 1.007-.274 1.739-.184.733-.49 1.832-.917 3.296l-10.072-1.007-.633-1.097zm1.006-4.578c-.184-1.648-.351-3.755-.503-6.318a339.569 339.569 0 0 0-.595-8.149 147.98 147.98 0 0 0-1.008-8.699c-.428-2.93-1.023-5.57-1.785-7.921-.765-2.349-1.71-4.258-2.839-5.723-1.131-1.465-2.55-2.198-4.258-2.198-.55 0-1.131.123-1.74.367-.611.245-1.191.519-1.74.824.184-.06.336-.092.458-.092h.091c0 .062-.091.183-.273.367 1.647-.549 2.931-.824 3.846-.824 1.159.427 2.198 1.374 3.113 2.838.916 1.465 1.693 3.221 2.335 5.265a60.146 60.146 0 0 1 1.648 6.639 89.345 89.345 0 0 1 1.053 6.822c.243 2.167.426 4.106.55 5.814.121 1.71.184 2.931.184 3.663.183 1.832.35 3.633.503 5.403.151 1.771.229 3.541.229 5.311l.731-3.389zm0-13.278c.123.978.198 1.923.229 2.839.03.915.077 1.771.137 2.564l.275 4.395.092-.458a33.596 33.596 0 0 1-.092-2.473v-2.289l-.641-4.578zm7.692-11.354c0 .062.061.336.183.824.121.428.213.703.275.824.184-.609.579-1.602 1.19-2.976a218.706 218.706 0 0 1 2.014-4.395 200.21 200.21 0 0 1 2.107-4.35c.242-.549.457-1.037.641-1.465a9.29 9.29 0 0 1-.732 1.191 112.486 112.486 0 0 1-2.198 3.8 108.066 108.066 0 0 0-2.198 3.799c-.671 1.222-1.099 2.138-1.282 2.748zm7.234-1.099a90.35 90.35 0 0 0-3.204 9.844 176.393 176.393 0 0 0-2.473 10.667l.184 1.465c.792-4.395 1.709-8.82 2.746-13.277.976-3.906 2.228-7.6 3.754-11.08a4.074 4.074 0 0 1-.182.458 17.91 17.91 0 0 0-.825 1.923zm-.365-11.263c-.124.123-.216.306-.276.549.121-.183.213-.366.276-.549zm1.921 13.278a59.65 59.65 0 0 0 .824-2.473c.305-.792.549-1.342.732-1.648 0 .123-.062.366-.184.732-.122.428-.365 1.069-.732 1.924l-.64 1.465zm13.553-20.97c-1.099-.305-2.137-.458-3.114-.458h-1.007c-.427 0-.641.032-.641.092h.092c.976.245 1.892.366 2.747.366h1.923zm6.319 3.846a7.089 7.089 0 0 0-1.191-1.099 25.024 25.024 0 0 0-1.007-.641c.732.49 1.464 1.069 2.198 1.74zM519.621 357.945c-1.648 0-2.884-.03-3.708-.091a31.246 31.246 0 0 0-2.244-.092c-1.831 0-3.449.092-4.854.275-1.403.184-2.595.549-3.57 1.099-.978.549-1.71 1.344-2.198 2.381-.489 1.039-.732 2.412-.732 4.12 0 2.504.289 4.35.87 5.54.579 1.191 1.404 2.046 2.473 2.564 1.066.519 2.365.84 3.892.961 1.524.123 3.234.398 5.128.824 1.099.123 2.197.199 3.296.229 1.1.032 2.198.045 3.297.045h6.592a184.867 184.867 0 0 0-9.11-.321c-3.021-.029-5.738-.288-8.149-.778-2.413-.488-4.365-1.342-5.861-2.564-1.495-1.221-2.242-3.082-2.242-5.586 0-2.014.259-3.555.778-4.624.518-1.067 1.221-1.861 2.105-2.381.885-.518 1.938-.824 3.16-.916a52.518 52.518 0 0 1 9.157.138 29.546 29.546 0 0 1-4.259.961c-1.435.215-2.763.428-3.982.641-1.223.214-2.275.489-3.159.824-.886.336-1.481.81-1.785 1.419v4.121l-.732.366c.243 1.526.472 2.671.687 3.434.214.764.809 1.343 1.785 1.74.976.397 2.548.718 4.716.961 2.167.245 5.325.641 9.478 1.19h6.594c1.158 0 1.845-.046 2.06-.137.213-.092.352-.137.411-.137l-.823-4.945a39.678 39.678 0 0 0-.457-3.296 38.872 38.872 0 0 0-.733-3.113c-.062.183-.245.275-.549.275.304 1.039.563 2.137.776 3.296.215 1.161.397 2.259.551 3.297.151 1.039.275 1.922.366 2.656.092.732.198 1.16.32 1.281l-.549.184c-.124.061-.307.091-.551.091h-.549a9.06 9.06 0 0 1-1.464-.137c-.55-.092-1.253-.138-2.107-.138h-3.021c-2.381 0-4.578-.121-6.593-.366-1.893-.243-3.541-.549-4.944-.915 1.403.306 3.113.549 5.128.732 2.136.245 4.12.367 5.951.367.793 0 1.633-.015 2.519-.046.885-.03 1.846-.046 2.884-.046h3.022a.883.883 0 0 0-.642-.275h-.184c-.243-4.212-.793-8.241-1.647-12.087s-2.229-7.218-4.121-10.118c-1.892-2.899-4.364-5.22-7.416-6.959-3.054-1.74-6.868-2.61-11.446-2.61-1.282 0-2.563.092-3.846.275a49.875 49.875 0 0 0-3.937.732c.12-.122.182-.243.182-.366 0-.305-.123-.595-.365-.87-.246-.274-.367-.563-.367-.87 0-.367.381-.717 1.146-1.053.762-.335 2.395-.656 4.898-.962-.123-.121-.199-.305-.23-.549a5.093 5.093 0 0 1-.044-.549c-3.297 0-5.86-.076-7.692-.229-1.831-.152-2.746-.595-2.746-1.328 0-.305.38-.733 1.145-1.282.762-.549 1.845-1.083 3.25-1.603 1.404-.518 3.098-.976 5.082-1.374 1.983-.396 4.197-.595 6.639-.595 4.701 0 8.729.718 12.087 2.152 3.357 1.435 6.181 3.328 8.471 5.677a30.003 30.003 0 0 1 5.585 8.012 59.444 59.444 0 0 1 3.479 9.02 66.974 66.974 0 0 1 1.97 8.791c.426 2.838.822 5.296 1.19 7.372 0 .366.014.732.046 1.099.029.366.045.794.045 1.282 0 1.771-.32 3.313-.961 4.624a9.328 9.328 0 0 1-2.656 3.297c-1.13.884-2.442 1.556-3.937 2.015-1.498.458-3.1.686-4.809.686-1.343 0-3.083-.031-5.219-.091a49.137 49.137 0 0 1-6.135-.549 31.45 31.45 0 0 0-4.213-.687 37.556 37.556 0 0 1-4.67-.778 24.858 24.858 0 0 1-4.624-1.557c-1.496-.671-2.839-1.694-4.029-3.068-1.19-1.373-2.137-3.159-2.838-5.356-.703-2.198-1.054-4.975-1.054-8.333 0-3.173.733-5.723 2.197-7.646 1.466-1.923 3.221-3.418 5.266-4.487 2.046-1.067 4.136-1.77 6.272-2.106 2.136-.335 3.876-.503 5.22-.503 1.709 0 2.839.123 3.388.366.55.245.824.49.824.733 0 .183-.031.336-.092.458-1.525 0-3.479.062-5.86.184a29.074 29.074 0 0 0-6.913 1.19c-2.229.672-4.137 1.694-5.724 3.067-1.588 1.374-2.381 3.312-2.381 5.814.55-2.257 1.48-4.043 2.793-5.357a12.616 12.616 0 0 1 4.532-2.93 19.668 19.668 0 0 1 5.267-1.19c1.8-.152 3.434-.229 4.898-.229h3.113c-.245.245-.366.489-.366.732 0 .245.121.458.366.641h3.571c.976.183 1.678.503 2.106.961.427.458.641.87.641 1.237 0 .549-.274 1.039-.824 1.465-.554.428-1.471.855-2.752 1.281zm-15.384 22.16a31.556 31.556 0 0 0 5.266 1.557c1.8.367 3.586.61 5.356.732 1.77.184 3.418.274 4.945.274a25.667 25.667 0 0 1-3.663-.64c-1.282-.305-2.412-.58-3.387-.824a22.467 22.467 0 0 0-3.069-.504 39.447 39.447 0 0 1-3.113-.412 18.927 18.927 0 0 1-3.25-.87c-1.1-.396-2.198-.992-3.296-1.786 1.159 1.04 2.564 1.863 4.211 2.473zm.916-9.615.55.549c.366.366.854.641 1.465.824a18.269 18.269 0 0 0-1.374-.458c-.672-.243-1.007-.61-1.007-1.099l.366.184zm2.289 1.374h-.274.274zM583.811 336.152c-.55 0-1.299.091-2.243.274-.948.184-1.895.398-2.839.641-.948.245-1.802.489-2.564.733-.764.245-1.237.427-1.419.549a48.3 48.3 0 0 0 4.395-.87c1.342-.334 2.808-.504 4.396-.504-.306.549-.702.978-1.189 1.282a5.767 5.767 0 0 1-1.604.687c-.581.153-1.206.274-1.876.366a19.47 19.47 0 0 0-2.107.413l-.642-.824c-1.159.428-2.045.687-2.654.778-.611.092-1.252.137-1.924.137-.731 0-1.48-.014-2.243-.045a64.35 64.35 0 0 0-2.518-.046c0 .306-.031.549-.092.732 1.403 0 2.594-.014 3.571-.046.976-.029 2.166-.137 3.571-.32a59.614 59.614 0 0 1-3.526.549c-1.007.123-2.213.183-3.616.183a116.512 116.512 0 0 0-.641 4.121 28.983 28.983 0 0 0-.274 3.938c0 .732.029 1.588.091 2.564.061.977.138 1.968.229 2.976a128.5 128.5 0 0 1 .229 2.838c.061.886.091 1.542.091 1.969v5.494c.306 1.222 1.19 2.138 2.656 2.747 1.466.611 3.57.916 6.318.916h2.931c1.037 0 1.753.107 2.151.321.396.214.595.503.595.87 0 .306-.244.473-.732.503-.488.032-.977.046-1.464.046-1.771 0-3.634-.122-5.587-.366a138.674 138.674 0 0 1-5.402-.824c1.77.428 3.631.824 5.586 1.19 2.014.306 3.967.458 5.86.458h.823c.244 0 .519-.03.825-.091 0 .306.014.581.046.824.03.245.105.519.229.824l.732-.183c.184-.06.396-.106.642-.138.243-.03.426-.105.549-.229 1.953.184 2.93.856 2.93 2.015 0 .673-.183 1.222-.549 1.648a3.797 3.797 0 0 1-1.374 1.007 6.677 6.677 0 0 1-1.83.503 14.22 14.22 0 0 1-1.924.138c-2.137 0-4.228-.138-6.272-.412a277.065 277.065 0 0 1-5.997-.87c1.707.611 3.874 1.099 6.501 1.465 2.624.366 5.279.549 7.967.549-.673.428-1.465.764-2.381 1.007-.916.245-1.863.367-2.839.367l-6.593-.824c-.855-.122-1.512-.243-1.97-.367a16.72 16.72 0 0 1-1.327-.411l-1.419-.504a30.206 30.206 0 0 0-2.151-.641v-1.007c-1.589-.426-2.871-1.159-3.847-2.198a12.245 12.245 0 0 1-2.289-3.388 13.899 13.899 0 0 1-1.099-3.708c-.184-1.25-.275-2.365-.275-3.343 0-1.037.014-1.999.047-2.884.029-.884.045-1.786.045-2.701 0-.671-.016-1.526-.045-2.564a158.568 158.568 0 0 0-.138-3.297 123.704 123.704 0 0 1-.138-3.571c-.032-1.22-.046-2.38-.046-3.479 0-.671.014-1.313.046-1.923.029-.61.076-1.159.138-1.648h-.916a10.16 10.16 0 0 0-.093 1.465v1.648c0 1.771.03 3.526.093 5.266.06 1.739.105 3.342.137 4.807.03 1.465.076 2.733.138 3.8.061 1.069.092 1.848.092 2.335v4.395c-.183-1.648-.366-3.997-.55-7.051-.183-3.54-.274-7.447-.274-11.721v-1.648c0-.671.014-1.312.046-1.923.029-.609.105-1.067.229-1.373l-3.113-.183a10.405 10.405 0 0 0-2.014-1.007c-.673-.244-1.282-.367-1.831-.367v-1.831c0-.367.045-.687.136-.962.092-.274.382-.412.87-.412.122 0 .427.062.916.184v-1.099a4.586 4.586 0 0 1-1.648-1.511c-.428-.641-.642-1.296-.642-1.969 0-1.587 1.13-2.381 3.389-2.381.854 0 1.74.062 2.656.183.915.123 1.861.215 2.839.274.242-1.342.457-2.548.641-3.617.182-1.067.366-2.106.55-3.113a52.46 52.46 0 0 1 .641-3.022c.242-1.007.55-2.06.915-3.159a19.62 19.62 0 0 0 1.282-3.983 35.22 35.22 0 0 0 .642-4.258l1.923.092c.304 0 .563.091.778.274.213.183.32.611.32 1.282 0 .549-.092 1.282-.275 2.198l1.1.274c.487-1.648 1.082-2.991 1.785-4.029.701-1.038 1.389-1.557 2.06-1.557 1.039 0 1.678 1.314 1.924 3.938v1.648c0 1.588-.107 3.067-.32 4.441a62.079 62.079 0 0 1-.778 4.075 424.434 424.434 0 0 0-.916 4.121 69.232 69.232 0 0 0-.824 4.578c1.343.183 2.655.275 3.938.275.609 0 1.221-.015 1.832-.046a37.23 37.23 0 0 1 1.831-.046c.609 0 1.251-.244 1.922-.732.672-.488 1.283-.733 1.832-.733.487 0 .854.153 1.099.458.243.307.366.641.366 1.007-1.098.306-2.184.626-3.251.961-1.068.336-2.092.657-3.066.961.975-.121 2.014-.35 3.112-.686a70.696 70.696 0 0 1 3.479-.961c0 .306.015.581.046.824.03.245.106.52.229.824.122 0 .274-.029.458-.091.366-.122.579-.184.641-.184.609.306 1.007.687 1.19 1.145.183.458.274.961.274 1.511 0 .428-.062.81-.183 1.145-.128.336-.188.626-.188.87zm-24.267 33.789c-.854-1.649-1.313-3.266-1.373-4.853a94.746 94.746 0 0 0-.274-4.487l-.825-13.918-.273 1.648c0 4.09.137 7.799.411 11.125.275 3.328.688 5.906 1.236 7.737 0 .549-.016.916-.046 1.099a2.838 2.838 0 0 0-.046.458c0 .123.076.274.229.457.15.184.472.429.961.734zm5.22-4.945a6.346 6.346 0 0 1-.184-1.557v-4.487c-.061.611-.122 1.206-.183 1.786a16.823 16.823 0 0 0-.092 1.786c0 1.588.092 2.809.274 3.662a3.542 3.542 0 0 0 1.1 1.831 3.188 3.188 0 0 1-.641-1.19 49.308 49.308 0 0 0-.274-1.831zm1.098 3.114c-.062-.061-.123-.092-.183-.092.06-.001.122.031.183.092z"/></g></svg>