<svg xmlns="http://www.w3.org/2000/svg" xml:space="preserve" width="78.871" height="78.643"><path fill="#F8DCB8" d="M22.542 29.263c.024 4.441.743 8.834.509 13.278-.19 3.617.172 8.967-1.313 12.27-1.924 4.279 4.398 8.015 6.336 3.704 1.734-3.857 1.716-7.788 1.866-11.951.088-2.455.543-4.829.521-7.302-.03-3.338-.563-6.651-.581-9.999-.024-4.731-7.363-4.733-7.338 0z"/><path fill="#97D0C9" d="M9.974 74.446c.384-3.334.241-6.696.818-10.009.47-2.699.681-6.745 2.094-9.088 1.831-3.038-2.577-6.412-4.42-3.354-1.649 2.738-1.991 5.689-2.48 8.799-.288 1.835-.844 3.575-1.051 5.433-.279 2.508-.179 5.042-.469 7.556-.407 3.551 5.099 4.216 5.508.663zM38.449 34.287c.017 3.356.56 6.677.384 10.035-.145 2.734.13 6.777-.993 9.272-1.453 3.234 3.325 6.058 4.791 2.8 1.31-2.914 1.296-5.886 1.408-9.032.067-1.855.411-3.65.394-5.519-.022-2.523-.424-5.027-.438-7.557-.018-3.574-5.566-3.576-5.546.001z"/><g fill="#103653"><path d="M60.572 21.222a2.447 2.447 0 0 1-1.096-4.635l4.938-2.469a4.487 4.487 0 0 1-.87-3.446 4.48 4.48 0 0 1 2.414-3.28l5.428-2.713a2.447 2.447 0 0 1 2.187 4.377l-4.938 2.469a4.481 4.481 0 0 1 .871 3.442 4.48 4.48 0 0 1-2.412 3.282l-5.429 2.714a2.44 2.44 0 0 1-1.093.259zM53.127 29.162h-.496a2.446 2.446 0 0 1 0-4.893h.496a2.445 2.445 0 0 1 2.446 2.446 2.445 2.445 0 0 1-2.446 2.447zM66.523 43.055h-.496a2.446 2.446 0 1 1 0-4.892h.496a2.445 2.445 0 1 1 0 4.892zM36.755 13.284a2.444 2.444 0 0 1-2.038-1.09l-3.97-5.955a2.446 2.446 0 1 1 4.071-2.714l3.97 5.955a2.446 2.446 0 0 1-2.033 3.804zM50.648 15.27a2.446 2.446 0 0 1-2.4-2.927l1.983-9.924a2.447 2.447 0 0 1 4.799.959l-1.985 9.924a2.447 2.447 0 0 1-2.397 1.968zM76.45 33.132c-.159 0-.32-.016-.482-.048l-9.924-1.985a2.445 2.445 0 1 1 .959-4.797l9.924 1.985a2.447 2.447 0 0 1-.477 4.845z"/></g><path fill="#103653" d="M9.983 78.922c1.529 0 3.241-.333 5.385-1.049l.178-.06L36.983 66.77c.323-.09.616-.242.87-.447l19.342-9.965a6.352 6.352 0 0 0 3.399-4.715 6.35 6.35 0 0 0-1.802-5.523L32.8 20.128a6.375 6.375 0 0 0-4.531-1.88 6.398 6.398 0 0 0-5.71 3.479L1.191 63.206l-.146.346c-1.342 4.025-2.03 8.305 1.994 12.329 2.047 2.047 4.318 3.041 6.944 3.041zm28.789-45.903 16.56 16.56a1.49 1.49 0 0 1 .428 1.312 1.518 1.518 0 0 1-.808 1.12l-16.18 8.334V33.019zm-11.863-9.051a1.505 1.505 0 0 1 1.361-.828c.285 0 .702.079 1.071.447l4.596 4.596a2.435 2.435 0 0 0-.057.516v34.167l-10.985 5.659V32.671c0-.243-.046-.473-.112-.694l4.126-8.009zM5.629 65.277l12.373-24.02v29.789l-4.357 2.244c-1.543.504-2.71.739-3.661.739-1.332 0-2.341-.467-3.483-1.607-1.665-1.665-2.191-3.103-.872-7.145z"/></svg>