<svg xmlns="http://www.w3.org/2000/svg" xml:space="preserve" width="90.59" height="89"><path fill="#F8DCB8" d="M39.391 18.886c-8.316.85-15.423 9.995-15.423 17.822 0 10.206 3.145 14.659 6.165 20.165.921 1.666 3.49 5.67 3.975 11.516 4.008-1.428 11.672-1.377 15.171.051 1.115-1.396 1.527-2 1.59-4.73.18-7.576 5.281-13.658 7.16-17.742 2.772-6.012 1.363-14.474-1.369-18.173-4.971-6.739-11.086-9.538-17.269-8.909z"/><g fill="#113653"><path d="M45.82 89.152a1.601 1.601 0 0 1-1.601-1.582c-.035-1.479-.97-3.707-2.202-4.83-1.375.078-2.646-.045-3.539-.404a1.617 1.617 0 0 1-1.013-1.43 1.618 1.618 0 0 1 .894-1.508c1.486-.736 3.078-.717 4.515.035 1.283-.174 2.675-.547 3.711-1.135.343-.197.615-.396.815-.602-3.223.773-6.648.949-7.862-.209-.574-.566-.761-1.363-.491-2.107.232-.961.926-1.674 1.85-2.17-2.456.094-4.48-.195-5.036-1.148a1.722 1.722 0 0 1-.099-1.559c-1.232-.25-2.384-.678-3.086-1.408a1.653 1.653 0 0 1-.295-.441c-.551-1.168-.426-2.42.345-3.422.42-.539 1.023-1 1.767-1.379-.587-4.336-2.379-7.498-3.335-9.158-.117-.209-.222-.404-.318-.572a61.572 61.572 0 0 0-.908-1.617c-2.806-5.002-5.453-9.719-5.453-19.319 0-8.189 7.364-18.453 16.864-19.417 6.998-.723 13.66 2.667 18.725 9.543 3.105 4.202 4.495 13.37 1.537 19.796-.523 1.141-1.265 2.402-2.058 3.732-2.149 3.648-4.83 8.191-4.955 13.375-.043 2.098-.322 3.211-.877 4.203.495.439.824.93.998 1.5.241.803.342 2.082-.723 3.344.268.125.51.248.727.383.366.227.624.592.719 1.01.267 1.146.219 3.352-3.066 5.215-.408.227-.869.459-1.377.67.022.338.007.684-.049 1.043-.152.971-.753 2.365-2.762 3.514-.732.41-1.604.756-2.527 1.031 1.094 1.699 1.744 3.76 1.781 5.379a1.623 1.623 0 0 1-1.58 1.645h-.036zm.862-16.675c1.143.217 2.092.645 2.806 1.223.894-.361 1.677-.793 2.234-1.281.202-.172.332-.32.419-.443a11.132 11.132 0 0 0-1.746-.479c-.991.349-2.29.691-3.713.98zm-8.97-4.95c.907.082 2.015.096 3.312.004 2.875-.207 5.478-.885 7.136-1.803-1.893-.295-4.416-.43-7.229-.172a21.232 21.232 0 0 0-3.027.484c.007.229.007.465.007.701.001.284-.068.552-.199.786zm6.095-5.302c2.037 0 3.966.164 5.408.426.576.111 1.108.234 1.592.367.424-.682.537-1.289.572-2.873.141-6.021 3.18-11.174 5.401-14.939.778-1.317 1.448-2.445 1.896-3.436 2.625-5.694 1.074-13.47-1.193-16.548-4.432-6.003-9.9-8.86-15.809-8.254-7.745.792-13.98 9.516-13.98 16.219 0 8.758 2.343 12.919 5.052 17.737.299.543.613 1.092.919 1.643.085.162.182.338.299.539 1.014 1.779 2.902 5.092 3.642 9.705 1.921-.418 4.114-.586 6.201-.586z"/><path d="M45.781 67.207a1.609 1.609 0 0 1-1.587-1.361c-.235-1.467-.449-10.146.613-17.525a9.33 9.33 0 0 1-2.101.258h-.253c-.191.008-.394.008-.612.008.587 3.576 1.105 8.279 1.612 14.367.1 1.162.168 2.031.224 2.445a1.614 1.614 0 0 1-1.396 1.801 1.606 1.606 0 0 1-1.794-1.396c-.062-.445-.131-1.354-.24-2.58-.587-7.049-1.193-11.824-1.755-15.049-.944-.275-1.842-.742-2.544-1.521-.25-.266-2.345-2.66-2.147-5.022.09-.957.53-1.775 1.301-2.365.846-.666 1.852-.818 2.755-.426 1.401.62 2.475 2.56 3.366 6.514.454.014.87.014 1.207.01h.272c.873 0 1.827-.238 2.764-.608.737-3.216 1.813-5.801 3.375-6.809.691-.441 2.107-1.018 3.865.134.057.039.112.083.166.124 1.014.877 1.294 2.177.778 3.565-.649 1.764-2.784 3.803-5.331 5.194a58.148 58.148 0 0 0-.637 4.662c-.594 5.828-.572 12.016-.313 13.723a1.61 1.61 0 0 1-1.334 1.844c-.084.005-.174.013-.254.013zm4.842-26.578c-.182.051-.537.434-.956 1.375.624-.646.887-1.125.977-1.375h-.021zM30.663 32.747a.874.874 0 0 1-.214-.012 1.606 1.606 0 0 1-1.375-1.811c.426-3.096 3.101-7.966 6.252-9.998 1.541-.995 3.138-1.283 4.616-.85a1.618 1.618 0 0 1 1.083 2.004 1.618 1.618 0 0 1-2.003 1.085c-.212-.062-.841-.25-1.949.467-2.387 1.537-4.531 5.68-4.81 7.724a1.616 1.616 0 0 1-1.6 1.391zM19.74 32.044c-.302 0-.602-.083-.874-.258-.877-.567-2.098-.525-3.503-.47-.424.014-.856.023-1.269.023-.887 0-1.61-.725-1.604-1.613 0-.886.721-1.603 1.604-1.603a.072.072 0 0 1 .042 0c.384 0 .748-.014 1.112-.027 1.709-.056 3.644-.127 5.367.983a1.611 1.611 0 0 1-.875 2.965zM23.968 20.414c-.35 0-.7-.11-.995-.343-.799-.626-1.442-1.41-2.057-2.167-.788-.966-1.532-1.877-2.38-2.152a1.61 1.61 0 0 1-1.037-2.022 1.607 1.607 0 0 1 2.027-1.039c1.75.564 2.882 1.951 3.886 3.179.528.645 1.03 1.257 1.545 1.669.703.551.827 1.562.272 2.255-.312.408-.786.62-1.261.62zM34.896 11.595c-.884 0-1.61-.714-1.61-1.605V2.589a1.612 1.612 0 0 1 3.223 0V9.99c0 .891-.723 1.605-1.613 1.605zM48.557 11.733c-.166 0-.332-.021-.498-.075a1.61 1.61 0 0 1-1.034-2.03c.22-.7.435-1.454.655-2.214.487-1.744.999-3.543 1.736-4.989a1.617 1.617 0 0 1 2.17-.703 1.619 1.619 0 0 1 .7 2.17c-.597 1.159-1.062 2.811-1.517 4.403-.223.797-.446 1.596-.684 2.324a1.604 1.604 0 0 1-1.528 1.114zM60.622 16.184c-.329 0-.668-.106-.956-.315a1.62 1.62 0 0 1-.329-2.258c.649-.871 1.114-1.705 1.566-2.513.792-1.415 1.617-2.882 3.255-4.255a1.618 1.618 0 0 1 2.275.201 1.624 1.624 0 0 1-.199 2.269c-1.193.997-1.781 2.039-2.522 3.356-.479.857-1.019 1.829-1.793 2.868-.32.42-.802.647-1.297.647zM66.975 24.643a1.608 1.608 0 0 1-.252-3.196c.771-.125 1.531-.438 2.34-.761.965-.403 2.073-.85 3.346-1.014.87-.11 1.686.509 1.805 1.39a1.614 1.614 0 0 1-1.391 1.806c-.861.113-1.682.447-2.545.802-.947.385-1.91.776-3.055.954a1.748 1.748 0 0 1-.248.019zM76.488 38.74h-7.047a1.603 1.603 0 0 1-1.604-1.605c0-.894.717-1.61 1.604-1.61h7.047c.895 0 1.611.716 1.611 1.61a1.604 1.604 0 0 1-1.611 1.605z"/></g></svg>