<?xml version="1.0" encoding="utf-8"?>
<!-- Generator: Adobe Illustrator 15.0.0, SVG Export Plug-In . SVG Version: 6.00 Build 0)  -->
<!DOCTYPE svg PUBLIC "-//W3C//DTD SVG 1.1//EN" "http://www.w3.org/Graphics/SVG/1.1/DTD/svg11.dtd">
<svg version="1.1" id="Calque_1" xmlns="http://www.w3.org/2000/svg" xmlns:xlink="http://www.w3.org/1999/xlink" x="0px" y="0px"
	 width="520px" height="880.002px" viewBox="0 0 520 880.002" enable-background="new 0 0 520 880.002" xml:space="preserve">
<path fill="#F8F9F7" d="M483.515,355.905L138.461,22.881C123.134,8.127,102.872,0.002,81.409,0.002
	c-21.029,0-40.987,7.848-56.234,22.135C9.101,37.237,0.161,57.587,0.002,79.435c-0.158,21.826,8.471,42.275,24.33,57.611
	l315.25,304.185l-312.7,301.74c-15.736,15.16-24.399,35.436-24.394,57.092c0.005,21.65,8.674,41.912,24.395,57.043
	c15.326,14.766,35.588,22.895,57.054,22.895c21.485,0,41.749-8.143,57.047-22.918l342.535-330.531
	c23.531-22.717,36.486-53.025,36.482-85.35C519.998,408.891,507.037,378.596,483.515,355.905z"/>
</svg>
