<svg xmlns="http://www.w3.org/2000/svg" xml:space="preserve" width="80" height="80"><path fill="#F8F9F7" d="M40 .525A39.622 39.622 0 0 0 .263 40.261 39.624 39.624 0 0 0 40 80a39.623 39.623 0 0 0 39.737-39.738A39.623 39.623 0 0 0 40 .525zm24.204 46.24c-.361 1.446-1.807 2.167-3.251 1.809l-20.231-3.977c-.722 0-1.443-.722-2.166-1.083-1.444-.723-2.168-1.806-2.168-3.252l.724-28.9c0-1.806 1.444-2.89 2.889-2.89 1.445 0 2.89 1.445 2.89 2.89l.361 24.927 18.786 6.502c1.805.361 2.528 2.168 2.166 3.974z"/><path fill="#F8DCB8" d="M22.689 5.874C7.953 20.044.375 41.293 11.049 60.099c3.622 6.382 9.923 11.652 16.775 14.203 8.492 3.16 16.811 2.196 25.025-1.286 4.905-2.08 8.31-9.188 8.226-14.248-.092-5.43-4.093-6.823-8.548-4.935-8.447 3.581-19.647-.9-25.646-9.138-3.063-4.204-4.257-8.533-4.259-13.059.06-1.158.042-1.198-.056-.121.091-.918.739-3.945.415-2.706.287-.932 3.443-5.939 4.275-6.74 3.8-3.654 7.339-9.519 5.789-15.036-1.436-5.12-7.262-4.134-10.356-1.159z"/></svg>