<?xml version="1.0" encoding="utf-8"?>
<!-- Generator: Adobe Illustrator 15.0.0, SVG Export Plug-In . SVG Version: 6.00 Build 0)  -->
<!DOCTYPE svg PUBLIC "-//W3C//DTD SVG 1.1//EN" "http://www.w3.org/Graphics/SVG/1.1/DTD/svg11.dtd">
<svg version="1.1" id="Calque_1" xmlns="http://www.w3.org/2000/svg" xmlns:xlink="http://www.w3.org/1999/xlink" x="0px" y="0px"
	 width="520.001px" height="880.002px" viewBox="-64.5 -12 520.001 880.002" enable-background="new -64.5 -12 520.001 880.002"
	 xml:space="preserve">
<path fill="#103653" d="M419.015,343.904L73.96,10.879C58.633-3.875,38.371-12,16.908-12c-21.029,0-40.987,7.848-56.234,22.135
	C-55.4,25.236-64.34,45.585-64.499,67.434c-0.158,21.826,8.471,42.275,24.33,57.611L275.08,429.231l-312.699,301.74
	c-15.736,15.159-24.399,35.436-24.394,57.092c0.005,21.649,8.674,41.912,24.395,57.042c15.326,14.766,35.588,22.896,57.054,22.896
	c21.485,0,41.749-8.144,57.047-22.919l342.535-330.532c23.531-22.715,36.487-53.025,36.482-85.348
	C455.496,396.89,442.536,366.595,419.015,343.904z"/>
</svg>
