<?xml version="1.0" encoding="utf-8"?>
<!-- Generator: Adobe Illustrator 15.0.0, SVG Export Plug-In . SVG Version: 6.00 Build 0)  -->
<!DOCTYPE svg PUBLIC "-//W3C//DTD SVG 1.1//EN" "http://www.w3.org/Graphics/SVG/1.1/DTD/svg11.dtd">
<svg version="1.1" id="Calque_1" xmlns="http://www.w3.org/2000/svg" xmlns:xlink="http://www.w3.org/1999/xlink" x="0px" y="0px"
	 width="780px" height="48.186px" viewBox="0 0 780 48.186" enable-background="new 0 0 780 48.186" xml:space="preserve">
<path fill="#96D2CA" d="M-5.5-6.407h804.946v60H-5.5V-6.407z"/>
<path fill="#F8F9F6" d="M6.498,29.124c-2.821-0.008-5.533,1.145-7.555,3.213v15.849h800.504V13.841
	c-2.366-0.625-4.84-0.975-7.396-0.975c-13.138,0-24.288,8.75-28.271,20.895c-1.463-0.768-3.108-1.209-4.867-1.209
	c-2.356-0.002-4.653,0.813-6.537,2.309c-1.73-9.93-10.138-17.468-20.265-17.468c-9.017,0-16.661,5.974-19.454,14.282
	c-0.872-0.368-1.809-0.558-2.755-0.557c-2.355-0.002-4.572,1.178-5.952,3.186c-4.747-3.273-10.46-5.193-16.607-5.193
	c-4.724-0.004-9.378,1.147-13.555,3.354c-0.594-11.176-9.554-20.059-20.55-20.059c-10.134,0-18.539,7.536-20.269,17.463
	c-1.881-1.499-4.178-2.313-6.537-2.306c-1.692,0.001-3.359,0.417-4.854,1.21c-3.988-12.146-15.131-20.896-28.271-20.896
	c-15.643,0-28.456,12.387-29.729,28.158c-3.657-1.588-7.603-2.405-11.589-2.402c-7.941,0-15.154,3.205-20.503,8.42
	c-5.411-7.832-14.284-12.938-24.328-12.938c-7.526,0-14.4,2.877-19.648,7.606c-1.41-4.419-5.433-7.606-10.199-7.606
	c-3.178-0.017-6.201,1.452-8.261,4.005c-0.79-0.295-1.626-0.447-2.469-0.45c-0.946,0.003-1.884,0.193-2.756,0.56
	c-4.735-10.525-15.08-17.839-27.086-17.839c-13.985,0-25.722,9.912-28.953,23.288c-0.296-0.024-0.592-0.046-0.894-0.046
	c-1.974,0.002-3.907,0.564-5.574,1.622c-4.478-11.167-15.142-19.028-27.596-19.028c-10.046,0-18.921,5.115-24.328,12.947
	c-5.349-5.215-12.561-8.42-20.506-8.42c-3.985-0.008-7.931,0.81-11.585,2.401c-1.272-15.768-14.095-28.158-29.729-28.158
	c-13.138,0-24.284,8.75-28.267,20.896c-1.462-0.769-3.111-1.21-4.864-1.21c-2.36-0.003-4.657,0.813-6.539,2.311
	C246.176,12.06,237.77,4.523,227.64,4.523c-10.999,0-19.958,8.885-20.55,20.063c-4.07-2.136-8.673-3.357-13.556-3.357
	c-6.15,0-11.861,1.916-16.61,5.199c-1.38-2.009-3.596-3.201-5.952-3.188c-0.978,0-1.9,0.202-2.749,0.56
	c-2.799-8.304-10.443-14.283-19.459-14.283c-10.133,0-18.536,7.537-20.264,17.463c-1.812-1.439-4.074-2.303-6.538-2.303
	c-1.69-0.001-3.355,0.413-4.865,1.209C113.114,13.74,101.964,4.99,88.829,4.99c-11.821,0-22.027,7.069-26.861,17.34
	c-1.964-2.591-5.02-4.271-8.458-4.271c-5.842,0-10.583,4.816-10.721,10.795c-1.493-0.805-3.192-1.271-5.001-1.271
	c-2.237,0.002-4.414,0.722-6.212,2.052c-2.013-3.111-5.366-4.967-8.945-4.953c-4.379,0-8.139,2.706-9.807,6.581
	C11.048,29.924,8.866,29.124,6.498,29.124z"/>
</svg>
