<svg xmlns="http://www.w3.org/2000/svg" xml:space="preserve" width="800" height="800"><circle cx="379.216" cy="49.679" r="34.93" fill="#9786BD"/><path fill="#9786BD" d="M455.586 243.838c0-42.175-34.188-76.364-76.364-76.364-42.175 0-76.364 34.189-76.364 76.364"/><g fill="#F8F9F6"><path d="M550.654 243.838H207.791c-41.216 0-74.627 33.411-74.627 74.627v200.321c0 41.215 33.411 74.627 74.627 74.627h342.865c41.213 0 74.627-33.412 74.627-74.627V318.465c-.002-41.216-33.414-74.627-74.629-74.627zM625.281 785.916v-58.56c0-41.217-33.412-74.628-74.627-74.628H207.791c-41.216 0-74.627 33.411-74.627 74.628v58.56"/></g><path fill="#F8F9F6" d="M207.789 593.418h342.872v59.318H207.789z"/><path fill="#F79927" d="M444.289 481.412H314.154c-26.856 0-48.628 21.772-48.628 48.628v63.373h227.391V530.04c-.001-26.856-21.771-48.628-48.628-48.628z"/><g fill="#F79927"><circle cx="520.689" cy="389.783" r="49.212"/><path d="M286.963 389.776c0 5.821-1 11.386-2.867 16.563-6.788 19.039-24.979 32.649-46.344 32.649-21.364 0-39.556-13.61-46.344-32.649-1.866-5.177-2.867-10.742-2.867-16.563 0-27.185 22.027-49.211 49.211-49.211 27.186-.001 49.211 22.025 49.211 49.211z"/></g><path fill="#103653" d="M624.953 352.093c7.029 0 12.725-5.697 12.725-12.726v-21.234c0-48.166-39.188-87.355-87.354-87.355H316.538c5.912-29.011 31.623-50.909 62.355-50.909 22.943 0 44.199 12.432 55.48 32.443 3.449 6.124 11.211 8.287 17.336 4.836 6.121-3.451 8.289-11.212 4.836-17.335-13.67-24.258-37.832-40.545-64.928-44.471v-60.08c20.118-5.583 34.932-24.047 34.932-45.917 0-26.277-21.379-47.656-47.659-47.656-26.278 0-47.655 21.379-47.655 47.656 0 21.871 14.812 40.334 34.929 45.917v60.076c-38.954 5.597-69.84 36.482-75.439 75.439h-83.266c-48.167 0-87.355 39.188-87.355 87.354V518.45c0 43.846 32.472 80.236 74.627 86.418v35.736c-42.155 6.182-74.627 42.573-74.627 86.419v58.558c0 7.03 5.696 12.729 12.728 12.729 7.031 0 12.728-5.698 12.728-12.729v-58.558c0-34.131 27.765-61.901 61.9-61.901h252.89c7.031 0 12.729-5.698 12.729-12.726 0-7.031-5.697-12.729-12.729-12.729H220.19v-33.863h317.411v33.863h-34.822c-7.031 0-12.73 5.698-12.73 12.729 0 7.027 5.699 12.726 12.73 12.726h47.549c34.129 0 61.9 27.769 61.9 61.901v58.558c0 7.03 5.695 12.729 12.727 12.729 7.029 0 12.725-5.698 12.725-12.729v-58.558c0-43.846-32.469-80.237-74.627-86.419v-35.736c42.158-6.182 74.627-42.575 74.627-86.418V381.789c0-7.03-5.695-12.726-12.725-12.726-7.031 0-12.727 5.696-12.727 12.726v136.662c0 34.131-27.768 61.9-61.9 61.9h-45.012v-50.644c0-33.834-27.525-61.356-61.354-61.356H313.825c-33.832 0-61.354 27.524-61.354 61.354v50.644h-45.009c-34.131 0-61.9-27.766-61.9-61.898V318.132c0-34.129 27.767-61.899 61.9-61.899h342.863c34.131 0 61.9 27.766 61.9 61.899v21.233c-.002 7.029 5.699 12.728 12.728 12.728zM356.689 49.345c0-12.241 9.96-22.202 22.204-22.202s22.201 9.961 22.201 22.202c0 12.243-9.958 22.201-22.201 22.201s-22.204-9.957-22.204-22.201zm-30.137 444.461h39.612v86.545h-39.612v-86.545zm153.309 35.902v50.644h-23.174v-33.96c0-7.027-5.695-12.726-12.725-12.726-7.031 0-12.73 5.698-12.73 12.726v33.958h-39.61v-86.543h39.61v18.646c0 7.027 5.699 12.726 12.73 12.726 7.029 0 12.725-5.698 12.725-12.726v-16.276c13.524 5.157 23.174 18.22 23.174 33.531zm-201.936 0c0-15.311 9.65-28.377 23.173-33.528v84.172h-23.173v-50.644z"/><path fill="#103653" d="M458.426 389.444c0 34.154 27.785 61.94 61.938 61.94 34.154 0 61.939-27.786 61.939-61.94 0-34.153-27.785-61.939-61.939-61.939-34.153 0-61.938 27.785-61.938 61.939zm98.422 0c0 20.118-16.365 36.484-36.484 36.484-20.117 0-36.484-16.366-36.484-36.484 0-20.117 16.367-36.485 36.484-36.485 20.118-.001 36.484 16.367 36.484 36.485zM175.484 389.444c0 34.154 27.785 61.94 61.938 61.94 34.154 0 61.939-27.786 61.939-61.94 0-34.153-27.785-61.939-61.939-61.939-34.153 0-61.938 27.785-61.938 61.939zm98.424 0c0 20.118-16.366 36.484-36.484 36.484s-36.483-16.366-36.483-36.484c0-20.117 16.366-36.485 36.483-36.485s36.484 16.367 36.484 36.485zM296.17 698.192h-8.908c-7.031 0-12.727 5.698-12.727 12.726 0 7.028 5.696 12.727 12.727 12.727h8.908c7.031 0 12.728-5.698 12.728-12.727-.001-7.028-5.697-12.726-12.728-12.726zM219.813 723.644h33.512c7.031 0 12.726-5.698 12.726-12.727 0-7.027-5.695-12.726-12.726-12.726h-33.512c-7.031 0-12.728 5.698-12.728 12.726 0 7.029 5.698 12.727 12.728 12.727zM296.17 738.913h-76.357c-7.031 0-12.728 5.698-12.728 12.729 0 7.028 5.697 12.727 12.728 12.727h76.357c7.031 0 12.728-5.698 12.728-12.727-.001-7.031-5.697-12.729-12.728-12.729zM537.975 698.192h-76.359c-7.031 0-12.727 5.698-12.727 12.726 0 7.028 5.695 12.727 12.727 12.727h76.359c7.031 0 12.727-5.698 12.727-12.727-.001-7.028-5.698-12.726-12.727-12.726zM537.975 738.913h-76.359c-7.031 0-12.727 5.698-12.727 12.729 0 7.028 5.695 12.727 12.727 12.727h76.359c7.031 0 12.727-5.698 12.727-12.727-.001-7.031-5.698-12.729-12.727-12.729z"/></svg>