<?xml version="1.0" encoding="utf-8"?>
<!-- Generator: Adobe Illustrator 15.0.0, SVG Export Plug-In . SVG Version: 6.00 Build 0)  -->
<!DOCTYPE svg PUBLIC "-//W3C//DTD SVG 1.1//EN" "http://www.w3.org/Graphics/SVG/1.1/DTD/svg11.dtd">
<svg version="1.1" id="Calque_1" xmlns="http://www.w3.org/2000/svg" xmlns:xlink="http://www.w3.org/1999/xlink" x="0px" y="0px"
	 width="181.46px" height="57.414px" viewBox="309.271 356.461 181.46 57.414"
	 enable-background="new 309.271 356.461 181.46 57.414" xml:space="preserve">
<g>
	<path fill="#50C2C8" d="M454.609,356.461H341.886h-3.908c-3.874,0-7.633,0.76-11.176,2.258c-3.419,1.446-6.488,3.516-9.123,6.149
		c-2.635,2.635-4.704,5.705-6.15,9.124c-1.499,3.542-2.258,7.302-2.258,11.176c0,3.873,0.76,7.633,2.258,11.175
		c1.446,3.419,3.515,6.489,6.15,9.124s5.704,4.703,9.123,6.15c3.542,1.498,7.302,2.258,11.176,2.258h3.908h114.931h5.207
		c3.873,0,7.633-0.76,11.176-2.258c3.419-1.447,6.488-3.516,9.123-6.15s4.704-5.705,6.15-9.124
		c1.498-3.542,2.258-7.302,2.258-11.175c0-3.874-0.76-7.634-2.258-11.176c-1.446-3.419-3.516-6.489-6.15-9.124
		c-2.635-2.634-5.704-4.703-9.123-6.149c-3.543-1.498-7.303-2.258-11.176-2.258H454.609z"/>
	<path fill="#F8F9F6" d="M462.023,363.069c-12.234,0-22.188,9.953-22.188,22.188c0,12.233,9.953,22.187,22.188,22.187
		s22.188-9.954,22.188-22.187C484.211,373.022,474.258,363.069,462.023,363.069z M480.226,384.052c0.001,0,0.001,0.001,0.002,0.002
		c0.001,0,0.001,0.001,0.002,0.001c0.001,0.001,0.001,0.001,0.001,0.002c0,0,0,0,0.001,0c0.001,0.001,0.001,0.002,0.001,0.002l0,0
		c0.161,0.162,0.283,0.349,0.365,0.547c0.08,0.194,0.125,0.406,0.128,0.629c0,0.001,0,0.001,0,0.001c0,0.001,0,0.001,0,0.002v0.001
		c0,0.001,0,0.001,0,0.001c0,0.011,0,0.021,0,0.033l0,0c0,0,0,0.001,0,0.002v0.001c0,0.001,0,0.001,0,0.001
		c-0.003,0.223-0.048,0.436-0.128,0.63c-0.082,0.198-0.204,0.384-0.365,0.546l0,0c0,0.001,0,0.002-0.001,0.002s-0.001,0-0.001,0.001
		c0,0,0,0.001-0.001,0.001s-0.001,0.001-0.002,0.002l-14.168,14.168c-0.332,0.332-0.767,0.498-1.202,0.498s-0.871-0.166-1.203-0.498
		c-0.663-0.665-0.663-1.741,0-2.405l11.267-11.266h-29.899c-0.938,0-1.699-0.761-1.699-1.7s0.761-1.7,1.699-1.7h29.899
		l-11.266-11.266c-0.664-0.664-0.664-1.74-0.001-2.404c0.664-0.664,1.741-0.664,2.404,0L480.226,384.052L480.226,384.052z"/>
	<g>
		<g>
			<path fill="#F8F9F6" d="M334.123,377.063l-6.134,16.256h-2.449l-6.134-16.256h2.262l5.108,14.017l5.107-14.017H334.123z"/>
			<path fill="#F8F9F6" d="M339.697,392.421c-1.245-0.708-2.228-1.694-2.951-2.962s-1.084-2.694-1.084-4.28s0.361-3.012,1.084-4.279
				s1.706-2.255,2.951-2.962c1.243-0.708,2.62-1.062,4.128-1.062c1.523,0,2.907,0.354,4.151,1.062
				c1.244,0.707,2.224,1.69,2.938,2.95c0.715,1.259,1.073,2.69,1.073,4.291c0,1.602-0.358,3.032-1.073,4.292
				c-0.715,1.259-1.695,2.242-2.938,2.95c-1.244,0.707-2.628,1.061-4.151,1.061C342.316,393.482,340.94,393.128,339.697,392.421z
				 M346.892,390.847c0.91-0.528,1.625-1.283,2.146-2.263c0.521-0.979,0.781-2.114,0.781-3.405c0-1.306-0.26-2.445-0.781-3.417
				c-0.521-0.972-1.233-1.722-2.134-2.25c-0.902-0.529-1.928-0.793-3.079-0.793c-1.151,0-2.177,0.264-3.079,0.793
				c-0.902,0.528-1.613,1.278-2.134,2.25s-0.781,2.111-0.781,3.417c0,1.291,0.26,2.426,0.781,3.405s1.236,1.734,2.146,2.263
				s1.932,0.793,3.067,0.793C344.959,391.64,345.982,391.375,346.892,390.847z"/>
			<path fill="#F8F9F6" d="M356.909,377.063v16.256h-2.123v-16.256H356.909z"/>
			<path fill="#F8F9F6" d="M369.083,393.319l-3.872-6.646h-2.565v6.646h-2.123v-16.256h5.248c1.228,0,2.266,0.21,3.114,0.63
				c0.847,0.42,1.481,0.987,1.901,1.702c0.419,0.716,0.629,1.532,0.629,2.449c0,1.119-0.323,2.107-0.968,2.962
				c-0.645,0.855-1.613,1.423-2.904,1.703l4.082,6.81H369.083z M362.646,384.969h3.125c1.151,0,2.013-0.283,2.589-0.852
				c0.575-0.566,0.863-1.325,0.863-2.273c0-0.964-0.284-1.71-0.852-2.239c-0.568-0.528-1.435-0.793-2.601-0.793h-3.125V384.969z"/>
			<path fill="#F8F9F6" d="M390.411,385.191c-0.925,0.895-2.336,1.341-4.233,1.341h-3.125v6.787h-2.122v-16.256h5.248
				c1.834,0,3.23,0.443,4.187,1.329c0.956,0.887,1.434,2.029,1.434,3.429C391.799,383.173,391.336,384.297,390.411,385.191z
				 M388.79,384.013c0.56-0.513,0.84-1.244,0.84-2.192c0-2.006-1.151-3.009-3.452-3.009h-3.125v5.971h3.125
				C387.36,384.782,388.231,384.527,388.79,384.013z"/>
			<path fill="#F8F9F6" d="M396.557,391.593h5.691v1.726h-7.814v-16.256h2.123V391.593z"/>
			<path fill="#F8F9F6" d="M406.586,377.063v10.285c0,1.446,0.354,2.52,1.061,3.219s1.691,1.05,2.951,1.05
				c1.243,0,2.219-0.351,2.926-1.05s1.062-1.772,1.062-3.219v-10.285h2.122v10.262c0,1.354-0.271,2.492-0.815,3.417
				c-0.545,0.926-1.279,1.613-2.204,2.064c-0.926,0.451-1.963,0.676-3.113,0.676c-1.151,0-2.189-0.225-3.114-0.676
				s-1.655-1.139-2.192-2.064c-0.536-0.925-0.805-2.063-0.805-3.417v-10.262H406.586z"/>
			<path fill="#F8F9F6" d="M422.526,392.91c-0.848-0.381-1.513-0.909-1.994-1.586c-0.482-0.676-0.731-1.457-0.746-2.344h2.262
				c0.078,0.762,0.393,1.403,0.944,1.924c0.553,0.521,1.357,0.782,2.414,0.782c1.011,0,1.809-0.253,2.391-0.759
				c0.584-0.505,0.875-1.154,0.875-1.947c0-0.622-0.172-1.127-0.514-1.516s-0.77-0.685-1.282-0.887s-1.205-0.42-2.075-0.653
				c-1.073-0.279-1.933-0.56-2.578-0.839c-0.645-0.28-1.197-0.72-1.656-1.318c-0.458-0.599-0.688-1.402-0.688-2.414
				c0-0.886,0.225-1.671,0.677-2.354c0.45-0.685,1.085-1.214,1.901-1.587s1.752-0.56,2.81-0.56c1.524,0,2.771,0.381,3.743,1.143
				c0.972,0.763,1.52,1.773,1.645,3.032h-2.332c-0.078-0.622-0.404-1.17-0.98-1.645c-0.574-0.474-1.337-0.711-2.285-0.711
				c-0.887,0-1.609,0.229-2.168,0.688c-0.561,0.458-0.841,1.1-0.841,1.924c0,0.591,0.167,1.072,0.502,1.446
				c0.334,0.373,0.746,0.657,1.235,0.851c0.49,0.194,1.178,0.416,2.064,0.665c1.073,0.295,1.936,0.587,2.589,0.874
				c0.653,0.288,1.213,0.731,1.679,1.33c0.467,0.599,0.701,1.411,0.701,2.438c0,0.793-0.211,1.539-0.631,2.238
				c-0.42,0.7-1.041,1.268-1.865,1.703s-1.796,0.652-2.916,0.652C424.334,393.482,423.373,393.291,422.526,392.91z"/>
		</g>
	</g>
	<path fill="#50C2C8" d="M464.857,401.125c-0.436,0-0.871-0.166-1.203-0.498c-0.663-0.665-0.663-1.741,0-2.405l11.267-11.266
		h-29.899c-0.938,0-1.699-0.761-1.699-1.7s0.761-1.7,1.699-1.7h29.899l-11.266-11.266c-0.664-0.664-0.664-1.74-0.001-2.404
		c0.664-0.664,1.741-0.664,2.404,0l14.166,14.165l0.001,0.001c0.001,0,0.001,0.001,0.002,0.002c0.001,0,0.001,0.001,0.002,0.001
		c0.001,0.001,0.001,0.001,0.001,0.002c0,0,0,0,0.001,0c0.001,0.001,0.001,0.002,0.001,0.002l0,0
		c0.161,0.162,0.283,0.349,0.365,0.547c0.08,0.194,0.125,0.406,0.128,0.629c0,0.001,0,0.001,0,0.001c0,0.001,0,0.001,0,0.002v0.001
		c0,0.001,0,0.001,0,0.001c0,0.011,0,0.021,0,0.033l0,0c0,0,0,0.001,0,0.002v0.001c0,0.001,0,0.001,0,0.001
		c-0.003,0.223-0.048,0.436-0.128,0.63c-0.082,0.198-0.204,0.384-0.365,0.546l0,0c0,0.001,0,0.002-0.001,0.002s-0.001,0-0.001,0.001
		c0,0,0,0.001-0.001,0.001s-0.001,0.001-0.002,0.002l-14.168,14.168C465.728,400.959,465.293,401.125,464.857,401.125z"/>
</g>
</svg>
