<?xml version="1.0" encoding="utf-8"?>
<!-- Generator: Adobe Illustrator 15.0.0, SVG Export Plug-In . SVG Version: 6.00 Build 0)  -->
<!DOCTYPE svg PUBLIC "-//W3C//DTD SVG 1.1//EN" "http://www.w3.org/Graphics/SVG/1.1/DTD/svg11.dtd">
<svg version="1.1" id="Calque_1" xmlns="http://www.w3.org/2000/svg" xmlns:xlink="http://www.w3.org/1999/xlink" x="0px" y="0px"
	 width="777.531px" height="781.877px" viewBox="11.234 9.061 777.531 781.877"
	 enable-background="new 11.234 9.061 777.531 781.877" xml:space="preserve">
<path fill="#103653" d="M523.797,399.999l238.906-238.906c34.75-34.75,34.75-86.875,0-121.625l0,0
	c-13.031-17.375-34.75-30.406-56.469-30.406s-43.438,8.688-60.813,26.063l-243.25,243.25L163.266,39.468
	c-34.75-34.75-91.219-34.75-121.625,0c-17.375,13.031-30.406,34.75-30.406,60.813c0,26.063,8.688,43.438,26.063,60.813
	l238.907,238.906L37.297,638.906C24.266,656.282,11.234,678,11.234,704.063c0,21.718,8.688,43.436,26.063,60.813
	c17.375,17.375,39.094,26.063,60.813,26.063s43.438-8.688,60.813-26.063l238.906-238.907l238.906,238.907
	c34.75,34.75,91.219,34.75,121.625,0c34.75-34.749,34.75-91.221,0-121.626L523.797,399.999z"/>
</svg>
