<?xml version="1.0" encoding="utf-8"?>
<!-- Generator: Adobe Illustrator 15.0.0, SVG Export Plug-In . SVG Version: 6.00 Build 0)  -->
<!DOCTYPE svg PUBLIC "-//W3C//DTD SVG 1.1//EN" "http://www.w3.org/Graphics/SVG/1.1/DTD/svg11.dtd">
<svg version="1.1"
	 id="Calque_1" xmlns:cc="http://creativecommons.org/ns#" xmlns:dc="http://purl.org/dc/elements/1.1/" xmlns:rdf="http://www.w3.org/1999/02/22-rdf-syntax-ns#"
	 xmlns="http://www.w3.org/2000/svg" xmlns:xlink="http://www.w3.org/1999/xlink" x="0px" y="0px" width="800px" height="800px"
	 viewBox="0 0 800 800" enable-background="new 0 0 800 800" xml:space="preserve">
<g>
	<path fill="#103653" d="M653.017,106.665H186.35h-0.017C112.697,106.665,53,166.667,53,239.998v266.667
		c0,73.332,59.697,133.333,133.333,133.333h5.21V800l196.874-160.002h264.6c73.634,0,133.333-60.001,133.333-133.333V239.998
		C786.35,166.667,726.65,106.665,653.017,106.665z M221.75,439.998c-36.82,0-66.667-30.001-66.667-66.666
		c0-36.666,29.847-66.667,66.667-66.667s66.667,30.001,66.667,66.667C288.417,409.997,258.57,439.998,221.75,439.998z
		 M421.75,439.998c-36.833,0-66.667-30.001-66.667-66.666c0-36.666,29.834-66.667,66.667-66.667s66.667,30.001,66.667,66.667
		C488.417,409.997,458.583,439.998,421.75,439.998z M621.75,439.998c-36.833,0-66.667-30.001-66.667-66.666
		c0-36.666,29.834-66.667,66.667-66.667s66.667,30.001,66.667,66.667C688.417,409.997,658.583,439.998,621.75,439.998z"/>
	<path fill="#F07861" d="M615.017,72.665H148.35h-0.017C74.697,72.665,15,132.667,15,205.998v266.667
		c0,73.332,59.697,133.333,133.333,133.333h5.21V766l196.874-160.002h264.6c73.634,0,133.333-60.001,133.333-133.333V205.998
		C748.35,132.667,688.65,72.665,615.017,72.665z M183.75,405.998c-36.82,0-66.667-30.001-66.667-66.666
		c0-36.666,29.847-66.667,66.667-66.667s66.667,30.001,66.667,66.667C250.417,375.997,220.57,405.998,183.75,405.998z
		 M383.75,405.998c-36.833,0-66.667-30.001-66.667-66.666c0-36.666,29.834-66.667,66.667-66.667s66.667,30.001,66.667,66.667
		C450.417,375.997,420.583,405.998,383.75,405.998z M583.75,405.998c-36.833,0-66.667-30.001-66.667-66.666
		c0-36.666,29.834-66.667,66.667-66.667s66.667,30.001,66.667,66.667C650.417,375.997,620.583,405.998,583.75,405.998z"/>
</g>
</svg>
