<?xml version="1.0" encoding="utf-8"?>
<!-- Generator: Adobe Illustrator 15.0.0, SVG Export Plug-In . SVG Version: 6.00 Build 0)  -->
<!DOCTYPE svg PUBLIC "-//W3C//DTD SVG 1.1//EN" "http://www.w3.org/Graphics/SVG/1.1/DTD/svg11.dtd">
<svg version="1.1" id="Calque_1" xmlns="http://www.w3.org/2000/svg" xmlns:xlink="http://www.w3.org/1999/xlink" x="0px" y="0px"
	 width="800px" height="494px" viewBox="0 138.5 800 494" enable-background="new 0 138.5 800 494" xml:space="preserve">
<path fill="#F79927" d="M75.045,510.552h37.576c10.155-29.715,38.339-51.148,71.451-51.148c33.11,0,61.293,21.434,71.45,51.148
	h209.5c10.156-29.715,38.34-51.148,71.451-51.148s61.293,21.434,71.451,51.148h42.627c0.705-2.088,1.111-4.264,1.207-6.465
	c0.133-2.93,0.248-6.121,0.33-9.527c0.367-15.545,0.006-35.545-2.709-55.254c-9.172-66.579-49.852-129.557-101.229-156.718
	c-49.736-26.29-105.695-29.332-143.876-27.258c-35.578,1.934-100.645,11.21-136.676,51.565
	c-9.216,10.322-16.316,22.187-23.836,34.746c-1.691,2.84-3.397,5.67-5.118,8.492c-0.323,0.531-0.948,1.695-1.787,3.234
	c-12.254,22.5-17.4,29.504-25.723,29.504h-45.73c-50.559,0-91.688,45.055-91.688,100.434v19.365
	C73.717,505.353,74.166,508.017,75.045,510.552L75.045,510.552z M556.321,419.426c0-4.959,4.059-9.021,9.021-9.021h27.066
	c4.963,0,9.021,4.063,9.021,9.021c0,4.961-4.059,9.021-9.021,9.021h-27.066C560.382,428.447,556.321,424.386,556.321,419.426z
	 M413.515,374.316v-89.853c0-5.472,4.184-10.033,9.635-10.508c70.467-6.114,115.449,20.258,140.775,43.458
	c27.537,25.222,38.229,51.923,38.668,53.048c1.275,3.246,0.863,6.913-1.102,9.795c-1.963,2.882-5.225,4.605-8.713,4.606H424.06
	c-5.826,0-10.547-4.721-10.547-10.547H413.515z M349.178,419.426c0-4.959,4.06-9.021,9.022-9.021h27.063
	c4.961,0,9.022,4.063,9.022,9.021c0,4.961-4.059,9.021-9.022,9.021H358.2C353.239,428.447,349.178,424.386,349.178,419.426z
	 M249.214,380.07c-1.947-2.988-2.25-6.76-0.806-10.021c24.907-56.285,61.63-79.303,88.052-88.701
	c28.989-10.313,52.146-6.927,53.115-6.779c5.145,0.792,8.943,5.22,8.943,10.427v89.319c0,5.828-4.721,10.547-10.546,10.547H258.053
	C254.485,384.862,251.16,383.06,249.214,380.07L249.214,380.07z"/>
<g>
	<path fill="#103653" d="M798.591,510.91c2.438-7.789,1.695-16.063-2.086-23.295c-5.713-10.922-17.016-17.053-28.736-16.375
		c-3.352-4.535-8.037-7.883-13.516-9.6c-6.834-2.141-14.092-1.486-20.436,1.828c-6.344,3.32-11.018,8.91-13.154,15.742
		c-1.621,5.176-1.641,10.592-0.115,15.67c-7.615,8.521-9.59,21.219-3.99,31.928c5.039,9.625,14.883,15.141,25.061,15.141
		c4.543,0,9.018-1.104,13.041-3.215c3.324-1.742,6.266-4.133,8.654-7.029c6.887,1.41,14.049,0.402,20.279-2.854
		C790.825,525.072,796.151,518.699,798.591,510.91L798.591,510.91z M777.812,497.392c1.17,2.223,1.404,4.818,0.65,7.213
		c-0.746,2.398-2.418,4.398-4.646,5.557c-3.025,1.574-6.664,1.404-9.533-0.443c-0.867-0.559-1.811-0.988-2.803-1.271
		c-5.602-1.607-11.443,1.631-13.051,7.23c-0.529,1.885-1.814,3.463-3.549,4.365c-3.482,1.828-7.807,0.471-9.631-3.014
		c-1.822-3.488-0.471-7.811,2.961-9.604l0.313-0.152c2.93-1.432,5.035-4.137,5.699-7.328c0.664-3.195-0.188-6.516-2.305-8.996
		c-0.285-0.332-0.531-0.693-0.734-1.078c-0.707-1.342-0.848-2.91-0.391-4.355c0.447-1.449,1.459-2.656,2.805-3.354
		c0.828-0.43,1.73-0.654,2.639-0.654c0.582,0.002,1.158,0.092,1.713,0.266c1.447,0.447,2.654,1.455,3.354,2.799
		c0.205,0.391,0.363,0.813,0.479,1.254c0.115,0.445,0.258,0.885,0.43,1.313c2.172,5.402,8.313,8.021,13.715,5.85
		C770.431,491.176,775.575,493.082,777.812,497.392L777.812,497.392z M670.028,346.723c-5.584,1.656-8.766,7.527-7.109,13.112
		c0.898,3.03,1.717,6.086,2.449,9.161c1.156,4.842,5.482,8.1,10.25,8.1c0.83-0.001,1.654-0.1,2.461-0.292
		c5.664-1.354,9.16-7.046,7.807-12.71c-0.826-3.459-1.75-6.912-2.746-10.262C681.481,348.25,675.614,345.062,670.028,346.723
		L670.028,346.723z M592.489,269.852c16.709,11.172,31.068,24.255,42.678,38.881c3.582,4.513,6.928,9.207,10.023,14.065
		c1.766,2.775,3.449,5.604,5.047,8.479c1.926,3.471,5.521,5.427,9.229,5.427c1.789,0,3.549-0.457,5.109-1.328
		c5.096-2.829,6.932-9.25,4.102-14.342c-1.803-3.246-3.701-6.438-5.697-9.568c-3.486-5.475-7.258-10.765-11.295-15.848
		c-12.971-16.343-28.941-30.909-47.471-43.302c-4.84-3.239-11.393-1.935-14.629,2.902
		C586.347,260.062,587.647,266.615,592.489,269.852z M202.735,310.768c0.003,0.002,0.007,0.005,0.011,0.007
		c5.049,2.897,11.49,1.153,14.388-3.896c2.845-4.95,3.954-6.438,8.091-11.971l0.33-0.439c10.54-14.107,23.415-26.582,38.273-37.076
		c4.758-3.358,5.89-9.939,2.528-14.7c-3.362-4.753-9.942-5.888-14.699-2.527c-16.667,11.772-31.135,25.796-43.003,41.682l-0.33,0.44
		c-4.245,5.682-6,8.034-9.478,14.08C195.944,301.416,197.685,307.865,202.735,310.768z M181.086,334.018
		c-0.704,1.734-3.798,10.594,4.335,14.852c1.491,0.781,3.15,1.188,4.834,1.186c3.609,0,7.137-1.849,9.128-5.106
		c0.572-0.935,0.995-1.952,1.253-3.017c0.377-0.925,1.231-2.951,3.133-7.255c2.355-5.329-0.053-11.556-5.379-13.912
		c-5.334-2.351-11.559,0.053-13.913,5.38C182.622,330.338,181.62,332.7,181.086,334.018L181.086,334.018z M398.213,285.477
		c0-5.206-3.799-9.635-8.946-10.425c-0.967-0.148-24.125-3.535-53.112,6.779c-26.422,9.397-63.146,32.416-88.054,88.7
		c-0.595,1.345-0.902,2.801-0.902,4.271c0.003,5.824,4.726,10.543,10.55,10.541h129.918c5.826,0,10.546-4.72,10.546-10.547V285.477
		L398.213,285.477z M274.671,364.25c33.553-61.603,82.443-68.704,102.449-68.829v68.829H274.671z M602.288,370.943
		c-0.439-1.125-11.133-27.825-38.668-53.048c-25.326-23.2-70.311-49.571-140.777-43.458c-5.449,0.475-9.633,5.037-9.635,10.508
		v89.854c0,5.826,4.721,10.547,10.547,10.547h168.719c1.322,0,2.633-0.248,3.863-0.732
		C601.755,382.483,604.419,376.362,602.288,370.943L602.288,370.943z M434.304,294.817c45.795-1.996,84.24,10.75,114.373,37.997
		c12.303,11.123,20.842,22.699,26.287,31.436h-140.66V294.817z M384.962,410.888h-27.065c-4.962,0-9.021,4.061-9.021,9.021
		c0,4.959,4.06,9.02,9.021,9.02h27.065c4.96,0,9.021-4.059,9.021-9.02S389.922,410.886,384.962,410.888z M592.106,410.888H565.04
		c-4.963,0-9.021,4.061-9.021,9.021c0,4.959,4.061,9.02,9.021,9.02h27.066c4.961,0,9.021-4.059,9.021-9.02
		S597.067,410.886,592.106,410.888z"/>
	<path fill="#103653" d="M423.007,234.997c-44.001,0.098-85.15,9.75-85.148,9.751c-30.906,8.246-63.319,22.848-86.3,48.586
		c-10.55,11.815-18.506,25.106-26.198,37.961c-1.664,2.777-3.328,5.558-5.021,8.326c-0.413,0.674-1.231,2.163-2.313,4.146
		c-5.05,9.27-8.723,15.466-10.966,18.498h-41.963c-48.285,0-89.565,32.876-105.617,78.94c-6.878-0.283-17.806,0.666-26.854,7.859
		c-5.851,4.656-12.922,13.725-13.368,30.502c-0.366,13.783,3.619,24.398,11.852,31.553c3.672,3.188,7.72,5.246,11.67,6.553
		c-1.769,2.51-2.813,5.561-2.813,8.846v2.867c0,8.516,6.966,15.482,15.48,15.482h28.278c2.849,0.684,5.798,1.074,8.837,1.074h16.445
		c3.552,25.299,19.688,46.615,41.851,57.396H98.151c-5.823,0-10.547,4.721-10.547,10.547s4.724,10.547,10.547,10.547h581.777
		c5.824,0,10.547-4.721,10.547-10.547s-4.723-10.547-10.547-10.547H569.069c22.166-10.781,38.299-32.098,41.854-57.396h21.611
		c3.006-0.004,6-0.363,8.922-1.074h28.418c8.514,0,15.48-6.967,15.48-15.482v-0.967h6.236c5.826,0,10.547-4.721,10.547-10.547
		v-33.373c0-5.826-4.721-10.547-10.547-10.547h-3.617c2.531-1.535,4.996-3.426,7.234-5.813c5.109-5.455,10.789-15.455,8.791-32.117
		c-1.643-13.691-7.131-23.613-16.314-29.494c-8.854-5.672-18.689-5.85-25.283-5.039c-17.314-59.685-56.115-111.38-104.701-137.063
		c-16.518-8.735-33.604-15.102-50.529-19.682C507.171,244.743,467.007,234.899,423.007,234.997L423.007,234.997z M51.2,498.119
		c-2.2-0.486-4.459-1.369-6.255-2.926c-3.243-2.818-4.79-7.889-4.6-15.068c0.185-6.906,1.985-11.783,5.349-14.5
		c2.032-1.643,4.626-2.533,7.178-2.98L51.2,498.119z M208.125,535.392c-0.003,3.654-0.833,7.26-2.427,10.549
		c-3.935,8.164-12.263,13.813-21.933,13.813s-18-5.65-21.934-13.813c-1.539-3.195-2.426-6.764-2.426-10.549
		c0-13.451,10.903-24.357,24.358-24.357C197.219,511.035,208.125,521.937,208.125,535.392L208.125,535.392z M216.668,603.338
		c22.166-10.781,38.3-32.098,41.852-57.395h202.896c3.551,25.297,19.686,46.613,41.85,57.395H216.668z M560.528,535.392
		c-0.004,3.654-0.832,7.26-2.428,10.549c-3.934,8.164-12.264,13.813-21.932,13.813c-9.67,0-18-5.65-21.934-13.813
		c-1.539-3.195-2.428-6.764-2.428-10.549c0-13.451,10.906-24.357,24.359-24.357C549.622,511.035,560.528,521.937,560.528,535.392
		L560.528,535.392z M649.075,439.789c2.715,19.709,3.076,39.709,2.707,55.254c-0.082,3.406-0.195,6.598-0.33,9.527
		c-0.096,2.201-0.502,4.377-1.205,6.465H607.62c-10.158-29.715-38.342-51.148-71.451-51.148c-33.111,0-61.295,21.434-71.451,51.148
		H255.217c-10.159-29.715-38.341-51.148-71.452-51.148c-33.11,0-61.295,21.434-71.451,51.148H74.74
		c-0.849-2.447-1.328-5.102-1.328-7.881v-19.365c0-55.379,41.129-100.434,91.688-100.434h45.73c8.323,0,13.469-7.005,25.724-29.504
		c0.837-1.539,1.462-2.704,1.786-3.234c1.724-2.82,3.422-5.655,5.119-8.491c7.518-12.561,14.619-24.425,23.836-34.746
		c36.031-40.356,101.096-49.631,136.676-51.566c38.181-2.073,94.138,0.969,143.876,27.258
		C599.224,310.232,639.903,373.212,649.075,439.789L649.075,439.789z M672.36,507.326c0.049-0.6,0.139-1.189,0.164-1.795
		c0.146-3.211,0.271-6.727,0.355-10.486h8.166v12.281H672.36z M679.872,453.654c-1.771,1.918-4.207,3.18-6.666,3.992l-3.506-35.34
		c2.318,0.172,4.711,0.746,6.686,2.033c3.578,2.33,5.82,7.104,6.67,14.189C683.878,445.388,682.808,450.476,679.872,453.654z
		 M772.874,603.338h-48.988c-5.826,0-10.547,4.721-10.547,10.547s4.721,10.547,10.547,10.547h48.988
		c5.824,0,10.547-4.721,10.547-10.547S778.696,603.338,772.874,603.338z M53.31,603.338H15.094c-5.827,0-10.547,4.721-10.547,10.547
		s4.72,10.547,10.547,10.547H53.31c5.826,0,10.547-4.721,10.547-10.547S59.136,603.338,53.31,603.338z"/>
</g>
<g>
	
		<path fill="#103653" stroke="#103653" stroke-width="2.2568" stroke-linecap="round" stroke-linejoin="round" stroke-miterlimit="10" d="
		M288.104,231.591c-0.387-0.056-0.769-0.406-1.146-1.052c-0.378-0.648-0.784-1.463-1.221-2.447l-0.604-1.362l-0.511,0.227
		c0.062,0.244,0.213,0.811,0.449,1.702c0.237,0.891,0.456,1.845,0.661,2.864c0.202,1.02,0.322,1.95,0.357,2.795
		c0.034,0.844-0.118,1.342-0.458,1.493c-0.303,0.135-0.724-0.153-1.267-0.864c-0.542-0.71-1.081-1.569-1.617-2.575
		c-0.537-1.007-1.045-2.025-1.526-3.058c-0.48-1.031-0.829-1.793-1.048-2.286c-1.157-2.61-2.266-5.207-3.322-7.793
		c-1.056-2.586-2.155-5.165-3.296-7.737c-1.141-2.572-2.486-5.042-4.034-7.411c-1.549-2.368-2.877-4.8-3.984-7.296
		c0.228-0.915,0.418-1.836,0.573-2.766c0.153-0.928,0.29-1.871,0.408-2.829c1.21-0.945,2.486-1.895,3.827-2.853
		c1.34-0.956,2.729-1.753,4.167-2.391c3.971-1.762,7.638-2.652,11.001-2.674c3.362-0.02,6.432,0.701,9.208,2.162
		c2.775,1.462,5.271,3.568,7.487,6.319c2.216,2.751,4.156,5.999,5.816,9.743c2.685,6.053,3.012,11.282,0.985,15.688
		c-2.029,4.407-6.031,7.938-12.006,10.587c-0.227,0.101-0.599,0.232-1.116,0.395c-0.517,0.161-0.92,0.17-1.209,0.027
		c0.99-0.621,2.131-1.342,3.42-2.162c1.288-0.82,2.563-1.693,3.83-2.616c1.264-0.924,2.426-1.901,3.483-2.937
		c1.057-1.035,1.842-2.096,2.356-3.184c-0.8,1.26-1.699,2.372-2.697,3.334c-0.998,0.964-2.062,1.832-3.19,2.604
		c-1.128,0.772-2.311,1.5-3.546,2.184c-1.236,0.684-2.463,1.387-3.682,2.108l-0.106-0.699l-0.371-0.379
		c-0.668,0.433-1.271,0.835-1.806,1.209c-0.536,0.374-1.126,0.703-1.769,0.988c-0.643,0.286-1.301,0.486-1.972,0.603l0.673,1.671
		L288.104,231.591z M289.993,224.981c2.61-1.157,5.006-2.311,7.19-3.461c2.183-1.148,3.922-2.509,5.217-4.08
		c1.295-1.569,2.043-3.428,2.244-5.578c0.201-2.148-0.394-4.791-1.787-7.932c-0.688-1.55-1.517-3.14-2.489-4.769
		c-0.971-1.628-2.097-3.143-3.375-4.546c-1.277-1.401-2.692-2.573-4.242-3.516c-1.439-0.898-3.006-1.471-4.699-1.717
		c1.671,0.301,3.208,0.908,4.611,1.825c1.566,0.98,2.966,2.17,4.198,3.569c1.232,1.4,2.333,2.915,3.306,4.542
		c0.971,1.63,1.801,3.218,2.489,4.769c0.923,2.081,1.5,3.896,1.735,5.443c0.234,1.548,0.2,2.899-0.103,4.051
		c-0.304,1.153-0.857,2.179-1.657,3.078c-0.801,0.898-1.77,1.725-2.906,2.478c-1.137,0.753-2.421,1.505-3.855,2.253
		c-1.432,0.75-2.957,1.549-4.57,2.401c1.072-1.155,2.332-2.166,3.779-3.035c1.448-0.869,2.814-1.769,4.098-2.701
		c1.285-0.931,2.331-2.019,3.138-3.259c0.808-1.241,1.118-2.838,0.93-4.792l0.58-0.529c-0.184-0.822-0.387-1.536-0.61-2.139
		c-0.222-0.603-0.5-1.282-0.836-2.039c-1.041-2.345-2.274-4.615-3.701-6.812c-1.427-2.195-3.075-4.022-4.943-5.479
		c-1.868-1.456-3.974-2.379-6.318-2.765s-4.934,0.05-7.771,1.309c-1.059,0.47-2.079,1.001-3.06,1.596
		c-0.982,0.595-1.933,1.23-2.853,1.91c0.092,0.005,0.155,0.045,0.188,0.12c0.051,0.113,0.057,0.179,0.019,0.195
		c1.82-1.304,3.656-2.369,5.51-3.191c2.307-1.022,4.492-1.505,6.554-1.447c2.063,0.058,3.966,0.548,5.711,1.472
		c1.745,0.923,3.312,2.209,4.698,3.856c1.387,1.649,2.579,3.541,3.573,5.68c-1.277-2.058-2.595-3.908-3.954-5.544
		c-1.361-1.637-2.853-2.911-4.478-3.82c-1.625-0.908-3.424-1.388-5.394-1.443c-1.97-0.053-4.203,0.473-6.7,1.58
		c-0.945,0.42-1.883,0.858-2.811,1.315c-0.928,0.458-1.78,1.039-2.554,1.744c1.23,2.261,2.432,4.512,3.606,6.751
		c1.175,2.24,2.282,4.532,3.324,6.877c1.375,3.102,2.607,6.21,3.695,9.326c1.088,3.116,2.217,6.248,3.388,9.394
		c0.209-0.544,0.506-1.05,0.889-1.514C289.379,225.945,289.712,225.469,289.993,224.981z M307.018,202.288
		c-0.822-1.853-1.776-3.67-2.861-5.453c-1.085-1.781-2.286-3.443-3.604-4.987c1.385,1.695,2.61,3.459,3.673,5.296
		c1.064,1.836,2.032,3.739,2.904,5.705c0.437,0.985,0.825,2.011,1.164,3.083c0.012,0.13,0.044,0.252,0.094,0.365
		C308.061,204.949,307.605,203.613,307.018,202.288z M301.156,204.074c-0.101-0.227-0.212-0.426-0.334-0.599
		C300.959,203.686,301.072,203.885,301.156,204.074z M301.615,204.957c0.251,0.567,0.457,1.133,0.616,1.696
		c-0.064-0.243-0.145-0.479-0.245-0.706l-0.831-1.872c0.017,0.038,0.034,0.076,0.049,0.113
		C301.344,204.398,301.48,204.655,301.615,204.957z M308.978,209.159c-0.025-0.262-0.069-0.513-0.131-0.757
		C308.909,208.646,308.953,208.898,308.978,209.159z"/>
	
		<path fill="#103653" stroke="#103653" stroke-width="2.2568" stroke-linecap="round" stroke-linejoin="round" stroke-miterlimit="10" d="
		M340.997,211.103c-1.368,0.944-2.441,1.558-3.221,1.841c-0.781,0.283-1.463,0.53-2.049,0.737c-2.231,0.627-4.36,0.774-6.387,0.442
		c-2.028-0.333-3.881-1.036-5.558-2.112c-1.679-1.075-3.137-2.479-4.378-4.216c-1.24-1.735-2.168-3.699-2.784-5.89
		c-0.359-1.274-0.611-2.632-0.76-4.074c-0.147-1.441-0.169-2.896-0.067-4.365c0.104-1.469,0.371-2.887,0.802-4.255
		c0.393-1.357,0.957-2.633,1.695-3.829c-0.8,1.127-1.396,2.37-1.789,3.727c-0.432,1.369-0.72,2.792-0.861,4.272
		c-0.144,1.48-0.134,2.96,0.024,4.441c0.159,1.481,0.423,2.879,0.792,4.193c0.471,1.673,1.242,3.38,2.311,5.121
		c1.07,1.741,2.43,3.249,4.078,4.526c1.649,1.277,3.57,2.187,5.765,2.73c2.194,0.543,4.646,0.435,7.354-0.328
		c1.274-0.358,2.559-0.913,3.852-1.664c-1.235,1.421-2.786,2.396-4.658,2.922c-1.515,0.426-3.002,0.596-4.465,0.515
		c-1.464-0.083-2.877-0.374-4.242-0.871c-1.364-0.497-2.662-1.174-3.892-2.031c-1.229-0.857-2.343-1.834-3.338-2.93l0.403-0.629
		c-1.059-1.163-1.927-2.38-2.606-3.65c-0.68-1.27-1.216-2.603-1.608-3.997c-0.571-2.031-0.832-4.063-0.78-6.099
		c0.049-2.034,0.318-4.022,0.804-5.964l0.88-2.375c0.116-0.505,0.34-1.041,0.675-1.608c0.335-0.567,0.722-1.138,1.163-1.713
		c0.439-0.575,0.921-1.119,1.443-1.631c0.522-0.511,1.022-0.986,1.502-1.421c1.231-1.12,2.484-2.171,3.756-3.152
		c1.271-0.98,2.823-1.879,4.657-2.696l-0.29-0.111c-3.564,1.389-6.421,3.15-8.573,5.279c-2.151,2.131-3.739,4.437-4.759,6.917
		c-1.022,2.479-1.553,5.024-1.591,7.636c-0.039,2.611,0.266,5.072,0.916,7.382c0.347,1.234,0.807,2.448,1.378,3.641
		c0.572,1.193,1.25,2.346,2.036,3.457c-1.667-2.11-2.877-4.499-3.627-7.168c-0.74-2.627-1.036-5.359-0.887-8.195
		c0.148-2.834,0.849-5.611,2.106-8.329c1.773-2.862,3.909-5.279,6.406-7.25c2.497-1.97,5.061-3.325,7.689-4.064
		c0.837-0.235,1.732-0.336,2.687-0.305c0.954,0.033,1.873,0.237,2.751,0.613c0.88,0.376,1.677,0.957,2.393,1.743
		c0.715,0.789,1.258,1.839,1.628,3.153c0.302,1.075,0.413,2.462,0.332,4.161c-0.082,1.7-0.424,3.42-1.031,5.159
		c-0.607,1.74-1.524,3.33-2.752,4.771c-1.229,1.44-2.837,2.441-4.829,3.002l-1.971,0.554c-1.563,0.096-3.012,0.105-4.344,0.03
		c-1.333-0.077-2.57-0.084-3.712-0.02c0.019,0.683,0.101,1.315,0.243,1.898c0.142,0.583,0.292,1.154,0.45,1.711
		c0.324,1.155,0.77,2.244,1.337,3.267s1.257,1.914,2.073,2.672c0.815,0.76,1.737,1.328,2.768,1.703
		c1.029,0.378,2.185,0.472,3.465,0.283c0.801-0.053,1.483-0.148,2.046-0.286c0.564-0.136,1.037-0.249,1.421-0.335
		c0.383-0.086,0.68-0.104,0.886-0.056c0.208,0.049,0.351,0.213,0.43,0.492c-0.366,0.231-0.751,0.426-1.158,0.583
		c-0.407,0.158-0.83,0.299-1.268,0.421c-1.395,0.393-2.714,0.517-3.958,0.372c-1.244-0.143-2.349-0.402-3.313-0.776
		c1.173,0.659,2.45,0.999,3.832,1.018c1.381,0.021,2.688-0.144,3.924-0.492c0.677-0.19,1.358-0.446,2.041-0.767
		c-0.013,0.261-0.013,0.413-0.002,0.452c0.067,0.239,0.211,0.37,0.433,0.394c0.148-0.084,0.396-0.272,0.744-0.563
		c0.348-0.291,0.706-0.585,1.074-0.882c0.368-0.298,0.731-0.571,1.09-0.823c0.358-0.251,0.618-0.4,0.778-0.445
		c0.199-0.055,0.386-0.077,0.563-0.061c0.176,0.015,0.321,0.222,0.432,0.619c0.112,0.399,0.107,0.917-0.015,1.551
		C341.659,209.714,341.397,210.388,340.997,211.103z M324.592,194.957c0.058-0.102,0.074-0.235,0.049-0.4s-0.048-0.287-0.071-0.367
		l-3.093-0.226l-0.063,0.92L324.592,194.957z M326.097,189.764l1.381-0.132c0.461-0.043,0.87-0.116,1.229-0.216
		c0.398-0.112,0.831-0.373,1.295-0.784c0.465-0.41,0.898-0.929,1.302-1.559c0.403-0.629,0.714-1.361,0.93-2.196
		c0.217-0.834,0.295-1.737,0.237-2.71l0.019-0.392c-0.558,0.157-1.354,0.532-2.391,1.124c-1.037,0.593-2.088,1.287-3.155,2.081
		c-1.065,0.794-2.031,1.645-2.892,2.554c-0.861,0.909-1.391,1.777-1.588,2.606c0.631-0.049,1.25-0.104,1.855-0.167
		C324.924,189.91,325.516,189.841,326.097,189.764z M326.735,208.99c-0.369-0.24-0.737-0.479-1.105-0.721
		c-0.317-0.211-0.596-0.434-0.833-0.668C325.346,208.177,325.992,208.64,326.735,208.99z"/>
	
		<path fill="#103653" stroke="#103653" stroke-width="2.2568" stroke-linecap="round" stroke-linejoin="round" stroke-miterlimit="10" d="
		M378.132,200.144c-0.158-1.355-0.41-2.721-0.758-4.098c-0.347-1.374-0.597-2.721-0.751-4.036l-0.194-1.665
		c-0.393-1.58-0.858-3.431-1.396-5.555c-0.54-2.124-1.146-4.125-1.824-6.005c-0.677-1.878-1.423-3.458-2.238-4.737
		c-0.816-1.28-1.716-1.863-2.702-1.749c-1.439,0.168-2.841,1.009-4.206,2.521c-1.366,1.513-2.414,3.602-3.144,6.27
		c-0.327,1.498-0.489,3.055-0.486,4.68c0.001,1.625,0.043,3.329,0.125,5.109c0.083,1.782,0.181,3.614,0.296,5.496
		c0.114,1.882,0.146,3.848,0.092,5.894c-0.059,0.216-0.101,0.471-0.13,0.765c-0.028,0.295-0.051,0.548-0.067,0.758l-7.583,0.882
		l-0.581-4.994c-0.089-0.405-0.188-0.894-0.296-1.465c-0.107-0.57-0.228-1.15-0.359-1.739c-0.13-0.587-0.251-1.167-0.358-1.739
		c-0.109-0.57-0.208-1.059-0.295-1.465c-0.388-3.329-0.909-6.642-1.563-9.94c-0.655-3.297-1.224-6.667-1.708-10.111l1.381-0.473
		c0.125-0.014,0.27,0.083,0.441,0.293c0.17,0.209,0.342,0.616,0.517,1.221c0.174,0.605,0.379,1.466,0.613,2.584
		c0.234,1.119,0.497,2.577,0.791,4.375c0.04-0.005,0.1-0.033,0.178-0.083c0.154-0.102,0.272-0.157,0.356-0.167
		c-0.034-0.286-0.078-0.573-0.132-0.858c-0.054-0.285-0.097-0.572-0.13-0.86c-0.411-3.534-0.492-6.284-0.242-8.25
		c0.25-1.966,0.539-2.969,0.869-3.007c0.247-0.029,0.556,0.478,0.926,1.517c0.372,1.041,0.833,2.694,1.39,4.962
		c0.569-1.191,1.247-2.353,2.03-3.485c0.785-1.132,1.698-2.145,2.74-3.037c1.041-0.892,2.194-1.639,3.457-2.245
		c1.262-0.605,2.673-0.999,4.236-1.181c1.356-0.157,2.582-0.008,3.676,0.447c1.095,0.457,2.096,1.1,3.005,1.931
		s1.709,1.801,2.4,2.908c0.691,1.107,1.31,2.222,1.857,3.346c0.547,1.124,1.017,2.214,1.412,3.272
		c0.394,1.058,0.735,1.945,1.029,2.661c0.009,0.083,0.041,0.173,0.093,0.27c0.053,0.098,0.104,0.186,0.156,0.262
		c0.34-1.371,0.781-2.953,1.322-4.746c0.541-1.791,1.278-3.511,2.211-5.162c0.933-1.649,2.088-3.085,3.466-4.309
		c1.378-1.222,3.054-1.948,5.026-2.177c1.932-0.225,3.636,0.097,5.111,0.967s2.769,2.052,3.88,3.547s2.057,3.188,2.84,5.074
		c0.781,1.888,1.424,3.75,1.93,5.586c0.506,1.838,0.891,3.531,1.154,5.083c0.264,1.553,0.443,2.74,0.539,3.562
		c0.152,1.315,0.215,2.287,0.184,2.915s-0.273,0.969-0.725,1.021c-0.273-1.633-0.539-3.29-0.797-4.968
		c-0.258-1.678-0.578-3.358-0.963-5.043c-0.383-1.683-0.836-3.329-1.354-4.934c-0.516-1.564-1.131-3.096-1.848-4.597
		c1.404,3.127,2.379,6.306,2.922,9.533c0.588,3.265,1.129,6.491,1.625,9.683c-0.32-0.253-0.564-0.372-0.727-0.353
		c-0.125,0.014-0.197,0.107-0.219,0.275l0.215,1.85c0.063,0.535,0.137,1.088,0.225,1.661c0.088,0.574,0.195,1.061,0.328,1.462
		c0.113,1.695,0.18,2.906,0.203,3.631c0.021,0.726-0.078,1.206-0.301,1.44c-0.332,0.039-0.639-0.113-0.93-0.455
		c-0.289-0.34-0.58-0.785-0.873-1.335c-0.293-0.548-0.584-1.16-0.869-1.835c-0.287-0.674-0.572-1.328-0.854-1.962l-0.193-1.665
		c-0.211-1.809-0.441-3.698-0.691-5.668c-0.252-1.97-0.555-3.881-0.916-5.735c-0.363-1.853-0.795-3.604-1.299-5.254
		c-0.505-1.649-1.089-3.092-1.753-4.326c-0.666-1.235-1.44-2.176-2.328-2.823c-0.887-0.646-1.906-0.902-3.057-0.768
		c-0.946,0.11-1.781,0.457-2.504,1.041c-0.418,0.34-0.827,0.763-1.227,1.267c0.403-0.462,0.837-0.867,1.295-1.212
		c0.725-0.584,1.538-0.928,2.441-1.034l0.247-0.029c1.027-0.119,1.948,0.18,2.761,0.897c0.812,0.718,1.531,1.707,2.156,2.967
		c0.625,1.261,1.16,2.718,1.603,4.375c0.442,1.657,0.84,3.38,1.196,5.171c0.354,1.792,0.656,3.58,0.904,5.362
		c0.248,1.783,0.48,3.412,0.693,4.887c-0.379-1.121-0.754-2.463-1.123-4.024c-0.369-1.56-0.748-3.194-1.133-4.898
		c-0.385-1.704-0.81-3.383-1.273-5.038c-0.464-1.654-0.979-3.125-1.545-4.413c-0.566-1.287-1.205-2.306-1.918-3.057
		c-0.711-0.75-1.521-1.072-2.424-0.968c-0.37,0.044-0.695,0.113-0.976,0.208c-0.281,0.095-0.626,0.354-1.034,0.776l-0.652-0.236
		c-1.254,1.395-2.234,3.175-2.941,5.341c-0.706,2.165-1.25,4.466-1.633,6.906c-0.383,2.44-0.656,4.919-0.821,7.437
		c-0.166,2.519-0.332,4.85-0.498,6.994l0.272,2.342c0.279-3.323,0.514-6.589,0.703-9.797c0.189-3.209,0.645-6.354,1.37-9.438
		c-0.525,2.644-0.857,5.348-0.993,8.112c-0.137,2.766-0.328,5.6-0.573,8.502c0.034,0.288,0.017,0.686-0.047,1.193
		c-0.067,0.507-0.187,1.271-0.359,2.291l-6.859,0.112L378.132,200.144z M378.451,196.984c-0.252-1.095-0.53-2.5-0.834-4.215
		c-0.303-1.714-0.651-3.526-1.039-5.439c-0.389-1.912-0.843-3.839-1.36-5.777c-0.517-1.939-1.125-3.67-1.822-5.193
		c-0.698-1.522-1.485-2.733-2.359-3.631c-0.876-0.897-1.888-1.28-3.039-1.146c-0.37,0.044-0.751,0.172-1.143,0.384
		c-0.392,0.212-0.761,0.442-1.106,0.691c0.118-0.055,0.218-0.088,0.301-0.098l0.062-0.008c0.005,0.042-0.047,0.131-0.156,0.269
		c1.067-0.5,1.908-0.784,2.524-0.856c0.813,0.197,1.586,0.753,2.318,1.667c0.731,0.915,1.393,2.035,1.984,3.361
		c0.592,1.328,1.135,2.774,1.63,4.34c0.494,1.568,0.908,3.071,1.243,4.51c0.333,1.441,0.608,2.732,0.826,3.872
		c0.215,1.142,0.352,1.958,0.409,2.452c0.267,1.218,0.521,2.418,0.763,3.597c0.241,1.181,0.432,2.367,0.57,3.558L378.451,196.984z
		 M377.412,188.045c0.158,0.647,0.283,1.279,0.376,1.893c0.092,0.614,0.189,1.186,0.293,1.715l0.529,2.938l0.026-0.315
		c-0.108-0.571-0.193-1.124-0.255-1.658l-0.18-1.541L377.412,188.045z M381.7,179.798c0.005,0.042,0.066,0.222,0.188,0.54
		c0.115,0.279,0.198,0.458,0.249,0.534c0.076-0.425,0.265-1.125,0.568-2.097c0.303-0.973,0.641-2.011,1.013-3.117
		c0.371-1.106,0.729-2.136,1.077-3.093c0.12-0.389,0.227-0.735,0.316-1.037c-0.095,0.261-0.228,0.548-0.4,0.859
		c-0.357,0.875-0.75,1.785-1.182,2.73c-0.432,0.947-0.825,1.856-1.182,2.73C381.991,178.722,381.775,179.372,381.7,179.798z
		 M386.484,178.491c-0.579,2.192-1.04,4.485-1.387,6.878c-0.346,2.394-0.623,4.853-0.829,7.375l0.238,0.972
		c0.189-3.021,0.459-6.072,0.809-9.154c0.351-2.707,0.904-5.291,1.66-7.753c-0.027,0.127-0.057,0.235-0.087,0.322
		C386.729,177.568,386.595,178.021,386.484,178.491z M385.354,170.937c-0.073,0.092-0.12,0.224-0.142,0.391
		C385.281,171.197,385.328,171.065,385.354,170.937z M387.689,179.725c0.139-0.599,0.259-1.174,0.362-1.728
		c0.143-0.558,0.264-0.947,0.364-1.167c0.01,0.083-0.012,0.251-0.066,0.507c-0.049,0.298-0.163,0.749-0.343,1.352L387.689,179.725z
		 M395.17,164.547c-0.764-0.119-1.475-0.141-2.131-0.064l-0.68,0.079c-0.287,0.033-0.428,0.072-0.424,0.112l0.063-0.007
		c0.676,0.088,1.303,0.099,1.877,0.032L395.17,164.547z M399.726,166.641c-0.234-0.223-0.53-0.438-0.888-0.646
		c-0.266-0.135-0.509-0.253-0.729-0.353C398.641,165.914,399.18,166.246,399.726,166.641z"/>
	
		<path fill="#103653" stroke="#103653" stroke-width="2.2568" stroke-linecap="round" stroke-linejoin="round" stroke-miterlimit="10" d="
		M416.601,197.325c0.178-1.157,0.348-2.51,0.51-4.061c0.162-1.549,0.314-3.109,0.455-4.681c0.143-1.57,0.283-3.109,0.424-4.619
		c0.141-1.508,0.279-2.821,0.416-3.937c-0.221,1.115-0.42,2.396-0.602,3.842c-0.182,1.447-0.363,2.934-0.545,4.463
		c-0.184,1.529-0.365,3.048-0.547,4.555c-0.184,1.509-0.342,2.863-0.48,4.06c-0.615-0.419-0.92-0.982-0.91-1.685
		c0.008-0.828,0.035-1.521,0.084-2.079c0.047-0.558,0.115-1.208,0.207-1.953l0.689-0.613c-0.039-0.207-0.057-0.393-0.057-0.559
		l0.008-0.621c0.01-0.952,0.125-2.036,0.346-3.255c0.221-1.218,0.473-2.456,0.756-3.716c0.283-1.259,0.533-2.476,0.754-3.654
		c0.219-1.176,0.334-2.2,0.344-3.068l-0.742-0.195c-0.094,0.992-0.23,2.119-0.41,3.378c-0.18,1.261-0.369,2.562-0.57,3.905
		s-0.393,2.675-0.572,3.996c-0.09,0.704-0.182,1.364-0.27,1.984c0.096-1.157,0.213-2.397,0.352-3.721
		c0.227-1.9,0.467-3.79,0.715-5.67s0.484-3.729,0.713-5.548c0.227-1.816,0.451-3.49,0.676-5.019c0.006-0.622,0.17-1.291,0.488-2.012
		c0.318-0.719,0.543-1.473,0.678-2.258c0.246,0.086,0.451,0.13,0.617,0.131l0.436,0.004c0.414,0.004,0.682,0.101,0.803,0.288
		c0.123,0.188,0.182,0.447,0.178,0.778l-0.004,0.311l0.557,0.192c0.338-0.618,0.736-1.109,1.195-1.477s0.916-0.549,1.373-0.543
		c0.992,0.011,1.477,1.071,1.453,3.182c-0.012,1.116-0.141,2.305-0.381,3.564c-0.242,1.26-0.367,2.49-0.381,3.689l-0.01,0.807
		c-0.014,1.325-0.176,2.761-0.482,4.309s-0.645,3.117-1.014,4.705c-0.369,1.59-0.709,3.127-1.014,4.613
		c-0.305,1.486-0.465,2.85-0.479,4.091c-0.004,0.29,0.014,0.6,0.051,0.932c0.037,0.332,0.055,0.643,0.053,0.931
		c-0.006,0.621-0.125,1.003-0.355,1.146c-0.229,0.142-0.51,0.211-0.84,0.207c0.006-0.537-0.006-1.2-0.039-1.987
		c-0.033-0.786-0.047-1.49-0.039-2.11c-0.088,0.454-0.137,1.074-0.145,1.86c-0.008,0.787-0.059,1.531-0.148,2.232l-0.932-0.01
		l-0.008,0.745c-0.381,0.658-0.881,0.983-1.502,0.976c-0.289-0.002-0.617-0.088-0.988-0.258
		C417.093,197.724,416.804,197.534,416.601,197.325z M415.747,190.302c0.045-0.454,0.094-0.908,0.139-1.364
		C415.839,189.434,415.792,189.889,415.747,190.302z M429.911,149.805c-0.707,0.406-1.354,0.937-1.941,1.591
		c-0.588,0.656-1.193,1.29-1.82,1.905c0.375-0.245,0.709-0.509,1.002-0.796c0.291-0.285,0.596-0.573,0.908-0.859
		c0.314-0.285,0.648-0.571,1.004-0.857c0.354-0.284,0.76-0.55,1.219-0.793c0.123,0.167,0.234,0.313,0.338,0.438
		c0.1,0.125,0.152,0.25,0.148,0.374l-1.441,1.411c0-0.083-0.07-0.166-0.215-0.25s-0.256-0.127-0.34-0.128
		c-0.129,0.413-0.34,0.741-0.631,0.986c-0.295,0.246-0.586,0.47-0.877,0.673c-0.293,0.204-0.584,0.429-0.877,0.674
		c-0.293,0.245-0.502,0.574-0.633,0.985l-0.002,0.124c0,0.042,0.063,0.063,0.188,0.064l3.135-2.882l-1.191,1.167
		c-0.586,0.573-1.203,1.156-1.852,1.748c-0.646,0.593-1.252,1.114-1.816,1.563c-0.564,0.449-0.908,0.672-1.031,0.671l-0.063-0.063
		c-0.289-0.086-0.588-0.13-0.898-0.134c-0.309-0.003-0.629-0.027-0.961-0.073c0.006-0.33-0.045-0.683-0.143-1.057
		c-0.1-0.373-0.148-0.663-0.146-0.87c0.002-0.207,0.107-0.309,0.314-0.307c0.002-0.125-0.07-0.321-0.211-0.592
		c-0.143-0.27-0.293-0.582-0.455-0.936c-0.162-0.353-0.314-0.727-0.453-1.122c-0.141-0.395-0.207-0.798-0.203-1.213
		c0.004-0.413,0.184-0.814,0.541-1.204c0.354-0.389,0.773-0.726,1.252-1.01c0.477-0.284,0.947-0.527,1.404-0.73
		c0.457-0.201,0.789-0.341,0.998-0.423c0.164,0.002,0.229-0.09,0.189-0.277c-0.039-0.187,0.023-0.278,0.189-0.277l1.113,0.385
		c-0.086,0.207-0.348,0.546-0.787,1.016c-0.439,0.472-0.766,0.809-0.975,1.014c0.291-0.204,0.637-0.51,1.035-0.92
		c0.396-0.409,0.699-0.716,0.91-0.921c0.205,0.085,0.391,0.17,0.555,0.254c0.166,0.085,0.287,0.127,0.371,0.129l0.188-0.185
		c0.291,0.003,0.611,0.069,0.961,0.197c0.35,0.127,0.67,0.276,0.957,0.444c0.287,0.169,0.533,0.358,0.74,0.568
		C429.812,149.514,429.913,149.681,429.911,149.805z"/>
	
		<path fill="#103653" stroke="#103653" stroke-width="2.2568" stroke-linecap="round" stroke-linejoin="round" stroke-miterlimit="10" d="
		M443.042,185.593c0.332,0.024,0.662,0.039,0.992,0.041c0.332,0.004,0.664,0.017,0.994,0.041c0.99,0.072,1.967,0.183,2.932,0.336
		c0.963,0.153,1.936,0.326,2.92,0.521c-1.355-0.222-2.732-0.383-4.137-0.485c-1.359-0.099-2.725-0.166-4.092-0.203
		c-1.367-0.036-2.771-0.107-4.215-0.21l-0.744-0.055c-0.316-0.23-0.604-0.386-0.867-0.467c-0.266-0.081-0.496-0.17-0.695-0.268
		c-0.201-0.097-0.348-0.252-0.436-0.467c-0.088-0.213-0.111-0.588-0.072-1.125c0.014-0.206,0.066-0.379,0.16-0.517
		c0.092-0.138,0.242-0.2,0.449-0.186l0.416-0.592c-0.436-0.28-0.752-0.645-0.947-1.095c-0.195-0.449-0.275-0.901-0.242-1.355
		c0.049-0.702,0.373-1.156,0.969-1.361s1.242-0.284,1.943-0.233c0.455,0.034,0.887,0.086,1.299,0.157
		c0.408,0.072,0.838,0.123,1.293,0.156c0.66,0.048,1.305,0.042,1.932-0.016c0.625-0.058,1.248-0.066,1.869-0.021
		c0.371,0.027,0.885,0.085,1.541,0.174c0.656,0.09,1.375,0.214,2.152,0.373c0.773,0.161,1.539,0.341,2.293,0.54
		c0.752,0.201,1.412,0.424,1.975,0.673c0.287,0.02,0.59,0.021,0.902,0.002c0.311-0.018,0.592-0.02,0.84-0.001
		c0.412,0.03,0.652,0.162,0.717,0.395c0.066,0.233,0.092,0.473,0.072,0.721l-0.012,0.186c-1.238-0.089-2.475-0.199-3.711-0.33
		c-1.066-0.161-2.107-0.38-3.125-0.662c0.975,0.318,2.014,0.54,3.125,0.662c1.273,0.175,2.5,0.409,3.684,0.702
		c-0.105,0.325-0.166,0.57-0.18,0.733c-0.002,0.042,0.006,0.084,0.023,0.126s0.027,0.085,0.023,0.126l0.549,0.164
		c0.301,0.395,0.434,0.862,0.395,1.398c-0.045,0.66-0.299,1.285-0.758,1.874l-0.238-0.142c-1.008-0.404-2.211-0.719-3.602-0.945
		c-1.395-0.225-2.547-0.371-3.455-0.436c-0.33-0.024-0.66-0.037-0.992-0.04c-0.332-0.003-0.662-0.017-0.992-0.041
		c1.516,0.275,3.043,0.511,4.586,0.705c1.539,0.195,3.012,0.633,4.416,1.314c-0.404,0.428-0.773,0.629-1.104,0.604
		c-0.486-0.117-0.906-0.21-1.254-0.277c-0.35-0.066-0.748-0.137-1.199-0.211l-0.385-0.712c-0.209,0.026-0.428,0.041-0.656,0.045
		c-0.227,0.005-0.443-0.001-0.65-0.016c-0.826-0.06-1.617-0.189-2.369-0.389c-0.752-0.199-1.521-0.329-2.305-0.385
		c-0.619-0.045-1.309,0.009-2.064,0.162c0.035,0.044,0.053,0.107,0.047,0.19L443.042,185.593z M448.104,180.112
		c0.08,0.047,0.182,0.096,0.303,0.146C448.327,180.21,448.226,180.161,448.104,180.112z"/>
	
		<path fill="#103653" stroke="#103653" stroke-width="2.2568" stroke-linecap="round" stroke-linejoin="round" stroke-miterlimit="10" d="
		M487.007,175.592c-0.369-0.057-0.881-0.074-1.535-0.05c-0.65,0.024-1.309,0.07-1.967,0.135c-0.66,0.067-1.256,0.141-1.791,0.225
		c-0.539,0.083-0.873,0.157-1.008,0.22c1.086,0.002,2.098-0.04,3.035-0.125c0.932-0.086,1.93-0.045,2.994,0.12
		c-0.262,0.335-0.57,0.581-0.93,0.735s-0.742,0.252-1.145,0.293c-0.406,0.042-0.838,0.058-1.297,0.05
		c-0.459-0.009-0.943,0.011-1.451,0.057l-0.346-0.62c-0.82,0.167-1.441,0.248-1.857,0.246c-0.42-0.002-0.855-0.038-1.303-0.108
		c-0.492-0.076-0.99-0.164-1.498-0.263c-0.51-0.099-1.068-0.197-1.682-0.292c-0.033,0.205-0.08,0.364-0.137,0.48
		c0.938,0.146,1.738,0.26,2.395,0.341c0.656,0.081,1.467,0.133,2.426,0.156c-0.926,0.024-1.73,0.024-2.42,0.001
		c-0.686-0.021-1.5-0.107-2.439-0.252c-0.311,0.915-0.596,1.813-0.859,2.692c-0.264,0.882-0.457,1.751-0.592,2.609
		c-0.076,0.492-0.145,1.067-0.205,1.727c-0.061,0.661-0.113,1.333-0.154,2.017c-0.043,0.684-0.092,1.327-0.143,1.925
		c-0.053,0.6-0.1,1.044-0.145,1.329l-0.57,3.679c0.078,0.851,0.576,1.556,1.492,2.116c0.92,0.561,2.297,0.985,4.139,1.27
		l1.963,0.304c0.695,0.107,1.162,0.254,1.406,0.438s0.348,0.399,0.309,0.645c-0.031,0.204-0.213,0.291-0.543,0.261
		c-0.332-0.029-0.66-0.07-0.986-0.122c-1.186-0.184-2.42-0.458-3.703-0.826c-1.201-0.353-2.379-0.724-3.533-1.113
		c1.143,0.471,2.346,0.93,3.619,1.378c1.318,0.415,2.609,0.719,3.879,0.915l0.549,0.086c0.164,0.025,0.35,0.034,0.561,0.024
		c-0.029,0.205-0.049,0.39-0.053,0.557c-0.008,0.167,0.016,0.359,0.066,0.576l0.512-0.047c0.129-0.021,0.275-0.03,0.443-0.025
		c0.164,0.005,0.297-0.026,0.391-0.096c1.289,0.326,1.873,0.877,1.752,1.654c-0.068,0.45-0.248,0.799-0.537,1.047
		c-0.293,0.248-0.633,0.425-1.025,0.532c-0.393,0.106-0.818,0.155-1.279,0.146c-0.461-0.009-0.893-0.044-1.303-0.108
		c-1.432-0.222-2.816-0.532-4.158-0.928c-1.342-0.396-2.65-0.798-3.926-1.205c1.082,0.587,2.48,1.139,4.201,1.656
		c1.721,0.518,3.479,0.917,5.281,1.196c-0.496,0.216-1.063,0.359-1.701,0.427c-0.639,0.069-1.285,0.053-1.939-0.049l-4.33-1.237
		c-0.561-0.17-0.984-0.32-1.281-0.45c-0.295-0.129-0.576-0.268-0.844-0.415c-0.271-0.146-0.572-0.308-0.898-0.485
		c-0.33-0.176-0.787-0.393-1.377-0.652l0.105-0.675c-1.02-0.45-1.803-1.074-2.35-1.871c-0.543-0.797-0.938-1.631-1.18-2.507
		c-0.24-0.875-0.357-1.741-0.35-2.598c0.006-0.856,0.061-1.612,0.164-2.268c0.107-0.693,0.217-1.336,0.33-1.927
		c0.111-0.589,0.217-1.191,0.311-1.804c0.07-0.45,0.148-1.023,0.234-1.722c0.09-0.699,0.172-1.439,0.25-2.223
		c0.082-0.782,0.176-1.584,0.281-2.406c0.105-0.821,0.215-1.599,0.33-2.335c0.07-0.449,0.146-0.877,0.232-1.284
		c0.08-0.405,0.17-0.768,0.262-1.089l-0.613-0.096c-0.086,0.28-0.156,0.604-0.213,0.973l-0.172,1.104
		c-0.184,1.186-0.346,2.364-0.484,3.536c-0.143,1.172-0.277,2.25-0.408,3.235s-0.234,1.838-0.303,2.559
		c-0.072,0.722-0.133,1.247-0.184,1.573l-0.377,2.454l-0.078,0.49c0.049-1.123,0.17-2.716,0.363-4.778
		c0.246-2.391,0.59-5.017,1.035-7.879l0.17-1.104c0.072-0.45,0.148-0.877,0.232-1.284c0.082-0.404,0.182-0.703,0.295-0.896
		l-2.064-0.446c-0.406-0.355-0.822-0.65-1.246-0.884c-0.424-0.233-0.82-0.378-1.189-0.435l0.193-1.227
		c0.035-0.246,0.1-0.456,0.189-0.63c0.09-0.175,0.299-0.237,0.625-0.186c0.082,0.012,0.281,0.085,0.594,0.217l0.117-0.735
		c-0.414-0.315-0.73-0.709-0.947-1.184c-0.221-0.474-0.295-0.935-0.225-1.385c0.166-1.063,1-1.478,2.516-1.243
		c0.57,0.089,1.156,0.222,1.758,0.398c0.604,0.178,1.225,0.337,1.873,0.479c0.305-0.874,0.572-1.659,0.807-2.355
		c0.23-0.696,0.463-1.373,0.689-2.028c0.229-0.656,0.475-1.309,0.744-1.958c0.268-0.649,0.582-1.322,0.941-2.02
		c0.496-0.761,0.92-1.605,1.273-2.535c0.352-0.929,0.645-1.856,0.873-2.786l1.277,0.261c0.203,0.032,0.367,0.12,0.492,0.265
		c0.125,0.145,0.15,0.442,0.082,0.892c-0.059,0.368-0.195,0.85-0.414,1.443l0.709,0.298c0.498-1.053,1.035-1.89,1.613-2.513
		c0.578-0.622,1.092-0.898,1.543-0.828c0.695,0.108,0.984,1.054,0.877,2.836l-0.172,1.104c-0.164,1.063-0.387,2.043-0.676,2.941
		c-0.285,0.897-0.6,1.781-0.943,2.648c-0.344,0.867-0.691,1.757-1.043,2.665c-0.35,0.91-0.691,1.902-1.025,2.981
		c0.877,0.261,1.75,0.459,2.607,0.593c0.408,0.063,0.818,0.116,1.232,0.16c0.41,0.043,0.822,0.096,1.23,0.159
		c0.408,0.064,0.865-0.033,1.363-0.291c0.502-0.257,0.938-0.357,1.305-0.3c0.326,0.05,0.557,0.191,0.688,0.42
		c0.129,0.23,0.18,0.468,0.143,0.713c-0.77,0.091-1.529,0.193-2.279,0.306c-0.75,0.114-1.469,0.223-2.154,0.325
		c0.666,0.02,1.385-0.025,2.156-0.136c0.771-0.11,1.58-0.204,2.43-0.282c-0.031,0.204-0.049,0.391-0.053,0.557
		c-0.008,0.167,0.016,0.358,0.064,0.575c0.082,0.013,0.189,0.008,0.318-0.014c0.258-0.043,0.408-0.063,0.449-0.055
		c0.377,0.268,0.604,0.563,0.678,0.89c0.074,0.326,0.084,0.672,0.027,1.04c-0.047,0.287-0.127,0.537-0.242,0.748
		C487.101,175.24,487.03,175.428,487.007,175.592z M467.241,195.7c-0.4-1.191-0.539-2.323-0.416-3.393
		c0.125-1.069,0.219-2.08,0.281-3.033l0.895-9.408l-0.354,1.076c-0.424,2.739-0.719,5.238-0.879,7.494
		c-0.164,2.257-0.154,4.027,0.023,5.311c-0.057,0.368-0.107,0.612-0.145,0.731c-0.043,0.12-0.066,0.221-0.08,0.303
		c-0.012,0.082,0.025,0.191,0.107,0.33C466.757,195.249,466.944,195.446,467.241,195.7z M471.251,192.932
		c-0.031-0.339-0.02-0.694,0.037-1.062l0.469-3.005c-0.105,0.403-0.207,0.795-0.309,1.177c-0.102,0.383-0.184,0.778-0.246,1.187
		c-0.164,1.063-0.23,1.89-0.197,2.481c0.047,0.511,0.23,0.958,0.545,1.341c-0.166-0.277-0.266-0.564-0.303-0.863
		C471.257,193.854,471.257,193.434,471.251,192.932z M471.665,195.131c-0.037-0.046-0.074-0.074-0.115-0.081
		C471.591,195.057,471.628,195.085,471.665,195.131z"/>
	
		<path fill="#103653" stroke="#103653" stroke-width="2.2568" stroke-linecap="round" stroke-linejoin="round" stroke-miterlimit="10" d="
		M509.663,174.315c-0.012,0.21,0.182,0.369,0.582,0.476l0.119,0.033c0.24,0.064,0.393,0.127,0.463,0.188
		c1.906,1.197,3.725,2.681,5.457,4.452c1.73,1.772,3.197,3.729,4.4,5.872c1.203,2.144,2.023,4.431,2.463,6.861
		c0.441,2.432,0.328,4.887-0.336,7.364c-0.58,2.158-1.557,4.124-2.932,5.896s-3.002,3.2-4.875,4.282
		c1.871-0.912,3.521-2.235,4.953-3.973c1.428-1.736,2.449-3.744,3.063-6.021c0.684-2.557,0.787-5.09,0.303-7.598
		c-0.484-2.507-1.33-4.864-2.537-7.073c-1.205-2.208-2.67-4.219-4.389-6.029c-1.723-1.812-3.471-3.319-5.244-4.524
		c1.518,0.408,2.975,1.163,4.373,2.266c1.395,1.104,2.664,2.396,3.809,3.882c1.143,1.486,2.133,3.101,2.973,4.846
		c0.838,1.746,1.479,3.472,1.922,5.174l-0.584,0.487c0.479,1.414,0.74,2.876,0.783,4.387c0.045,1.513-0.131,3.007-0.525,4.485
		c-0.762,2.837-2.041,5.162-3.834,6.972c-1.793,1.812-3.805,3.177-6.045,4.097s-4.564,1.441-6.975,1.566
		c-2.412,0.125-4.598-0.077-6.555-0.601c-1.119-0.301-2.215-0.724-3.289-1.269c-1.076-0.546-2.117-1.254-3.125-2.124l-0.096,0.36
		c0.945,0.938,1.977,1.688,3.092,2.243c1.113,0.556,2.252,0.99,3.41,1.301c2.877,0.772,5.873,0.901,8.988,0.388
		c3.113-0.514,5.939-1.652,8.467-3.416c-2.473,1.865-5.252,3.089-8.342,3.674c-3.094,0.583-6.117,0.479-9.074-0.314
		c-3.037-0.815-5.338-2.065-6.898-3.748c-1.563-1.682-2.643-3.525-3.238-5.528c-0.6-2.001-0.82-4.011-0.666-6.025
		c0.156-2.014,0.438-3.781,0.844-5.3c0.549-2.038,1.354-3.963,2.418-5.777c1.066-1.813,2.379-3.388,3.936-4.728
		c1.559-1.337,3.375-2.36,5.451-3.067c2.074-0.707,4.412-0.969,7.02-0.784l-1.625-0.886c-0.785-0.425-1.32-0.825-1.605-1.202
		c-0.285-0.375-0.4-0.663-0.348-0.863c0.086-0.32,0.531-0.576,1.332-0.768C507.946,174.057,508.786,174.078,509.663,174.315z
		 M504.94,181.144c1.186-0.109,2.279-0.031,3.279,0.237c0.998,0.268,1.727,0.625,2.186,1.069c0.459,0.445,0.646,0.827,0.561,1.146
		c-0.053,0.2-0.342,0.357-0.865,0.475c-0.525,0.116-1.193,0.29-2.002,0.522c-0.814,0.232-1.717,0.558-2.705,0.977
		c-0.99,0.42-1.971,1.025-2.93,1.817c-0.963,0.792-1.861,1.825-2.697,3.1c-0.836,1.275-1.504,2.852-2.008,4.73
		c-0.74,2.757-0.68,5.002,0.186,6.733c0.863,1.731,2.395,2.891,4.594,3.48c1.398,0.375,2.891,0.52,4.479,0.431
		c1.588-0.087,3.086-0.413,4.502-0.976c1.414-0.563,2.662-1.384,3.746-2.466c1.082-1.08,1.838-2.418,2.268-4.018
		c0.322-1.199,0.432-2.454,0.336-3.765c-0.098-1.311-0.371-2.615-0.814-3.914c-0.447-1.296-1.045-2.563-1.811-3.794
		c-0.76-1.233-1.648-2.349-2.666-3.351c-0.986-0.95-1.807-1.695-2.453-2.232c-0.648-0.539-1.09-1.01-1.322-1.416
		c-0.365,0.075-0.863,0.144-1.502,0.208c-0.639,0.065-1.496,0.188-2.572,0.37L504.94,181.144z M509.972,178.445l-0.477-0.384
		c-0.059,0.07-0.145,0.133-0.244,0.192s-0.162,0.128-0.184,0.208c-0.021,0.08-0.002,0.203,0.063,0.37
		c0.061,0.168,0.121,0.301,0.182,0.402L509.972,178.445z M509.714,179.404c1.676,1.092,3.193,2.463,4.553,4.113
		c1.148,1.465,2.148,2.998,3.006,4.598c-0.797-1.669-1.727-3.226-2.797-4.669c-1.215-1.697-2.682-3.163-4.41-4.397L509.714,179.404z
		 M515.858,202.966c-0.943,1.118-2.088,2.032-3.436,2.741c0.848-0.287,1.613-0.703,2.295-1.248c0.68-0.545,1.273-1.114,1.775-1.708
		s0.91-1.148,1.219-1.666c0.258-0.486,0.473-0.879,0.637-1.178C517.632,200.828,516.802,201.847,515.858,202.966z M517.517,188.631
		c-0.076-0.191-0.156-0.363-0.244-0.516C517.347,188.307,517.431,188.479,517.517,188.631z M518.489,209.198
		c-0.061,0.07-0.143,0.133-0.242,0.192c-0.053,0.029-0.096,0.037-0.137,0.027c-0.039-0.012,0.117-0.194,0.471-0.549
		c0.352-0.355,0.773-0.777,1.27-1.266c0.494-0.488,0.988-1.008,1.479-1.562c0.408-0.405,0.721-0.771,0.938-1.099
		C521.245,206.51,519.989,207.928,518.489,209.198z M522.267,204.942c0.061-0.069,0.104-0.143,0.125-0.224
		C522.37,204.799,522.327,204.872,522.267,204.942z M522.483,204.614c-0.049,0.03-0.082,0.064-0.092,0.104
		C522.401,204.678,522.435,204.644,522.483,204.614z M524.454,200.388c-0.174,0.639-0.383,1.257-0.629,1.856
		c-0.246,0.598-0.537,1.129-0.877,1.595c0.549-0.923,0.99-2.004,1.32-3.244c0.246-0.919,0.406-1.839,0.484-2.762
		c0.082-0.791,0.121-1.574,0.115-2.347c0.006,0.773-0.006,1.541-0.041,2.303C524.813,198.643,524.688,199.509,524.454,200.388z"/>
	
		<path fill="#103653" stroke="#103653" stroke-width="2.2568" stroke-linecap="round" stroke-linejoin="round" stroke-miterlimit="10" d="
		M569.759,195.548l-0.609,0.952c-0.99,1.783-1.961,3.73-2.91,5.843c-0.936,2.076-1.994,4.12-3.172,6.136
		c1.199-1.96,2.326-3.908,3.383-5.842c1.086-2.01,2.156-3.981,3.213-5.917c-0.072,0.69-0.189,1.406-0.35,2.147
		s-0.404,1.493-0.729,2.253c-1.006,1.82-1.959,3.571-2.861,5.256c-0.902,1.684-1.895,3.419-2.975,5.207l-0.816-0.148
		c-0.941,1.668-2.156,3.398-3.643,5.191c-1.49,1.792-3.189,3.315-5.1,4.566c-1.91,1.252-4.023,2.067-6.35,2.444
		c-2.32,0.377-4.756,0.019-7.303-1.073c-0.836-0.36-1.693-0.805-2.568-1.337c-0.877-0.533-1.688-1.129-2.439-1.789
		c-0.754-0.662-1.43-1.39-2.033-2.189s-1.043-1.664-1.32-2.592l0.01,0.138l-0.025,0.058l-0.082,0.032l-0.146-0.13
		c0.082,0.441,0.199,0.851,0.348,1.23c-0.422-0.9-0.746-1.874-0.975-2.917c-0.396-1.699-0.496-3.565-0.299-5.598
		c0.113-1.211,0.313-2.41,0.594-3.594c0.283-1.184,0.65-2.41,1.105-3.679c0.453-1.268,0.98-2.629,1.584-4.083
		c0.598-1.453,1.275-3.054,2.023-4.804c0.93-1.222,1.781-2.477,2.559-3.764c0.779-1.288,1.498-2.6,2.162-3.936
		c0.113,0.049,0.254,0.087,0.422,0.114c0.168,0.027,0.33,0.073,0.482,0.139c0.268,0.113,0.438,0.368,0.518,0.762
		c0.078,0.394-0.094,1.085-0.518,2.074l-0.221,0.514c-0.064,0.152-0.158,0.315-0.277,0.488l0.686,0.294
		c0.99-1.467,1.871-2.529,2.648-3.185c0.775-0.658,1.375-0.897,1.793-0.718c0.305,0.131,0.396,0.677,0.277,1.639
		c-0.119,0.961-0.572,2.354-1.355,4.18c-0.572,1.332-1.186,2.665-1.85,4.001c-0.666,1.335-1.305,2.727-1.922,4.172
		c-0.965,2.244-1.732,4.322-2.307,6.237c-0.574,1.914-0.834,3.65-0.779,5.203c0.055,1.554,0.49,2.923,1.313,4.107
		c0.818,1.185,2.123,2.161,3.91,2.927c1.482,0.635,2.914,0.709,4.293,0.221c1.383-0.488,2.74-1.347,4.078-2.574
		c1.334-1.227,2.668-2.737,4.004-4.53c1.326-1.793,2.67-3.683,4.018-5.671c0.336-0.575,0.652-1.159,0.953-1.751
		c0.299-0.592,0.584-1.211,0.863-1.858l0.758-1.768c0.475-1.103,0.932-2.01,1.371-2.722c0.439-0.711,0.947-1.01,1.531-0.896
		c-0.83,1.939-1.711,3.835-2.641,5.687c-0.859,1.793-1.795,3.553-2.805,5.281c1.031-1.673,2.008-3.371,2.926-5.093
		c0.951-1.798,1.881-3.65,2.789-5.557c0.164,0.25,0.32,0.408,0.473,0.472c0.152,0.066,0.336,0.055,0.553-0.031l0.881-2.053
		c0.486-0.604,0.881-1.007,1.195-1.211c0.313-0.204,0.582-0.256,0.809-0.158c0.23,0.098,0.408,0.31,0.539,0.636
		c0.131,0.326,0.238,0.709,0.318,1.149L569.759,195.548z M532.155,217.575c-0.326-0.5-0.617-1.03-0.875-1.59
		C531.538,216.545,531.829,217.075,532.155,217.575z M532.335,217.787c0.699,0.886,1.473,1.678,2.32,2.38
		c0.848,0.7,1.676,1.292,2.482,1.773s1.475,0.835,2.008,1.064c2.66,1.141,5.176,1.521,7.547,1.142
		c2.367-0.38,4.531-1.198,6.486-2.452c1.955-1.254,3.689-2.75,5.201-4.489c1.422-1.64,2.627-3.194,3.617-4.66
		c-0.951,1.483-2.127,3.072-3.527,4.767c-1.529,1.776-3.273,3.302-5.238,4.574c-1.965,1.275-4.121,2.128-6.465,2.562
		c-2.35,0.436-4.816,0.097-7.402-1.011c-1.443-0.62-2.789-1.421-4.031-2.405c-1.246-0.983-2.303-2.136-3.178-3.456
		C532.214,217.646,532.272,217.718,532.335,217.787z M560.198,213.123c0.389-0.597,0.754-1.184,1.092-1.76
		c0.303-0.5,0.607-0.999,0.912-1.499c-0.945,1.576-2.084,3.181-3.416,4.815c-1.361,1.711-2.891,3.228-4.584,4.551
		s-3.545,2.339-5.561,3.05c-1.91,0.668-3.873,0.839-5.893,0.512c1.744,0.343,3.453,0.289,5.131-0.162
		c1.734-0.473,3.352-1.198,4.85-2.175c1.502-0.978,2.879-2.12,4.137-3.426C558.126,215.724,559.235,214.423,560.198,213.123z
		 M552.837,214.695c-0.775,0.657-1.584,1.256-2.424,1.796c-0.838,0.54-1.713,0.977-2.619,1.308c0.928-0.278,1.811-0.685,2.652-1.226
		C551.286,216.032,552.083,215.406,552.837,214.695z M562.384,209.603c-0.09,0.097-0.148,0.185-0.182,0.261
		C562.235,209.788,562.294,209.7,562.384,209.603z"/>
	
		<path fill="#103653" stroke="#103653" stroke-width="2.2568" stroke-linecap="round" stroke-linejoin="round" stroke-miterlimit="10" d="
		M568.7,239.43c-0.396-0.146-0.807-0.348-1.229-0.607l-1.533-0.941c-0.918-0.563-1.629-0.852-2.125-0.867
		c-0.502-0.016-0.787-0.045-0.859-0.089l0.375-1.081l0.582-0.953l2.785-5.136c0.514-0.997,0.947-2.137,1.301-3.425
		c0.354-1.287,0.787-2.55,1.303-3.787c0.35-0.806,0.693-1.566,1.033-2.28l1.055-2.192c0.359-0.749,0.727-1.521,1.092-2.316
		c0.365-0.793,0.721-1.668,1.064-2.623c0.131-0.212,0.268-0.419,0.416-0.619c0.145-0.202,0.285-0.406,0.414-0.619
		c0.67-1.093,1.242-2.223,1.717-3.389c0.471-1.167,0.861-2.358,1.174-3.576c0.311,0.045,0.598,0.089,0.865,0.13
		c0.264,0.042,0.486,0.116,0.664,0.225c0.176,0.107,0.244,0.43,0.207,0.965c-0.035,0.536-0.322,1.514-0.854,2.935
		c0.072,0.044,0.193,0.082,0.365,0.116c0.176,0.033,0.295,0.072,0.365,0.115c0.334-0.621,0.641-1.319,0.92-2.093
		c0.281-0.775,0.547-1.522,0.795-2.244s0.467-1.375,0.658-1.962c0.188-0.587,0.383-1.04,0.576-1.356
		c0.045-0.071,0.107-0.154,0.188-0.249c0.086-0.095,0.195-0.1,0.336-0.013c0.178,0.108,0.287,0.443,0.332,1.003
		c0.045,0.562,0.041,1.24-0.01,2.033c-0.051,0.795-0.137,1.627-0.258,2.499c-0.123,0.872-0.244,1.684-0.363,2.434
		c2.055-1.215,3.977-1.916,5.768-2.105c1.789-0.188,3.672,0.323,5.648,1.535c1.445,0.887,2.523,1.779,3.236,2.676
		c0.711,0.897,1.199,1.706,1.461,2.425c0.264,0.719,0.375,1.31,0.336,1.77l-0.008,0.724c-0.131,0.211-0.322,0.288-0.58,0.228
		c-0.375-1.444-1.002-2.752-1.887-3.925c-0.883-1.171-1.939-2.137-3.176-2.894c-1.199-0.736-2.197-1.129-2.99-1.178
		c-0.736-0.063-1.551-0.08-2.449-0.046c0.932-0.013,1.752,0.032,2.471,0.131c0.75,0.121,1.688,0.527,2.818,1.22
		c1.234,0.757,2.27,1.719,3.105,2.888c0.838,1.168,1.436,2.372,1.791,3.61c-0.219-0.037-0.416-0.05-0.594-0.039
		c-0.18,0.013-0.32,0.107-0.428,0.284c0.174,0.109,0.299,0.342,0.371,0.701c0.068,0.36,0.096,0.75,0.078,1.177
		c-0.02,0.425-0.07,0.844-0.152,1.255c-0.082,0.411-0.188,0.722-0.316,0.933c-0.367,0.6-0.783,0.758-1.24,0.478
		c-0.352-0.216-0.699-0.599-1.041-1.148c-0.086-0.1-0.186-0.43-0.307-0.988c-0.117-0.559-0.311-1.174-0.578-1.847
		c-0.266-0.674-0.619-1.364-1.061-2.071c-0.439-0.707-1.047-1.298-1.822-1.774c-0.635-0.389-1.271-0.597-1.91-0.625
		c-0.639-0.028-1.285,0.06-1.945,0.263c-0.66,0.203-1.318,0.49-1.982,0.86l-1.469,0.847c1.113-0.628,2.227-1.135,3.34-1.522
		c1.264-0.483,2.43-0.402,3.486,0.247c0.916,0.563,1.639,1.285,2.168,2.166c0.525,0.882,0.854,1.773,0.979,2.676
		c-0.447-0.615-1.004-1.294-1.66-2.039c-0.662-0.744-1.361-1.344-2.102-1.797c-0.391-0.239-0.779-0.355-1.168-0.352
		c-0.391,0.003-0.764,0.077-1.119,0.223c-0.357,0.146-0.713,0.329-1.064,0.549c-0.355,0.22-0.705,0.417-1.057,0.592l-0.752-0.316
		c-1.229,0.655-2.443,1.548-3.645,2.679c-1.205,1.131-2.258,2.436-3.168,3.917c-0.541,0.882-0.984,1.703-1.326,2.463
		c-0.346,0.758-0.658,1.563-0.934,2.412l-0.371,2.029l0.834-1.599c0.662-1.243,1.248-2.353,1.752-3.331
		c0.502-0.978,1.1-2.03,1.793-3.161c0.697-0.979,1.432-1.862,2.205-2.649c0.652-0.668,1.363-1.229,2.125-1.683
		c-0.941,0.587-1.82,1.384-2.633,2.391c-0.908,1.091-1.777,2.308-2.6,3.647c-0.648,1.059-1.213,2.095-1.689,3.113
		c-0.479,1.017-0.928,2.05-1.355,3.1c-0.424,1.049-0.857,2.13-1.299,3.245c-0.439,1.113-0.975,2.303-1.605,3.566l-0.457,1.103
		l-1.529,3.21L568.7,239.43z"/>
</g>
</svg>
