<?xml version="1.0" encoding="utf-8"?>
<!-- Generator: Adobe Illustrator 15.0.0, SVG Export Plug-In . SVG Version: 6.00 Build 0)  -->
<!DOCTYPE svg PUBLIC "-//W3C//DTD SVG 1.1//EN" "http://www.w3.org/Graphics/SVG/1.1/DTD/svg11.dtd">
<svg version="1.1" id="Calque_1" xmlns="http://www.w3.org/2000/svg" xmlns:xlink="http://www.w3.org/1999/xlink" x="0px" y="0px"
	 width="716.708px" height="716.709px" viewBox="41.634 41.646 716.708 716.709"
	 enable-background="new 41.634 41.646 716.708 716.709" xml:space="preserve">
<path fill="#103653" d="M524.27,129.466c47.811-47.996,117.744-49.005,156.46-10.139c38.79,38.939,37.744,109.313-10.1,157.343
	l-80.793,81.107c-9.743,9.783-9.714,25.613,0.066,35.356c9.783,9.743,25.613,9.713,35.356-0.07l80.794-81.106
	c63.71-63.957,71.71-166.068,10.1-227.917c-61.68-61.922-163.566-53.851-227.31,10.139L327.256,256.394
	c-63.709,63.957-71.708,166.069-10.1,227.916c9.744,9.783,25.574,9.813,35.357,0.07c9.779-9.744,9.81-25.573,0.066-35.357
	c-38.788-38.937-37.743-109.313,10.1-157.343L524.27,129.466z"/>
<path fill="#103653" enable-background="new    " d="M482.82,315.69c-9.744-9.782-25.573-9.813-35.357-0.068
	c-9.779,9.744-9.81,25.571-0.066,35.354c38.79,38.94,37.743,109.313-10.1,157.344L275.709,670.537
	c-47.811,47.997-117.747,49.003-156.462,10.137C80.458,641.737,81.503,571.36,129.347,523.33l80.794-81.109
	c9.745-9.78,9.714-25.61-0.068-35.354c-9.782-9.743-25.611-9.714-35.355,0.066l-80.795,81.11
	c-63.71,63.956-71.708,166.07-10.1,227.917c61.683,61.923,163.568,53.853,227.311-10.137L472.72,543.607
	C536.43,479.65,544.43,377.54,482.82,315.69z"/>
</svg>
