<?xml version="1.0" encoding="utf-8"?>
<!-- Generator: Adobe Illustrator 15.0.0, SVG Export Plug-In . SVG Version: 6.00 Build 0)  -->
<!DOCTYPE svg PUBLIC "-//W3C//DTD SVG 1.1//EN" "http://www.w3.org/Graphics/SVG/1.1/DTD/svg11.dtd">
<svg version="1.1" id="Calque_1" xmlns="http://www.w3.org/2000/svg" xmlns:xlink="http://www.w3.org/1999/xlink" x="0px" y="0px"
	 width="660.015px" height="592.285px" viewBox="69.994 104.383 660.015 592.285"
	 enable-background="new 69.994 104.383 660.015 592.285" xml:space="preserve">
<path fill="#103653" d="M399.793,696.668c-4.362,0-8.681-0.626-12.835-1.861c-9.522-2.827-15.606-8.2-22.652-14.422
	c-58.666-51.791-200.475-179.123-250.04-242.699c-33.443-42.9-48.761-95.937-43.13-149.341
	c5.647-53.561,31.946-102.809,74.053-138.672c34.787-29.628,76.343-45.29,120.176-45.29c48.46,0,96.122,19.007,134.635,52.983
	c38.312-33.796,85.618-52.695,133.654-52.695c43.461,0,85.105,15.471,120.432,44.739c42.784,35.447,69.371,84.739,74.862,138.795
	c5.421,53.354-10.072,106.44-43.625,149.479c-49.568,63.581-191.374,190.91-250.042,242.703
	c-7.067,6.236-13.142,11.596-22.658,14.422C408.468,696.043,404.152,696.668,399.793,696.668z M265.365,164.383
	c-29.383,0-57.486,10.708-81.272,30.967c-62.583,53.303-72.26,141.625-22.508,205.444c46.368,59.477,188.907,187.257,238.209,230.88
	c49.35-43.665,191.846-171.411,238.209-230.88c50.438-64.699,40.896-152.908-22.197-205.182
	c-24.432-20.242-52.84-30.941-82.152-30.941c-40.549,0-80.965,20-110.887,54.871c-5.699,6.642-14.016,10.464-22.768,10.464
	s-17.068-3.822-22.767-10.464C347.153,184.488,306.379,164.383,265.365,164.383z"/>
</svg>
