<?xml version="1.0" encoding="utf-8"?>
<!-- Generator: Adobe Illustrator 15.0.0, SVG Export Plug-In . SVG Version: 6.00 Build 0)  -->
<!DOCTYPE svg PUBLIC "-//W3C//DTD SVG 1.1//EN" "http://www.w3.org/Graphics/SVG/1.1/DTD/svg11.dtd">
<svg version="1.1" id="Calque_1" xmlns="http://www.w3.org/2000/svg" xmlns:xlink="http://www.w3.org/1999/xlink" x="0px" y="0px"
	 width="780px" height="48.186px" viewBox="0 0 780 48.186" enable-background="new 0 0 780 48.186" xml:space="preserve">
<rect x="-5.5" y="-6.407" fill="#F8F9F6" width="804.946" height="60"/>
<path fill="#103653" d="M12.824,15.923c1.668,3.875,5.428,6.581,9.807,6.581c3.579,0.014,6.932-1.842,8.945-4.953
	c1.822,1.338,3.99,2.055,6.212,2.052c1.809,0,3.508-0.466,5.001-1.271c0.138,5.979,4.879,10.795,10.721,10.795
	c3.438,0,6.494-1.679,8.458-4.271c4.834,10.269,15.04,17.34,26.861,17.34c13.135,0,24.285-8.749,28.268-20.896
	c1.51,0.796,3.175,1.21,4.865,1.209c2.464,0,4.726-0.863,6.538-2.303c1.728,9.926,10.131,17.463,20.264,17.463
	c9.016,0,16.66-5.979,19.459-14.283c0.849,0.357,1.771,0.56,2.749,0.56c2.356,0.012,4.572-1.179,5.952-3.188
	c4.749,3.283,10.46,5.199,16.61,5.199c4.883,0,9.486-1.22,13.556-3.357c0.592,11.179,9.551,20.063,20.55,20.063
	c10.13,0,18.536-7.537,20.263-17.469c1.882,1.498,4.179,2.312,6.539,2.309c1.753,0,3.402-0.441,4.864-1.21
	c3.983,12.146,15.129,20.896,28.267,20.896c15.635,0,28.457-12.391,29.731-28.158c3.672,1.597,7.611,2.409,11.585,2.401
	c7.945,0,15.157-3.205,20.506-8.42c5.407,7.832,14.282,12.947,24.328,12.947c12.454,0,23.118-7.861,27.594-19.028
	c1.685,1.063,3.611,1.622,5.576,1.622c0.3,0,0.596-0.021,0.892-0.046c3.233,13.376,14.968,23.288,28.953,23.288
	c12.006,0,22.351-7.313,27.086-17.839c0.852,0.354,1.78,0.56,2.756,0.56c0.86,0,1.688-0.164,2.469-0.45
	c2.058,2.551,5.083,4.02,8.261,4.005c4.765,0,8.789-3.188,10.199-7.608c5.248,4.731,12.122,7.608,19.648,7.608
	c10.044,0,18.917-5.108,24.328-12.94c5.349,5.215,12.562,8.42,20.503,8.42c4.106,0,8.023-0.855,11.589-2.402
	c1.275,15.771,14.087,28.158,29.731,28.158c13.139,0,24.283-8.75,28.271-20.896c1.461,0.771,3.107,1.21,4.856,1.21
	c2.359,0.008,4.656-0.805,6.537-2.304c1.729,9.925,10.134,17.463,20.267,17.463c10.996,0,19.956-8.883,20.55-20.059
	c4.207,2.214,8.849,3.363,13.555,3.354c6.147,0,11.86-1.918,16.607-5.193c1.38,2.008,3.597,3.189,5.952,3.186
	c0.974,0,1.902-0.199,2.755-0.557c2.793,8.309,10.438,14.282,19.454,14.282c10.127,0,18.535-7.538,20.265-17.468
	c1.884,1.498,4.181,2.311,6.537,2.309c1.759,0,3.404-0.441,4.867-1.209c3.984,12.145,15.133,20.895,28.271,20.895
	c2.555,0,5.03-0.35,7.395-0.975V-1H-1.057v15.849c2.022,2.068,4.734,3.221,7.555,3.213C8.866,18.062,11.048,17.262,12.824,15.923z"
	/>
</svg>
