<?xml version="1.0" encoding="utf-8"?>
<!-- Generator: Adobe Illustrator 15.0.0, SVG Export Plug-In . SVG Version: 6.00 Build 0)  -->
<!DOCTYPE svg PUBLIC "-//W3C//DTD SVG 1.1//EN" "http://www.w3.org/Graphics/SVG/1.1/DTD/svg11.dtd">
<svg version="1.1" id="Calque_1" xmlns="http://www.w3.org/2000/svg" xmlns:xlink="http://www.w3.org/1999/xlink" x="0px" y="0px"
	 width="780px" height="48.186px" viewBox="0 0 780 48.186" enable-background="new 0 0 780 48.186" xml:space="preserve">
<path fill="#96D2CA" d="M5.498,33.126c-2.821-0.008-5.533,1.145-7.555,3.213v15.849h800.503V17.846
	c-2.364-0.625-4.84-0.975-7.395-0.975c-13.138,0-24.286,8.75-28.271,20.895c-1.463-0.768-3.108-1.209-4.867-1.209
	c-2.356-0.002-4.653,0.811-6.537,2.309c-1.729-9.93-10.138-17.468-20.265-17.468c-9.017,0-16.661,5.974-19.454,14.282
	c-0.853-0.357-1.781-0.557-2.755-0.557c-2.355-0.004-4.572,1.178-5.952,3.186c-4.747-3.275-10.46-5.193-16.607-5.193
	c-4.706-0.01-9.348,1.14-13.555,3.354c-0.594-11.176-9.554-20.059-20.55-20.059c-10.133,0-18.537,7.538-20.267,17.463
	c-1.881-1.499-4.178-2.312-6.537-2.304c-1.749,0-3.396,0.439-4.856,1.21c-3.987-12.146-15.132-20.896-28.271-20.896
	c-15.645,0-28.456,12.387-29.731,28.158c-3.565-1.547-7.482-2.402-11.589-2.402c-7.941,0-15.154,3.205-20.503,8.42
	c-5.411-7.832-14.284-12.94-24.328-12.94c-7.526,0-14.4,2.877-19.648,7.608c-1.41-4.42-5.435-7.608-10.199-7.608
	c-3.178-0.015-6.203,1.454-8.261,4.005c-0.78-0.286-1.608-0.45-2.469-0.45c-0.976,0-1.904,0.206-2.756,0.56
	c-4.735-10.525-15.08-17.839-27.086-17.839c-13.985,0-25.72,9.912-28.953,23.288c-0.296-0.024-0.592-0.046-0.892-0.046
	c-1.965,0-3.892,0.56-5.576,1.622c-4.476-11.167-15.14-19.028-27.594-19.028c-10.046,0-18.921,5.115-24.328,12.947
	c-5.349-5.215-12.561-8.42-20.506-8.42c-3.974-0.008-7.913,0.805-11.585,2.401C315.03,16.391,302.208,4,286.573,4
	c-13.138,0-24.284,8.75-28.267,20.896c-1.462-0.769-3.111-1.21-4.864-1.21c-2.36-0.003-4.657,0.811-6.539,2.309
	c-1.727-9.932-10.133-17.469-20.263-17.469c-10.999,0-19.958,8.885-20.55,20.063c-4.07-2.138-8.673-3.357-13.556-3.357
	c-6.15,0-11.861,1.916-16.61,5.199c-1.38-2.009-3.596-3.199-5.952-3.188c-0.978,0-1.9,0.202-2.749,0.56
	c-2.799-8.304-10.443-14.283-19.459-14.283c-10.133,0-18.536,7.537-20.264,17.463c-1.812-1.439-4.074-2.303-6.538-2.303
	c-1.69-0.001-3.355,0.413-4.865,1.209c-3.983-12.146-15.133-20.896-28.268-20.896c-11.821,0-22.027,7.071-26.861,17.34
	c-1.964-2.593-5.02-4.271-8.458-4.271c-5.842,0-10.583,4.816-10.721,10.795c-1.493-0.806-3.192-1.271-5.001-1.271
	c-2.222-0.003-4.39,0.714-6.212,2.052c-2.013-3.111-5.366-4.967-8.945-4.953c-4.379,0-8.139,2.706-9.807,6.581
	C10.048,33.926,7.866,33.126,5.498,33.126z"/>
</svg>
