<?xml version="1.0" encoding="utf-8"?>
<!-- Generator: Adobe Illustrator 15.0.0, SVG Export Plug-In . SVG Version: 6.00 Build 0)  -->
<!DOCTYPE svg PUBLIC "-//W3C//DTD SVG 1.1//EN" "http://www.w3.org/Graphics/SVG/1.1/DTD/svg11.dtd">
<svg version="1.1" id="Calque_1" xmlns="http://www.w3.org/2000/svg" xmlns:xlink="http://www.w3.org/1999/xlink" x="0px" y="0px"
	 width="780px" height="106.594px" viewBox="0 0 780 106.594" enable-background="new 0 0 780 106.594" xml:space="preserve">
<rect x="-28.5" y="-19.203" fill="#F8F9F6" width="825" height="142"/>
<path fill="#96D2CA" d="M5.952,70.982c-6.157-0.018-12.075,2.498-16.488,7.011v34.588h1746.982V37.635
	c-5.16-1.364-10.563-2.128-16.139-2.128c-28.671,0-53,19.096-61.694,45.6c-3.192-1.675-6.785-2.638-10.622-2.638
	c-5.145-0.006-10.155,1.769-14.268,5.037c-3.773-21.67-22.124-38.12-44.225-38.12c-19.678,0-36.359,13.036-42.456,31.169
	c-1.86-0.78-3.888-1.216-6.012-1.216c-5.141-0.008-9.978,2.57-12.99,6.952c-10.358-7.147-22.827-11.333-36.243-11.333
	c-10.271-0.021-20.399,2.487-29.581,7.318c-1.296-24.39-20.85-43.775-44.848-43.775c-22.113,0-40.454,16.45-44.229,38.11
	c-4.104-3.271-9.116-5.045-14.266-5.028c-3.816,0-7.411,0.959-10.6,2.642c-8.701-26.509-33.022-45.604-61.695-45.604
	c-34.143,0-62.101,27.032-64.886,61.451c-7.78-3.376-16.328-5.243-25.289-5.243c-17.332,0-33.073,6.995-44.746,18.375
	c-11.809-17.092-31.173-28.24-53.094-28.24c-16.425,0-31.424,6.278-42.878,16.604c-3.077-9.646-11.859-16.604-22.26-16.604
	c-6.936-0.031-13.536,3.175-18.026,8.74c-1.703-0.625-3.511-0.981-5.388-0.981c-2.131,0-4.156,0.449-6.016,1.221
	c-10.334-22.97-32.91-38.931-59.111-38.931c-30.521,0-56.13,21.631-63.186,50.822c-0.646-0.054-1.293-0.1-1.945-0.1
	c-4.289,0-8.494,1.221-12.169,3.539c-9.769-24.371-33.041-41.526-60.221-41.526c-21.924,0-41.292,11.163-53.093,28.255
	c-11.673-11.38-27.411-18.375-44.75-18.375c-8.672-0.017-17.271,1.756-25.283,5.241c-2.78-34.411-30.764-61.452-64.884-61.452
	c-28.673,0-52.997,19.096-61.689,45.603c-3.191-1.678-6.79-2.642-10.615-2.642c-5.15-0.006-10.161,1.77-14.271,5.038
	c-3.771-21.674-22.113-38.123-44.221-38.123c-24.003,0-43.557,19.39-44.849,43.785c-8.882-4.665-18.928-7.327-29.583-7.327
	c-13.423,0-25.887,4.183-36.25,11.348c-3.012-4.385-7.848-6.982-12.988-6.956c-2.135,0-4.147,0.44-5.999,1.221
	c-6.108-18.122-22.791-31.171-42.468-31.171c-22.114,0-40.452,16.449-44.223,38.11c-3.955-3.143-8.892-5.025-14.269-5.025
	c-3.688-0.002-7.322,0.901-10.617,2.639c-8.693-26.508-33.026-45.602-61.69-45.602c-25.799,0-48.071,15.432-58.621,37.842
	c-4.286-5.659-10.954-9.322-18.459-9.322c-12.748,0-23.095,10.512-23.396,23.559c-3.258-1.759-6.966-2.775-10.914-2.775
	c-4.85-0.006-9.581,1.558-13.557,4.479C56.288,65.307,48.97,61.258,41.16,61.288c-9.557,0-17.761,5.905-21.401,14.361
	C15.881,72.728,11.12,70.982,5.952,70.982z"/>
</svg>
