<?xml version="1.0" encoding="utf-8"?>
<!-- Generator: Adobe Illustrator 15.0.0, SVG Export Plug-In . SVG Version: 6.00 Build 0)  -->
<!DOCTYPE svg PUBLIC "-//W3C//DTD SVG 1.1//EN" "http://www.w3.org/Graphics/SVG/1.1/DTD/svg11.dtd">
<svg version="1.1" id="Calque_1" xmlns="http://www.w3.org/2000/svg" xmlns:xlink="http://www.w3.org/1999/xlink" x="0px" y="0px"
	 width="550px" height="650px" viewBox="88.33 75 550 650" enable-background="new 88.33 75 550 650" xml:space="preserve">
<path fill="#103653" d="M529.996,291.667c59.83,0,108.333-48.502,108.333-108.333S589.826,75,529.996,75
	s-108.333,48.503-108.333,108.334c0,6.53,0.576,12.925,1.687,19.137L265.66,312.853c-0.801,0.562-1.56,1.16-2.274,1.794
	c-18.392-14.397-41.555-22.979-66.723-22.979C136.832,291.667,88.33,340.17,88.33,400c0,59.83,48.502,108.333,108.333,108.333
	c25.168,0,48.331-8.584,66.723-22.98c0.715,0.635,1.473,1.234,2.274,1.795l157.69,110.383c-1.11,6.209-1.687,12.605-1.687,19.137
	c0,59.83,48.503,108.332,108.333,108.332s108.333-48.502,108.333-108.332s-48.503-108.334-108.333-108.334
	c-35.094,0-66.29,16.688-86.087,42.557l-149.312-104.52c6.668-14.057,10.398-29.777,10.398-46.371
	c0-16.593-3.73-32.313-10.398-46.37l149.312-104.52C463.706,274.981,494.902,291.667,529.996,291.667z M529.996,125
	c32.217,0,58.333,26.117,58.333,58.334c0,32.216-26.116,58.333-58.333,58.333s-58.333-26.117-58.333-58.333
	C471.663,151.117,497.779,125,529.996,125z M196.663,458.334c-32.216,0-58.333-26.117-58.333-58.333
	c0-32.217,26.117-58.333,58.333-58.333c32.217,0,58.333,26.116,58.333,58.333C254.996,432.217,228.879,458.334,196.663,458.334z
	 M529.996,558.334c32.217,0,58.333,26.117,58.333,58.334S562.213,675,529.996,675s-58.333-26.115-58.333-58.332
	S497.779,558.334,529.996,558.334z"/>
</svg>
