<?xml version="1.0" encoding="utf-8"?>
<!-- Generator: Adobe Illustrator 15.0.0, SVG Export Plug-In . SVG Version: 6.00 Build 0)  -->
<!DOCTYPE svg PUBLIC "-//W3C//DTD SVG 1.1//EN" "http://www.w3.org/Graphics/SVG/1.1/DTD/svg11.dtd">
<svg version="1.1" id="Calque_1" xmlns="http://www.w3.org/2000/svg" xmlns:xlink="http://www.w3.org/1999/xlink" x="0px" y="0px"
	 width="766.666px" height="500px" viewBox="0 150 766.666 500" enable-background="new 0 150 766.666 500" xml:space="preserve">
<title>train_fill</title>
<g>
	<path fill="#09244B" stroke="#09244B" stroke-width="6.7953" stroke-miterlimit="10" d="M-1107.533,501.534h-406.333
		c-18.409,0-33.333,14.924-33.333,33.334s14.924,33.333,33.333,33.333h406.333c18.41,0,33.334-14.923,33.334-33.333
		S-1089.123,501.534-1107.533,501.534z"/>
	<path fill="#09244B" d="M-1462.583,465.235h294.398c48.778,0,88.319-33.708,88.319-75.288V138.988
		c0-41.58-39.542-75.287-88.319-75.287h-294.398c-48.777,0-88.319,33.707-88.319,75.287v250.959
		C-1550.902,431.527-1511.36,465.235-1462.583,465.235z M-1354.686,417.524h-30.188l-63.526-60.114l63.526-60.376h30.188
		l-63.526,60.376L-1354.686,417.524z M-1279.866,130.368h133.333v100h-133.333V130.368z M-1243.387,297.034h30.188l-63.526,60.376
		l63.526,60.114h-30.188l-63.527-60.114L-1243.387,297.034z M-1479.866,130.368h133.333v100h-133.333V130.368z"/>
</g>
<g>
	<path fill="#09244B" d="M688,583.333H54.667c-18.409,0-33.333,14.924-33.333,33.334S36.257,650,54.667,650H688
		c18.41,0,33.334-14.923,33.334-33.333S706.41,583.333,688,583.333z"/>
	<path fill="#09244B" d="M650.26,236.289C586.063,185.849,495.48,150,388,150H87.917c-36.927,0-66.584,29.955-66.584,66.667v266.666
		C21.333,519.88,50.702,550,87.792,550h466.874c35.131,0,82.174-4.253,121.693-21.543c20.066-8.78,39.76-21.597,54.537-40.437
		c15.164-19.337,23.77-43.301,23.77-71.354C754.666,352.843,713.307,285.826,650.26,236.289z M288,216.667h100l11.282,0.153
		c7.463,0.204,14.816,0.608,22.053,1.203v98.644H288V216.667z M221.333,316.667H88v-100h133.333V316.667z M275.674,503.823h-30.188
		l63.526-60.376l-63.526-60.114h30.188l63.527,60.114L275.674,503.823z M417.162,503.823h-30.188l63.526-60.376l-63.526-60.114
		h30.188l63.525,60.114L417.162,503.823z M488,316.667v-87.234c48.09,12.76,88.994,34.073,121.072,59.278
		c11.508,9.041,21.711,18.429,30.641,27.956H488z"/>
</g>
</svg>
