<?xml version="1.0" encoding="utf-8"?>
<!-- Generator: Adobe Illustrator 15.0.0, SVG Export Plug-In . SVG Version: 6.00 Build 0)  -->
<!DOCTYPE svg PUBLIC "-//W3C//DTD SVG 1.1//EN" "http://www.w3.org/Graphics/SVG/1.1/DTD/svg11.dtd">
<svg version="1.1" id="Calque_1" xmlns="http://www.w3.org/2000/svg" xmlns:xlink="http://www.w3.org/1999/xlink" x="0px" y="0px"
	 width="800px" height="472.477px" viewBox="0 168.602 800 472.477" enable-background="new 0 168.602 800 472.477"
	 xml:space="preserve">
<path fill="#F79927" d="M729.502,520.032c0.879-2.534,1.328-5.198,1.328-7.881v-19.365c0-55.379-41.13-100.434-91.688-100.434
	h-45.73c-8.322,0-13.469-7.004-25.723-29.504c-0.839-1.539-1.464-2.703-1.787-3.234c-1.721-2.822-3.427-5.652-5.118-8.492
	c-7.52-12.56-14.62-24.424-23.836-34.746c-36.031-40.355-101.098-49.632-136.676-51.565c-38.181-2.074-94.139,0.968-143.875,27.258
	c-51.377,27.161-92.057,90.14-101.229,156.718c-2.714,19.709-3.075,39.709-2.708,55.254c0.082,3.406,0.197,6.599,0.33,9.527
	c0.095,2.201,0.501,4.378,1.206,6.465h42.627c10.159-29.715,38.341-51.147,71.451-51.147c33.111,0,61.296,21.434,71.452,51.147
	h209.499c10.157-29.715,38.34-51.147,71.45-51.147c33.112,0,61.296,21.434,71.451,51.147H729.502L729.502,520.032z M239.204,437.927
	h-27.067c-4.962,0-9.021-4.062-9.021-9.021s4.06-9.021,9.021-9.021h27.067c4.963,0,9.021,4.062,9.021,9.021
	S244.165,437.927,239.204,437.927z M391.034,383.796c0,5.826-4.721,10.547-10.547,10.547H211.769
	c-3.488-0.001-6.75-1.725-8.714-4.606c-1.965-2.882-2.377-6.549-1.1-9.795c0.438-1.125,11.131-27.826,38.667-53.048
	c25.326-23.2,70.31-49.572,140.776-43.458c5.45,0.475,9.634,5.036,9.635,10.508L391.034,383.796L391.034,383.796z M446.347,437.927
	h-27.063c-4.963,0-9.022-4.062-9.022-9.021s4.061-9.021,9.022-9.021h27.063c4.963,0,9.022,4.062,9.022,9.021
	S451.308,437.927,446.347,437.927z M555.333,389.55c-1.946,2.99-5.271,4.792-8.839,4.791H416.575
	c-5.826,0-10.547-4.719-10.547-10.547v-89.319c0-5.207,3.799-9.635,8.944-10.427c0.968-0.147,24.125-3.534,53.114,6.779
	c26.422,9.398,63.145,32.416,88.052,88.701C557.583,382.79,557.28,386.561,555.333,389.55L555.333,389.55z"/>
<g>
	<path fill="#103653" d="M5.956,520.389c2.439,7.789,7.766,14.162,14.999,17.942c6.23,3.256,13.393,4.264,20.279,2.853
		c2.388,2.896,5.33,5.287,8.654,7.03c4.022,2.111,8.498,3.214,13.041,3.214c10.178,0,20.021-5.515,25.061-15.14
		c5.599-10.71,3.625-23.407-3.99-31.929c1.525-5.078,1.506-10.493-0.115-15.669c-2.138-6.832-6.812-12.423-13.156-15.742
		c-6.343-3.315-13.601-3.969-20.434-1.828c-5.48,1.717-10.164,5.064-13.516,9.6c-11.722-0.679-23.024,5.453-28.737,16.375
		C4.26,504.328,3.518,512.6,5.956,520.389L5.956,520.389z M26.736,506.873c2.236-4.311,7.381-6.218,11.887-4.405
		c5.402,2.172,11.542-0.447,13.713-5.849c0.172-0.428,0.316-0.867,0.431-1.313c0.115-0.441,0.274-0.863,0.479-1.254
		c0.699-1.343,1.906-2.351,3.352-2.798c0.555-0.174,1.132-0.264,1.714-0.266c0.908,0,1.811,0.224,2.638,0.653
		c1.347,0.697,2.357,1.905,2.806,3.354c0.457,1.446,0.315,3.014-0.391,4.355c-0.204,0.386-0.45,0.747-0.734,1.078
		c-2.118,2.48-2.969,5.802-2.306,8.996c0.665,3.192,2.769,5.897,5.7,7.328l0.313,0.152c3.43,1.794,4.783,6.116,2.96,9.604
		c-1.825,3.484-6.148,4.841-9.63,3.013c-1.736-0.901-3.021-2.48-3.55-4.364c-1.607-5.601-7.45-8.838-13.05-7.231
		c-0.992,0.284-1.937,0.713-2.804,1.271c-2.868,1.849-6.506,2.018-9.533,0.444c-2.227-1.159-3.899-3.159-4.645-5.557
		C25.332,511.691,25.565,509.094,26.736,506.873L26.736,506.873z M134.519,356.203c-5.587-1.661-11.454,1.527-13.112,7.109
		c-0.995,3.35-1.92,6.803-2.745,10.262c-1.354,5.664,2.142,11.356,7.806,12.71c0.806,0.192,1.632,0.291,2.46,0.292
		c4.769,0,9.094-3.258,10.251-8.1c0.733-3.075,1.55-6.131,2.449-9.161C143.284,363.73,140.102,357.859,134.519,356.203
		L134.519,356.203z M214.963,264.699c-3.238-4.837-9.789-6.142-14.63-2.902c-18.53,12.393-34.499,26.959-47.471,43.302
		c-4.037,5.083-7.807,10.373-11.295,15.848c-1.995,3.131-3.895,6.322-5.697,9.568c-2.829,5.092-0.993,11.513,4.101,14.342
		c1.562,0.871,3.321,1.328,5.11,1.328c3.708,0,7.304-1.956,9.229-5.427c1.597-2.876,3.28-5.704,5.047-8.479
		c3.096-4.858,6.441-9.553,10.023-14.065c11.609-14.626,25.969-27.709,42.677-38.881C216.9,276.094,218.2,269.542,214.963,264.699z
		 M605.7,305.847c-3.478-6.046-5.232-8.398-9.478-14.08l-0.33-0.44c-11.868-15.886-26.336-29.909-43.003-41.682
		c-4.757-3.36-11.337-2.226-14.699,2.527c-3.361,4.761-2.229,11.342,2.528,14.7c14.858,10.494,27.733,22.969,38.273,37.076
		l0.33,0.439c4.137,5.532,5.246,7.021,8.091,11.971c2.897,5.049,9.339,6.793,14.388,3.896c0.004-0.002,0.008-0.005,0.011-0.007
		C606.862,317.344,608.603,310.896,605.7,305.847z M623.461,343.498c-0.534-1.317-1.536-3.68-3.391-7.873
		c-2.354-5.327-8.579-7.73-13.913-5.38c-5.326,2.356-7.734,8.583-5.379,13.912c1.901,4.304,2.756,6.33,3.133,7.255
		c0.258,1.064,0.681,2.082,1.253,3.017c1.991,3.258,5.519,5.106,9.128,5.106c1.684,0.003,3.343-0.404,4.834-1.186
		C627.259,354.092,624.165,345.232,623.461,343.498L623.461,343.498z M406.333,294.957v89.32c0,5.827,4.721,10.547,10.547,10.547
		h129.918c5.824,0.002,10.547-4.717,10.55-10.541c0-1.471-0.308-2.927-0.902-4.271c-24.908-56.284-61.632-79.303-88.054-88.7
		c-28.987-10.314-52.146-6.928-53.112-6.779C410.133,285.322,406.333,289.751,406.333,294.957L406.333,294.957z M427.427,373.73
		v-68.829c20.006,0.125,68.896,7.227,102.449,68.829H427.427z M202.26,380.423c-2.131,5.419,0.533,11.54,5.951,13.671
		c1.23,0.484,2.541,0.732,3.863,0.732h168.718c5.826,0,10.547-4.721,10.547-10.547v-89.854c-0.001-5.471-4.185-10.033-9.635-10.508
		c-70.467-6.113-115.45,20.258-140.776,43.458C213.391,352.597,202.698,379.298,202.26,380.423L202.26,380.423z M370.244,373.729
		H229.583c5.445-8.736,13.985-20.313,26.287-31.436c30.133-27.247,68.578-39.993,114.374-37.997V373.729z M410.563,429.389
		c0,4.961,4.061,9.021,9.021,9.021h27.065c4.961,0,9.021-4.061,9.021-9.021s-4.059-9.021-9.021-9.021h-27.065
		C414.624,420.367,410.563,424.428,410.563,429.389z M203.419,429.389c0,4.961,4.06,9.021,9.021,9.021h27.067
		c4.961,0,9.021-4.061,9.021-9.021s-4.058-9.021-9.021-9.021H212.44C207.479,420.367,203.419,424.428,203.419,429.389z"/>
	<path fill="#103653" d="M381.541,244.477c-44-0.099-84.164,9.746-84.164,9.746c-16.927,4.58-34.012,10.946-50.531,19.682
		c-48.585,25.683-87.385,77.378-104.7,137.063c-6.593-0.812-16.429-0.634-25.284,5.038c-9.184,5.881-14.672,15.803-16.314,29.495
		c-1.997,16.661,3.682,26.661,8.792,32.117c2.237,2.387,4.702,4.276,7.234,5.813h-3.618c-5.825,0-10.547,4.72-10.547,10.547v33.373
		c0,5.826,4.722,10.547,10.547,10.547h6.237v0.967c0,8.516,6.967,15.481,15.481,15.481h28.418c2.921,0.711,5.916,1.071,8.921,1.075
		h21.612c3.553,25.299,19.686,46.614,41.852,57.396H124.619c-5.825,0-10.547,4.721-10.547,10.547
		c0,5.827,4.722,10.547,10.547,10.547h581.776c5.823,0,10.547-4.72,10.547-10.547c0-5.826-4.724-10.547-10.547-10.547h-52.707
		c22.163-10.781,38.299-32.098,41.851-57.396h16.445c3.039,0,5.988-0.392,8.837-1.075H749.1c8.515,0,15.48-6.967,15.48-15.481
		v-2.868c0-3.285-1.045-6.336-2.813-8.846c3.95-1.306,7.998-3.364,11.67-6.553c8.232-7.153,12.218-17.769,11.852-31.552
		c-0.446-16.778-7.518-25.847-13.368-30.502c-9.049-7.193-19.977-8.143-26.854-7.86c-16.052-46.063-57.332-78.939-105.617-78.939
		h-41.963c-2.243-3.032-5.916-9.229-10.966-18.498c-1.081-1.982-1.899-3.472-2.313-4.146c-1.692-2.769-3.356-5.549-5.021-8.326
		c-7.692-12.854-15.648-26.146-26.198-37.961c-22.98-25.738-55.394-40.34-86.3-48.586
		C466.69,254.227,425.541,244.575,381.541,244.477L381.541,244.477z M751.675,472.125c2.552,0.446,5.146,1.338,7.178,2.979
		c3.363,2.717,5.164,7.595,5.349,14.5c0.19,7.181-1.356,12.251-4.6,15.068c-1.796,1.558-4.055,2.439-6.255,2.927L751.675,472.125z
		 M596.422,544.873c0-13.455,10.906-24.358,24.36-24.358c13.455,0,24.358,10.906,24.358,24.358c0,3.784-0.887,7.353-2.426,10.548
		c-3.934,8.163-12.264,13.813-21.934,13.813s-17.998-5.647-21.933-13.813C597.255,552.133,596.425,548.527,596.422,544.873
		L596.422,544.873z M301.283,612.818c22.164-10.781,38.298-32.099,41.85-57.396h202.895c3.552,25.298,19.686,46.614,41.852,57.396
		H301.283z M244.019,544.873c0-13.455,10.906-24.358,24.361-24.358c13.454,0,24.36,10.906,24.36,24.358
		c0,3.784-0.889,7.353-2.428,10.548c-3.933,8.163-12.264,13.813-21.933,13.813s-17.999-5.647-21.933-13.813
		C244.852,552.133,244.022,548.527,244.019,544.873L244.019,544.873z M155.472,449.269c9.172-66.577,49.852-129.558,101.229-156.719
		c49.737-26.289,105.694-29.331,143.875-27.258c35.58,1.936,100.645,11.21,136.676,51.566c9.217,10.321,16.318,22.186,23.836,34.746
		c1.697,2.836,3.396,5.671,5.119,8.491c0.324,0.53,0.949,1.695,1.786,3.234c12.255,22.499,17.4,29.504,25.724,29.504h45.73
		c50.559,0,91.688,45.056,91.688,100.434v19.365c0,2.78-0.479,5.435-1.328,7.882h-37.573
		c-10.156-29.715-38.341-51.148-71.451-51.148c-33.111,0-61.293,21.434-71.452,51.148h-209.5
		c-10.156-29.715-38.34-51.148-71.452-51.148c-33.11,0-61.292,21.434-71.451,51.148H154.3c-0.703-2.088-1.109-4.265-1.206-6.465
		c-0.133-2.931-0.248-6.121-0.33-9.527C152.396,488.978,152.758,468.978,155.472,449.269L155.472,449.269z M123.502,516.805v-12.28
		h8.165c0.085,3.76,0.21,7.275,0.356,10.486c0.026,0.605,0.114,1.194,0.164,1.794H123.502z M121.492,448.01
		c0.849-7.086,3.092-11.86,6.67-14.19c1.974-1.287,4.366-1.86,6.685-2.033l-3.506,35.341c-2.458-0.813-4.894-2.074-6.666-3.992
		C121.74,459.956,120.669,454.868,121.492,448.01z M21.127,623.365c0,5.826,4.722,10.547,10.547,10.547h48.988
		c5.825,0,10.547-4.721,10.547-10.547s-4.722-10.547-10.547-10.547H31.674C25.85,612.818,21.127,617.539,21.127,623.365z
		 M740.69,623.365c0,5.826,4.721,10.547,10.547,10.547h38.216c5.827,0,10.547-4.721,10.547-10.547s-4.72-10.547-10.547-10.547
		h-38.216C745.411,612.818,740.69,617.539,740.69,623.365z"/>
</g>
<g>
	<g>
		
			<path fill="#103653" stroke="#103653" stroke-width="2.3907" stroke-linecap="round" stroke-linejoin="round" stroke-miterlimit="10" d="
			M283.983,225.693l-0.479-0.067c-2.079,0.142-4.211,0.504-6.395,1.087c-2.185,0.583-4.468,1.021-6.85,1.315
			c2.337-0.279,4.594-0.645,6.771-1.099c2.176-0.453,4.404-0.683,6.681-0.689c-0.5,0.624-1.114,1.058-1.841,1.302
			c-0.896,0.2-1.794,0.351-2.697,0.451c-0.903,0.102-1.847,0.268-2.833,0.497c-0.092-0.273-0.092-0.5-0.002-0.683
			c-1.32,0.444-2.673,0.747-4.062,0.91c-1.389,0.163-2.754,0.28-4.098,0.352c-1.343,0.072-2.644,0.156-3.904,0.25
			c-1.26,0.095-2.391,0.31-3.391,0.646c0.046,0.136,0.045,0.212,0,0.228c1.259-0.169,2.48-0.227,3.666-0.169
			c1.184,0.058,2.474-0.021,3.87-0.238c1.38-0.109,2.697-0.299,3.949-0.568c1.251-0.269,2.506-0.488,3.767-0.659
			c-1.972,0.461-4.009,0.842-6.11,1.143c-2.102,0.302-4.184,0.546-6.248,0.733l-3.483,0.26c-0.159,3.295-0.347,6.536-0.566,9.724
			c-0.22,3.188-0.393,6.399-0.521,9.632c-0.153-0.151-0.334-0.204-0.547-0.158c-0.212,0.045-0.421,0.104-0.625,0.172
			s-0.418,0.077-0.638,0.024c-0.221-0.053-0.392-0.261-0.514-0.625c-0.123-0.365-0.204-0.907-0.243-1.627
			c-0.041-0.72,0.006-1.711,0.14-2.972c-0.123-0.06-0.289-0.067-0.501-0.021c-0.212,0.046-0.365,0.084-0.455,0.115
			c-0.268,2.217-0.65,3.979-1.147,5.286c-0.498,1.307-0.997,2.044-1.497,2.212c-0.546,0.184-0.995-0.249-1.347-1.294
			c-0.291-0.865-0.503-2.022-0.635-3.471c-0.133-1.448-0.22-3.027-0.263-4.735c-0.042-1.707-0.047-3.49-0.014-5.351
			c0.033-1.859,0.055-3.677,0.065-5.453c-0.608-0.149-1.219-0.198-1.833-0.144c-0.616,0.055-1.278,0.152-1.992,0.29
			c0.076-0.227,0.067-0.479-0.025-0.751s-0.161-0.553-0.207-0.842c-0.047-0.288-0.032-0.546,0.043-0.774
			c0.076-0.228,0.294-0.403,0.659-0.525c0.09-0.031,0.379-0.077,0.865-0.139l-0.207-0.614c-0.851-0.119-1.554-0.363-2.108-0.734
			c-0.555-0.37-0.917-0.805-1.085-1.306c-0.367-1.092,0.495-1.99,2.588-2.694c0.591-0.198,1.206-0.367,1.843-0.505
			c0.637-0.139,1.289-0.269,1.957-0.393l0.73-8.221c0.163-1.775,0.366-3.617,0.612-5.523c0.245-1.905,0.646-3.837,1.203-5.798
			c0.557-1.959,1.287-3.889,2.193-5.789c0.905-1.9,2.077-3.724,3.515-5.474l0.886-0.754c1.38-0.109,2.503-0.196,3.369-0.259
			c0.864-0.063,1.563-0.132,2.094-0.21c0.515,0.03,0.918,0.021,1.207-0.026l-0.068,0.023l0.137,0.182
			c0.015,0.046,0.007,0.1-0.022,0.16l1.301,1.158c4.625,3.965,8.856,8.265,12.693,12.899c3.837,4.635,7.348,9.279,10.533,13.93
			c0.746,1.016,1.599,2.083,2.559,3.204c0.958,1.121,1.873,2.181,2.74,3.18c0.868,1,1.618,1.913,2.25,2.738
			c0.631,0.826,1.017,1.443,1.155,1.853c0.107,0.319,0.104,0.535-0.01,0.649c-0.114,0.114-0.284,0.21-0.512,0.286
			c-2.178-2.559-4.271-5.096-6.281-7.611c-1.996-2.468-3.976-4.968-5.939-7.498c1.874,2.561,3.785,5.083,5.735,7.567
			c2.01,2.515,4.035,5.075,6.077,7.68l-0.478,0.161c-0.273,0.092-0.409,0.29-0.408,0.593c0.122,0.062,0.316,0.262,0.583,0.602
			c0.266,0.34,0.54,0.704,0.822,1.091c0.282,0.386,0.544,0.792,0.789,1.216c0.244,0.424,0.404,0.75,0.481,0.978
			c0.336,1,0.208,1.601-0.382,1.8c-0.319,0.107-0.592,0.123-0.82,0.047c-0.228-0.075-0.494-0.188-0.798-0.339l-0.912-0.453
			c-0.365-0.181-0.798-0.339-1.299-0.475l-12.885-16.633c1.95,2.637,3.888,5.276,5.815,7.92c1.926,2.645,3.873,5.23,5.837,7.76
			c-1.019-0.62-2.042-1.44-3.069-2.462c-1.027-1.022-2.033-2.127-3.014-3.316c-0.982-1.189-1.942-2.423-2.878-3.704
			c-0.937-1.28-1.848-2.48-2.73-3.602c0.031,0.092,0.068,0.167,0.115,0.228c0.045,0.061,0.084,0.137,0.114,0.228
			c0.245,0.728,0.2,1.351-0.132,1.867L283.983,225.693z M281.187,218.733c0.091-0.03,0.216-0.11,0.375-0.24
			c0.159-0.129,0.284-0.209,0.375-0.24c-2.771-3.271-5.494-6.433-8.165-9.484c-2.672-3.051-5.446-5.917-8.321-8.596l-0.272,0.547
			l1.643,1.499c2.571,2.376,5.014,4.897,7.329,7.563c2.314,2.667,4.59,5.445,6.83,8.338c-2.513-3.104-5.124-6.164-7.833-9.178
			c-2.71-3.013-5.411-5.663-8.104-7.948l-0.227,0.229c-1.012,2.113-1.814,4.51-2.406,7.189c-0.593,2.681-1.09,5.38-1.493,8.098
			l-0.329,4.896l1.252-0.117c0.744-0.047,1.479-0.08,2.208-0.097c0.728-0.017,1.381,0.004,1.958,0.063
			c1.168,0.165,2.619,0.107,4.348-0.171c1.73-0.278,3.422-0.555,5.075-0.833c1.654-0.277,3.111-0.463,4.37-0.558
			c1.26-0.094,1.981,0.131,2.165,0.677l-8.647,1.844c0.531-0.076,1.18-0.181,1.946-0.313c0.766-0.13,1.548-0.254,2.344-0.37
			c0.797-0.116,1.578-0.239,2.344-0.371c0.766-0.13,1.414-0.234,1.946-0.313c0.046,0.137,0.077,0.266,0.092,0.387
			c0.015,0.122,0.039,0.228,0.069,0.319c0.031,0.092,0.106,0.129,0.228,0.113c0.121-0.015,0.265-0.038,0.433-0.07
			c0.167-0.03,0.334-0.023,0.501,0.021c0.152,0,0.334,0.091,0.547,0.272L281.187,218.733z M261.467,209.108
			c0.09-0.031,0.144,0.016,0.16,0.136c0.015,0.122,0.045,0.174,0.091,0.159c0.091-0.03,0.257-0.44,0.498-1.23
			c0.24-0.79,0.519-1.694,0.835-2.712c0.315-1.018,0.625-1.982,0.926-2.894c0.301-0.911,0.526-1.518,0.678-1.823l-0.502-0.363
			c-0.649,1.232-1.177,2.599-1.583,4.103S261.796,207.529,261.467,209.108z M262.212,198.223l1.028,1.25l-0.55-1.41
			c-0.092,0.031-0.202,0.042-0.33,0.035c-0.129-0.006-0.239,0.005-0.33,0.035L262.212,198.223z M264.652,199.605l-0.363,0.502
			l0.593,0.408l0.271-0.547L264.652,199.605z M265.562,199.147l0.068-0.023l-0.502-0.363l0.023,0.068L265.562,199.147z
			 M265.786,197.781c0.637-0.062,1.092-0.063,1.366-0.003c0.273,0.06,0.455,0.075,0.546,0.044l0-0.228
			c0.045-0.015-0.053-0.007-0.296,0.023c-0.243,0.032-0.44,0.047-0.592,0.047l0.044-0.319l-0.911,0.002L265.786,197.781z
			 M265.881,199.42c2.281,1.967,4.488,4.087,6.619,6.358c2.07,2.242,4.072,4.506,6.006,6.792c-1.751-2.347-3.685-4.635-5.801-6.861
			c-2.177-2.255-4.429-4.36-6.756-6.312L265.881,199.42z M279.765,206.146c2.634,3.167,5.269,6.407,7.903,9.724
			c-2.513-3.257-5.08-6.445-7.698-9.565c-2.514-3.105-5.238-6.164-8.175-9.177C274.596,200.035,277.251,203.041,279.765,206.146z"/>
		
			<path fill="#103653" stroke="#103653" stroke-width="2.3907" stroke-linecap="round" stroke-linejoin="round" stroke-miterlimit="10" d="
			M310.846,231.139c-1.848-4.058-3.719-7.977-5.613-11.76c-1.896-3.781-3.844-7.589-5.846-11.425
			c-0.953-1.779-1.804-3.542-2.554-5.285c-0.75-1.743-1.692-3.464-2.825-5.164c0.313-0.153,0.554-0.379,0.72-0.677
			c0.166-0.297,0.414-0.477,0.745-0.536c0.236-0.042,0.486,0.06,0.75,0.305c0.263,0.246,0.508,0.531,0.738,0.855
			c0.229,0.325,0.448,0.664,0.657,1.016c0.209,0.354,0.35,0.596,0.423,0.729l0.813-0.365c-0.324-0.721-0.611-1.438-0.86-2.15
			c-0.249-0.711-0.441-1.445-0.576-2.201c-0.051-0.283-0.093-0.726-0.128-1.33c-0.035-0.603,0.184-0.947,0.657-1.032
			c0.709-0.126,1.605,0.384,2.688,1.531c1.083,1.148,2.219,2.664,3.41,4.547c1.189,1.884,2.404,3.971,3.643,6.26
			c1.238,2.291,2.39,4.51,3.458,6.66c1.067,2.149,2.009,4.078,2.826,5.785c0.817,1.708,1.388,2.922,1.712,3.644
			c0.95-1.779,1.745-3.603,2.386-5.473c0.641-1.87,1.268-3.749,1.881-5.639c0.613-1.889,1.277-3.763,1.994-5.623
			c0.715-1.858,1.623-3.667,2.724-5.424c0.263-0.437,0.661-1.142,1.194-2.115c0.532-0.973,1.111-1.965,1.735-2.979
			c0.623-1.013,1.253-1.918,1.892-2.715c0.637-0.796,1.192-1.237,1.665-1.322c0.236-0.042,0.479,0.086,0.727,0.382
			c-1.475,2.118-2.937,4.231-4.388,6.343c-1.451,2.113-2.636,4.421-3.553,6.925c0.981-2.417,2.2-4.672,3.655-6.761
			c1.455-2.088,2.979-4.128,4.574-6.121l0.79,0.737c0.208-0.476,0.643-1.041,1.306-1.697c0.662-0.654,1.254-1.028,1.774-1.122
			c0.377-0.067,0.682,0,0.914,0.202c0.23,0.204,0.381,0.493,0.448,0.871c0.059,0.331,0.088,0.765,0.086,1.301
			c-0.002,0.538-0.077,0.94-0.223,1.21c-0.178,0.374-0.411,0.708-0.698,1.003c-1.306,1.696-2.549,3.271-3.727,4.726
			c-1.179,1.454-2.226,3.166-3.142,5.133l0.407-0.584c1.006-1.74,2.052-3.317,3.141-4.731c1.088-1.413,2.361-2.811,3.821-4.194
			c-0.627,1.673-1.425,3.144-2.392,4.414c-0.968,1.27-1.924,2.673-2.869,4.207c-0.449,0.764-0.805,1.57-1.066,2.421
			c-0.263,0.852-0.646,1.64-1.15,2.363l-0.676-0.099c-0.552,2.099-1.133,4.238-1.742,6.419c-0.61,2.182-1.311,4.33-2.102,6.446
			c-0.792,2.117-1.733,4.15-2.823,6.1c-1.09,1.95-2.396,3.72-3.915,5.308c-0.091,0.309-0.342,0.609-0.752,0.902
			c-0.412,0.293-0.722,0.531-0.933,0.715l-4.82-1.186c-0.525-1.027-1.099-2.119-1.719-3.277c-0.622-1.156-1.219-2.244-1.791-3.264
			l-0.342,0.134l3.143,6.533c0.055,0.038,0.146,0.071,0.273,0.098c0.126,0.025,0.382,0.089,0.766,0.192
			c0.384,0.102,0.969,0.241,1.757,0.417c0.787,0.176,1.865,0.409,3.234,0.702c1.687-1.472,3.074-2.988,4.161-4.547
			c1.048-1.503,2.005-3.235,2.875-5.195c-0.36,0.991-0.754,1.916-1.187,2.772c-0.423,0.906-0.903,1.771-1.438,2.598
			c-0.535,0.827-1.147,1.631-1.836,2.413c-0.69,0.782-1.503,1.549-2.441,2.302L310.846,231.139z M320.962,211.63
			c0.936-2.947,1.927-5.854,2.975-8.724c-1.198,2.848-2.245,5.717-3.142,8.607c-0.906,2.844-1.943,5.639-3.109,8.382
			C318.965,217.229,320.056,214.474,320.962,211.63z M320.274,226.601c1.812-2.957,3.28-5.999,4.403-9.125s2.057-6.292,2.8-9.497
			l-0.025-0.142c-0.551,1.561-1.082,3.156-1.595,4.783c-0.513,1.628-1.043,3.234-1.588,4.819c-0.546,1.586-1.144,3.155-1.792,4.709
			C321.828,223.702,321.094,225.187,320.274,226.601z M324.344,222.363c-0.078,0.112-0.132,0.219-0.162,0.321
			C324.212,222.581,324.266,222.475,324.344,222.363z M324.448,222.124c0.536-1.363,1.021-2.742,1.455-4.137
			c0.039-0.055,0.078-0.111,0.117-0.167c-0.039,0.056-0.054,0.108-0.045,0.155C325.539,219.369,325.031,220.753,324.448,222.124z
			 M326.188,217.132c-0.022,0.15-0.068,0.305-0.137,0.463C326.121,217.437,326.166,217.282,326.188,217.132z M326.988,214.649
			c-0.122,0.413-0.244,0.824-0.364,1.235C326.744,215.473,326.866,215.061,326.988,214.649z M329.489,202.865
			c-0.354,0.747-0.676,1.474-0.963,2.184c-0.288,0.709-0.565,1.406-0.833,2.087c0.315-0.69,0.704-1.381,1.166-2.074
			C329.319,204.37,329.529,203.638,329.489,202.865z"/>
		
			<path fill="#103653" stroke="#103653" stroke-width="2.3907" stroke-linecap="round" stroke-linejoin="round" stroke-miterlimit="10" d="
			M369.193,205.186c-1.294,0.061-2.267,0.083-2.916,0.064c-0.649-0.017-1.238-0.014-1.766,0.01
			c-1.438,0.067-2.706,0.199-3.802,0.394c-1.097,0.196-2.018,0.527-2.764,0.995c-0.748,0.467-1.294,1.118-1.639,1.951
			c-0.346,0.833-0.487,1.921-0.424,3.263c0.092,1.967,0.387,3.406,0.887,4.319c0.499,0.914,1.178,1.555,2.036,1.923
			c0.857,0.369,1.889,0.573,3.092,0.612c1.202,0.041,2.555,0.193,4.058,0.459c0.868,0.056,1.733,0.075,2.598,0.059
			c0.864-0.016,1.728-0.045,2.591-0.085l5.178-0.242c-2.405-0.032-4.793-0.003-7.168,0.083c-2.375,0.087-4.518-0.017-6.43-0.312
			c-1.913-0.295-3.478-0.894-4.697-1.799c-1.22-0.903-1.875-2.338-1.967-4.305c-0.074-1.582,0.073-2.802,0.441-3.661
			c0.368-0.857,0.89-1.507,1.566-1.947c0.676-0.439,1.492-0.718,2.448-0.835c0.956-0.117,1.984-0.201,3.088-0.252
			c1.342-0.063,2.711-0.055,4.109,0.024c-1.088,0.388-2.191,0.692-3.309,0.912c-1.119,0.222-2.154,0.438-3.105,0.65
			c-0.952,0.213-1.769,0.468-2.451,0.763c-0.683,0.297-1.133,0.691-1.35,1.181l0.151,3.236l-0.562,0.314
			c0.247,1.19,0.469,2.081,0.666,2.672c0.196,0.592,0.685,1.026,1.466,1.301c0.781,0.276,2.028,0.47,3.739,0.582
			c1.71,0.113,4.207,0.308,7.488,0.587l5.178-0.242c0.91-0.042,1.448-0.104,1.613-0.184c0.164-0.08,0.271-0.121,0.319-0.123
			l-0.829-3.854c-0.142-0.954-0.301-1.812-0.481-2.572c-0.18-0.76-0.41-1.566-0.689-2.418c-0.042,0.146-0.182,0.225-0.421,0.236
			c0.277,0.805,0.521,1.658,0.732,2.561c0.21,0.903,0.394,1.76,0.552,2.569c0.158,0.81,0.287,1.5,0.385,2.072
			c0.099,0.572,0.198,0.904,0.299,0.995l-0.425,0.164c-0.094,0.053-0.237,0.083-0.428,0.092l-0.432,0.021
			c-0.336,0.016-0.721-0.002-1.156-0.054c-0.435-0.052-0.988-0.062-1.659-0.03l-2.374,0.111c-1.87,0.087-3.601,0.073-5.192-0.045
			c-1.496-0.122-2.801-0.302-3.917-0.538c1.114,0.189,2.466,0.317,4.055,0.387c1.687,0.114,3.25,0.137,4.688,0.069
			c0.623-0.029,1.282-0.071,1.976-0.128c0.693-0.056,1.448-0.104,2.264-0.142l2.374-0.111c-0.15-0.137-0.323-0.201-0.514-0.192
			l-0.144,0.007c-0.347-3.299-0.927-6.444-1.739-9.433c-0.813-2.989-2.016-5.587-3.608-7.796c-1.593-2.208-3.62-3.939-6.081-5.194
			c-2.462-1.254-5.49-1.797-9.086-1.629c-1.007,0.047-2.011,0.166-3.011,0.357s-2.023,0.431-3.066,0.72
			c0.091-0.1,0.135-0.198,0.13-0.294c-0.011-0.239-0.118-0.463-0.319-0.669c-0.202-0.207-0.309-0.429-0.32-0.67
			c-0.013-0.288,0.272-0.577,0.86-0.869c0.587-0.291,1.857-0.603,3.813-0.935c-0.101-0.091-0.167-0.232-0.2-0.423
			c-0.034-0.19-0.051-0.333-0.056-0.43c-2.589,0.121-4.605,0.156-6.05,0.103c-1.444-0.052-2.179-0.366-2.206-0.942
			c-0.011-0.239,0.272-0.589,0.852-1.049c0.579-0.459,1.41-0.918,2.495-1.378c1.083-0.458,2.397-0.88,3.941-1.266
			c1.543-0.384,3.274-0.622,5.192-0.711c3.692-0.172,6.883,0.244,9.573,1.246c2.689,1.004,4.977,2.387,6.861,4.148
			c1.884,1.762,3.445,3.792,4.682,6.088c1.236,2.297,2.258,4.616,3.064,6.957c0.806,2.341,1.429,4.618,1.869,6.832
			c0.439,2.214,0.842,4.13,1.206,5.746c0.013,0.288,0.038,0.575,0.076,0.861c0.037,0.287,0.065,0.622,0.083,1.005
			c0.065,1.391-0.13,2.613-0.585,3.667c-0.455,1.055-1.11,1.951-1.964,2.687c-0.855,0.736-1.861,1.313-3.019,1.727
			c-1.159,0.415-2.409,0.653-3.751,0.716c-1.055,0.049-2.423,0.088-4.103,0.12c-1.681,0.03-3.294-0.039-4.839-0.206
			c-1.018-0.193-2.13-0.321-3.333-0.385c-1.205-0.064-2.437-0.21-3.696-0.439c-1.261-0.229-2.49-0.58-3.689-1.053
			c-1.2-0.472-2.292-1.227-3.277-2.262c-0.985-1.035-1.795-2.402-2.426-4.103c-0.632-1.7-1.01-3.869-1.133-6.506
			c-0.116-2.493,0.365-4.522,1.445-6.086c1.08-1.564,2.403-2.803,3.971-3.717c1.567-0.914,3.183-1.542,4.849-1.885
			c1.666-0.341,3.026-0.538,4.081-0.587c1.342-0.063,2.234-0.008,2.675,0.163c0.44,0.172,0.665,0.354,0.674,0.545
			c0.007,0.144-0.012,0.265-0.055,0.363c-1.199,0.056-2.731,0.176-4.596,0.359c-1.866,0.185-3.662,0.58-5.387,1.189
			c-1.726,0.61-3.187,1.483-4.382,2.62c-1.197,1.137-1.748,2.689-1.656,4.655c0.349-1.793,1.013-3.23,1.997-4.31
			c0.982-1.079,2.133-1.902,3.453-2.468c1.318-0.566,2.683-0.942,4.092-1.128c1.408-0.185,2.688-0.306,3.839-0.359l2.445-0.115
			c-0.183,0.201-0.27,0.398-0.261,0.589c0.009,0.192,0.112,0.355,0.311,0.49l2.805-0.131c0.773,0.108,1.336,0.334,1.689,0.678
			c0.352,0.344,0.536,0.66,0.549,0.948c0.02,0.431-0.178,0.826-0.593,1.181C370.888,204.435,370.185,204.804,369.193,205.186z
			 M357.925,223.156c1.367,0.465,2.764,0.808,4.193,1.029c1.427,0.222,2.838,0.347,4.234,0.378c1.397,0.079,2.695,0.09,3.894,0.034
			c-0.964-0.052-1.931-0.174-2.9-0.369c-1.018-0.192-1.916-0.366-2.691-0.522c-0.825-0.153-1.633-0.248-2.428-0.283
			c-0.794-0.035-1.616-0.104-2.46-0.209c-0.846-0.104-1.708-0.292-2.585-0.564c-0.877-0.271-1.762-0.698-2.655-1.281
			C355.474,222.143,356.608,222.738,357.925,223.156z M358.291,215.571c-0.051-0.045,0.1,0.092,0.452,0.411
			c0.301,0.274,0.694,0.472,1.181,0.594c-0.245-0.084-0.61-0.188-1.096-0.309c-0.537-0.167-0.813-0.442-0.831-0.826L358.291,215.571
			z M360.139,216.566c-0.048,0.002-0.12,0.006-0.216,0.01C359.971,216.573,360.042,216.57,360.139,216.566z"/>
		
			<path fill="#103653" stroke="#103653" stroke-width="2.3907" stroke-linecap="round" stroke-linejoin="round" stroke-miterlimit="10" d="
			M393.313,218.956c0.02-0.239,0.114-0.521,0.285-0.844c0.17-0.323,0.271-0.676,0.303-1.059c0.236-1.137,0.398-1.954,0.488-2.453
			c0.087-0.499,0.148-0.938,0.179-1.322c0.163-2.01,0.278-4.179,0.347-6.509c0.068-2.33,0.118-4.578,0.149-6.742
			c0.054-0.669,0.105-1.46,0.156-2.371c0.049-0.91,0.048-1.633-0.005-2.167c0.279-1.663,0.532-3.303,0.76-4.922
			c0.227-1.619,0.409-3.265,0.545-4.94l0.146-1.794c0.05-0.621,0.076-1.246,0.08-1.872c0.132,0.155,0.27,0.238,0.413,0.25
			c0.191,0.016,0.4-0.04,0.627-0.166c0.227-0.126,0.436-0.181,0.627-0.166c0.334,0.027,0.581,0.408,0.738,1.143
			c0.157,0.735,0.137,2.323-0.061,4.763l0.646,0.052c0.456-2.659,1-4.759,1.63-6.297s1.208-2.286,1.734-2.243
			c0.239,0.019,0.58,0.565,1.023,1.636c0.443,1.072,0.575,2.708,0.396,4.908l0.895-1.228c0.576-0.578,1.215-1.177,1.916-1.795
			c0.699-0.617,1.477-1.156,2.334-1.617c0.855-0.46,1.801-0.829,2.834-1.106c1.034-0.277,2.197-0.364,3.488-0.259
			c2.487,0.201,4.607,0.94,6.358,2.213c1.75,1.274,3.175,2.858,4.274,4.753c1.098,1.895,1.949,4.011,2.555,6.347
			c0.605,2.337,1.029,4.683,1.271,7.038c0.242,2.356,0.349,4.615,0.317,6.78c-0.03,2.165-0.108,4.013-0.232,5.543
			c-0.112,1.388-0.264,2.207-0.452,2.456c-0.189,0.25-0.5,0.381-0.936,0.394c0.203-3.691,0.269-7.466,0.196-11.325
			c-0.073-3.858-0.681-7.64-1.825-11.345c0.985,3.885,1.51,7.671,1.571,11.36s-0.056,7.376-0.354,11.06
			c-0.275-0.167-0.533-0.26-0.772-0.279c-0.191-0.016-0.364,0.042-0.52,0.174c-0.031,0.384-0.04,0.792-0.027,1.226
			c0.017,0.387,0.021,0.772,0.015,1.157c-0.008,0.386-0.024,0.745-0.051,1.08c-0.377,1.078-0.729,1.844-1.054,2.298
			c-0.325,0.456-0.608,0.673-0.848,0.654c-0.287-0.023-0.517-0.174-0.686-0.453c-0.171-0.278-0.323-0.615-0.46-1.012
			c-0.137-0.396-0.27-0.828-0.4-1.297c-0.131-0.468-0.322-0.929-0.574-1.383c0.161-0.805,0.287-1.458,0.375-1.956
			s0.146-0.915,0.174-1.25c0.105-1.292,0.206-2.848,0.307-4.67c0.1-1.822,0.122-3.734,0.068-5.737
			c-0.055-2.002-0.229-4.016-0.522-6.038c-0.294-2.021-0.772-3.843-1.435-5.462c-0.664-1.618-1.555-2.967-2.67-4.045
			c-1.117-1.077-2.514-1.685-4.188-1.82c-1.148-0.093-2.196,0.208-3.143,0.901c-0.948,0.694-1.793,1.613-2.535,2.756
			c-0.743,1.144-1.412,2.402-2.004,3.774c-0.594,1.373-1.085,2.693-1.477,3.961c0.539-1.304,1.092-2.631,1.659-3.983
			c0.566-1.35,1.22-2.574,1.959-3.669c0.739-1.096,1.569-1.979,2.49-2.651c0.921-0.671,1.956-0.961,3.104-0.868
			c1.482,0.12,2.73,0.631,3.74,1.531c1.011,0.901,1.834,2.027,2.471,3.379c0.637,1.352,1.115,2.871,1.438,4.559
			c0.32,1.688,0.53,3.391,0.633,5.108c0.102,1.718,0.123,3.381,0.064,4.99c-0.058,1.609-0.133,2.987-0.227,4.135
			c-0.074,0.909-0.16,1.818-0.257,2.724c-0.099,0.907-0.21,1.837-0.335,2.79c-0.283-1.853-0.451-3.781-0.506-5.784
			c-0.055-2.002-0.123-3.983-0.205-5.94s-0.229-3.847-0.443-5.67c-0.213-1.823-0.593-3.527-1.139-5.113l0.561-0.677
			c-0.389-1.139-0.858-2.032-1.408-2.679c-0.55-0.646-1.1-1.137-1.65-1.47s-1.064-0.543-1.537-0.63
			c-0.476-0.086-0.784-0.136-0.928-0.147c-1.197-0.097-2.295,0.248-3.299,1.033c-1.002,0.786-1.91,1.88-2.722,3.283
			c-0.813,1.403-1.56,3.041-2.24,4.911c-0.683,1.872-1.3,3.844-1.853,5.918c-0.554,2.075-1.06,4.165-1.52,6.27
			c-0.459,2.106-0.861,4.084-1.203,5.934l0.646,0.053c0.37-1.607,0.767-3.38,1.189-5.321c0.422-1.94,0.87-3.914,1.347-5.923
			c0.476-2.008,1.007-3.951,1.593-5.83c0.586-1.878,1.238-3.559,1.961-5.042c0.723-1.482,1.528-2.668,2.42-3.56
			c0.838-0.847,1.814-1.298,2.928-1.352c-1.073,0.154-2.012,0.752-2.818,1.794c-0.859,1.086-1.644,2.444-2.354,4.071
			c-0.709,1.629-1.373,3.417-1.988,5.365c-0.615,1.949-1.188,3.817-1.718,5.604l-2.284,10.361c-0.246,0.655-0.438,1.241-0.576,1.759
			l-0.41,1.484c-0.135,0.471-0.271,0.978-0.412,1.52c-0.141,0.543-0.311,1.167-0.513,1.873l-0.285,0.844l-0.431-0.035l-7.05-3.028
			c-0.236-0.066-0.41-0.153-0.521-0.259C393.567,219.241,393.445,219.111,393.313,218.956z M408.785,183.153
			c-1.023,0.736-1.848,1.548-2.473,2.436c-0.627,0.889-1.218,1.792-1.773,2.71l-0.006,0.072c0.782-1.333,1.83-2.669,3.143-4.007
			c1.257-1.246,2.869-2.126,4.838-2.642c-0.639,0.141-1.252,0.284-1.842,0.429C409.982,182.336,409.354,182.67,408.785,183.153z
			 M418.863,189.821c-0.36-0.318-0.783-0.581-1.272-0.79c-0.489-0.208-1.08-0.485-1.774-0.83l-0.061-0.149
			c0.809,0.114,1.512,0.352,2.109,0.713c0.596,0.362,1.151,0.949,1.663,1.76L418.863,189.821z M417.589,181.483
			c-0.236-0.066-0.568-0.118-0.999-0.153c1.5,0.508,2.9,1.042,4.204,1.605c1.302,0.564,2.497,1.563,3.585,3
			c-0.725-1.166-1.719-2.113-2.983-2.842C420.129,182.364,418.861,181.827,417.589,181.483z M424.512,186.089
			c0.604,0.868,1.15,1.852,1.639,2.95c0.488,1.099,0.916,2.073,1.279,2.921c-0.389-1.139-0.762-2.181-1.119-3.125
			C425.954,187.892,425.354,186.977,424.512,186.089z"/>
		
			<path fill="#103653" stroke="#103653" stroke-width="2.3907" stroke-linecap="round" stroke-linejoin="round" stroke-miterlimit="10" d="
			M469.323,230.563c-2.243,0.419-4.506,0.639-6.789,0.657c-2.282,0.019-4.552-0.205-6.809-0.671
			c-2.069-0.427-4.042-1.079-5.919-1.957c-1.877-0.877-3.532-2.003-4.963-3.378c-1.434-1.373-2.6-3.023-3.5-4.95
			c-0.901-1.925-1.438-4.131-1.611-6.619c-0.285,2.099-0.088,3.989,0.594,5.673s1.653,3.208,2.916,4.572
			c1.262,1.363,2.718,2.559,4.369,3.585c1.649,1.027,3.254,1.921,4.813,2.685c0.225,0.096,0.549,0.187,0.973,0.274
			c2.773,0.572,5.336,0.857,7.689,0.853c2.354-0.003,4.759-0.021,7.217-0.054c-0.879,0.456-1.893,0.798-3.043,1.026
			c-1.149,0.229-2.379,0.367-3.688,0.415c-1.309,0.048-2.662,0.014-4.059-0.103c-1.398-0.118-2.778-0.316-4.141-0.598l-0.776-0.16
			c-0.235-0.049-0.466-0.122-0.69-0.216l-0.305-1.019c-1.653-0.537-3.328-1.324-5.025-2.361c-1.698-1.036-3.188-2.312-4.467-3.826
			c-1.281-1.514-2.247-3.245-2.898-5.193c-0.652-1.947-0.739-4.073-0.264-6.377c0.398-1.927,1.045-3.754,1.94-5.481
			s1.946-3.372,3.151-4.937c-0.057,0.038-0.133,0.046-0.227,0.027c-0.141-0.029-0.191-0.137-0.152-0.326
			c-1.195,1.518-2.275,3.121-3.236,4.809c-0.961,1.688-1.66,3.59-2.097,5.706c-0.466,2.256-0.362,4.362,0.313,6.314
			c0.675,1.953,1.605,3.677,2.793,5.171c1.186,1.495,2.453,2.774,3.803,3.836c1.227,0.94,2.258,1.643,3.093,2.109
			c-1.37-0.724-2.725-1.64-4.063-2.75c-1.424-1.176-2.648-2.543-3.674-4.104c-1.027-1.56-1.785-3.284-2.277-5.175
			c-0.491-1.89-0.523-3.869-0.097-5.938c0.611-2.961,1.724-5.623,3.34-7.986c1.614-2.361,3.512-4.311,5.692-5.846
			c2.178-1.535,4.546-2.614,7.102-3.239c2.555-0.624,5.076-0.679,7.568-0.165c0.443-0.006,0.984,0.044,1.623,0.151
			c0.641,0.108,1.172,0.205,1.594,0.292c1.437,0.64,2.87,1.353,4.301,2.138c1.43,0.786,2.811,1.756,4.141,2.913
			c-0.208,0.056-0.363,0.158-0.468,0.308c-0.104,0.15-0.202,0.326-0.292,0.527c-0.092,0.202-0.211,0.361-0.357,0.478
			s-0.36,0.146-0.643,0.088c-0.235-0.049-0.574-0.192-1.014-0.43c-0.441-0.238-1.056-0.585-1.844-1.042
			c-0.17,0.112-0.284,0.309-0.342,0.591c1.012,0.797,1.653,1.604,1.926,2.419c0.273,0.817,0.342,1.554,0.205,2.211
			c-0.068,0.329-0.479,0.539-1.232,0.627c-0.611-0.126-1.539-0.439-2.783-0.942c-1.244-0.502-2.666-0.918-4.264-1.248
			c-0.705-0.146-1.487-0.271-2.348-0.375c-0.861-0.104-1.736-0.138-2.627-0.101c-0.889,0.037-1.752,0.178-2.586,0.422
			c-0.836,0.245-1.556,0.647-2.161,1.208c-0.72,0.636-1.412,1.375-2.075,2.218c-0.665,0.844-1.285,1.708-1.859,2.593
			c-0.576,0.886-1.061,1.755-1.456,2.604c-0.396,0.85-0.667,1.627-0.813,2.332c-0.136,0.659,0.017,1.462,0.458,2.41
			c0.44,0.949,1.068,1.887,1.882,2.815c0.813,0.928,1.788,1.779,2.929,2.553c1.138,0.775,2.343,1.292,3.611,1.555
			c0.611,0.126,1.371,0.185,2.279,0.176c0.908-0.008,1.848-0.047,2.818-0.116c0.97-0.069,1.92-0.105,2.854-0.109
			c0.931-0.003,1.703,0.058,2.314,0.184c0.564,0.117,0.915,0.251,1.057,0.402c0.14,0.152,0.176,0.393,0.107,0.721
			c-1.159,0.153-2.365,0.296-3.617,0.429c-0.801,0.081-1.578,0.165-2.331,0.254l2.302-0.113c1.196-0.096,2.397-0.215,3.604-0.359
			c-0.049,0.236-0.082,0.45-0.096,0.642c-0.016,0.193,0.069,0.432,0.257,0.715l0.763-0.136c0.405-0.063,0.844-0.168,1.315-0.317
			c0.94,0.194,1.567,0.422,1.881,0.683c0.313,0.261,0.433,0.58,0.354,0.955c-0.049,0.236-0.125,0.428-0.229,0.578
			c-0.104,0.151-0.233,0.295-0.384,0.436c-0.152,0.141-0.347,0.309-0.582,0.504C469.854,229.889,469.598,230.178,469.323,230.563z
			 M445.475,216.816c0.201,0.923,0.598,1.851,1.189,2.782c0.592,0.931,1.309,1.79,2.152,2.577c0.842,0.787,1.764,1.479,2.769,2.079
			c0.956,0.59,1.946,1.016,2.972,1.275c-0.922-0.288-1.86-0.727-2.816-1.317c-1.004-0.599-1.928-1.292-2.769-2.079
			c-0.843-0.786-1.573-1.636-2.194-2.548C446.157,218.673,445.723,217.749,445.475,216.816z M448.597,230.179
			c-0.095-0.02-0.184-0.062-0.268-0.129C448.413,230.117,448.502,230.16,448.597,230.179z M460.469,226.088
			c0.151-0.017,0.297-0.012,0.438,0.017C460.766,226.075,460.62,226.071,460.469,226.088z"/>
		
			<path fill="#103653" stroke="#103653" stroke-width="2.3907" stroke-linecap="round" stroke-linejoin="round" stroke-miterlimit="10" d="
			M498.397,245.497c-1.929-0.002-3.358-0.125-4.288-0.368c-0.933-0.244-1.746-0.46-2.443-0.648
			c-2.543-0.873-4.671-2.136-6.387-3.791c-1.716-1.654-3.02-3.548-3.912-5.681c-0.893-2.133-1.357-4.437-1.396-6.912
			c-0.039-2.474,0.371-4.96,1.228-7.458c0.499-1.452,1.153-2.916,1.963-4.388c0.81-1.473,1.748-2.875,2.815-4.21
			c1.066-1.333,2.256-2.511,3.571-3.532c1.269-1.036,2.649-1.881,4.144-2.537c-1.508,0.548-2.896,1.341-4.165,2.377
			c-1.315,1.021-2.528,2.19-3.64,3.508c-1.113,1.319-2.082,2.738-2.906,4.255c-0.826,1.519-1.496,3.026-2.01,4.524
			c-0.654,1.907-1.045,4.044-1.172,6.411c-0.128,2.367,0.174,4.704,0.905,7.01s1.964,4.442,3.7,6.408
			c1.735,1.966,4.146,3.479,7.234,4.538c1.453,0.499,3.044,0.816,4.773,0.953c-2.115,0.542-4.239,0.448-6.373-0.284
			c-1.726-0.592-3.258-1.411-4.6-2.454c-1.343-1.044-2.5-2.254-3.475-3.628c-0.975-1.375-1.767-2.877-2.374-4.507
			c-0.608-1.629-1.026-3.295-1.254-4.998l0.8-0.334c-0.242-1.808-0.269-3.542-0.079-5.203c0.188-1.66,0.556-3.285,1.102-4.875
			c0.795-2.315,1.887-4.426,3.278-6.335c1.389-1.908,2.957-3.628,4.701-5.161l2.406-1.687c0.443-0.406,1.012-0.769,1.705-1.089
			c0.693-0.32,1.439-0.61,2.24-0.868c0.799-0.259,1.615-0.46,2.453-0.604c0.835-0.144,1.625-0.267,2.371-0.366
			c1.914-0.256,3.802-0.433,5.662-0.531c1.86-0.097,3.935,0.069,6.223,0.499l-0.201-0.298c-4.318-1.025-8.207-1.229-11.664-0.615
			c-3.459,0.615-6.494,1.768-9.104,3.46c-2.61,1.692-4.796,3.771-6.556,6.238c-1.76,2.467-3.092,5.017-3.995,7.649
			c-0.483,1.408-0.845,2.869-1.086,4.385c-0.242,1.516-0.354,3.063-0.337,4.642c-0.201-3.114,0.221-6.191,1.266-9.233
			c1.027-2.997,2.547-5.798,4.56-8.407c2.011-2.608,4.512-4.794,7.503-6.56c3.581-1.562,7.213-2.46,10.896-2.693
			c3.683-0.233,7.023,0.164,10.02,1.192c0.953,0.327,1.874,0.822,2.765,1.482c0.889,0.661,1.63,1.461,2.222,2.399
			c0.591,0.939,0.969,2.02,1.133,3.243c0.162,1.224-0.012,2.584-0.525,4.083c-0.422,1.226-1.231,2.623-2.428,4.191
			c-1.199,1.568-2.66,2.982-4.387,4.242c-1.727,1.261-3.651,2.172-5.773,2.738c-2.123,0.565-4.319,0.459-6.59-0.32l-2.246-0.771
			c-1.557-0.939-2.944-1.885-4.165-2.837c-1.222-0.952-2.397-1.774-3.53-2.468c-0.432,0.665-0.771,1.322-1.02,1.972
			c-0.249,0.65-0.482,1.294-0.699,1.929c-0.453,1.317-0.746,2.65-0.879,4c-0.133,1.351-0.062,2.656,0.217,3.918
			c0.276,1.263,0.782,2.413,1.518,3.451c0.734,1.04,1.773,1.891,3.119,2.555c0.8,0.478,1.514,0.837,2.143,1.078
			c0.627,0.241,1.152,0.447,1.577,0.617c0.423,0.171,0.718,0.349,0.884,0.532c0.164,0.184,0.193,0.435,0.084,0.752
			c-0.501-0.02-0.998-0.088-1.49-0.207c-0.492-0.118-0.988-0.263-1.486-0.435c-1.59-0.545-2.932-1.297-4.022-2.255
			c-1.093-0.958-1.976-1.934-2.649-2.927c0.686,1.403,1.68,2.569,2.986,3.499c1.304,0.93,2.66,1.636,4.068,2.119
			c0.771,0.265,1.59,0.469,2.453,0.614c-0.185,0.241-0.284,0.385-0.299,0.43c-0.094,0.272-0.044,0.493,0.152,0.662
			c0.197,0.018,0.559,0.001,1.082-0.047c0.523-0.048,1.061-0.093,1.607-0.134c0.547-0.041,1.073-0.062,1.582-0.065
			c0.508-0.003,0.854,0.026,1.035,0.089c0.227,0.078,0.42,0.182,0.578,0.313c0.158,0.13,0.16,0.423,0.004,0.876
			c-0.156,0.455-0.502,0.944-1.037,1.471C499.945,244.608,499.251,245.079,498.397,245.497z M486.18,234.073
			c-0.193-0.472-0.387-0.944-0.579-1.417c-0.163-0.411-0.282-0.807-0.354-1.187C485.391,232.382,485.701,233.25,486.18,234.073z
			 M493.393,219.268c0.121-0.06,0.225-0.176,0.311-0.35c0.084-0.173,0.143-0.306,0.174-0.397l-2.804-2.256l-0.668,0.836
			L493.393,219.268z M498.254,215.303l1.404,0.787c0.469,0.263,0.907,0.463,1.316,0.604c0.453,0.155,1.037,0.192,1.752,0.106
			c0.714-0.084,1.471-0.294,2.271-0.629c0.799-0.334,1.578-0.829,2.335-1.482c0.757-0.653,1.427-1.463,2.014-2.43l0.276-0.362
			c-0.637-0.219-1.645-0.386-3.023-0.505c-1.381-0.118-2.842-0.15-4.383-0.096c-1.541,0.055-3.023,0.231-4.444,0.53
			c-1.423,0.299-2.501,0.779-3.235,1.44c0.635,0.37,1.262,0.725,1.881,1.064C497.037,214.671,497.648,214.995,498.254,215.303z"/>
	</g>
</g>
</svg>
