<?xml version="1.0" encoding="utf-8"?>
<!-- Generator: Adobe Illustrator 15.0.0, SVG Export Plug-In . SVG Version: 6.00 Build 0)  -->
<!DOCTYPE svg PUBLIC "-//W3C//DTD SVG 1.1//EN" "http://www.w3.org/Graphics/SVG/1.1/DTD/svg11.dtd">
<svg version="1.1" id="Calque_1" xmlns="http://www.w3.org/2000/svg" xmlns:xlink="http://www.w3.org/1999/xlink" x="0px" y="0px"
	 width="800px" height="800px" viewBox="0 0 800 800" enable-background="new 0 0 800 800" xml:space="preserve">
<g>
	<path opacity="0.5" fill="#F8F9F6" d="M718.92,301.671c-4.476-6.049-12.526-12.313-28.571-24.791L424.633,70.211
		c-9.453-7.352-16.916-13.158-19.957-13.98c-1.339-0.363-2.714-0.545-4.097-0.545s-2.759,0.183-4.092,0.544
		c-3.046,0.824-10.51,6.629-19.96,13.981l-265.718,206.67c-16.046,12.481-24.096,18.741-28.573,24.794
		c-3.982,5.386-6.917,11.384-8.722,17.833c-2.03,7.253-2.03,17.456-2.03,37.778v283.45c0,38.806,0,60.183,5.977,71.916
		c5.294,10.388,13.582,18.676,23.968,23.966c11.735,5.979,33.112,5.979,71.917,5.979h454.464c38.808,0,60.184,0,71.914-5.978
		c10.392-5.294,18.677-13.58,23.969-23.966c5.98-11.735,5.98-33.112,5.98-71.918v-283.45c0-20.325,0-30.527-2.03-37.78
		C725.84,313.063,722.904,307.062,718.92,301.671z"/>
	<path fill="#103653" d="M627.811,789.605H173.346c-47.584,0-71.468,0-93.258-11.103c-19.289-9.826-34.683-25.218-44.515-44.514
		c-11.102-21.791-11.102-45.676-11.102-93.26V357.281c0-23.846,0-36.981,3.77-50.451c3.353-11.976,8.801-23.117,16.197-33.116
		c8.315-11.243,18.682-19.306,37.5-33.942L347.663,33.095c15.2-11.823,24.374-18.959,36.539-22.25
		c10.667-2.89,22.081-2.891,32.761,0.001c12.157,3.29,21.332,10.426,36.532,22.25l265.718,206.669
		c18.823,14.639,29.192,22.703,37.51,33.95c7.396,10.005,12.844,21.145,16.195,33.112c3.77,13.473,3.77,26.608,3.77,50.453v283.449
		c0,47.585,0,71.47-11.103,93.26c-9.829,19.292-25.223,34.686-44.518,44.515C699.281,789.605,675.396,789.605,627.811,789.605z
		 M400.579,55.68c-1.383,0-2.759,0.183-4.092,0.544c-3.046,0.824-10.51,6.63-19.96,13.981l-265.718,206.67
		c-16.046,12.481-24.096,18.741-28.573,24.795c-3.982,5.384-6.917,11.383-8.722,17.832c-2.03,7.254-2.03,17.455-2.03,37.779v283.449
		c0,38.808,0,60.184,5.977,71.916c5.294,10.389,13.582,18.676,23.968,23.966c11.735,5.98,33.112,5.98,71.917,5.98h454.464
		c38.808,0,60.184,0,71.914-5.978c10.392-5.294,18.677-13.58,23.969-23.968c5.98-11.734,5.98-33.11,5.98-71.917V357.281
		c0-20.325,0-30.527-2.03-37.78c-1.804-6.442-4.739-12.444-8.724-17.834c-4.476-6.051-12.526-12.313-28.571-24.791L424.633,70.206
		c-9.453-7.351-16.916-13.158-19.957-13.98C403.337,55.863,401.962,55.68,400.579,55.68z"/>
	<g>
		<path fill="#F8DCB8" d="M449.355,222.552c-140.357,0-254.167,113.786-254.167,254.155s113.798,254.156,254.167,254.156
			c140.379,0,254.168-113.787,254.168-254.156S589.734,222.552,449.355,222.552z M449.355,298.548
			c46.444,0,84.078,37.645,84.078,84.068c0,46.432-37.634,84.065-84.078,84.065c-46.422,0-84.056-37.634-84.056-84.065
			C365.299,336.193,402.934,298.548,449.355,298.548z M449.3,664.415c-46.321,0-88.746-16.87-121.468-44.791
			c-7.971-6.8-12.572-16.771-12.572-27.231c0-47.079,38.104-84.76,85.195-84.76h97.822c47.103,0,85.061,37.681,85.061,84.76
			c0,10.473-4.577,20.42-12.56,27.22C538.067,647.545,495.631,664.415,449.3,664.415z"/>
	</g>
	<g>
		<path fill="#103653" d="M400.579,193.169c-140.357,0-254.167,113.787-254.167,254.155c0,140.369,113.798,254.156,254.167,254.156
			c140.38,0,254.167-113.787,254.167-254.156C654.746,306.955,540.959,193.169,400.579,193.169z M400.579,269.164
			c46.443,0,84.078,37.645,84.078,84.068c0,46.432-37.635,84.066-84.078,84.066c-46.421,0-84.056-37.635-84.056-84.066
			C316.523,306.809,354.158,269.164,400.579,269.164z M400.522,635.03c-46.319,0-88.745-16.87-121.467-44.791
			c-7.972-6.799-12.572-16.769-12.572-27.229c0-47.08,38.105-84.761,85.195-84.761H449.5c47.103,0,85.061,37.681,85.061,84.761
			c0,10.472-4.577,20.419-12.56,27.218C489.29,618.16,446.854,635.03,400.522,635.03z"/>
	</g>
</g>
</svg>
