<?xml version="1.0" encoding="utf-8"?>
<!-- Generator: Adobe Illustrator 15.0.0, SVG Export Plug-In . SVG Version: 6.00 Build 0)  -->
<!DOCTYPE svg PUBLIC "-//W3C//DTD SVG 1.1//EN" "http://www.w3.org/Graphics/SVG/1.1/DTD/svg11.dtd">
<svg version="1.1" id="Calque_1" xmlns="http://www.w3.org/2000/svg" xmlns:xlink="http://www.w3.org/1999/xlink" x="0px" y="0px"
	 width="600px" height="600px" viewBox="100 100 600 600" enable-background="new 100 100 600 600" xml:space="preserve">
<title>linkedin_fill</title>
<g id="页面-1">
	<g id="Brand" transform="translate(-336.000000, -48.000000)">
		<g id="linkedin_fill" transform="translate(336.000000, 48.000000)">
			<path id="MingCute" fill="none" d="M799.999,0v800H0V0H799.999z M419.782,775.261l-0.385,0.056l-2.369,1.185l-0.633,0.123l0,0
				l-0.506-0.123l-2.368-1.185c-0.328-0.104-0.62-0.017-0.784,0.18l-0.137,0.364l-0.569,14.243l0.165,0.68l0.367,0.406l3.452,2.467
				l0.495,0.13l0,0l0.393-0.13l3.452-2.467l0.421-0.534l0,0l0.111-0.552l-0.569-14.243
				C420.252,775.523,420.033,775.31,419.782,775.261L419.782,775.261z M428.612,771.51l-0.461,0.067l-6.157,3.078l-0.332,0.342l0,0
				l-0.09,0.374l0.597,14.317l0.162,0.426l0,0l0.281,0.236l6.698,3.091c0.403,0.122,0.764-0.008,0.95-0.267l0.133-0.469
				l-1.138-20.488C429.176,771.82,428.913,771.567,428.612,771.51L428.612,771.51z M404.768,771.577
				c-0.327-0.164-0.695-0.068-0.913,0.177l-0.191,0.464l-1.138,20.488c-0.021,0.383,0.234,0.689,0.563,0.78l0.521-0.045l6.698-3.091
				l0.314-0.269l0,0l0.129-0.394l0.597-14.317l-0.105-0.42l0,0l-0.316-0.296L404.768,771.577z"/>
			<path id="形状" fill="#103653" d="M600,100c55.229,0,100,44.771,100,100v400c0,55.23-44.771,100-100,100H200
				c-55.228,0-100-44.77-100-100V200c0-55.229,44.772-100,100-100H600z M266.666,333.334c-18.409,0-33.333,14.923-33.333,33.333
				v166.667c0,18.41,14.924,33.333,33.333,33.333c18.41,0,33.334-14.923,33.334-33.333V366.667
				C300,348.257,285.076,333.334,266.666,333.334z M366.666,300c-18.41,0-33.333,14.924-33.333,33.334v200
				c0,18.41,14.923,33.333,33.333,33.333S400,551.744,400,533.334V411.327c10.163-11.477,27.356-24.924,46.443-33.087
				c11.093-4.747,27.783-6.644,39.393-2.993c5.077,1.597,7.974,3.84,9.764,6.257c1.736,2.353,4.4,7.52,4.4,18.496v133.334
				c0,18.406,14.923,33.333,33.333,33.333s33.333-14.927,33.333-33.333V400c0-22.359-5.673-42.193-17.474-58.146
				c-11.753-15.885-27.606-25.25-43.363-30.204c-30.057-9.451-63.366-4.218-85.606,5.297c-7.057,3.018-14.013,6.532-20.753,10.43
				C396.659,311.809,383.043,300,366.666,300z M266.666,233.334c-18.409,0-33.333,14.924-33.333,33.333S248.257,300,266.666,300
				c18.41,0,33.334-14.924,33.334-33.333S285.076,233.334,266.666,233.334z"/>
		</g>
	</g>
</g>
</svg>
