<?xml version="1.0" encoding="utf-8"?>
<!-- Generator: Adobe Illustrator 15.0.0, SVG Export Plug-In . SVG Version: 6.00 Build 0)  -->
<!DOCTYPE svg PUBLIC "-//W3C//DTD SVG 1.1//EN" "http://www.w3.org/Graphics/SVG/1.1/DTD/svg11.dtd">
<svg version="1.1" id="Calque_1" xmlns="http://www.w3.org/2000/svg" xmlns:xlink="http://www.w3.org/1999/xlink" x="0px" y="0px"
	 width="780px" height="125.679px" viewBox="0 0 780 125.679" enable-background="new 0 0 780 125.679" xml:space="preserve">
<path fill="#103653" d="M36.915,46.099C41.951,57.798,53.304,65.97,66.526,65.97c10.806,0.041,20.932-5.561,27.01-14.955
	c5.501,4.039,12.047,6.203,18.756,6.193c5.462,0,10.592-1.404,15.101-3.838c0.416,18.051,14.732,32.596,32.371,32.596
	c10.382,0,19.609-5.07,25.539-12.898c14.596,31.006,45.413,52.357,81.107,52.357c39.66,0,73.327-26.418,85.354-63.094
	c4.562,2.402,9.586,3.654,14.689,3.65c7.44,0,14.27-2.605,19.742-6.953c5.219,29.971,30.589,52.73,61.186,52.73
	c27.223,0,50.305-18.057,58.756-43.129c2.565,1.078,5.35,1.689,8.305,1.689c7.111,0.035,13.802-3.561,17.969-9.625
	c14.34,9.914,31.584,15.699,50.154,15.699c14.744,0,28.642-3.684,40.932-10.139c1.786,33.756,28.838,60.582,62.054,60.582
	c30.583,0,55.967-22.758,61.178-52.746c5.686,4.523,12.622,6.98,19.746,6.971c5.296,0,10.273-1.334,14.69-3.654
	c12.024,36.674,45.683,63.094,85.35,63.094c47.209,0,85.926-37.412,89.775-85.023c11.087,4.822,22.982,7.275,34.979,7.252
	c23.99,0,45.767-9.678,61.918-25.424c16.326,23.648,43.124,39.094,73.458,39.094c37.605,0,69.805-23.736,83.318-57.456
	c5.088,3.208,10.905,4.897,16.838,4.897c0.906,0,1.798-0.064,2.691-0.139c9.764,40.391,45.196,70.318,87.425,70.318
	c36.25,0,67.486-22.082,81.785-53.863c2.571,1.066,5.375,1.688,8.32,1.688c2.6,0,5.099-0.494,7.456-1.357
	c6.212,7.701,15.347,12.137,24.942,12.092c14.386,0,26.538-9.627,30.796-22.973c15.846,14.285,36.602,22.973,59.329,22.973
	c30.326,0,57.119-15.424,73.458-39.073c16.148,15.745,37.929,25.424,61.908,25.424c12.398,0,24.226-2.584,34.992-7.256
	c3.85,47.623,42.534,85.023,89.773,85.023c39.673,0,73.323-26.418,85.362-63.096c4.411,2.326,9.385,3.654,14.664,3.654
	c7.124,0.023,14.059-2.432,19.738-6.957c5.223,29.969,30.6,52.729,61.194,52.729c33.202,0,60.259-26.82,62.051-60.566
	c12.703,6.686,26.719,10.156,40.928,10.127c18.563,0,35.813-5.791,50.148-15.682c4.165,6.063,10.858,9.631,17.969,9.619
	c2.942,0,5.744-0.602,8.32-1.682c8.434,25.088,31.516,43.125,58.74,43.125c30.58,0,55.968-22.76,61.189-52.744
	c5.688,4.523,12.624,6.979,19.738,6.971c5.313,0,10.279-1.332,14.696-3.65c12.032,36.672,45.695,63.092,85.362,63.092
	c7.714,0,15.189-1.057,22.329-2.943V-4.999H-5v47.854c6.105,6.246,14.294,9.725,22.813,9.703
	C24.964,52.558,31.552,50.14,36.915,46.099z"/>
</svg>
