<?xml version="1.0" encoding="utf-8"?>
<!-- Generator: Adobe Illustrator 15.0.0, SVG Export Plug-In . SVG Version: 6.00 Build 0)  -->
<!DOCTYPE svg PUBLIC "-//W3C//DTD SVG 1.1//EN" "http://www.w3.org/Graphics/SVG/1.1/DTD/svg11.dtd">
<svg version="1.1" id="Calque_1" xmlns="http://www.w3.org/2000/svg" xmlns:xlink="http://www.w3.org/1999/xlink" x="0px" y="0px"
	 width="800px" height="800px" viewBox="0 0 800 800" enable-background="new 0 0 800 800" xml:space="preserve">
<title>ionicons-v5_logos</title>
<path fill="#103653" d="M400.082,32.672c-202.804,0-367.245,164.441-367.245,367.246c0,150.342,90.5,279.532,219.855,336.424
	c-0.984-25.576-0.164-56.398,6.394-84.27c7.05-29.839,47.217-200.182,47.217-200.182s-11.805-23.444-11.805-58.039
	c0-54.431,31.479-95.09,70.826-95.09c33.445,0,49.513,25.084,49.513,55.087c0,33.609-21.478,83.779-32.462,130.34
	c-9.181,39.02,19.51,70.662,58.038,70.662c69.514,0,116.403-89.353,116.403-195.264c0-80.499-54.267-140.668-152.801-140.668
	c-111.321,0-180.835,83.122-180.835,175.917c0,31.971,9.509,54.596,24.264,71.974c6.722,8.034,7.706,11.313,5.247,20.494
	c-1.804,6.722-5.738,22.953-7.542,29.511c-2.459,9.345-10.001,12.624-18.362,9.181c-51.316-20.985-75.253-77.056-75.253-140.341
	c0-104.271,88.041-229.364,262.482-229.364c140.177,0,232.479,101.484,232.479,210.346c0,144.112-80.171,251.663-198.214,251.663
	c-39.676,0-76.892-21.478-89.68-45.742c0,0-21.313,84.598-25.904,100.993c-7.706,28.362-22.953,56.562-36.888,78.695
	c33.804,9.972,68.862,15.051,104.107,15.083c202.805,0,367.246-164.44,367.246-367.247
	C767.164,197.277,602.887,32.672,400.082,32.672z"/>
</svg>
