<?xml version="1.0" encoding="utf-8"?>
<!-- Generator: Adobe Illustrator 15.0.0, SVG Export Plug-In . SVG Version: 6.00 Build 0)  -->
<!DOCTYPE svg PUBLIC "-//W3C//DTD SVG 1.1//EN" "http://www.w3.org/Graphics/SVG/1.1/DTD/svg11.dtd">
<svg version="1.1" id="Calque_1" xmlns="http://www.w3.org/2000/svg" xmlns:xlink="http://www.w3.org/1999/xlink" x="0px" y="0px"
	 width="653.067px" height="678.52px" viewBox="0 0 653.067 678.52" enable-background="new 0 0 653.067 678.52"
	 xml:space="preserve">
<g id="ic-social-instagram">
	<g>
		<path fill="#103653" d="M426.534,659.26H226.533c-58.764,0-114.011-22.886-155.563-64.438
			C29.417,553.269,6.533,498.023,6.533,439.26V239.259c0-58.764,22.884-114.011,64.437-155.563
			c41.552-41.553,96.799-64.438,155.563-64.438h200.001c58.764,0,114.01,22.885,155.563,64.438s64.438,96.8,64.438,155.563V439.26
			c0,58.764-22.885,114.01-64.438,155.563S485.297,659.26,426.534,659.26z M226.533,59.259c-99.252,0-180,80.748-180,180V439.26
			c0,99.252,80.748,180,180,180h200.001c99.252,0,180-80.748,180-180V239.259c0-99.252-80.748-180-180-180H226.533z"/>
		<path fill="#103653" d="M326.534,492.594c-84.548,0-153.334-68.785-153.334-153.335c0-84.548,68.786-153.333,153.334-153.333
			c84.547,0,153.332,68.785,153.332,153.333C479.866,423.809,411.081,492.594,326.534,492.594z M326.534,225.926
			c-62.493,0-113.334,50.842-113.334,113.333c0,62.493,50.841,113.335,113.334,113.335c62.492,0,113.332-50.843,113.332-113.335
			C439.866,276.767,389.024,225.926,326.534,225.926z"/>
		<path fill="#103653" d="M493.2,222.259c-29.408,0-53.334-23.925-53.334-53.333c0-29.407,23.926-53.333,53.334-53.333
			c29.406,0,53.334,23.926,53.334,53.333C546.534,198.334,522.608,222.259,493.2,222.259z M493.2,155.593
			c-7.354,0-13.334,5.981-13.334,13.333c0,7.353,5.98,13.333,13.334,13.333c7.352,0,13.334-5.98,13.334-13.333
			C506.534,161.574,500.551,155.593,493.2,155.593z"/>
	</g>
</g>
</svg>
