<?xml version="1.0" encoding="utf-8"?>
<!-- Generator: Adobe Illustrator 15.0.0, SVG Export Plug-In . SVG Version: 6.00 Build 0)  -->
<!DOCTYPE svg PUBLIC "-//W3C//DTD SVG 1.1//EN" "http://www.w3.org/Graphics/SVG/1.1/DTD/svg11.dtd">
<svg version="1.1" id="Calque_1" xmlns="http://www.w3.org/2000/svg" xmlns:xlink="http://www.w3.org/1999/xlink" x="0px" y="0px"
	 width="489.392px" height="500px" viewBox="132.292 150 489.392 500" enable-background="new 132.292 150 489.392 500"
	 xml:space="preserve">
<title>train_fill</title>
<g>
	<path fill="#09244B" stroke="#09244B" stroke-width="6.7953" stroke-miterlimit="10" d="M588.351,585.583H182.018
		c-18.409,0-33.333,14.924-33.333,33.334s14.924,33.333,33.333,33.333h406.333c18.41,0,33.334-14.923,33.334-33.333
		S606.761,585.583,588.351,585.583z"/>
	<path fill="#09244B" d="M233.301,549.284h294.398c48.777,0,88.318-33.708,88.318-75.288V223.037
		c0-41.58-39.541-75.287-88.318-75.287H233.301c-48.777,0-88.319,33.707-88.319,75.287v250.959
		C144.981,515.576,184.523,549.284,233.301,549.284z M341.198,501.573H311.01l-63.526-60.114l63.526-60.376h30.188l-63.526,60.376
		L341.198,501.573z M416.018,214.417h133.334v100H416.018V214.417z M452.497,381.083h30.188l-63.527,60.376l63.527,60.114h-30.188
		l-63.527-60.114L452.497,381.083z M216.018,214.417h133.333v100H216.018V214.417z"/>
</g>
</svg>
