<svg xmlns="http://www.w3.org/2000/svg" xml:space="preserve" width="80" height="80"><path fill="#FFF" d="M38.238 6.119c-4.386-.717-10.199.687-9.528 6.16.515 4.196 3.604 8.227 7.656 9.499 1.791.563 4.396.521 5.86-.832s-.193-2.75-1.537-3.171c-.503-.158.003.084-.312-.153-.415-.313-.771-.702-1.117-1.086-.748-.831-1.243-1.965-1.644-2.994a6.082 6.082 0 0 1-.357-2.969c-.003.024 3.114.084 3.971-1.602.887-1.747-1.809-2.659-2.992-2.852zM37.589 25.99c-2.01 6.831-4.433 13.493-7.345 19.991-1.805 4.027-6.49 9.535-6.272 14.241.209 4.53 3.799 5.565 6.995 7.876 1.893 1.369 3.486 3.063 5.239 4.59 2.54 2.213 5.59 3.679 8.186 5.818 2.736 2.258 3.833-3.009 1.732-4.74-3.117-2.571-6.6-4.452-9.613-7.182-1.532-1.388-3.095-2.709-4.771-3.92-1.902-1.375-3.689-1.542-2.204-4.332 5.022-9.435 9.096-19.084 12.118-29.352.768-2.605-3.065-6.39-4.065-2.99z" opacity=".59"/><path fill="#103653" d="M34.69 9.215c-.407 0-.738-.386-.738-.86 0-.708.529-.697.747-.713.317-.018.412.142.469.273.011.017.037.043.063.072.092.102.197.218.197.368 0 .223-.137.371-.238.479-.021.023-.042.045-.06.067-.019.023-.035.047-.05.069-.066.098-.167.245-.39.245zm.04-1.146a1.497 1.497 0 0 1-.125.006c-.143 0-.223.013-.223.28 0 .234.142.432.309.432v.214l.003-.214c-.005-.001.017-.034.033-.058a1.315 1.315 0 0 1 .15-.186c.074-.081.123-.137.123-.188-.005.011-.057-.048-.086-.081-.055-.062-.107-.12-.137-.187l-.047-.018zM42.102 8.725c-.401 0-.637-.216-.662-.608a1.047 1.047 0 0 0-.01-.094c-.02-.134-.047-.336.242-.486.016-.012.041-.04.068-.067.096-.099.205-.21.355-.22h.003c.235 0 .382.119.489.206.023.02.047.04.071.056.024.018.049.032.072.045.102.061.255.151.27.374a.674.674 0 0 1-.176.493.927.927 0 0 1-.636.298 1.28 1.28 0 0 1-.086.003zm.027-1.048c.002.005-.051.059-.082.092-.059.059-.112.114-.178.148-.023.003-.02.023-.016.048.005.037.011.078.014.125.01.155.045.207.234.207l.06-.002a.5.5 0 0 0 .342-.153.255.255 0 0 0 .069-.183.364.364 0 0 1-.061-.033c-.031-.019-.066-.04-.101-.064a1.779 1.779 0 0 1-.095-.074c-.065-.055-.134-.111-.186-.111z"/><g fill="#103653"><path d="M35.231 7.987c-.026-.029-.052-.055-.063-.072-.057-.132-.152-.292-.469-.273-.217.016-.747.006-.746.713 0 .474.33.86.737.86.223 0 .323-.147.39-.245.016-.022.031-.046.051-.069.018-.022.039-.044.06-.067.101-.108.237-.256.237-.479-.001-.15-.104-.266-.197-.368zm-.355.555c-.028.03-.056.06-.08.089a1.653 1.653 0 0 0-.07.097c-.016.023-.038.056-.033.058l-.003.215v-.214c-.167 0-.31-.198-.31-.432 0-.268.081-.28.224-.28.048 0 .089-.003.126-.006l.046.019c.03.067.082.125.138.187.028.032.08.092.086.081 0 .05-.049.106-.124.186zM41.178 17.671c.188-.088.604-.376.424-1.158a.286.286 0 1 0-.557.129c.096.416-.059.488-.109.512-.316.148-1.051-.096-1.31-.435-.327-.429-.465-1.026-.599-1.603a10.448 10.448 0 0 0-.229-.832c.203-.001.406.004.606-.006.079-.399-.606-2.724-.84-2.76-.69-.104-1.054 2.269-1.049 2.68l.476.095.077-.001c0 .131.001.272.004.418.011.678.024 1.521-.274 1.879-.177.212-.364.318-.572.323-.383-.015-.813-.273-1.309-.813a.286.286 0 0 0-.421.385c.618.675 1.2 1.027 1.742.999.378-.009.714-.187.999-.529.232-.28.336-.676.381-1.109.119.435.277.858.553 1.219.293.385.961.702 1.53.702.172.001.336-.029.477-.095zM41.439 8.117c.025.392.26.608.662.608l.086-.003a.93.93 0 0 0 .637-.298.676.676 0 0 0 .176-.493c-.016-.222-.168-.313-.27-.374-.023-.014-.047-.028-.072-.045a1.144 1.144 0 0 1-.07-.056c-.107-.087-.254-.206-.49-.206h-.002c-.15.009-.26.121-.355.22-.027.028-.053.056-.068.067-.289.15-.262.352-.242.486.003.027.007.058.008.094zm.43-.2c.064-.034.119-.09.178-.148.031-.033.084-.087.082-.092.051 0 .121.057.188.111.031.026.064.052.094.074a1.829 1.829 0 0 0 .163.097.25.25 0 0 1-.07.183.495.495 0 0 1-.342.153l-.059.002c-.189 0-.225-.051-.234-.207-.004-.047-.01-.088-.014-.125-.005-.025-.009-.045.014-.048z"/><path d="M32.461 69.764c3.487 2.736 6.241 4.897 6.569 5.138 1.659 1.213 3.077 2.398 4.217 3.523l.242.247c.342.352.664.685 1.145.685l.045-.001c.523-.022.91-.446 1.262-.878.531-.651.846-1.373 1.152-2.07l.158-.359c.893-1.999 4.141-6.743 8.961-13.079.109-.146.313-.396.561-.706 1.463-1.817 2.291-2.899 2.482-3.413.23-.62-.006-1.842-.873-4.509l-.086-.267c-.581-1.823-1.366-3.075-2.446-4.506-.912-1.209-2.678-7.066-3.432-9.567-.154-.513-.283-.942-.379-1.25-1.123-3.599-5.467-14.675-6.68-17.632 2.113-2.526 2.324-5.535 2.324-8.652 0-1.693-.049-2.84-.715-4.138 1.462-1.021 4.139-3.135 4.146-4.921.004-.637-.299-1.196-.85-1.575-.787-.542-1.693-.593-2.553-.141-1.37.72-2.367 2.587-2.789 4.017-.536-.417-1.17-.715-2.084-.989-.4-.12-.807-.251-1.217-.382-1.018-.327-2.07-.665-3.126-.871-.971-.188-2.671.174-3.792.468C34.287 2.744 33.234.899 32 .668c-.274-.05-1.21-.131-1.761 1.006-.579 1.197-.222 2.697.095 4.021.106.443.207.865.253 1.207-.422.507-.724.911-.777 1.006-.959 1.735-.904 3.798-.749 5.401.078.804.37 1.423.653 2.021.11.233.224.473.328.733.096.24.155.521.219.818.093.438.189.892.418 1.329.875 1.669 2.639 3.225 3.355 3.816a9.04 9.04 0 0 0 3.495 1.795c-1.186 3.895-2.778 8.155-3.648 10.414-.154.4-.298.812-.442 1.227-.397 1.141-.809 2.321-1.487 3.336-.802 1.2-2.403 5.045-3.865 8.65l-.31.762c-.485 1.178-3.364 6.64-4.252 7.995-.29.442-.634.854-.999 1.288-.657.784-1.337 1.595-1.7 2.632l-.165.479.423.279c.411.275 6.749 5.249 11.377 8.881zM48.643 3.463a.528.528 0 0 1 .24-.073c.076 0 .145.028.225.079-.09.418-.908 1.344-2.107 2.33.36-.92 1.003-2 1.642-2.336zM32.844 4.635c-.19.14-.388.304-.59.488-.17-.713-.357-1.534-.307-2.142.353.459.75 1.211.897 1.654zm2.018 16.39c-.657-.542-2.267-1.958-3.031-3.417-.146-.278-.22-.627-.298-.996-.072-.338-.146-.688-.283-1.03a14.3 14.3 0 0 0-.359-.807c-.258-.543-.479-1.013-.535-1.592-.137-1.417-.193-3.225.594-4.647.055-.099.178-.263.327-.449a.978.978 0 0 0 .338.067h.035c.552-.02.983-.482.965-1.034-.005-.148-.039-.312-.059-.468.375-.388.733-.729 1.001-.943a.984.984 0 0 0 .424.063.979.979 0 0 0 .771-.511c.967-.276 2.63-.685 3.497-.516.981.191 1.995.517 2.978.832.416.134.832.267 1.24.39 1.35.405 1.871.793 2.621 1.819.012.173.062.346.166.5a.99.99 0 0 0 .398.34c.694 1.17.732 2.096.732 3.843 0 4.206-.537 6.904-3.365 9.111a5.67 5.67 0 0 1-3.523 1.203h-.001c-1.615-.001-3.26-.625-4.633-1.758zM23.521 58.331c.373-.445.759-.905 1.09-1.412.939-1.433 3.854-6.967 4.367-8.213l.313-.768c.869-2.144 2.905-7.165 3.741-8.416.771-1.153 1.209-2.413 1.634-3.631.14-.402.278-.8.428-1.188.889-2.304 2.523-6.679 3.726-10.654.225.02.451.032.676.032h.001a6.957 6.957 0 0 0 4.322-1.478 10.8 10.8 0 0 0 .552-.464c1.436 3.542 5.372 13.617 6.427 17 .096.304.223.729.377 1.237 1.252 4.151 2.668 8.688 3.639 9.976 1.023 1.355 1.717 2.463 2.244 4.115l.09.275c.883 2.717.934 3.464.891 3.652-.154.413-1.641 2.263-2.277 3.053-.256.32-.467.581-.631.798-2.838 3.73-7.789 10.415-9.064 13.271l-.162.367c-.283.646-.551 1.257-.971 1.771a3.848 3.848 0 0 1-.291.328c-.066-.063-.146-.146-.217-.219l-.264-.263c-1.186-1.17-2.654-2.397-4.364-3.647-.311-.228-3.195-2.491-6.535-5.111-5.513-4.326-9.675-7.59-11.028-8.617.313-.633.788-1.2 1.286-1.794z"/><path d="M34.914 8.274a.783.783 0 0 1-.138-.187l-.046-.018a1.501 1.501 0 0 1-.126.006c-.143 0-.224.013-.224.28 0 .234.143.432.31.432v.214l.003-.214c-.005-.001.018-.034.033-.058.021-.031.044-.064.07-.097.024-.03.052-.059.08-.089.075-.081.124-.137.124-.188-.006.011-.058-.048-.086-.081zM42.102 8.296l.059-.002a.495.495 0 0 0 .342-.153.252.252 0 0 0 .07-.183.326.326 0 0 1-.061-.033c-.031-.019-.066-.04-.102-.064-.029-.022-.063-.047-.094-.074-.066-.054-.137-.111-.188-.111.002.005-.051.059-.082.092-.059.059-.113.114-.178.148-.023.003-.02.023-.016.048.004.037.01.078.014.125.011.156.046.207.236.207z"/></g></svg>