<svg xmlns="http://www.w3.org/2000/svg" xml:space="preserve" width="35.789" height="35.33" viewBox="22.106 24.563 35.789 35.33"><path fill="#F8F9F7" d="M23.428 33.933c1.664 1.118 3.451 2.027 5.455 2.775-.104 1.185-.383 4.898-.308 6.712a.654.654 0 0 0 .229.468c.498.42 1.61.853 3.143 1.224.045 1.396.116 2.792.186 4.144l.006.115c.063 1.223.125 2.483.172 3.732-.128.05-.254.11-.383.183-1.419.957-2.084 2.574-1.826 4.41.016.539.256 1.048.642 1.362.673.546 1.421.835 2.161.835.126 0 .253-.009.406-.024.154 0 .301-.026.437-.079a3.68 3.68 0 0 0 2.19-2.229c.076-.213.238-.972.232-1.281-.018-1.058-.313-1.946-.842-2.556l-.058-.064a2.46 2.46 0 0 0-1.679-.779c-.045-1.2-.105-2.403-.166-3.576-.065-1.284-.133-2.594-.178-3.911 2.289.438 4.906.679 7.411.679 2.912 0 7.095-.332 10.468-1.908l.082-.044c.279-.171.502-.42.643-.722.246-.299.375-.678.375-1.099 0-1.586.076-5.413.096-6.34a55.844 55.844 0 0 0 4.498-2.222 1.61 1.61 0 0 0 .783-.95c.387-.59.461-1.466-.236-2.13-3.693-3.516-8.084-4.449-12.738-5.44-.932-.194-1.859-.399-2.784-.614-.04-.01-.161-.039-.704-.039-.291 0-.49.01-.612.029-5.929.893-12.058 1.815-17.64 5.838-.521.375-.807.947-.781 1.566.031.742.516 1.45 1.32 1.935z"/><path fill="#97D0C9" d="M40.761 28.541c.411.202 8.323 2.497 10.423 3.309.418.162.513.279.208.313-1.021.116-2.188.083-3.005.795-1.487 1.3-1.172 3.793-1.084 5.552.045.92.107 1.84.129 2.762.008.353-1.025 3.351 1.194 3.003 1.328-.209 1.771-1.782 1.851-2.896.066-.934-.236-5.88-.005-5.906.655-.068 1.309-.16 1.958-.271 1.299-.219 2.43-.676 3.336-1.657a2.41 2.41 0 0 0-.018-3.319c-.518-.53-1.328-.84-1.986-1.136-2.195-.985-10.984-3.502-11.475-3.744-.797-.392-1.787.563-2.088 1.191-.374.783-.239 1.609.562 2.004z" opacity=".75"/><path fill="#103653" d="M23.428 33.933c1.664 1.118 3.451 2.027 5.455 2.775-.104 1.185-.383 4.898-.308 6.712a.654.654 0 0 0 .229.468c.498.42 1.61.853 3.143 1.224.045 1.396.116 2.792.186 4.144l.006.115c.063 1.223.125 2.483.172 3.732-.128.05-.254.11-.383.183-1.419.957-2.084 2.574-1.826 4.41.016.539.256 1.048.642 1.362.673.546 1.421.835 2.161.835.126 0 .253-.009.406-.024.154 0 .301-.026.437-.079a3.68 3.68 0 0 0 2.19-2.229c.076-.213.238-.972.232-1.281-.018-1.058-.313-1.946-.842-2.556l-.058-.064a2.46 2.46 0 0 0-1.679-.779c-.045-1.2-.105-2.403-.166-3.576-.065-1.284-.133-2.594-.178-3.911 2.289.438 4.906.679 7.411.679 2.912 0 7.095-.332 10.468-1.908l.082-.044c.279-.171.502-.42.643-.722.246-.299.375-.678.375-1.099 0-1.586.076-5.413.096-6.34a55.844 55.844 0 0 0 4.498-2.222 1.61 1.61 0 0 0 .783-.95c.387-.59.461-1.466-.236-2.13-3.693-3.516-8.084-4.449-12.738-5.44-.932-.194-1.859-.399-2.784-.614-.04-.01-.161-.039-.704-.039-.291 0-.49.01-.612.029-5.929.893-12.058 1.815-17.64 5.838-.521.375-.807.947-.781 1.566.031.742.516 1.45 1.32 1.935zm8.465 7.483c.002.298.005.593.005.882 0 .492.005.982.015 1.475-.919-.237-1.648-.494-2.056-.726-.026-1.561.157-4.332.281-5.863.548.192 1.179.379 1.882.556-.149 1.19-.137 2.447-.127 3.676zm1.56 12.751c.355 0 .649.13.893.391.426.496.525 1.221.534 1.74.001.107-.112.699-.158.825a2.426 2.426 0 0 1-1.399 1.457l-.082-.005a.708.708 0 0 0-.135.013c-.5.072-1.042-.118-1.548-.531-.097-.078-.163-.242-.165-.411l-.008-.081c-.195-1.359.26-2.525 1.223-3.184a1.99 1.99 0 0 1 .845-.214zm17.483-11.869c0 .133-.033.231-.104.305a.688.688 0 0 0-.141.225.376.376 0 0 1-.121.17c-3.168 1.473-7.138 1.782-9.909 1.782-3.342 0-6.036-.429-7.45-.712a74.679 74.679 0 0 1-.022-1.77c0-.292-.003-.588-.005-.906-.01-1.126-.02-2.289.101-3.358 2.05.436 4.302.754 6.179 1.02.55.076 1.068.149 1.543.22a.874.874 0 0 0 .328.051h.002a.668.668 0 0 0 .337-.104c.479-.112.954-.22 1.419-.324l.121-.027c2.646-.599 5.15-1.165 7.807-2.32a375.927 375.927 0 0 0-.085 5.748zM23.644 31.477c5.319-3.836 11.288-4.736 17.073-5.609.046-.006.186-.014.424-.014.219 0 .395.006.421.006.94.223 1.886.424 2.798.619 4.469.95 8.688 1.848 12.117 5.113.205.195.125.391.02.524a.63.63 0 0 0-.121.272c-.012.057-.041.143-.18.216a54.438 54.438 0 0 1-4.801 2.351c-2.877 1.39-5.592 2.004-8.465 2.653-.571.128-1.143.258-1.713.392-.482-.07-1.012-.147-1.574-.227-1.625-.228-3.815-.534-5.805-.944.76-1.112 2.105-2.574 3.18-3.636a.645.645 0 0 0-.024-.912.658.658 0 0 0-.889 0c-.8.791-2.709 2.748-3.603 4.247-1.102-.269-1.977-.548-2.671-.852l-.083-.028c-2.086-.744-3.921-1.658-5.637-2.811-.436-.261-.701-.596-.714-.896a.54.54 0 0 1 .247-.464z"/></svg>