<svg xmlns="http://www.w3.org/2000/svg" xml:space="preserve" width="30.651" height="30.65" viewBox="316.871 370.302 30.651 30.65"><path fill="#F8F9F7" d="m346.444 395.876-5.025-5.024a13.117 13.117 0 0 0 2.084-7.11c0-7.285-5.906-13.19-13.19-13.19-7.286 0-13.191 5.906-13.191 13.19 0 7.286 5.906 13.191 13.191 13.191 2.619 0 5.058-.767 7.11-2.083l5.023 5.024a2.828 2.828 0 0 0 3.998-3.998z"/><g fill="#103653" stroke="#103653" stroke-miterlimit="10" stroke-width=".5"><path d="m346.444 395.876-5.025-5.024a13.117 13.117 0 0 0 2.084-7.11c0-7.285-5.906-13.19-13.19-13.19-7.286 0-13.191 5.906-13.191 13.19 0 7.286 5.906 13.191 13.191 13.191 2.619 0 5.058-.767 7.11-2.083l5.023 5.024a2.828 2.828 0 0 0 3.998-3.998zm-16.131.115c-6.765 0-12.249-5.483-12.249-12.249 0-6.764 5.484-12.249 12.249-12.249s12.248 5.485 12.248 12.249c0 6.766-5.484 12.249-12.248 12.249zm15.465 3.216a1.882 1.882 0 0 1-2.665 0l-4.901-4.899a13.3 13.3 0 0 0 2.665-2.665l4.901 4.899c.737.736.737 1.93 0 2.665z"/><path d="M330.313 372.435c-6.245 0-11.307 5.062-11.307 11.307s5.062 11.307 11.307 11.307 11.306-5.062 11.306-11.307-5.062-11.307-11.306-11.307zm0 21.671c-5.725 0-10.365-4.64-10.365-10.364s4.64-10.364 10.365-10.364c5.723 0 10.364 4.64 10.364 10.364s-4.641 10.364-10.364 10.364z"/><path d="M330.313 375.733a.472.472 0 1 0 0 .943 7.067 7.067 0 0 1 7.066 7.066c0 .261.209.471.471.471s.472-.209.472-.471a8.01 8.01 0 0 0-8.009-8.009z"/></g></svg>