<svg xmlns="http://www.w3.org/2000/svg" xml:space="preserve" width="80" height="80"><path fill="#98D0CA" d="M30.131 25.782c5.24.012 10.474.332 15.712.342 2.484.005 4.556-2.076 4.556-4.555 0-2.486-2.071-4.549-4.556-4.554-5.239-.011-10.472-.331-15.712-.342-2.482-.005-4.555 2.077-4.555 4.555.001 2.486 2.073 4.55 4.555 4.554z" opacity=".75"/><path fill="#F8DCB8" d="M23.287 13.811c4.721-3.987 10.464-6.99 16.797-6.537 4.792.343 9.165 2.858 12.235 6.49 3.387 4.008 4.649 8.749 4.862 13.953.13 3.197-.413 6.193-1.575 9.106-.645 1.614-1.502 3.146-2.307 4.682-5.05 9.614-10.247 19.19-15.719 28.57-.59 1.01-1.283 3.203.067 3.982 1.355.783 2.893-.922 3.483-1.934 4.327-7.416 8.409-14.987 12.494-22.539 1.99-3.679 4.014-7.351 5.785-11.142 2.967-6.35 3.389-13.697 1.83-20.487-1.599-6.966-6.794-13.246-13.529-15.74-9.235-3.421-18.672.848-25.764 6.837-1.164.982-2.136 2.864-1.701 4.416.439 1.563 2.099 1.139 3.042.343z" opacity=".86"/><path fill="#133754" d="m38.671 79.901-.678-1.101c-1-1.622-24.486-39.874-24.486-53.405C13.507 11.521 24.796.236 38.672.236c6.723 0 13.043 2.617 17.796 7.369 4.752 4.752 7.369 11.069 7.369 17.79 0 13.532-23.487 51.783-24.487 53.405l-.679 1.101zm0-78.071c-12.997 0-23.57 10.571-23.57 23.565 0 11.833 19.639 44.944 23.57 51.452 3.931-6.508 23.572-39.62 23.572-51.452a23.413 23.413 0 0 0-6.902-16.662 23.425 23.425 0 0 0-16.67-6.903zm0 43.218c-10.835 0-19.649-8.817-19.649-19.655 0-10.833 8.814-19.647 19.649-19.647 10.836 0 19.652 8.815 19.652 19.647 0 10.837-8.815 19.655-19.652 19.655zm0-37.708c-9.956 0-18.055 8.099-18.055 18.053 0 9.959 8.1 18.062 18.055 18.062 9.957 0 18.059-8.102 18.059-18.062 0-9.955-8.102-18.053-18.059-18.053z"/><path fill="#133754" d="M47.494 42.963c-.372 0-.743-.142-1.025-.424l-3.986-3.986h-7.621l-3.986 3.986a1.45 1.45 0 0 1-2.051-2.051l2-2c-.571-.062-1.042-.181-1.498-.413a4.371 4.371 0 0 1-1.918-1.919c-.479-.939-.479-1.94-.479-3.758V19.752c0-1.817 0-2.819.479-3.758a4.356 4.356 0 0 1 1.918-1.919c.939-.479 1.941-.479 3.758-.479H44.26c1.817 0 2.819 0 3.76.479a4.366 4.366 0 0 1 1.918 1.919c.479.938.479 1.94.479 3.758v12.646c0 1.817 0 2.819-.479 3.758a4.36 4.36 0 0 1-1.918 1.919c-.455.232-.927.351-1.498.413l2 2a1.45 1.45 0 0 1-1.028 2.475zM29.829 28.26v4.137c0 1.278 0 2.122.163 2.44.145.283.369.508.651.652.319.163 1.164.163 2.441.163h11.175c1.278 0 2.123 0 2.442-.163.281-.144.506-.369.648-.65.165-.32.165-1.164.165-2.442V28.26H29.829zm10.293-2.901h7.393v-5.607c0-1.278 0-2.122-.164-2.441a1.47 1.47 0 0 0-.649-.651c-.319-.164-1.164-.164-2.442-.164h-4.137V25.359zm-10.293 0h7.393V16.496h-4.138c-1.278 0-2.122 0-2.441.164a1.48 1.48 0 0 0-.651.651c-.163.319-.163 1.163-.163 2.441v5.607zm14.739 8.783a1.457 1.457 0 0 1-1.458-1.451c0-.801.643-1.45 1.443-1.45h.015a1.45 1.45 0 1 1 0 2.901zm-11.763 0a1.457 1.457 0 0 1-1.458-1.451c0-.801.643-1.45 1.443-1.45h.015a1.45 1.45 0 1 1 0 2.901z"/></svg>