<svg xmlns="http://www.w3.org/2000/svg" xml:space="preserve" width="80" height="80"><path fill="#98D0CA" d="M40.951 1.302c-1.188.275-2.184.832-2.828 1.892-.339.559-.416 1.221-.482 1.854-.026.247-.008.506-.009.753l-.006.299c-.046.367-.028.391.054.075l1.086-.449c-.098.012-.799-.462-1.008-.552a7.511 7.511 0 0 0-2.048-.536c-1.162-.148-2.469-.17-3.514.427-.99.567-1.441 2.024-1.123 3.089.17.567.415.983.812 1.419.442.483.847.479.886 1.178.143 2.56 2.362 3.546 4.627 3.802 1.507.17 3.055-.083 4.559-.188a73.004 73.004 0 0 1 4.655-.158c1.979-.01 1.98-3.079 0-3.069-2.932.015-5.877.462-8.8.373-.424-.013-.807-.102-1.213-.219-.434-.124-.729-.251-.758-.541-.144-1.429-.483-2.353-1.66-3.242-.225-.17-.409.164-.14.135.645-.069 1.29-.001 1.918.142 1.154.261 1.917 1.31 3.212.954 1.305-.358 1.504-1.805 1.528-2.94.021-1.008.016-1.296 1.064-1.539 1.931-.448 1.114-3.407-.812-2.959z" opacity=".79"/><path fill="#133754" d="M24.928 31.186a.522.522 0 0 0 .521-.521 1.98 1.98 0 0 1 1.059-1.758c3.428-1.804 5.966-2.745 8.199-3.042l3.461 4.758a.607.607 0 0 0 .492.251l.064-.003a.608.608 0 0 0 .492-.358l1.641-3.693 1.641 3.693a.612.612 0 0 0 .557.361.605.605 0 0 0 .491-.25l3.46-4.758c2.234.297 4.771 1.238 8.201 3.042a1.985 1.985 0 0 1 1.06 1.758.52.52 0 1 0 1.043 0c0-1.129-.62-2.155-1.617-2.681h-.002c-3.268-1.72-5.773-2.681-7.996-3.066l.247-.337a.612.612 0 0 0 .099-.504l-.508-2.025c1.363-1.933 2.173-4.333 2.173-6.617v-.23h.261v-3.882a4.72 4.72 0 0 0 1.646-3.577 4.718 4.718 0 0 0-6.346-4.423 4.7 4.7 0 0 0-4.41-3.038 4.7 4.7 0 0 0-4.41 3.038 4.695 4.695 0 0 0-1.633-.292A4.72 4.72 0 0 0 30.1 7.747c0 1.379.609 2.685 1.647 3.577v3.883h.262v.23c0 2.284.81 4.684 2.171 6.617l-.506 2.025a.61.61 0 0 0 .098.505l.245.337c-2.223.386-4.728 1.347-7.997 3.066a3.022 3.022 0 0 0-1.616 2.681.524.524 0 0 0 .524.518zm13.605-2.13-3.608-4.96.213-.855.001.002c.068.072.141.137.21.206.119.119.237.238.36.349.139.125.282.243.427.359l.154.123a7.552 7.552 0 0 0 .526.375 7.78 7.78 0 0 0 1.749.87c.057.02.113.04.17.058.16.052.323.1.486.14.153.038.304.066.457.093.09.016.179.04.271.052l-1.416 3.188zm4.651 0-1.418-3.188c.092-.012.18-.036.27-.051.152-.027.307-.056.459-.094.164-.041.326-.088.486-.14l.172-.059a7.808 7.808 0 0 0 1.747-.87l.006-.003a8.2 8.2 0 0 0 .52-.372l.152-.12a9.88 9.88 0 0 0 .428-.363c.118-.104.229-.217.342-.329.075-.076.157-.147.23-.227l.214.855-3.608 4.961zM31.838 7.744a2.981 2.981 0 0 1 2.977-2.978c.616 0 1.21.189 1.715.548l1.216.861.15-1.483a2.966 2.966 0 0 1 2.961-2.672 2.966 2.966 0 0 1 2.962 2.672l.149 1.484 1.216-.863a2.958 2.958 0 0 1 1.716-.547 2.98 2.98 0 0 1 2.976 2.978c0 .97-.476 1.882-1.275 2.44l-.371.259v3.023H33.486v-3.023l-.371-.258a2.985 2.985 0 0 1-1.277-2.441zm1.388 7.69v-.23h15.266v.23c0 2.173-.806 4.472-2.149 6.239-.021.021-.051.036-.069.061-1.127 1.439-2.487 2.393-3.935 2.783-.031.008-.062.012-.092.019a5.407 5.407 0 0 1-1.389.178c-.257 0-.51-.02-.76-.053a6.014 6.014 0 0 1-.631-.125c-.029-.007-.06-.011-.088-.019-1.448-.389-2.809-1.343-3.935-2.783-.019-.025-.048-.038-.07-.06-1.343-1.767-2.148-4.067-2.148-6.24z"/><path fill="#F8DCB8" d="M58.449 50.6c-4.468 4.363-11.979 9.414-8.11 16.584 1.872 3.469 5.792 6.279 9.567 7.25 4.254 1.098 8.163-1.057 11.007-4.084.412-.439.781-1.4.387-1.957-.431-.609-1.181.004-1.519.363-2.44 2.6-5.628 3.691-9.106 2.797-3.326-.857-6.479-3.563-8.272-6.414-3.332-5.307 3.415-9.244 6.649-12.402.498-.486.969-1.252.764-1.984-.19-.675-.962-.552-1.367-.153z" opacity=".81"/><path fill="#97D0C9" d="M48.292 77.473c5.474.631.268-8.355.268-8.355-1.628 1.335-5.19 7.792-.268 8.355z" opacity=".61"/><g fill="#133754"><path d="M61.835 76.275c-.331 0-.667-.01-1.006-.029-4.327-.244-11.337-4.281-12.764-12.182-.065-.01-.141-.016-.2-.023-.609-.063-2.032-.211-1.881-2.303.128-1.82 1.314-2.004 2.023-2.117.32-.049.595-.09.729-.23 7.038-7.283 9.53-10.832 13.013-16.01a.606.606 0 1 1 1.009.676c-3.531 5.256-6.18 8.969-13.146 16.178-.419.434-.974.521-1.417.59-.684.105-.938.146-.999 1.002-.066.916.167.941.79 1.004.393.041 1.121.117 1.246.852 1.362 8.078 8.579 11.178 11.662 11.348 3.912.221 7.413-.93 9.852-3.232 2.48-2.346 3.791-5.846 3.791-10.125a.609.609 0 1 1 1.215 0c0 4.621-1.442 8.428-4.171 11.008-2.468 2.332-5.9 3.593-9.746 3.593z"/><path d="M50.513 66.008a.868.868 0 0 1-.559-1.536c.925-.775 1.458-1.84 1.494-3a3.972 3.972 0 0 0-.458-1.979.869.869 0 1 1 1.537-.811c.462.877.688 1.861.656 2.846-.05 1.637-.821 3.195-2.114 4.275a.857.857 0 0 1-.556.205zM46.844 76.533c-.149 0-.313-.01-.478-.029-1.74-.199-2.298-1.244-2.478-1.85-.618-2.104 1.276-5.002 2.22-5.777l.791-.645.513.883c.428.74 2.511 4.52 1.43 6.395-.27.467-.834 1.023-1.998 1.023zm-.355-5.431c-.603.938-1.16 2.285-.933 3.061.047.154.151.518 1.007.615.102.012.194.02.28.02.268 0 .436-.053.495-.156.294-.511-.162-2.078-.849-3.54z"/></g><path fill="#F8DCB8" d="M21.021 62.549c-1.69 0-3.395.055-4.999.648-2.004.742-2.756 2.867-2.701 4.855.063 2.25 1.015 4.391 3.267 5.125 1.738.564 3.894.314 5.319-.881.717-.6.836-1.631.715-2.518-.05-.359-.547-2.023-1.259-1.428-1.015.848-2.249 1.094-3.546.99-.904-.07-2.304-.535-2.46-1.566.055.365.038.07.306-.141.418-.334.967-.549 1.479-.678 1.255-.32 2.591-.316 3.879-.316 1.433 0 1.432-4.094 0-4.09z" opacity=".81"/><path fill="#98D0CA" d="M6.973 56.875c.421 1.174.356 2.578.4 3.807.06 1.658.06 3.322.056 4.984-.003 1.744.024 3.482.181 5.223.133 1.465.248 3.279 1.297 4.42 1.894 2.057 5.387 2.611 8.005 2.996 2.602.385 5.884.773 8.422-.15.703-.254 1.199-.924 1.336-1.652.092-.488-.115-1.363-.816-1.105-2.324.844-5.246.449-7.631.137-2.387-.313-5.955-.789-7.613-2.773-.89-1.066-.806-3.105-.886-4.4-.093-1.506-.084-3.014-.082-4.52.002-1.643-.012-3.283-.078-4.924-.05-1.25-.036-2.68-.462-3.873-.532-1.496-2.515.748-2.129 1.83z" opacity=".79"/><path fill="#133754" d="M18.567 74.594c-.567 0-1.095-.068-1.523-.201-1.486-.451-2.671-1.615-3.088-3.006a2.285 2.285 0 0 1-.606-.324 2.105 2.105 0 0 1-.559-.701c-.232-.482-.312-1.008-.232-1.533.012-.172.066-.344.156-.49.009-.014.021-.029.031-.047.194-.242.483-.383.794-.383h.005l-.008-.049a4 4 0 0 1 .032-2.637c.833-2.256 3.245-3.055 5.058-3.055.067 0 .133 0 .198.004 1.352.041 2.615.406 3.464 1.004 1.083.762 1.613 1.518 1.833 2.615.138.652.148 1.322.03 1.984l-.03.145a1 1 0 0 1 .634.371c.011.018.022.033.032.047.09.148.144.32.156.49a2.6 2.6 0 0 1-.23 1.527 2.11 2.11 0 0 1-.543.693c-.006.002-.012.008-.019.014a2.315 2.315 0 0 1-.602.322c-.474 1.35-1.682 2.471-3.21 2.961-.488.159-1.135.249-1.773.249zm-4.22-3.998.038.004a.44.44 0 0 1 .355.336c.268 1.184 1.297 2.236 2.558 2.621.347.105.786.162 1.269.162.552 0 1.1-.076 1.506-.207 1.34-.428 2.378-1.424 2.709-2.598a.435.435 0 0 1 .327-.309l.044-.01c.156-.043.319-.121.467-.229.128-.109.232-.242.307-.395.153-.318.205-.674.149-1.027a.375.375 0 0 1-.005-.047.205.205 0 0 0-.019-.08.134.134 0 0 0-.09-.037h-.022a.393.393 0 0 0-.175.043.439.439 0 0 1-.626-.479l.154-.738a4.279 4.279 0 0 0-.028-1.641c-.174-.867-.588-1.447-1.479-2.076-.713-.502-1.802-.809-2.988-.846-.057-.002-.113-.002-.171-.002-1.531 0-3.56.65-4.237 2.482a3.113 3.113 0 0 0-.014 2.082c.007.025.014.045.017.07l.135.791a.438.438 0 0 1-.215.453.433.433 0 0 1-.5-.049.385.385 0 0 0-.249-.092h-.023a.139.139 0 0 0-.091.037.213.213 0 0 0-.019.08l-.004.047c-.057.354-.004.709.15 1.031.077.152.182.289.315.396.124.098.283.178.455.227z"/><path fill="#133754" d="M17.936 71.869c.245.246.622.33.951.33.33-.002.706-.088.951-.334a.347.347 0 0 0 0-.484.345.345 0 0 0-.479.008c-.012.014-.061.055-.003.008.056-.045-.003 0-.02.01a.306.306 0 0 1-.056.031l-.04.02c.014-.006.082-.033.028-.012a1.686 1.686 0 0 1-.188.053c-.011.004-.021.004-.032.006-.026.004-.014.002.035-.004a1.598 1.598 0 0 1-.324.008c-.022-.002-.047-.006-.07-.006.03 0 .067.008.014 0-.065-.012-.129-.033-.191-.053-.027-.012-.071-.039.022.01a.233.233 0 0 0-.033-.014l-.063-.037c-.015-.01-.03-.023-.046-.031.1.064.05.041.024.014a.336.336 0 0 0-.476-.004.343.343 0 0 0-.004.481zM16.489 69.002c-.078.248-.029.828.438.895.618.018.654-.684.445-1.018-.169-.274-.67-.4-.883.123zM21.151 68.994c.077.248.029.83-.438.896-.618.02-.654-.68-.445-1.016.169-.272.67-.401.883.12zM18.119 66.018a2.074 2.074 0 0 1-.067.211l.034-.082c-.038.09-.086.174-.146.25l.052-.068c-.06.078-.129.146-.205.203l.068-.051a1.188 1.188 0 0 1-.25.141l.081-.031a1.112 1.112 0 0 1-.278.07l.09-.012-.058.006a.354.354 0 0 0-.24.094.335.335 0 0 0-.098.238.355.355 0 0 0 .338.352c.321-.016.627-.141.871-.352.23-.207.392-.48.461-.783a.343.343 0 0 0-.235-.424.338.338 0 0 0-.418.236v.002zM19.483 66.229a.992.992 0 0 1-.007.143l.012-.092a1.104 1.104 0 0 1-.074.27l.034-.082c-.035.082-.08.16-.133.232l.053-.07c-.054.07-.116.135-.185.191l.068-.057a.925.925 0 0 1-.214.131l.082-.033c-.009.002-.017.006-.027.01a.372.372 0 0 0-.202.158.358.358 0 0 0-.035.264.35.35 0 0 0 .156.205.335.335 0 0 0 .261.031 1.4 1.4 0 0 0 .664-.547 1.4 1.4 0 0 0 .225-.77.333.333 0 0 0-.336-.332h-.003a.355.355 0 0 0-.339.348zM25.037 49.576c-.001 0 0 0 0 0-.051 0-.104 0-.155-.002-1.286-.049-3.355-1.102-4.859-3.285a.608.608 0 0 1-.035-.059c-.279-.521-.288-1.084-.023-1.51.462-.744 1.466-1.473 3.067-2.221 1.634-.834 3.776-1.02 5.304-1.029.487-.09.971-.215 1.439-.363 1.991-.621 4.48-1.738 5.804-2.356a1.44 1.44 0 0 1 .723-.195c.501 0 .913.251 1.275.471.154.095.3.183.426.235a.613.613 0 0 1 .378.567v.377c0 .23-.128.441-.333.547-.719.367-1.475.712-2.207 1.046-1.885.859-3.667 1.672-4.847 2.84-.254.326-.44.809-.636 1.318-.154.398-.314.811-.523 1.193-.19.348-.45.531-.679.693l-.071.051c-.009.008-.02.014-.03.02-1.637 1.033-2.706 1.662-4.018 1.662zm-3.984-3.949c1.339 1.926 3.087 2.691 3.877 2.723 1.015.039 1.917-.494 3.458-1.465l.061-.043c.176-.123.262-.186.313-.281.169-.309.308-.666.454-1.045.227-.586.461-1.195.847-1.67.013-.02.028-.033.042-.051 1.337-1.334 3.316-2.236 5.229-3.109.49-.227.991-.453 1.481-.689-.19-.112-.384-.217-.512-.217a.24.24 0 0 0-.125.039c-.017.01-.035.021-.054.029-1.346.63-3.912 1.781-5.978 2.425-.53.172-1.084.313-1.643.412a.488.488 0 0 1-.107.012c-1.397.002-3.37.16-4.825.902-1.714.803-2.34 1.406-2.566 1.77-.015.02-.017.123.048.258z"/><path fill="#FFF" d="M22.536 44.988c.112-.801.493-1.803.983-2.283.552-.543 1.053-.787 1.592-.869.378-.057.903.039 1.332.164 1.06.307 1.851 1.588 2.258 2.27-.074.201-.13.367-.195.557a1.497 1.497 0 0 1-.688.82c-.374.205-.755.391-1.145.561a8.34 8.34 0 0 1-.679.262c-.621.203-1.165.361-1.817.35a1.542 1.542 0 0 1-.712-.246 9.107 9.107 0 0 1-.974-.732l.015-.49a3.35 3.35 0 0 1 .03-.364z"/><path fill="#133754" d="M24.233 47.127h-.062c-.007 0-.015 0-.023-.002a1.904 1.904 0 0 1-.85-.293 9.62 9.62 0 0 1-1.007-.76.302.302 0 0 1-.107-.24l.015-.494c.004-.129.015-.26.034-.391.108-.785.49-1.889 1.071-2.463.564-.553 1.123-.855 1.761-.951.089-.014.188-.021.294-.021.444 0 .922.123 1.168.193 1.203.35 2.036 1.74 2.436 2.408a.305.305 0 0 1 .025.262c-.071.193-.125.352-.187.529a1.82 1.82 0 0 1-.836 1.012c-.381.207-.775.398-1.171.57a8.66 8.66 0 0 1-.704.273c-.613.2-1.176.368-1.857.368zm-.04-.611h.041c.59 0 1.104-.154 1.665-.338.199-.066.413-.15.653-.254.38-.162.755-.348 1.119-.545a1.18 1.18 0 0 0 .545-.654l.147-.422c-.366-.605-1.102-1.746-2.007-2.012-.472-.137-.924-.193-1.199-.152-.512.076-.951.32-1.425.787-.396.387-.781 1.295-.894 2.107a3.266 3.266 0 0 0-.027.324l-.01.344c.265.221.544.428.831.617.167.108.362.176.561.198z"/><g fill="#133754"><path d="M16.187 50.654a6.703 6.703 0 0 0-2.243.061c-1.371.273-3.284 2.035-4.549 3.205-.104-.277-.135-.527-.08-.705a.438.438 0 0 0-.835-.264c-.281.902.34 2.195 1.447 3.012a.853.853 0 0 1 .031.018l.573.354c.007.004.015.01.022.012 2.05 1.105 4.678 1.617 8.271 1.617 3.32 0 5.797-.438 7.792-1.379l.021-.012.375-.199c1.521-.814 2.196-1.615 2.061-2.449a.438.438 0 0 0-.863.141c.013.076-.003.215-.126.402-.235-1.314-1.529-2.322-2.89-2.611-1.077-.23-2.512-.313-3.666-.381l-.331-.018c-1.095-.064-2.003-.246-2.963-.439-.636-.124-1.292-.255-2.047-.365zm5.304 1.434c1.133.064 2.543.146 3.574.367 1.073.227 2.549 1.199 2.438 2.586-.225.168-.52.354-.904.561l-.365.195c-1.182.557-3.234 1.291-7.409 1.291-3.436 0-5.929-.477-7.845-1.506l-.546-.334a3.379 3.379 0 0 1-.741-.771l.117-.105c1.142-1.055 3.052-2.818 4.254-3.057a6.115 6.115 0 0 1 2.038-.053c.739.105 1.386.234 2.013.359.981.193 1.908.379 3.047.445l.329.022z"/><path d="M31.812 53.561h-.06c.034-.238.058-.477.058-.715 0-1.625-.835-3.33-2.179-4.445a.875.875 0 0 0-1.119 1.343c.94.783 1.548 2 1.548 3.102 0 .439-.094.895-.278 1.352a.865.865 0 0 0-.021.543 4.831 4.831 0 0 1-1.482 1.633c-1.729 1.148-4.215 2.32-9.543 2.32-5.33 0-7.815-1.172-9.544-2.32a4.795 4.795 0 0 1-1.48-1.623v-1.467c.003-.047.019-.092.014-.139a3.359 3.359 0 0 1-.014-.299c0-1.234.77-2.609 1.873-3.344 1.675-1.111 4.09-2.248 9.301-2.248a.876.876 0 0 0 0-1.75c-5.71 0-8.488 1.359-10.269 2.543-1.588 1.055-2.654 2.982-2.654 4.799 0 .127.009.256.018.383h-.019l.001 4.566c.001 4.156.004 9.791.001 13.262v1.1c0 1.814 1.065 3.746 2.653 4.799 1.782 1.184 4.558 2.543 10.27 2.543 5.713 0 8.49-1.359 10.271-2.543 1.565-1.041 2.632-2.945 2.653-4.754-.006-3.225-.002-9.674-.001-14.316l.002-4.325zM28.19 75.498c-1.674 1.113-4.087 2.248-9.302 2.248-5.213 0-7.627-1.135-9.302-2.248-1.103-.732-1.872-2.107-1.872-3.342v-1.1c.003-3.471 0-9.105-.001-13.262v-1.563c.299.33.631.625.995.869 1.73 1.146 4.434 2.467 10.028 2.467s8.297-1.32 10.027-2.467a5.543 5.543 0 0 0 1.299-1.24l-.001 2.021c-.001 4.646-.005 11.096.001 14.311-.015 1.224-.784 2.583-1.872 3.306z"/></g></svg>