<svg xmlns="http://www.w3.org/2000/svg" xml:space="preserve" width="80" height="80"><path fill="#F8DCB8" d="M72.644 27.942c-.341-5.347 4.485-10.59-.068-15.55-4.621-5.033-12.233 2.609-15.622 5.583-5.509 4.834-16.285 1.449-22.841.431-7.007-1.089-13.802-9.48-21.159-6.669-5.799 2.216-8.494 9.481-7.31 15.275.758 3.711 3.308 5.966 4.73 9.32 1.07 2.524.397 5.31-.161 7.858-1.185 5.407-2.057 10.705 1.231 15.568 4.061 6.01 13.538 8.364 20.13 9.921 4.689 1.106 9.998-10.211 4.341-11.547-5.36-1.265-11.841-3.119-15.927-7.061-3.005-2.898-1.481-6.604-.71-10.125.985-4.496 1.122-9.151-.699-13.444-1.009-2.38 8.354 2.114 14.509 2.922 6.138.806 12.549 2.23 18.693.828 4.996-1.14 8.068-5.532 12.087-8.26 2.67-1.813 1.117 1.963.784 3.073-.683 2.27-1.257 4.54-1.105 6.928.477 7.502 9.405-.232 9.097-5.051z" opacity=".86"/><g fill="#103653"><path d="M40.684 71.246c-5.128 0-12.892-1.05-19.302-3.997-5.47-2.517-11.991-7.37-11.991-16.205 0-.655-.016-1.358-.033-2.106-.046-1.967-.098-4.197.13-6.289.248-2.262.792-4.201 1.666-5.932l.335-.666-.452-.593c-.355-.469-.648-1.048-.896-1.771a13.795 13.795 0 0 1-.563-2.447l-.009-.119-.178-9.131c0-3.221 1.065-5.831 3.08-7.566 2.209-1.905 4.857-2.189 6.238-2.189 1.038 0 2.303.344 3.868 1.05 1.337.604 4.67 2.512 4.702 2.53 1.04.602 1.894 1.097 2.685 1.503.307.158 1.345.506 2.066.729.942-.013 1.598-.097 2.417-.202l.593-.075c1.275-.157 2.843-.302 5.645-.302 2.8 0 4.368.145 5.645.302 1.34.167 2.436.265 3.069.277.188-.035.616-.114.766-.158.308-.114.722-.304 1.241-.571.279-.144 1.079-.592 2.059-1.141 1.994-1.117 4.478-2.508 5.325-2.892 1.566-.707 2.833-1.05 3.87-1.05 1.381 0 4.029.285 6.239 2.19 2.015 1.735 3.078 4.345 3.078 7.547.015.23.349 6.877-.721 11.616-.574 2.54-2.869 3.142-3.297 3.154-1.717.103-3.002-1.364-3.954-2.439-.219-.249-.423-.48-.613-.667l1.343-1.366c.22.215.455.48.707.765.709.802 1.587 1.796 2.367 1.796h.002c.234-.061 1.29-.4 1.575-1.665 1.01-4.478.68-11.078.677-11.144-.002-2.678-.837-4.786-2.414-6.145-1.742-1.502-3.874-1.726-4.989-1.726-.749 0-1.785.296-3.08.881-.772.35-3.425 1.834-5.18 2.818-1.007.563-1.83 1.024-2.117 1.172-.589.304-1.074.524-1.482.674-.061.022-.229.086-1.15.253l-.088.016h-.089c-.945-.005-2.5-.182-3.341-.288-1.254-.154-2.75-.292-5.443-.292-2.702 0-4.2.138-5.416.288l-.583.073c-.887.113-1.654.212-2.793.219l-.146.001-.139-.042c-.317-.096-1.927-.594-2.524-.902-.832-.428-1.706-.934-2.717-1.52-.459-.266-3.436-1.954-4.581-2.47-1.294-.584-2.331-.881-3.08-.881-1.115 0-3.247.224-4.988 1.725-1.579 1.36-2.414 3.468-2.414 6.095l.177 9.052c.116.78.274 1.468.472 2.045.179.526.378.928.607 1.23l1.178 1.546-.876 1.737c-.769 1.522-1.25 3.247-1.472 5.276-.214 1.968-.164 4.129-.119 6.037.018.761.034 1.482.034 2.15 0 7.82 5.915 12.182 10.876 14.465 6.127 2.816 13.575 3.819 18.5 3.819s12.372-1.003 18.501-3.819c4.396-2.022 9.827-5.822 10.738-12.444l1.899.261c-1.031 7.482-7.006 11.701-11.838 13.924-6.411 2.946-14.174 3.996-19.302 3.996z"/><path d="M42.989 56.62c0 .642-1.344 1.162-3.001 1.162s-3.001-.521-3.001-1.162c0-.643 1.344-1.162 3.001-1.162s3.001.52 3.001 1.162zM52.94 47.665c0 1.604-.807 2.907-1.801 2.907-.995 0-1.8-1.303-1.8-2.907s.805-2.908 1.8-2.908 1.801 1.304 1.801 2.908zM30.612 47.665c0 1.604-.806 2.907-1.8 2.907s-1.801-1.303-1.801-2.907.806-2.908 1.801-2.908 1.8 1.304 1.8 2.908zM77.128 56.078c-.267 0-.537-.074-.777-.229-1.637-1.057-9.215-3.841-11.825-3.841a1.438 1.438 0 0 1 0-2.875c3.276 0 11.344 2.983 13.384 4.301.667.429.858 1.319.428 1.985a1.43 1.43 0 0 1-1.21.659zM71.124 65.381c-.267 0-.537-.074-.777-.23l-.463-.3c-1.758-1.148-5.418-3.539-7.761-3.539a1.439 1.439 0 0 1 0-2.875c3.198 0 7.189 2.606 9.332 4.007l.45.294c.668.431.858 1.319.427 1.985a1.435 1.435 0 0 1-1.208.658zM2.704 56.078c-.472 0-.935-.23-1.208-.658a1.434 1.434 0 0 1 .428-1.985c2.04-1.317 10.107-4.301 13.384-4.301a1.439 1.439 0 0 1 0 2.875c-2.61 0-10.188 2.784-11.825 3.841a1.447 1.447 0 0 1-.779.228zM8.706 65.381a1.437 1.437 0 0 1-.781-2.645l.454-.294c2.143-1.4 6.132-4.005 9.328-4.005a1.437 1.437 0 1 1 0 2.875c-2.341 0-5.999 2.389-7.757 3.535l-.466.306a1.441 1.441 0 0 1-.778.228z"/></g></svg>