<svg xmlns="http://www.w3.org/2000/svg" xml:space="preserve" width="80" height="80"><path fill="#97D0C9" d="M4.013 25.22c-.131 13.552-4.462 32.395 7.078 42.755 6.363 5.713 16.508 6.168 24.612 6.182 9.686.017 19.306-1.496 28.991-1.584 6.151-.055 6.105-17.565 0-17.51-15.086.136-31.57 4.438-46.2-.781-4.964-1.771-6.439-5.397-6.546-10.282-.137-6.266.759-12.515.819-18.78.024-2.479-.743-8.755-4.377-8.755-3.666 0-4.354 6.275-4.377 8.755z" opacity=".61"/><g fill="#F8DCB8"><path d="M35.813 36.688c1.187 2.478 1.06 5.613 1.313 8.303.353 3.754 1.569 7.314 1.392 11.116-.055 1.17.38 4.138 2.068 4.138 1.763 0 2.015-2.966 2.069-4.138.23-4.923-1.188-9.591-1.646-14.455-.35-3.717-.634-7.403-2.27-10.816-.733-1.531-2.183-1.486-2.926 0-.866 1.731-.831 4.116 0 5.852z" opacity=".81"/><path d="M27.481 47.683c6.61-2.681 14.891-.372 21.795-.267 2.878.044 2.914-8.231 0-8.275-7.435-.114-15.759-2.332-22.895.562-2.529 1.025-1.878 9.188 1.1 7.98z" opacity=".81"/></g><path fill="#103653" d="M44.227 60.176h-8.452a1.973 1.973 0 0 1-1.971-1.969v-7.419h-7.419a1.972 1.972 0 0 1-1.969-1.971v-8.451a1.97 1.97 0 0 1 1.969-1.969h7.419v-7.421c0-1.086.884-1.969 1.971-1.969h8.452a1.97 1.97 0 0 1 1.969 1.969v7.421h7.42c1.086 0 1.97.883 1.97 1.969v8.451a1.973 1.973 0 0 1-1.97 1.971h-7.42v7.419a1.972 1.972 0 0 1-1.969 1.969zm-7.423-3h6.392v-6.48a2.91 2.91 0 0 1 2.907-2.907h6.482v-6.391h-6.482a2.911 2.911 0 0 1-2.907-2.909v-6.481h-6.392v6.481a2.911 2.911 0 0 1-2.907 2.909h-6.481v6.391h6.481a2.91 2.91 0 0 1 2.907 2.907v6.48z"/><path fill="#103653" d="M11.549 69.554h56.902c5.143 0 9.328-4.184 9.328-9.326V25.531c0-5.143-4.186-9.327-9.33-9.327H52.54v-4.035a6.333 6.333 0 0 0-6.326-6.326H33.787a6.334 6.334 0 0 0-6.327 6.326v4.035H11.549c-5.143 0-9.327 4.185-9.327 9.327v34.696c0 5.143 4.184 9.327 9.327 9.327zM29.46 12.169a4.332 4.332 0 0 1 4.327-4.326h12.427a4.33 4.33 0 0 1 4.326 4.326v4.035H29.46v-4.035zM4.222 25.531c0-4.04 3.287-7.327 7.327-7.327h56.9c4.042 0 7.33 3.287 7.33 7.327v34.696c0 4.039-3.287 7.326-7.328 7.326H11.549c-4.04 0-7.327-3.287-7.327-7.326V25.531z"/></svg>