<svg xmlns="http://www.w3.org/2000/svg" xml:space="preserve" width="80" height="80"><path fill="#F8DCB8" d="M5.773 48.02c4.048-1.121 8.453-2.355 12.626-1.234 5.134 1.376 7.31-6.563 2.188-7.938-5.647-1.515-11.491-.29-17.002 1.234-5.108 1.414-2.936 9.355 2.188 7.938z" opacity=".81"/><path fill="#98D0CA" d="M5.897 47.837c20.041.864 40.071-.856 60.115-.37 4.9.119 4.856-3.381 0-3.498-20.044-.487-40.074 1.234-60.115.369-.976-.042-4.115.217-4.115 1.75 0 1.589 3.136 1.706 4.115 1.749z" opacity=".41"/><g fill="#133754"><path d="M74.403 18.118a6.929 6.929 0 0 0-2.742 5.546c0 2.192 1 4.213 2.742 5.544a3.361 3.361 0 0 1 1.331 2.689 3.358 3.358 0 0 1-1.331 2.689 1.799 1.799 0 0 0 1.092 3.226c.38 0 .765-.121 1.089-.369a6.932 6.932 0 0 0 2.743-5.545 6.93 6.93 0 0 0-2.743-5.545c-.845-.646-1.329-1.625-1.329-2.689s.484-2.044 1.329-2.69a6.929 6.929 0 0 0 2.743-5.544 6.928 6.928 0 0 0-2.743-5.545 1.797 1.797 0 1 0-2.181 2.856 3.36 3.36 0 0 1 1.331 2.69 3.359 3.359 0 0 1-1.331 2.687zM64.394 29.209a3.359 3.359 0 0 1 1.33 2.689 3.357 3.357 0 0 1-1.33 2.688 1.801 1.801 0 0 0-.338 2.52 1.798 1.798 0 0 0 2.52.337 6.928 6.928 0 0 0 2.742-5.545c0-2.193-1-4.213-2.742-5.545-.846-.646-1.332-1.625-1.332-2.689s.486-2.044 1.332-2.69a1.797 1.797 0 1 0-2.182-2.854 6.922 6.922 0 0 0-2.74 5.544 6.917 6.917 0 0 0 2.74 5.545z"/></g><g fill="#133754"><path d="M67.845 49.328H2.711a1.164 1.164 0 0 1-1.165-1.165v-7.634c0-.643.521-1.164 1.165-1.164h65.134c.644 0 1.165.521 1.165 1.164v7.634c0 .644-.522 1.165-1.165 1.165zm-63.97-2.33H66.68v-5.304H3.875v5.304z"/><path d="M21.439 40.529h2.33v7.604h-2.33z"/></g><g fill="#133754"><path d="M60.211 70.484c-.309 0-.617-.117-.853-.354L9.491 20.266a1.208 1.208 0 0 1 1.707-1.707l49.866 49.866a1.203 1.203 0 0 1 0 1.705 1.196 1.196 0 0 1-.853.354z"/><path d="M10.345 70.484a1.205 1.205 0 0 1-.853-2.059L59.36 18.56a1.205 1.205 0 1 1 1.705 1.707L11.199 70.131a1.203 1.203 0 0 1-.854.353z"/></g></svg>