<svg xmlns="http://www.w3.org/2000/svg" xml:space="preserve" width="80" height="80"><path fill="#98D0CA" d="M15.202 18.675c-1.055 2.649.49-.631-.94 1.876-.268.457-.545.91-.832 1.356-1.426 2.276 1.238-1.692-.322.488-1.62 2.261-3.398 4.404-5.094 6.607C4.321 33.797.247 39.756.646 46.127c.422 6.759 6.182 8.947 11.979 10.227 6.258 1.38 12.874 1.684 19.271 1.397 9.977-.448 20.111-1.685 30.084-.586.916.102 1.823.26 2.727.447 1.81.378-.461-.313 1.021.344 1.462.646.354.039.404.099.34.403-.504-1.738-.537-2.172-.078-1.08 2.299-6.594 1.303-4.861 1.076-1.489 1.278-1.813.604-.971-1.29 1.564 1.627-1.521-.104.046-1.231 1.116-2.269 1.846-3.174 2.457-4.185 2.824-8.661 5.226-13.121 7.578-4.051 2.139-6.976 7.415-6.899 11.95.072 4.273 3.479 6.086 7.17 4.139 7.985-4.214 16.168-8.646 22.512-15.179 4.104-4.227 8.077-12.125 4.35-17.727-2.273-3.416-7.721-3.875-11.397-4.178-5.404-.446-10.881-.167-16.287.1-4.89.242-9.776.636-14.672.763-6.404.165-14.585.088-20.458-2.775-1.516-.739-.346.245-1.147-.864.707.977.324.079.416 1.553.01.156-.961 3.897-.4 2.317.396-.933.246-.621-.448.936.271-.516.594-1.007.909-1.496-1.731 2.69.828-1.025 1.324-1.661 4.45-5.713 8.796-11.394 11.5-18.182 1.173-2.947 1.694-9.076-2.829-9.501-4.55-.429-8.109 4.74-9.545 8.348z" opacity=".24"/><path fill="#133754" d="M12.082 66.134c.914 0 1.656-.741 1.656-1.656v-3.242h52.134v3.242a1.656 1.656 0 0 0 3.313 0V26.75a1.657 1.657 0 1 0-3.313 0v4.331H13.738V26.75a1.656 1.656 0 1 0-3.313 0v37.728c0 .915.742 1.656 1.657 1.656zm42.689-32.843h11.101v19.491H54.771V33.291zm-13.861 0h11.651v19.491H40.91V33.291zm-13.862 0h11.653v19.491H27.048V33.291zm-13.31 0h11.101v19.491H13.738V33.291zm0 22.804h52.134v1.828H13.738v-1.828zM48.009 15.851h-1.855l-.574-1.766c-.316-.975-.829-.975-1.146 0l-.572 1.766h-1.855c-1.025 0-1.185.488-.354 1.091a512.6 512.6 0 0 0 1.502 1.091l-.575 1.766c-.315.973.1 1.275.929.674.829-.604 1.501-1.091 1.501-1.091l1.502 1.091c.828.602 1.244.299.928-.674l-.573-1.766 1.5-1.091c.824-.603.665-1.091-.358-1.091z"/><path fill="#133754" d="M48.499 6.289c-3.039-1.007-7.09-1.576-11.451-1.613-.026-.002-.054-.002-.081-.002h-.379c-.027 0-.055 0-.082.002-4.361.037-8.412.606-11.451 1.613a1.658 1.658 0 0 0 1.041 3.146 23.07 23.07 0 0 1 2.578-.67v2.878a.773.773 0 0 0 1.546 0V8.488a43.738 43.738 0 0 1 5.783-.485V18.71a.773.773 0 1 0 1.546 0V8.002c2.378.048 4.669.267 6.682.636v3.004a.773.773 0 0 0 1.546 0V8.967c.593.143 1.162.296 1.679.467a1.656 1.656 0 0 0 2.093-1.052 1.652 1.652 0 0 0-1.05-2.093zM38.761 26.359a3.126 3.126 0 0 1-.583-.371 3.08 3.08 0 0 1-1.124-2.117 2.965 2.965 0 0 1 1.461-2.861c.35-.201.374-.424.356-.537-.017-.118-.105-.33-.514-.432a3.782 3.782 0 0 0-4.084 1.629c-.811 1.281-.725 2.952.115 4.18a3.67 3.67 0 0 0 .868.9 3.843 3.843 0 0 0 3.422.588c.399-.127.476-.341.483-.457.014-.114-.026-.336-.4-.522z"/><path fill="#133754" d="M30.484 18.782c-.354.28-.695.542-1.037.542-.34 0-.682-.262-1.035-.542-1.004-.792-2.375-1.676-2.375-3.334 0-1.659 1.875-2.835 3.41-1.241 1.536-1.594 3.412-.418 3.412 1.241 0 1.658-1.371 2.542-2.375 3.334z"/></svg>