<svg xmlns="http://www.w3.org/2000/svg" xml:space="preserve" width="80" height="80"><path fill="#97D0C9" d="M42.032 9.281c.93.458 18.829 5.649 23.579 7.486.946.367 1.161.633.471.711-2.308.261-4.951.186-6.797 1.798-3.366 2.94-2.653 8.582-2.455 12.562.103 2.08.243 4.159.293 6.243.02.799-2.318 7.581 2.703 6.794 3.004-.471 4.007-4.031 4.186-6.552.15-2.113-.534-13.3-.01-13.357a74.297 74.297 0 0 0 4.428-.612c2.939-.5 5.498-1.531 7.549-3.751 2.01-2.173 1.943-5.469-.042-7.509-1.169-1.201-3.004-1.901-4.494-2.57-4.964-2.227-24.848-7.924-25.958-8.47-1.804-.889-4.042 1.275-4.723 2.695-.848 1.773-.54 3.641 1.27 4.532z" opacity=".75"/><path fill="#103653" d="M2.819 21.011c3.827 2.572 7.965 4.658 12.628 6.365-.247 2.675-.903 11.452-.731 15.546.011.25.126.485.317.646 1.113.939 3.739 1.921 7.297 2.752.104 3.388.277 6.756.445 10.055.149 2.904.3 5.9.405 8.864a6.09 6.09 0 0 0-1.13.493c-3.026 2.039-4.438 5.494-3.88 9.489.03 1.06.491 2.05 1.242 2.661 1.418 1.152 2.986 1.761 4.532 1.761.261 0 .523-.018.8-.056l.12.002c.274 0 .538-.047.785-.142 2.196-.837 3.838-2.509 4.623-4.707.158-.439.504-2.085.493-2.7-.037-2.258-.655-4.143-1.79-5.452a.155.155 0 0 0-.021-.023c-1.011-1.089-2.315-1.664-3.771-1.664-.077 0-.152.003-.227.007-.104-2.892-.251-5.8-.396-8.626-.161-3.142-.324-6.35-.429-9.57 4.836.977 11 1.66 17.358 1.66 6.533 0 15.907-.742 23.47-4.274a.782.782 0 0 0 .098-.054 3.255 3.255 0 0 0 1.268-1.456c.501-.586.765-1.336.765-2.183 0-3.704.183-12.716.224-14.714a125.936 125.936 0 0 0 10.461-5.15c.779-.429 1.313-1.096 1.528-1.896.801-1.162.974-2.851-.409-4.168-8.239-7.844-18.101-9.942-28.542-12.164A282.941 282.941 0 0 1 44.04.92c-.262-.062-1.029-.072-1.464-.072-.421 0-.988.01-1.301.058C27.928 2.917 14.126 4.998 1.617 14.014.592 14.753.033 15.868.083 17.075c.063 1.49 1.06 2.924 2.736 3.936zm19.694 9.073c-.34 2.681-.316 5.535-.293 8.296.006.683.011 1.361.011 2.027 0 1.353.018 2.707.049 4.06-2.761-.666-4.8-1.396-5.791-2.045-.103-3.923.451-11.508.693-14.374 1.603.608 3.446 1.146 5.415 1.625a3.663 3.663 0 0 0-.084.411zm2.672 36.605c.954 0 1.778.364 2.45 1.082 1.072 1.248 1.322 3.024 1.343 4.299.006.323-.271 1.739-.389 2.067-.606 1.699-1.876 2.992-3.576 3.64a.5.5 0 0 1-.222.021.867.867 0 0 0-.259.01c-.019.003-.038.008-.057.013-1.282.175-2.667-.296-3.935-1.326-.353-.286-.576-.806-.583-1.356a.746.746 0 0 0-.01-.116c-.475-3.297.645-6.132 3.07-7.784.15-.081 1.073-.55 2.168-.55zm40.116-26.284c0 .449-.131.813-.39 1.08a.897.897 0 0 0-.197.314 1.4 1.4 0 0 1-.566.703c-7.255 3.372-16.321 4.08-22.657 4.08-6.577 0-12.759-.745-17.41-1.711-.037-1.488-.06-2.979-.06-4.464 0-.671-.006-1.354-.012-2.043-.022-2.701-.046-5.495.279-8.055.009-.074.026-.153.048-.235 4.817 1.059 10.16 1.813 14.524 2.428 1.273.18 2.473.349 3.566.512.137.061.305.095.502.095l.071-.001a.946.946 0 0 0 .547-.193c1.217-.285 2.423-.558 3.595-.823 6.214-1.406 12.106-2.738 18.365-5.575-.058 2.982-.205 10.558-.205 13.888zM2.663 15.466C14.82 6.702 28.404 4.656 41.541 2.675c.114-.017.453-.037 1.035-.037.527 0 .96.018 1.083.03 2.123.502 4.256.956 6.319 1.395C60.165 6.23 69.787 8.278 77.661 15.772c.86.821.3 1.695.105 1.944a.885.885 0 0 0-.171.38c-.071.372-.302.667-.684.876a123.189 123.189 0 0 1-10.855 5.313c-.008.002-.015.008-.022.011l-.015.006c-6.562 3.17-12.735 4.567-19.272 6.045a450.16 450.16 0 0 0-3.972.911c-1.12-.167-2.355-.342-3.666-.526-4.209-.594-9.343-1.319-13.98-2.314 1.495-2.418 4.72-6.044 7.71-8.999a.895.895 0 0 0-1.257-1.273c-1.65 1.63-6.361 6.43-8.27 9.858-2.469-.589-4.732-1.266-6.548-2.057-.009-.003-.019-.004-.028-.008-.01-.004-.02-.011-.03-.014-4.799-1.701-9.021-3.799-12.907-6.414a.538.538 0 0 0-.04-.025C2.597 18.791 1.908 17.884 1.871 17c-.026-.604.255-1.148.792-1.534z"/></svg>