<svg xmlns="http://www.w3.org/2000/svg" xml:space="preserve" width="80" height="80"><path fill="none" d="M50.379 28.393C38.971 31.681 32.027 45.333 25.4 53.372"/><path fill="#CBD265" d="M1.831 58.163c.815 3.258 2.618 5.919 5.435 7.765 3.661 2.4 8.369 3.038 12.612 3.541 1.221.146 2.25-1.132 2.25-2.251 0-1.334-1.033-2.104-2.25-2.249-3.471-.413-7.189-1.03-10.136-2.798-.863-.517-1.793-1.403-2.251-2.069-.793-1.152-.977-1.767-1.32-3.135-.704-2.816-5.044-1.621-4.34 1.196zM48.75 27.361c2.163 5.657.896 11.001-2.68 15.856-.642.873-1.765 2.12-2.726 3.064-.95.934-2.189 2.088-3.074 2.65-6.676 4.248-12.351 5.355-12.527 5.346-.469-.023-.396-.066-.536-.107-.478-.142.335.189-.086-.034-.381-.206.005.027-.006.018-.322-.274.011.058-.004.036-.247-.353 0 .072-.014.033-.148-.402-.049-.159-.04-.051-.012-.144 8.442-10.716 11.798-13.52.365-.307.733-.606 1.101-.909 1.684-1.38-.718-3.753-2.387-2.388-3.563 2.919-7.092 5.966-10.101 9.467-1.498 1.741-3.282 3.889-3.69 6.233-.345 1.979.501 3.611 2.4 4.323 1.662.624 3.735.203 5.382-.235 5.14-1.368 9.955-4.501 13.794-8.115 4.375-4.115 7.709-9.621 7.871-15.755.061-2.313-.397-4.656-1.221-6.811-.769-2.01-4.032-1.138-3.254.899z" opacity=".71"/><path fill="#F8DCB8" d="M67.706 56.68c2.974.792 5.594 5.403 3.423 8.123-2.133 2.679-6.982 1.82-7.648-1.648-.409-2.138-3.662-1.23-3.254.895 1.143 5.954 9.128 7.38 13.084 3.372 4.375-4.431.788-12.533-4.707-13.997-2.107-.564-3 2.694-.898 3.255z" opacity=".86"/><path fill="#97D0C9" d="M70.998 8.09c.037.471.021.923-.085 1.38-.176.733-.727 1.413-1.193 2.005-.514.652-.812 1.344-.579 2.189.242.879 1.192 1.77 2.171 1.652.13-.016-4.866 1.481-7.528 4.516-1.905 2.172 1.265 5.368 3.183 3.183 1.446-1.65 3.061-3.269 5.196-3.959 1.163-.375 2.237-.194 3.42-.082 1.019.098 2.83-.167 2.85-1.293.126-7.337-3.956-5.355-3.635-6.561.525-1.973.287-5.929-1.4-7.109-2.756-1.929-7.439.569-6.513 4.048.745 2.802 4.085-.335 4.113.031z"/><path fill="#103653" d="M4.884 65.593c2.646 2.718 6.468 4.084 11.398 4.084a34.096 34.096 0 0 0 5.289-.478v9.016a.712.712 0 0 0 .792.789.711.711 0 0 0 .627-.789V57.493c11.426-.133 19.852-3.334 25.01-9.564 7.562-9.132 5.359-21.281 5.262-21.793a.712.712 0 0 0-.66-.574c-9.806-.518-17.484 1.978-22.841 7.409-8.977 9.1-8.24 23.043-8.189 23.852v3.354c-.803-2.171-2.048-4.464-4.008-6.455-3.671-3.728-8.98-5.492-15.695-5.294a.716.716 0 0 0-.673.565c-.09.431-2.131 10.628 3.688 16.6zm18.562-9.523c7.738-15.752 19.882-20.91 20-20.96a.716.716 0 0 0-.535-1.312c-.509.211-11.912 5.02-19.889 19.954.254-4.61 1.586-13.544 7.754-19.793 4.958-5.019 12.05-7.397 21.175-7.01.325 2.447 1.207 12.534-5.053 20.085-4.812 5.808-12.71 8.834-23.452 9.036zM2.495 49.835c6.083-.146 10.772 1.552 14.048 4.873 3.589 3.643 4.622 8.518 4.913 11.346-1.882-2.343-5.799-6.547-12.856-11.366a.714.714 0 0 0-.802 1.173c7.936 5.428 11.852 10.111 13.243 11.995-6.904 1.049-12.005-.027-15.146-3.254-4.566-4.689-3.732-12.618-3.4-14.767z"/><g fill="#103653"><path d="M64.89 8.962a.377.377 0 0 1-.534-.216c-.729-2.218.157-5.488 1.855-6.861a.378.378 0 0 1 .478.585c-1.315 1.063-2.308 3.933-1.617 6.04a.372.372 0 0 1-.182.452z"/><path d="M64.715 9.231a.603.603 0 0 1-.573-.415c-.753-2.294.167-5.682 1.93-7.107a.621.621 0 0 1 .848.087.604.604 0 0 1-.086.848c-1.261 1.018-2.209 3.771-1.545 5.794a.6.6 0 0 1-.39.763.572.572 0 0 1-.184.03zm1.737-7.206a.149.149 0 0 0-.098.035c-1.637 1.323-2.487 4.476-1.784 6.616.025.078.11.123.191.097l.025-.011a.152.152 0 0 0 .074-.182c-.72-2.19.316-5.177 1.688-6.286a.153.153 0 0 0 .021-.214.152.152 0 0 0-.117-.055z"/><path d="M64.89 8.962a.378.378 0 0 1-.476-.107c-1.338-1.768-4.262-2.588-5.886-2.11-.202.058-.41-.058-.468-.259s.057-.41.258-.468c2.098-.615 5.292.52 6.698 2.381a.377.377 0 0 1-.126.563z"/><path d="M64.716 9.23a.606.606 0 0 1-.481-.24c-1.07-1.415-3.158-2.154-4.667-2.154-.365 0-.694.041-.976.124a.61.61 0 0 1-.747-.411.594.594 0 0 1 .051-.459.596.596 0 0 1 .361-.287 4.697 4.697 0 0 1 1.327-.177c2.096 0 4.457 1.109 5.612 2.639a.6.6 0 0 1-.48.965zm-5.149-2.844c1.619 0 3.867.801 5.026 2.334a.153.153 0 0 0 .192.043l.022-.014a.153.153 0 0 0 .029-.213c-1.078-1.425-3.287-2.46-5.254-2.46-.438 0-.842.054-1.201.159a.155.155 0 0 0-.094.073.154.154 0 0 0-.013.117.155.155 0 0 0 .189.104 3.908 3.908 0 0 1 1.104-.143zM73.396 12.181l-4.351 2.277a.377.377 0 0 1-.509-.159L66.261 9.95a5.287 5.287 0 1 1 7.135 2.231zm-4.365 1.433 4.015-2.101a4.533 4.533 0 0 0-4.205-8.029A4.532 4.532 0 0 0 66.929 9.6l2.102 4.014z"/><path d="M68.873 14.727a.6.6 0 0 1-.534-.323l-2.278-4.349a5.483 5.483 0 0 1-.379-4.202 5.479 5.479 0 0 1 2.704-3.238 5.519 5.519 0 0 1 2.554-.629 5.502 5.502 0 0 1 4.888 2.956 5.48 5.48 0 0 1 .377 4.201 5.475 5.475 0 0 1-2.703 3.238l-4.35 2.278a.62.62 0 0 1-.279.068zm2.066-12.291c-.812 0-1.622.201-2.344.579a5.021 5.021 0 0 0-2.483 2.974 5.021 5.021 0 0 0 .348 3.858l2.277 4.349a.152.152 0 0 0 .204.064l4.35-2.277a5.02 5.02 0 0 0 2.482-2.973 5.02 5.02 0 0 0-.348-3.859 5.043 5.043 0 0 0-4.486-2.715zm-2.003 11.482-2.207-4.213a4.763 4.763 0 0 1 4.211-6.964c1.776 0 3.395.978 4.218 2.551a4.76 4.76 0 0 1-2.008 6.419l-4.214 2.207zm2.003-10.727c-.699 0-1.37.166-1.994.492a4.314 4.314 0 0 0-1.818 5.813l1.999 3.815 3.815-1.999A4.31 4.31 0 0 0 74.757 5.5a4.294 4.294 0 0 0-3.818-2.309z"/><path d="M76.581 19.891a4.536 4.536 0 0 1-6.117-1.911l-1.927-3.68a.378.378 0 0 1 .159-.51l3.68-1.928a4.533 4.533 0 0 1 4.205 8.029zm-7.2-5.607 1.752 3.345a3.777 3.777 0 1 0 1.595-5.097l-3.347 1.752z"/><path d="M74.483 20.633a4.752 4.752 0 0 1-4.219-2.55l-1.926-3.679a.601.601 0 0 1 .254-.813l3.68-1.928a4.757 4.757 0 0 1 2.203-.543c1.776 0 3.394.977 4.216 2.551a4.72 4.72 0 0 1 .326 3.626 4.711 4.711 0 0 1-2.333 2.793 4.761 4.761 0 0 1-2.201.543zm-.007-9.064c-.689 0-1.381.17-1.994.492l-3.681 1.927a.153.153 0 0 0-.063.207l1.926 3.68a4.303 4.303 0 0 0 3.82 2.307c.689 0 1.379-.169 1.994-.491 1.018-.533 1.769-1.432 2.111-2.53s.238-2.264-.295-3.283a4.3 4.3 0 0 0-3.818-2.309zm.005 8.31a3.992 3.992 0 0 1-3.547-2.146l-1.857-3.544 3.545-1.856a3.995 3.995 0 0 1 5.402 1.688c.495.947.593 2.03.274 3.05a3.97 3.97 0 0 1-1.964 2.35 4 4 0 0 1-1.853.458zm-4.796-5.5 1.648 3.146a3.545 3.545 0 0 0 3.148 1.904c.569 0 1.137-.141 1.646-.406a3.527 3.527 0 0 0 1.74-2.085 3.528 3.528 0 0 0-.244-2.707 3.543 3.543 0 0 0-4.793-1.499l-3.145 1.647zM67.04 15.51l-4.349 2.277a5.288 5.288 0 0 1-4.906-9.367 5.287 5.287 0 0 1 7.135 2.231L67.199 15a.377.377 0 0 1-.159.51zm-8.903-6.421a4.53 4.53 0 0 0-1.912 6.116 4.53 4.53 0 0 0 6.115 1.913l4.015-2.103-2.103-4.014a4.537 4.537 0 0 0-6.115-1.912z"/><path d="M60.242 18.617a5.5 5.5 0 0 1-4.887-2.956 5.476 5.476 0 0 1-.378-4.201 5.473 5.473 0 0 1 2.704-3.238 5.525 5.525 0 0 1 2.553-.63 5.497 5.497 0 0 1 4.887 2.956l2.277 4.348a.604.604 0 0 1-.255.815l-4.349 2.277a5.53 5.53 0 0 1-2.552.629zm-.008-10.575c-.811 0-1.62.199-2.345.579a5.026 5.026 0 0 0-2.481 2.973 5.032 5.032 0 0 0 .346 3.859 5.051 5.051 0 0 0 6.831 2.136l4.351-2.277a.154.154 0 0 0 .064-.207l-2.276-4.349a5.053 5.053 0 0 0-4.49-2.714zm.008 9.819a4.742 4.742 0 0 1-4.216-2.551 4.717 4.717 0 0 1-.328-3.625 4.727 4.727 0 0 1 2.333-2.796 4.784 4.784 0 0 1 2.201-.541c1.777 0 3.394.977 4.22 2.548l2.207 4.214-4.213 2.206a4.742 4.742 0 0 1-2.204.545zm-.01-9.062c-.688 0-1.378.169-1.991.49a4.276 4.276 0 0 0-2.113 2.53 4.275 4.275 0 0 0 .296 3.282 4.3 4.3 0 0 0 3.818 2.31c.69 0 1.38-.17 1.995-.492l3.813-1.997-1.997-3.816a4.301 4.301 0 0 0-3.821-2.307z"/><path d="M67.214 24.796a4.528 4.528 0 0 1-6.115-1.912 4.53 4.53 0 0 1 1.911-6.117l3.68-1.927a.379.379 0 0 1 .51.159l1.927 3.679a4.539 4.539 0 0 1-1.913 6.118zm-3.854-7.359a3.775 3.775 0 1 0 3.503 6.691 3.778 3.778 0 0 0 1.595-5.098l-1.753-3.345-3.345 1.752z"/><path d="M65.116 25.54a4.748 4.748 0 0 1-4.218-2.551 4.762 4.762 0 0 1 2.007-6.42l3.68-1.927a.603.603 0 0 1 .813.254l1.927 3.679a4.768 4.768 0 0 1-2.006 6.42 4.753 4.753 0 0 1-2.203.545zm1.748-10.518a.146.146 0 0 0-.07.018l-3.681 1.927a4.311 4.311 0 0 0-1.816 5.813 4.298 4.298 0 0 0 5.812 1.816 4.316 4.316 0 0 0 1.816-5.813L67 15.105a.153.153 0 0 0-.136-.083zm-1.748 9.762c-.001 0-.001 0 0 0a3.993 3.993 0 0 1-3.549-2.146 3.976 3.976 0 0 1-.274-3.051 3.981 3.981 0 0 1 1.962-2.351l3.546-1.856 1.856 3.544a4.009 4.009 0 0 1-3.541 5.86zm1.495-8.796-3.146 1.648a3.522 3.522 0 0 0-1.742 2.086 3.528 3.528 0 0 0 .242 2.707 3.545 3.545 0 0 0 3.15 1.905h.001a3.554 3.554 0 0 0 3.142-5.201l-1.647-3.145z"/><path d="M70.495 19.667a1.506 1.506 0 0 1-2.037-.638l-4.556-8.697a1.511 1.511 0 0 1 2.677-1.402l4.554 8.698c.388.74.102 1.653-.638 2.039zM64.89 8.962a.753.753 0 0 0-.317 1.02l4.554 8.697a.756.756 0 1 0 1.338-.7L65.91 9.281a.759.759 0 0 0-1.02-.319z"/><path d="M69.797 20.065c-.649 0-1.24-.356-1.539-.932l-4.555-8.697a1.712 1.712 0 0 1-.118-1.323 1.72 1.72 0 0 1 .851-1.02 1.732 1.732 0 0 1 2.344.733l4.554 8.698a1.738 1.738 0 0 1-1.537 2.541zM65.24 8.346a1.29 1.29 0 0 0-1.228.902c-.102.328-.07.675.089.98l4.556 8.696a1.281 1.281 0 0 0 1.735.543c.628-.33.871-1.107.543-1.735l-4.556-8.697a1.281 1.281 0 0 0-1.139-.689zm4.556 10.964a.983.983 0 0 1-.87-.526l-4.554-8.697a.982.982 0 0 1 .868-1.435c.365 0 .699.201.868.526l4.555 8.697a.969.969 0 0 1 .067.748.971.971 0 0 1-.934.687zM65.24 9.102a.533.533 0 0 0-.47.777l4.555 8.696a.53.53 0 0 0 .471.285.524.524 0 0 0 .505-.373.529.529 0 0 0-.036-.405L65.71 9.386a.53.53 0 0 0-.47-.284z"/></g><path fill="#103653" d="M76.597 68.414a10.456 10.456 0 0 0 1.103-4.688c0-5.816-4.73-10.547-10.546-10.547-5.226 0-9.577 3.823-10.402 8.82a4.407 4.407 0 0 0-1.983-.736l-.342-1.635c.589-.321.99-.947.99-1.663a1.897 1.897 0 0 0-3.792 0c0 .991.764 1.805 1.732 1.887l.299 1.428a4.37 4.37 0 0 0-2.065.867l-.672-1.579a1.895 1.895 0 1 0-1.003.426l.844 1.987a4.39 4.39 0 0 0-.899 2.666v1.532c0 5.429 4.417 9.846 9.846 9.846h15.527a4.417 4.417 0 0 0 4.412-4.415 4.44 4.44 0 0 0-3.049-4.196zm-26.888-8.498a.806.806 0 0 1-.807-.806.807.807 0 0 1 1.611 0 .806.806 0 0 1-.804.806zm17.444-5.645c5.215 0 9.456 4.241 9.456 9.455a9.427 9.427 0 0 1-2.674 6.58 10.264 10.264 0 0 1-5.058 1.332c-4.469 0-8.105-3.636-8.105-8.104a6.38 6.38 0 0 1 6.375-6.372 4.994 4.994 0 0 1 4.99 4.989 3.886 3.886 0 0 1-3.884 3.882 2.999 2.999 0 0 1-2.996-2.994 2.29 2.29 0 0 1 2.289-2.291c.949 0 1.721.773 1.721 1.722a1.27 1.27 0 0 1-1.269 1.269.905.905 0 0 1-.905-.905.543.543 0 0 0-.546-.544.542.542 0 0 0-.544.544c0 1.102.895 1.995 1.995 1.995a2.36 2.36 0 0 0 2.358-2.358 2.815 2.815 0 0 0-2.811-2.813 3.384 3.384 0 0 0-3.381 3.383 4.093 4.093 0 0 0 4.088 4.085 4.978 4.978 0 0 0 4.974-4.973 6.085 6.085 0 0 0-6.08-6.079c-4.115 0-7.464 3.348-7.464 7.462 0 5.069 4.125 9.195 9.193 9.195.482 0 .96-.03 1.436-.092a9.414 9.414 0 0 1-3.159.544c-5.213 0-9.455-4.241-9.455-9.455s4.243-9.457 9.456-9.457zM53.52 58.77a.804.804 0 1 1 0-1.608.804.804 0 0 1 0 1.608zm21.713 17.165H59.706c-4.826 0-8.757-3.928-8.757-8.756v-1.53a3.327 3.327 0 0 1 3.324-3.322c.881 0 1.723.354 2.345.972a8.71 8.71 0 0 0-.011.429c0 5.814 4.732 10.543 10.546 10.543a10.51 10.51 0 0 0 7.469-3.106.449.449 0 0 0 .101-.103c.494-.511.938-1.069 1.321-1.669a3.334 3.334 0 0 1 2.512 3.22 3.326 3.326 0 0 1-3.323 3.322z"/></svg>