<svg xmlns="http://www.w3.org/2000/svg" xml:space="preserve" width="80" height="80"><path fill="#CBD265" d="M24.435 25.8c-.48-5.064-1.94-10.073-6.263-13.123-4.482-3.162-10.09.73-12.469 4.515-3.209 5.106-3.314 12.953-3.564 18.73-.195 4.497.257 9.001.995 13.432.767 4.613 3.306 9.83 2.289 14.562-1.339 6.228 1.078 8.699 7.45 8.499 3.727-.117 7.532.521 11.291.469 4.526-.064 9.027-.578 13.506-1.192 7.257-.995 13.988-1.439 21.234-.601 4.445.515 10.423 1.418 13.429-2.677 2.728-3.716-3.47-7.269-6.162-3.602 1.069-.718 1.095-.896.078-.535-.881.209-1.993.06-2.886.039-1.85-.042-3.7-.273-5.537-.486-4.693-.543-9.117-.588-13.853-.099-6.034.624-11.981 1.654-18.051 1.958-2.913.146-5.826.083-8.737-.07-.592-.031-6.38-.123-6.309-.058l1.045 2.522c-.158-1.852.707-4.008.769-5.918.084-2.607-.557-5.352-1.098-7.883-1.326-6.196-2.421-11.981-2.315-18.36.077-4.655.594-9.516 2.043-13.959.482-1.479 2.444-4.473 4.022-2.379 1.275 1.692 1.764 4.153 1.96 6.216.428 4.539 7.568 4.581 7.133 0z" opacity=".71"/><g fill="#133754"><path d="M71.172 71.181c-4.239 0-9.049-.033-9.049-.033-.575-.001-57.827-.156-58.659-.156-.617 0-1.149-.261-1.499-.735-.479-.648-.569-1.618-.247-2.66.759-2.454 2.968-3.033 4.288-3.379.288-.075.682-.179.784-.245.05-.055.153-.287.253-.512.358-.807.898-2.026 2.824-2.814.615-.25 1.333-.337 2.105-.257-5.015-2.046-8.83-6.925-10.525-13.509-2.827-10.987.468-23.448 3.585-28.411 3.495-5.565 6.518-7.939 10.106-7.939l.225.003c4.565.137 9.268 6.056 11.376 11.555.691 1.803 1.113 4.614 1.387 6.736 3.67-3.594 7.109-6.959 7.242-7.086.194-.179.366-.343.53-.499.933-.891 1.739-1.659 3.019-1.714l.14-.003c1.344 0 2.116.805 3.185 1.919l.285.296c.189.197 4.912 4.874 9.912 9.825 9.285 9.194 15.877 15.723 16.126 15.994.521.56.977 1.168.788 1.802-.107.36-.403.626-.813.728-.421.104-3.391.177-5.57.218l.075 5.821c1.234-.014 3.203.096 4.348.807 1.09.675 1.723 1.688 2.044 2.353 1.136-.164 3.517-.258 5.354 1.753a4.484 4.484 0 0 1 1.337 3.449c1.508.341 3.46 1.423 3.5 3.936a.731.731 0 0 1-.005.104c-.126 1.084-.849 2.311-1.986 2.557-.167.031-.472.096-6.465.096zm-59.751-9.248c-.361 0-.684.057-.958.169-1.339.548-1.666 1.284-1.981 1.995-.165.373-.321.726-.61 1.015-.33.329-.831.461-1.466.627-1.196.313-2.684.703-3.185 2.322-.187.604-.126 1.078.01 1.263.034.046.083.096.234.096.833 0 58.087.154 58.666.156.004 0 4.808.032 9.042.032 5.107 0 6.01-.048 6.16-.068.264-.058.637-.559.723-1.146-.078-2.279-2.743-2.453-2.857-2.459a.79.79 0 0 1-.71-1.013c.017-.057.42-1.546-.832-2.799-.823-.898-1.886-1.342-3.184-1.342-.745 0-1.283.156-1.289.157a.788.788 0 0 1-.978-.526c-.003-.011-.448-1.405-1.641-2.145-.586-.363-1.782-.571-3.282-.571-.553 0-.938.029-.952.03a.834.834 0 0 1-.591-.204.788.788 0 0 1-.256-.57l-.096-7.411a.786.786 0 0 1 .772-.796c1.964-.033 4.095-.087 5.234-.138-.52-.537-9.128-9.062-16.063-15.928a4317.413 4317.413 0 0 1-9.938-9.852l-.286-.297c-1.024-1.066-1.411-1.435-2.051-1.435-.733.03-1.188.437-2.073 1.282-.17.162-.349.333-.54.508-.111.106-3.549 3.471-8.351 8.173a.786.786 0 0 1-1.331-.465l-.055-.446c-.238-1.932-.681-5.529-1.436-7.497-1.912-4.985-6.26-10.435-9.953-10.545l-.18-.003c-2.979 0-5.604 2.154-8.774 7.203C3.392 24.038.258 35.949 2.97 46.487c1.639 6.364 5.36 10.983 10.207 12.676a.786.786 0 0 1 .527.731s.009.663.015 1.479a.787.787 0 0 1-1.008.761 4.73 4.73 0 0 0-1.29-.201z"/><path d="M61.582 56.941h1.375v13.424h-1.375z"/><path d="M44.632 70.382c-.021-.133-.494-3.287 1.397-5.68 1.174-1.484 2.972-2.328 5.345-2.508 1.196.024 1.904.264 2.474.456.454.153.748.258 1.152.22.154-.014.341-.061.561-.112 1.02-.24 2.728-.643 4.888.447 1.9.957 2.345 3.315 2.448 4.285l-1.369.145c-.079-.745-.402-2.549-1.698-3.201-1.713-.863-3.007-.559-3.953-.337a6.014 6.014 0 0 1-.755.145c-.684.056-1.208-.116-1.714-.287-.53-.18-1.079-.364-1.998-.387-1.905.148-3.375.817-4.301 1.988-1.521 1.925-1.122 4.584-1.117 4.611l-1.36.215zM16.506 70.509c-.771-.638-.709-2.72-.368-3.977.509-1.881 2.025-3.218 4.159-3.666 1.157-.245 1.939-.111 2.697.019.468.079.908.138 1.463.146.5-.01 1.03-.104 1.59-.204 1.048-.188 2.238-.399 3.543-.087 3.126.743 3.229 3.156 3.231 3.259l.044 4.208-1.375.013-.043-4.196c-.008-.129-.142-1.463-2.174-1.946-1.027-.245-1.978-.076-2.983.104-.589.105-1.197.214-1.808.225-.683.016-1.232-.081-1.718-.164-.688-.118-1.282-.218-2.183-.029-.946.199-2.608.813-3.114 2.681-.317 1.168-.184 2.38-.04 2.601l-.921 1.013z"/><path d="m44.799 71.001-12.302-.016-.003-.684c0-.123-.062-12.293 0-15.354.069-3.427 2.752-6.322 5.86-6.322l.208.004c3.611.145 5.952 2.503 6.108 6.155.128 2.996.129 15.018.129 15.528v.689zM33.866 69.61l9.557.014c-.002-2.66-.019-12.223-.128-14.781-.124-2.915-1.915-4.724-4.789-4.839l-.152-.003c-2.377 0-4.43 2.277-4.484 4.974-.054 2.625-.016 12.013-.004 14.635z"/><path d="M41.965 63.284c-.663 0-1.063-.27-1.282-.497-.341-.354-.509-.865-.487-1.481.032-.815.578-1.669 1.726-1.743l.142-.005c.51 0 .972.195 1.302.551.339.366.51.877.47 1.402-.108 1.466-1.077 1.773-1.871 1.773zm.098-2.35c-.263.016-.479.076-.492.423-.01.262.047.418.103.476.062.063.192.077.292.077.392 0 .464-.037.497-.5a.475.475 0 0 0-.107-.365.383.383 0 0 0-.293-.111zM61.537 50.085c-7.954-8.204-19.903-20.396-22.153-22.35-2.281 1.955-14.675 13.914-22.966 21.978l-.196.19-2.591.046s-3.612.106-3.926.106c-.466 0-.882-.243-1.062-.62-.085-.18-.236-.66.22-1.222.182-.221 10.564-10.731 18.198-18.209l.963.983c-6.96 6.817-15.658 15.612-17.685 17.678.864-.022 2.346-.065 2.966-.084l.004-.004 2.347-.042c22.936-22.309 23.353-22.327 23.689-22.343.404-.018.91-.037 23.181 22.935l-.989.958z"/><path d="M15.153 49.319h1.376V70.31h-1.376z"/><path d="M11.772 70.949a1.222 1.222 0 0 1-.887-.673c-.259-.54-.151-1.277.321-2.191.442-.841 1.025-3.256 1.067-3.892.04-.579.012-3.262-.001-4.246l-.01-.697h3.579v1.375h-2.185c.012 1.087.028 3.106-.01 3.661-.057.847-.707 3.457-1.22 4.435-.302.585-.315.906-.296.972a.181.181 0 0 0-.09-.093l-.268 1.349z"/></g><path fill="#133754" d="M28.625 48.534H20.738c-1.053 0-1.91.856-1.91 1.909v8.436c0 1.054.857 1.911 1.91 1.911H28.625a1.914 1.914 0 0 0 1.912-1.911v-8.436a1.913 1.913 0 0 0-1.912-1.909zm-5.157 10.882h-2.729a.536.536 0 0 1-.534-.536v-2.727h3.263v3.263zm0-6.017h-3.263v-2.956c0-.294.24-.534.534-.534h2.729v3.49zm5.693 5.481c0 .295-.24.536-.536.536h-2.463v-3.263h2.999v2.727zm0-5.481h-2.999v-3.49h2.462c.295 0 .536.24.536.534v2.956zM56.734 48.534H48.847a1.91 1.91 0 0 0-1.91 1.909v8.436c0 1.054.856 1.911 1.91 1.911H56.734a1.913 1.913 0 0 0 1.911-1.911v-8.436a1.912 1.912 0 0 0-1.911-1.909zm-5.158 10.882h-2.729a.536.536 0 0 1-.535-.536v-2.727h3.264v3.263zm0-6.017h-3.264v-2.956c0-.294.24-.534.535-.534h2.729v3.49zm5.694 5.481c0 .295-.24.536-.535.536h-2.463v-3.263h2.998v2.727zm0-5.481h-2.998v-3.49h2.463c.295 0 .535.24.535.534v2.956z"/></svg>