<svg xmlns="http://www.w3.org/2000/svg" xml:space="preserve" width="80" height="80"><path fill="#F8DCB8" d="M10.239 18.577c-1.022 4.672-1.581 9.713-.426 14.412.614 2.498 1.667 4.725 3.579 6.502 2.623 2.438 6.308 3.166 9.76 3.338 1.345.066 4.437-.5 4.437-2.371 0-1.962-3.089-2.303-4.437-2.371 1.017.052-.528-.094-.724-.129.481.11.495.103.042-.02-1.035-.305.617.323-.324-.118-.861-.403-1.09-.621-1.923-1.587-.191-.221-.825-1.417-1.096-2.054-.386-.908-.609-1.841-.772-2.81-.709-4.209-.146-8.657.758-12.792.404-1.846-3.422-2.37-4.437-2.37-1.693 0-4.02.462-4.437 2.37z" opacity=".75"/><path fill="#97D0C9" d="M12.98 43.058c-4.091 1.163-5.448 5.196-5.095 9.082.179 1.967.943 3.654 2.308 5.077 1.232 1.286.018 4.357-.328 4.558a23.794 23.794 0 0 0-2.437 1.602c-1.27.957-2.252 2.218-1.662 3.854.624 1.728 3.413 2.362 4.981 2.506 7.84.718 15.313-3.044 23.107-3.124 1.414-.015 4.438-.509 4.438-2.479 0-1.952-3.024-2.495-4.438-2.48-6.674.069-18.701 4.198-19.183 4.536.922-.648 1.949-1.129 2.884-1.757.811-.544 6.382-5.24 4.724-6.637-1.115-.939-2.354-1.662-3.59-2.422-.792-.487-1.628-1.543-1.837-2.563-.588-2.883 3.667-7.459 2.196-8.863-1.537-1.47-4.167-1.43-6.068-.89z" opacity=".75"/><g fill="#103653"><path d="M53.834 68.016a.547.547 0 0 0 .08.146l2.537 2.753h10.426v-1.854l1.709 1.854h10.426V60.58l-.035-.21h-.098c-.014-.015-.027-.03-.045-.044l-2.537-2.346-.031-.025a.633.633 0 0 0-.17-.091.333.333 0 0 0-.115-.021l-6.172-.004v-8.473l-.037-.21h-.098c-.014-.017-.029-.031-.043-.045l-2.537-2.345-.031-.026a.735.735 0 0 0-.17-.091.33.33 0 0 0-.113-.021l-10.051-.008.004 10.004c.002.116.043.23.115.323l.82.89-3.871-.003V67.84a.651.651 0 0 0 .037.176zm6.217-18.861-1.426-1.424h7.877l1.541 1.424h-7.992zm9.531 20.649v-8.322h8.322v8.322h-8.322zM60.367 57.84v-4.36h.01v-3.214h8.322v3.213h.012v5.317h-8.344v-.956zm8.887 2.53-.67-.671h1.227v-.755h5.893l1.543 1.426h-7.993zm-3.488 1.111v8.323h-8.322v-8.323h8.322zm-6.381-1.782h5l.727.671H57.12l-1.426-1.425h2.996l.695.754zm7.353.665v-.962l.074.09.184.207 1.627 1.862v8.005l-1.746-1.952-.139-.156v-7.094zm-9.22-12.277 1.887 2.158v8.005l-.188-.206-.182-.205-1.518-1.697v-8.055zm-1.049 13.475v8.005l-1.887-2.108v-8.056l1.887 2.159z"/><path d="M61.521 57.556a.63.63 0 0 0 .844-.283l.498-1.006h3.531l.5 1.006a.63.63 0 0 0 .844.283.624.624 0 0 0 .281-.842v-.001l-1.607-3.232-1.219-2.452-.01-.016c-.01-.021-.023-.039-.035-.059-.012-.016-.02-.03-.033-.045-.014-.017-.029-.03-.043-.045-.014-.016-.029-.028-.045-.042a.598.598 0 0 0-.049-.033c-.016-.013-.035-.024-.055-.036l-.016-.01c-.012-.006-.025-.009-.037-.014-.021-.008-.041-.018-.061-.022-.02-.006-.039-.012-.061-.015-.02-.004-.037-.008-.059-.01s-.041-.002-.063-.002c-.02 0-.039 0-.061.002a.518.518 0 0 0-.059.01.34.34 0 0 0-.061.015c-.021.005-.041.016-.063.023-.012.004-.023.007-.035.013l-.014.009c-.021.012-.043.024-.063.039l-.043.03a.5.5 0 0 0-.047.045.262.262 0 0 0-.039.043c-.014.015-.023.031-.035.047a.572.572 0 0 0-.037.058c-.002.005-.006.009-.008.015l-1.221 2.452-1.607 3.233a.634.634 0 0 0 .288.842zm3.108-4.838.379.763.762 1.53h-2.28l.762-1.53.377-.763zm-4.086 16.407h1.443a2.289 2.289 0 0 0 2.287-2.287 2.29 2.29 0 0 0-1.152-1.983c.207-.305.332-.672.332-1.067a1.898 1.898 0 0 0-1.896-1.895h-1.014c-.447 0-.824.295-.955.698a.63.63 0 0 0-.055.253v5.307c0 .05.008.098.018.144.086.478.504.828.992.83zm1.443-1.257h-1.195V65.81h1.195a1.034 1.034 0 0 1 1.004 1.056 1.03 1.03 0 0 1-1.004 1.002zm.205-4.081a.636.636 0 0 1-.635.638h-.766v-1.276h.766a.636.636 0 0 1 .635.638zm13.633 3.323c-.41.387-.945.599-1.508.599a2.204 2.204 0 0 1-2.201-2.2 2.204 2.204 0 0 1 3.66-1.648.629.629 0 1 0 .836-.94 3.459 3.459 0 1 0 .076 5.105.63.63 0 0 0-.863-.916z"/></g><g fill="#103653"><path d="M20.654 25.423h.003a3.741 3.741 0 0 0 2.151-.899 3.807 3.807 0 0 0 1.18-1.982.602.602 0 0 0-.579-.759c-.26 0-.49.169-.57.414h-.01v.034a8.64 8.64 0 0 1-.157.511l-.007.016-.04.083a2.575 2.575 0 0 1-.113.205 3.745 3.745 0 0 1-.154.227l-.026.032-.021.024a3.1 3.1 0 0 1-.318.32l-.067.056-.065.047a2.807 2.807 0 0 1-.34.212.835.835 0 0 1-.153.082.288.288 0 0 0-.048.015c-.037.014-.073.028-.111.04a2.703 2.703 0 0 1-.435.113l-.039.006-.034.006H20.7c-.003.002-.007.002-.01.003l-.037-.001a.6.6 0 0 0-.599.599c.002.326.27.596.6.596zM23.904 34.36c.028.1.082.191.158.268l.118.09c.08.046.17.074.263.081l.116.016.036.005c.015.001.032-.001.045.002h.013l.04-.002c.054-.006.115-.013.177-.024l.024-.005a1.531 1.531 0 0 0 .265-.111.677.677 0 0 0 .274-.356.467.467 0 0 0 .011-.237.457.457 0 0 0-.074-.23l-.091-.117a.598.598 0 0 0-.27-.154l-.155-.021a.613.613 0 0 0-.249.054l-.069-.009-.051-.006-.02-.001a.443.443 0 0 0-.213.053.615.615 0 0 0-.367.552l.019.152zM26.565 36.733a.59.59 0 0 0-.419.172l-.038.032-.043.035-.048.032c-.049.031-.101.06-.153.084a1.599 1.599 0 0 1-.072.035l-.039.015a2.977 2.977 0 0 1-1.042.189h-.088a4.076 4.076 0 0 1-.572-.04l-.021-.004a3.372 3.372 0 0 1-.518-.136 1.722 1.722 0 0 0-.093-.038l-.023-.011a1.716 1.716 0 0 1-.194-.111c-.011-.009-.023-.019-.037-.028a.155.155 0 0 0-.053-.039l-.015-.013a.558.558 0 0 0-.152-.109l-.043-.031.016.019a.598.598 0 0 0-.752.86l-.047-.018.13.127c.685.67 1.778.77 2.37.77h.002c.591 0 1.686-.101 2.371-.77a.598.598 0 0 0-.006-.848.592.592 0 0 0-.421-.174zM19.249 32.751h.004c.789-.007 1.171-.409 1.354-.747.369-.682.221-1.59-.104-2.096a1.399 1.399 0 0 0-1.156-.621c-.338 0-.96.136-1.332 1.048-.15.482-.116 1.285.241 1.822.232.351.566.551.993.594zM25.433 25.93a.648.648 0 0 0 .16-.022 3.465 3.465 0 0 0 1.618-1.299 3.34 3.34 0 0 0 .57-1.897.6.6 0 0 0-1.197-.037l-.002.037c0 .063 0 .125-.004.188l-.005.075-.003.043c-.02.117-.048.237-.084.357a2.043 2.043 0 0 1-.082.219c-.009.016-.015.028-.015.038-.056.115-.12.229-.19.335l-.02.03-.033.048-.005.007-.021.027a.215.215 0 0 1-.023.03l-.028.032-.033.04a2.809 2.809 0 0 1-.346.326 2.731 2.731 0 0 1-.335.204l-.04.019-.052.024a.614.614 0 0 0-.412.736.61.61 0 0 0 .582.44zM29.619 32.751h.004c.427-.043.761-.243.993-.594.356-.537.39-1.34.239-1.825-.369-.909-.991-1.045-1.33-1.045-.461 0-.915.244-1.156.621-.326.507-.473 1.415-.104 2.097.182.337.566.739 1.354.746z"/><path d="M7.657 70.48h.044c.288 0 .568-.043.84-.127 1.69.2 3.035.293 4.229.293 2.861 0 5.228-.511 8.725-1.883a9.737 9.737 0 0 1 4.702-.415c2.94.418 8.65 1.289 8.708 1.299 1.179.18 2.092.259 2.959.259.869 0 1.715-.081 2.626-.257a3.108 3.108 0 0 0 2.061.831h.037a6.84 6.84 0 0 0 5.617-3.216c.775-1.268 1.123-2.502 1.037-3.648a4.593 4.593 0 0 0-.496-1.854 3.977 3.977 0 0 0-2.866-2.018 4.157 4.157 0 0 0-3.375.974 4.819 4.819 0 0 0-.412.434c-.744-.746-1.75-1.611-2.612-2.2.511-.52.987-1.076 1.421-1.666.42-.576 1.135-1.917 1.172-3.304a11.894 11.894 0 0 0-.428-4.157c-.9-2.894-2.297-5.087-4.27-6.703-.887-.726-1.858-1.434-3-1.927 1.414-1.343 2.314-2.842 2.765-4.174a5.715 5.715 0 0 0 1.666-.701c.016-.009.031-.02.046-.03a4.789 4.789 0 0 0 1.434-1.623c.765-1.339.751-2.739.632-3.936a2.825 2.825 0 0 0-.379-1.25c-.014-.026-.031-.05-.047-.074a2.664 2.664 0 0 0-1.873-1.092c-.016-.003-.032-.003-.047-.005l.163-.758.012-.062c.233-1.643.364-2.979-.085-5.229-.583-2.925-2.042-5.094-4.878-7.255-2.319-1.767-5.722-2.855-9.339-2.987l-.045-.001c-7.081.112-12.208 3.29-14.064 8.718-.11.32-.211.656-.299.999-.512 1.973-.418 4.355.23 5.972l.103.583a3.055 3.055 0 0 0-.474.021 2.682 2.682 0 0 0-1.895 1.096.82.82 0 0 0-.047.073 2.85 2.85 0 0 0-.378 1.249c-.118 1.197-.133 2.598.62 3.914a4.81 4.81 0 0 0 1.446 1.647c.015.01.03.021.046.03.522.324 1.085.56 1.677.703.415 1.471 1.369 3.088 2.837 4.488-.89.472-1.668 1.06-2.344 1.611-1.973 1.618-3.369 3.812-4.275 6.727a11.925 11.925 0 0 0-.42 4.094c-.034 1.026 1.019 3.188 1.227 3.492.457.675.981 1.297 1.564 1.859-.655.426-1.279.979-1.906 1.557l-.09.083a3.998 3.998 0 0 0-.239-.23 4.141 4.141 0 0 0-3.356-.959 3.98 3.98 0 0 0-2.863 2.016 4.605 4.605 0 0 0-.498 1.838c-.088 1.181.251 2.379 1.042 3.675a6.837 6.837 0 0 0 5.612 3.206zm5.293-34.389a.878.878 0 0 0-.794-.716l-.128-.009a3.964 3.964 0 0 1-1.387-.526 3.083 3.083 0 0 1-.905-1.049c-.524-.916-.5-1.983-.408-2.907l.003-.039c.009-.154.051-.307.123-.444a.939.939 0 0 1 .65-.345 1.18 1.18 0 0 1 .864.22.877.877 0 0 0 1.384-.861l-.369-2.106a.841.841 0 0 0-.057-.191c-.537-1.269-.614-3.301-.188-4.943.077-.299.165-.591.26-.869 2.191-6.403 8.703-7.468 12.406-7.53 3.254.123 6.283 1.079 8.314 2.627 2.499 1.904 3.722 3.7 4.22 6.201.393 1.966.286 3.105.073 4.606l-.415 1.922a.877.877 0 0 0 1.184 1.002 1.246 1.246 0 0 1 .64-.076c.245.025.47.149.624.341.072.138.115.291.122.444a.542.542 0 0 0 .004.04c.096.97.113 1.995-.42 2.93a3.068 3.068 0 0 1-.893 1.025 3.91 3.91 0 0 1-1.398.527l-.124.016a.879.879 0 0 0-.733.654c-.632 2.47-3.227 5.503-7.618 6.718-1.121.334-2.65.527-4.198.527-1.352 0-2.613-.141-3.633-.398-.502-.139-.98-.307-1.437-.501-.05-.021-.1-.045-.149-.066a11.333 11.333 0 0 1-.498-.232c-.077-.039-.154-.08-.23-.121-.159-.085-.319-.169-.472-.259a11.993 11.993 0 0 1-.606-.385c-.011-.008-.021-.016-.033-.023-2.126-1.462-3.458-3.479-3.778-5.204zm7.261 12.924a4.275 4.275 0 0 0 2.05.871.614.614 0 0 0 .736-.419.607.607 0 0 0-.424-.738 3.444 3.444 0 0 1-1.498-.551 2.125 2.125 0 0 1-.21-.179c-.039-.04-.076-.077-.112-.117l-.053-.06-.025-.028a2.448 2.448 0 0 1-.179-.278c-.015-.025-.028-.052-.042-.077a.669.669 0 0 0-.028-.054l-.031-.07-.011-.025a3.662 3.662 0 0 1-.169-.622c-.005-.024-.008-.048-.012-.073l-.002-.019-.011-.125a5.618 5.618 0 0 1 .018-.986l.009-.085.001-.006.002-.016.011-.085c.015-.1.033-.198.051-.297.016-.084.037-.167.056-.249 1.037.206 2.213.316 3.449.316 1.735 0 3.406-.214 4.682-.594.304-.083.604-.178.9-.278.022-.008.044-.016.067-.022l.105-.036c.03.086.06.171.086.262a5.507 5.507 0 0 1 .143.667v.001l.002.016.001.013.005.052.009.09a4.597 4.597 0 0 1 .008.752l-.01.118-.004.037-.005.048c-.024.157-.06.314-.106.47a2.036 2.036 0 0 1-.183.454.612.612 0 0 0 .216.819.6.6 0 0 0 .821-.216c.604-1.165.641-2.696.126-4.03.106-.048.21-.1.315-.149l.179-.086a15.678 15.678 0 0 0 .915-.5l.01-.006c.007.015.016.029.022.044.708 1.556 1.047 6.103-1.071 7.273-1.894 1.043-3.515 1.261-5.135 1.409a19.578 19.578 0 0 1-5.369-.317c-2.407-.638-3.549-1.891-3.594-3.943-.022-1.011.226-1.99.407-2.706l.063-.252c.054-.21.116-.418.187-.623.517.241 1.05.451 1.6.625-.443 2.154-.107 3.658 1.032 4.58zM2.757 63.71c.021-.398.122-.78.3-1.135a2.23 2.23 0 0 1 1.584-1.096 2.384 2.384 0 0 1 1.912.538 2.5 2.5 0 0 1 .51.643.88.88 0 0 0 1.347.234c.234-.204.474-.426.72-.652l.108-.1c.659-.607 1.561-1.437 2.396-1.753l.088-.028a8.97 8.97 0 0 0 2.08.989l.051.016c.192.059.423.127.649.149a5.628 5.628 0 0 0 2.497 2.359c.368.19.764.297 1.176.316l.042.001c.019 0 .038 0 .056-.002a2.929 2.929 0 0 0 1.609-.604c.942-.652 1.533-1.467 1.709-2.357a2.62 2.62 0 0 0-.474-2.084 1.655 1.655 0 0 0 .087-1.191 2.07 2.07 0 0 0-1.74-1.368 4.034 4.034 0 0 0-.777.005 3.113 3.113 0 0 0-.295-.78c-.151-.324-.318-.64-.498-.939a14.528 14.528 0 0 0-1.442-2.02 9.496 9.496 0 0 0-.774-.816.582.582 0 0 0-.399-.166.666.666 0 0 0-.593.414.523.523 0 0 0 .134.588v.004l.013.013a11.481 11.481 0 0 1 2.474 3.421c.052.112.097.209.141.323l.034.09a9.594 9.594 0 0 1-.504.706l-.077.102c-.078.102-.185.239-.319.408a42.016 42.016 0 0 1-1.37 1.651l-.024.028c-.165.188-.335.377-.512.559a.926.926 0 0 0-.144.12.575.575 0 0 1-.067-.011 6.586 6.586 0 0 1-2.056-.905.871.871 0 0 0-.336-.583 9.969 9.969 0 0 1-2.232-2.354c-.223-.325-.892-1.974-.923-2.407a.882.882 0 0 0 .003-.162 10.212 10.212 0 0 1 .347-3.527c.794-2.553 2.006-4.472 3.704-5.863.816-.667 1.708-1.332 2.742-1.747.104.072.21.143.317.211-.13.344-.244.696-.337 1.056l-.063.251c-.194.767-.487 1.926-.46 3.176.043 1.981.934 4.564 4.931 5.611l.05.013a21.494 21.494 0 0 0 5.89.351c1.752-.16 3.645-.417 5.835-1.623 2.95-1.629 2.822-6.416 2.078-8.849.851.411 1.608.973 2.312 1.55 1.698 1.391 2.911 3.311 3.7 5.844a10.16 10.16 0 0 1 .356 3.547c-.002.016-.002.032-.002.049-.02.991-.626 2.038-.834 2.325a13.401 13.401 0 0 1-2.059 2.223.883.883 0 0 0-.304.603c-.241.186-.488.365-.74.531a9.433 9.433 0 0 1-.652.394 5.16 5.16 0 0 1-.273.14c-.051.025-.103.05-.154.073-.018.008-.032.013-.042.019l-.009.003v.001l-.058.023a3.325 3.325 0 0 1-.268.085l-.126-.127c-.121-.122-.246-.25-.363-.379a41.147 41.147 0 0 1-1.679-2.016l-.015-.02c-.125-.161-.188-.241-.343-.449a12.04 12.04 0 0 1-.313-.435 1.431 1.431 0 0 0-.081-.149l.016-.051c.017-.052.033-.104.052-.156a9.851 9.851 0 0 1 2.331-3.675.527.527 0 0 0 .146-.6.667.667 0 0 0-.593-.415.577.577 0 0 0-.4.167c-.958.898-1.78 2.151-2.446 3.723-.024.059-.051.119-.077.179a4.04 4.04 0 0 0-.199.507 4.132 4.132 0 0 0-.732-.057 2.072 2.072 0 0 0-1.855 1.289 1.66 1.66 0 0 0 .017 1.133 2.613 2.613 0 0 0-.635 2.042c.107.9.631 1.758 1.517 2.481.436.394.973.645 1.555.729.033.004.067.007.102.009l.084.001c.378 0 .747-.073 1.097-.219a5.656 5.656 0 0 0 2.765-2.277l.013.001h.016c.457 0 .947-.242 1.305-.419a9.844 9.844 0 0 0 1.517-.954c.085-.061.168-.126.251-.19.57.239 2.477 1.73 3.494 2.907a.902.902 0 0 0 .123.116l.244.191a.877.877 0 0 0 1.346-.331c.15-.336.365-.634.621-.868a2.407 2.407 0 0 1 1.924-.551 2.22 2.22 0 0 1 1.584 1.098c.18.354.279.736.303 1.154.063.801-.195 1.656-.777 2.607a5.083 5.083 0 0 1-4.15 2.384 1.338 1.338 0 0 1-1.041-.551.88.88 0 0 0-.904-.343c-.981.218-1.856.32-2.752.32-.776 0-1.608-.075-2.695-.239-.058-.009-5.776-.881-8.713-1.299a11.542 11.542 0 0 0-5.554.498l-.033.013c-3.281 1.287-5.476 1.767-8.099 1.767-1.13 0-2.416-.09-4.048-.282l-.178-.021a.902.902 0 0 0-.434.058c-.13.054-.269.079-.405.079a5.085 5.085 0 0 1-4.172-2.378c-.587-.96-.844-1.816-.782-2.636zm16.744-3.661c.251.065.437.489.367.839-.115.583-.676 1.041-1.001 1.265l-.045.032a1.174 1.174 0 0 1-.609.247 1.157 1.157 0 0 1-.435-.134 3.896 3.896 0 0 1-1.808-1.761 38.502 38.502 0 0 0 1.572-1.892l.312-.399c.197.139.449.2.703.141a2.38 2.38 0 0 1 .739-.051.28.28 0 0 1 .119.04.88.88 0 0 0 .086 1.673zm10.522-1.873a.268.268 0 0 1 .113-.03 2.31 2.31 0 0 1 .744.11c.23.072.47.044.669-.059a43.914 43.914 0 0 0 1.64 2.024c.068.08.136.156.204.234a.975.975 0 0 0-.088.12 3.898 3.898 0 0 1-1.989 1.652c-.131.055-.27.084-.412.086a1.177 1.177 0 0 1-.587-.293c-.014-.014-.028-.025-.043-.038-.306-.246-.829-.75-.898-1.338-.042-.354.175-.761.43-.806a.88.88 0 0 0 .217-1.662z"/></g></svg>