<svg xmlns="http://www.w3.org/2000/svg" xml:space="preserve" width="80" height="80"><path fill="#97D0C9" d="M58.867 26.537c.723-.648 1.062 1.958 1.371 3.537 1.029 5.264 1.232 10.651 2.427 15.89.575 2.52 1.796 4.946 1.931 7.548.034.66-.055 1.414-.492 1.935-.185.222-1.111.309-1.115.309-.312-.033-3.976-.454-5.501-.589-3.524-.31-7.059-.318-10.577.07-.339.037-2.358.46-1.117.915 1.305.479 2.908.39 4.26.241 5.626-.622 11.287 1.447 16.958.599 1.881-.281 3.637-.888 3.809-3.019.215-2.677-1.319-5.449-1.926-8.009-1.325-5.596-1.401-11.399-2.66-17.002-.354-1.579-.88-3.594-2.282-4.582-.921-.648-2.241-.768-3.322-.814-1.646-.069-3.411-.009-4.946.664-1.059.464-1.968 1.185-2.821 1.952-.624.56 2.019.813 2.175.823.965.056 3.017.259 3.828-.468z"/><path fill="#F8DCB8" d="M53.253 12.846c.55.278 1.104.552 1.646.843.121.066.24.137.356.214-.376-.237.033.21-.246-.229.68 1.067.169 2.015-.293 3.101-.442 1.042-.322 2.216.746 2.841.882.517 2.396.297 2.84-.745 1.021-2.405 1.701-4.35.525-6.829-.711-1.498-2.068-2.068-3.479-2.781-2.382-1.207-4.484 2.376-2.095 3.585z" opacity=".81"/><path fill="#F8DCB8" d="M26.606 40.034c-2.326.417-3.958 1.956-4.517 4.278-.286 1.184-.354 2.789.497 3.787.811.95 1.693-.161 1.894-.993.026-.121.058-.241.095-.358-.154.526-.001.032.062-.089-.199.382.049-.054.105-.124.006-.007.388-.386.151-.187.499-.419 1.129-.673 1.713-.778 1.157-.207 1.384-1.812 1.384-2.768 0-.662-.106-1.359-.405-1.958-.151-.301-.542-.888-.979-.81z"/><g fill="#103653"><path d="M58.363 21.144a9.452 9.452 0 0 0 4.256-1.018c.292.024.597.039.922.039h.001c1.882 0 4.095-.451 6.769-1.378a.676.676 0 0 0 .453-.642c-.004-.55-.187-13.5-8.109-16.472-.812-.305-2.064-.709-3.557-.709-.91 0-6.265.224-7.569 1.766-.648.77-.805 1.788-.464 3.028a9.41 9.41 0 0 0-2.126 5.96c-.001 5.197 4.227 9.426 9.424 9.426zm0-1.349c-4.453 0-8.076-3.624-8.076-8.077 0-1.622.486-3.194 1.387-4.522 1.013 1.702 2.777 2.707 4.371 3.613 1.595.907 3.103 1.768 3.674 3.161a7.037 7.037 0 0 1-1.869 3.744.67.67 0 0 0 .251 1.094c.244.093.486.192.742.297.402.164.823.335 1.281.492a8.133 8.133 0 0 1-1.761.198zm-1.651-10.16c-1.914-1.088-3.72-2.117-4.321-4.138-.251-.845-.196-1.464.167-1.896.731-.867 6.027-1.29 6.54-1.29 1.259 0 2.31.334 3.084.624 6.256 2.347 7.104 12.405 7.215 14.736-2.316.769-4.234 1.143-5.854 1.143h-.001c-1.787 0-2.961-.458-4.081-.916 1.086-1.43 1.664-3.117 1.729-5.013-.001.001-1.339-1.383-4.478-3.25zM11.851 68.594c-1.702 0-3.087 1.385-3.087 3.087s1.385 3.087 3.087 3.087a3.09 3.09 0 0 0 3.087-3.087 3.09 3.09 0 0 0-3.087-3.087zm0 4.824a1.74 1.74 0 0 1-1.738-1.737c0-.959.78-1.738 1.738-1.738s1.738.779 1.738 1.738c0 .958-.779 1.737-1.738 1.737zM28.048 71.681a3.09 3.09 0 0 0 3.087 3.087c1.703 0 3.087-1.385 3.087-3.087s-1.385-3.087-3.087-3.087a3.09 3.09 0 0 0-3.087 3.087zm4.825 0a1.74 1.74 0 0 1-1.738 1.738 1.74 1.74 0 0 1-1.738-1.738 1.738 1.738 0 0 1 3.476 0z"/><path d="M72.472 56.984 66.51 28.731c-.864-4.215-4.185-7.274-7.896-7.274-3.687 0-6.98 3.007-7.871 7.16l-8.706 3.017a4.177 4.177 0 0 0-2.211 1.769.641.641 0 0 0-.199.136l-9.029 9.033a5.247 5.247 0 0 0-4.134-2.014 5.253 5.253 0 0 0-3.241 9.392L9.998 63.182l.001.004a.633.633 0 0 0-.119.154.674.674 0 0 0 .276.913 18.107 18.107 0 0 0 3.816 1.51l-.248.312a5.898 5.898 0 0 0-1.874-.306 5.919 5.919 0 0 0-5.912 5.912 5.919 5.919 0 0 0 5.912 5.913 5.92 5.92 0 0 0 5.789-7.116h7.707a5.919 5.919 0 0 0 5.789 7.116 5.919 5.919 0 0 0 5.912-5.913 5.918 5.918 0 0 0-5.627-5.904l-2.493-2.482a18.296 18.296 0 0 0 2.682-2.217.677.677 0 0 0 .183-.333l4.782-21.935a.654.654 0 0 0-.006-.302l2.631-2.633a4.23 4.23 0 0 0 4.221 3.984c.471 0 .938-.08 1.386-.235l3.898-1.351-3.949 18.712a.674.674 0 0 0 .66.814h8.379v16.782a4.824 4.824 0 0 0 4.818 4.818 4.822 4.822 0 0 0 4.818-4.818V57.799h8.381a.68.68 0 0 0 .661-.815zm-49.915-11.17a3.911 3.911 0 0 1 3.907-3.907c1.268 0 2.444.613 3.172 1.627l-5.451 5.454a3.905 3.905 0 0 1-1.628-3.174zM11.851 76.243a4.568 4.568 0 0 1-4.563-4.563c0-2.516 2.047-4.563 4.563-4.563s4.563 2.048 4.563 4.563a4.568 4.568 0 0 1-4.563 4.563zm23.848-4.562a4.568 4.568 0 0 1-4.563 4.563 4.568 4.568 0 0 1-4.563-4.563c0-2.516 2.047-4.563 4.563-4.563s4.563 2.047 4.563 4.563zm-6.016-5.731a5.934 5.934 0 0 0-3.882 3.184c-.017-.002-.034-.007-.051-.007h-8.545l-.021.003a5.948 5.948 0 0 0-2.206-2.463l.454-.572c1.102.203 2.224.307 3.346.307.837 0 1.677-.058 2.509-.174a18.04 18.04 0 0 0 6.466-2.202l1.93 1.924zm-18.068-2.477 2.402-2.403a18.2 18.2 0 0 0 9.398.405 18.1 18.1 0 0 0 7.655-3.753l-.554 2.539c-4.994 4.876-12.617 6.14-18.901 3.212zm23.279-23.292-3.339 15.317a.68.68 0 0 0-.178.126c-4.312 4.311-10.455 5.929-16.275 4.36l19.792-19.803zm9.469-1.833a2.88 2.88 0 0 1-3.532-3.977 2.857 2.857 0 0 1 1.647-1.462l15.444-5.353a2.86 2.86 0 0 1 .942-.16c1.225 0 2.317.778 2.72 1.937a2.858 2.858 0 0 1-.131 2.198 2.863 2.863 0 0 1-1.647 1.464l-15.443 5.353zm26.616 18.1H46.247l3.944-18.692 10.058-3.486a4.202 4.202 0 0 0 2.42-2.149 4.196 4.196 0 0 0 .19-3.229 4.23 4.23 0 0 0-3.994-2.845c-.471 0-.938.08-1.385.235l-5.203 1.803c.978-3.108 3.524-5.279 6.337-5.279 3.074 0 5.838 2.605 6.575 6.201l5.79 27.441zM62.083 74.58a3.46 3.46 0 0 1-1.072 2.505v-9.298a.675.675 0 0 0-1.35 0v10.101a3.474 3.474 0 0 1-4.518-3.308V57.799h6.938l.002 16.781z"/><path d="M60.336 65.287a.675.675 0 0 0 .675-.674v-4.921a.675.675 0 0 0-1.35 0v4.921c0 .373.302.674.675.674z"/></g></svg>