<svg xmlns="http://www.w3.org/2000/svg" xml:space="preserve" width="80" height="80"><path fill="#F8DCB8" d="M12.919 12.527c.208 3.57.831 7.434 2.921 10.425 2.66 3.805 8.289 3.547 12.33 2.662 1.218-.267-.878-.623-1.088-.642-1.365-.124-2.837-.022-3.096-.153-.526-.267-.982-.658-1.405-1.064-.941-.906-1.549-2.159-2.039-3.349-1.017-2.475-1.404-5.224-1.558-7.878-.046-.803-6.099-.594-6.065-.001zM47.219 12.527c.2 3.424.806 7.051 2.517 10.068 2.206 3.885 6.684 5.273 10.923 4.344.804-.176 2.765-.737 2.119-1.994-.589-1.145-2.634-1.372-3.73-1.131-.373.082-.542.236-1.173.148.148.021-.38-.135-.631-.315-1.06-.767-1.709-1.903-2.249-3.065-1.165-2.495-1.551-5.332-1.709-8.056-.135-2.289-6.195-2.197-6.067.001z" opacity=".95"/><path fill="#97D0C9" d="M6.966 50.678c2.458-2.613 4.522-5.63 7.113-8.11.68-.649 1.323-1.004 2.335-1.253.953-.235.376 4.455.275 5.8-.196 2.607-.636 5.212-.658 7.829-.036 4.139 6.379 4.135 6.415 0 .026-3.082.58-6.146.749-9.223.174-3.176.061-6.769-2.186-9.25-2.508-2.769-7.189-1.621-9.851.253-3.475 2.448-5.845 6.351-8.729 9.417-2.828 3.01 1.699 7.556 4.537 4.537zM44.582 46.974c2.521-2.678 4.687-5.679 7.239-8.319.687-.709 1.587-.772 1.2.022-.93 1.913-1.917 3.797-2.858 5.703-1.609 3.252-3.797 7.155-2.965 10.902.332 1.489 1.463 2.017 2.848 1.761 3.667-.677 7.856-.108 11.485.514 1.35.231 1.557-4.01 0-4.276-3.657-.627-7.55-1-11.25-.549-.568.069-.918.005-.865-.161.104-.327 6.175-13 6.771-14.714.465-1.336.907-3.707-.274-4.812-1.449-1.352-3.923.721-4.948 1.696-2.724 2.592-4.883 5.8-7.463 8.542-.924.981-.248 5.103 1.08 3.691z" opacity=".75"/><g fill="#103653"><path d="m45.224 27.93.025.001h.005a.847.847 0 0 0 .827-1.04c-.342-3.353.663-5.761 1.617-7.23a12.086 12.086 0 0 0 11.541 8.44c4.896 0 9.21-2.915 11.114-7.297.706 1.663 1.337 3.883 1.094 6.194-.026.24.053.48.215.658a.882.882 0 0 0 .636.279c5.228-.046 6.05-3.109 6.159-4.424.282-3.366-2.831-8.014-7.209-9.161a9.231 9.231 0 0 0-.164-1.088C70.567 8.889 66.79 2.43 58.446 2.43c-.132 0-.266.002-.4.005-5.956.142-9.643 3.685-10.394 9.979a12.1 12.1 0 0 0-.45 2.129c-5.393 1.183-7.589 4.867-7.354 8.099.221 3.029 2.43 5.204 5.376 5.288zm2.91-11.845a.847.847 0 0 0 .7-.782c.051-.825.205-1.652.457-2.458a.86.86 0 0 0 .036-.158c.638-5.556 3.584-8.435 8.758-8.557 8.097-.186 10.946 6.077 11.319 9.368.004.031.01.063.017.093.107.471.149.975.194 1.521.03.384.316.698.694.765 3.694.658 6.689 4.737 6.458 7.492-.168 1.983-1.879 2.655-3.576 2.824.063-3.386-1.348-6.427-2.251-8.018a.848.848 0 0 0-1.559.219c-1.146 4.717-5.317 8.012-10.144 8.012-5.127 0-9.456-3.692-10.291-8.78a.843.843 0 0 0-.836-.71.846.846 0 0 0-.613.263c-1.053 1.108-3.354 4.097-3.172 8.928-1.771-.46-2.675-2.041-2.787-3.587-.187-2.598 1.779-5.594 6.596-6.435zM30.157 18.092a.53.53 0 0 0 .204-1.036c-1.714-.336-4.966-.746-8.001.138a8.06 8.06 0 0 1 .328-.517.528.528 0 0 0-.666-.775l-2.771 1.35c-.479-.172-1.602-.474-3.071-.207a.528.528 0 1 0 .189 1.039c1.575-.287 2.664.215 2.672.219a.526.526 0 0 0 .461 0l1.537-.749c-.118.46.038.634.134.74a.634.634 0 0 0 .491.216c.256 0 .508-.123.645-.196 2.912-.961 6.164-.553 7.848-.222z"/><path d="M3.651 52.122c.723 0 1.447-.272 2.003-.816l1.367-1.34c.016-.016.021-.037.036-.053l8.138-6.943v14.095c0 .468.379.847.847.847h.825v16.261a3.401 3.401 0 0 0 3.398 3.398 3.4 3.4 0 0 0 3.398-3.398V57.911h.729v16.261a3.4 3.4 0 0 0 3.397 3.398 3.402 3.402 0 0 0 3.399-3.398V57.898a.84.84 0 0 0 .783-.834V43.517l5.601 5.75a.836.836 0 0 0 .517.239l.767.88a2.846 2.846 0 0 0 2.16.982c.137 0 .271-.018.401-.037.05.009.095.028.147.028l.073-.002a2.85 2.85 0 0 0 1.91-.97l.846-.971a.823.823 0 0 0 .309-.183.822.822 0 0 0 .201-.318l4.662-5.335-5.519 12.974a.847.847 0 0 0 .781 1.18h6.899v16.438a3.4 3.4 0 0 0 3.397 3.398 3.401 3.401 0 0 0 3.399-3.398V57.733h.729v16.438a3.401 3.401 0 0 0 3.399 3.398 3.4 3.4 0 0 0 3.396-3.398V57.733h6.166a.848.848 0 0 0 .798-1.133l-4.98-13.879 4.877 6.189c.004.006.011.008.015.015.006.005.006.012.012.018l1.257 1.444a2.856 2.856 0 0 0 2.159.979c.668 0 1.338-.232 1.882-.704a2.864 2.864 0 0 0 .273-4.038l-1.25-1.434-10.232-13.727-.022-.028c-.1-.122-2.49-2.982-7.783-2.982-4.94 0-7.289 2.826-7.382 2.939L41.182 44.227l-10.249-12.6c-.096-.122-2.263-2.809-6.708-3.141 5.271-.587 9.383-5.069 9.383-10.497 0-.793.071-1.583.139-2.349.217-2.419.439-4.922-1.918-6.506-1.848-1.259-9.152-1.704-10.852-1.704-2.777 0-6.177 2.258-7.746 3.591-1.78 1.504-1.429 3.043-1.089 4.533.168.743.344 1.511.344 2.431 0 5.563 4.32 10.126 9.779 10.531-3.809.416-6.172 2.948-6.279 3.066L2.97 45.87c-.035.037-.05.085-.077.126l-1.246 1.221a2.859 2.859 0 0 0 2.004 4.905zm18.318 22.05a1.705 1.705 0 0 1-3.408 0V57.911h3.408v16.261zm7.525 0c0 .939-.764 1.703-1.704 1.703a1.705 1.705 0 0 1-1.703-1.703V57.911h3.407v16.261zm27.335 0c0 .939-.764 1.703-1.703 1.703s-1.703-.764-1.703-1.703V57.733h3.406v16.439zm7.527 0c0 .939-.767 1.703-1.703 1.703a1.708 1.708 0 0 1-1.706-1.703V57.733h3.409v16.439zm12.873-26.436a1.17 1.17 0 0 1-.111 1.647 1.17 1.17 0 0 1-1.648-.111l-.704-.808 1.75-1.545.713.817zM53.143 32.47c.079-.094 1.979-2.323 6.075-2.323 4.346 0 6.304 2.167 6.46 2.348l9.771 13.106-1.766 1.557-7.542-9.577a.847.847 0 0 0-1.464.81l6.335 17.647H46.108l7.098-16.689c.164-.383.022-.828-.329-1.05s-.815-.154-1.088.161l-7.747 8.866-1.729-1.805 10.83-13.051zm-11.25 15.266a1.168 1.168 0 0 1-1.76 1.535l-.641-.734 1.625-1.691.776.89zM14.18 17.985c0-1.11-.214-2.052-.387-2.808-.316-1.39-.46-2.024.534-2.864 1.808-1.536 4.661-3.189 6.65-3.189 2.611 0 8.724.61 9.903 1.413 1.458.98 1.403 2.447 1.18 4.953-.072.802-.146 1.63-.146 2.499 0 4.893-3.976 8.873-8.864 8.873-4.891-.001-8.87-3.983-8.87-8.877zm3.056 14.741c.023-.025 2.422-2.579 6.08-2.579 4.203 0 6.205 2.428 6.293 2.538l10.437 12.832-1.868 1.943-6.446-6.619a.847.847 0 0 0-1.454.592v14.783H16.889V41.132a.845.845 0 0 0-.493-.769.846.846 0 0 0-.905.125l-9.022 7.697-1.709-1.761 12.476-13.698zM2.833 48.427l.774-.758 1.626 1.677-.765.749a1.17 1.17 0 0 1-1.651-.017 1.17 1.17 0 0 1 .016-1.651zM51.316 17.135c1.244-.452 2.21-1.925 2.72-2.867.164.427.33 1.178.33 2.475 0 .224.141.424.354.499.136.048.276.07.416.07 1.308 0 2.791-1.908 3.798-3.498v2.351c0 .238.158.447.388.509 1.918.524 7.599-.121 7.84-.148a.527.527 0 0 0 .463-.585.522.522 0 0 0-.584-.464c-1.458.168-5.334.51-7.051.256v-3.88a.527.527 0 0 0-.993-.246c-1.105 2.083-2.705 4.241-3.584 4.604-.104-2.804-1.013-3.342-1.303-3.441a.529.529 0 0 0-.656.291c-.309.717-1.359 2.67-2.498 3.084a.525.525 0 0 0-.314.675c.097.273.4.415.674.315z"/></g></svg>