<?xml version="1.0" encoding="utf-8"?>
<!-- Generator: Adobe Illustrator 15.0.0, SVG Export Plug-In . SVG Version: 6.00 Build 0)  -->
<!DOCTYPE svg PUBLIC "-//W3C//DTD SVG 1.1//EN" "http://www.w3.org/Graphics/SVG/1.1/DTD/svg11.dtd">
<svg version="1.1" id="Layer_1" xmlns="http://www.w3.org/2000/svg" xmlns:xlink="http://www.w3.org/1999/xlink" x="0px" y="0px"
	 width="653.067px" height="665.61px" viewBox="58.868 67.195 653.067 665.61"
	 enable-background="new 58.868 67.195 653.067 665.61" xml:space="preserve">
<path fill="#F8F9F7" d="M389.102,78.168C210.078,78.168,66.27,221.975,66.27,401c0,179.026,143.808,322.833,322.832,322.833
	c179.027,0,322.833-143.807,322.833-322.833C711.936,221.975,568.129,78.168,389.102,78.168z M585.738,453.827
	c-2.936,11.74-14.676,17.609-26.414,14.676l-164.352-32.285c-5.87,0-11.739-5.869-17.609-8.804
	c-11.738-5.869-17.609-14.674-17.609-26.414l0,0l5.871-234.787c0-14.674,11.738-23.479,23.478-23.479
	c11.74,0,23.478,11.739,23.478,23.479l2.936,202.504l152.613,52.828C582.803,424.479,588.672,439.153,585.738,453.827z"/>
</svg>
