<?xml version="1.0" encoding="utf-8"?>
<!-- Generator: Adobe Illustrator 15.0.0, SVG Export Plug-In . SVG Version: 6.00 Build 0)  -->
<!DOCTYPE svg PUBLIC "-//W3C//DTD SVG 1.1//EN" "http://www.w3.org/Graphics/SVG/1.1/DTD/svg11.dtd">
<svg version="1.1" id="Calque_1" xmlns="http://www.w3.org/2000/svg" xmlns:xlink="http://www.w3.org/1999/xlink" x="0px" y="0px"
	 width="716.708px" height="716.709px" viewBox="0 0 716.708 716.709" enable-background="new 0 0 716.708 716.709"
	 xml:space="preserve">
<g>
	<g>
		<path fill="#F8F9F7" d="M60.432,555.957c2.752-17.699,10.109-33.484,16.945-46.594c11.528-22.111,28.185-40.949,44.294-59.163
			c2.632-2.979,5.258-5.963,7.879-8.948c31.277-35.83,63.623-72.852,100.501-106.114c26.672-24.056,57.495-33.268,94.202-28.167
			c2.513,0.353,5.031,0.67,7.556,0.988c14.426,1.823,28.056,3.545,40.482,10.72c2.928,1.562,6.086,2.642,9.355,3.205
			c1.953,0.355,3.958,0.309,5.894-0.131c1.936-0.442,3.763-1.27,5.368-2.438c1.899-1.308,3.519-2.986,4.759-4.933
			c1.244-1.945,2.077-4.122,2.464-6.396c0.732-4.431,0.294-8.979-1.268-13.191c-1.561-4.209-4.197-7.943-7.643-10.83
			c-10.854-9.787-24.188-16.416-38.557-19.163c-15.742-3.302-31.666-5.679-47.685-7.123c-35.45-3.268-66.281,5.939-91.643,27.383
			c-24.624,20.423-48.196,42.075-70.627,64.877c-23.625,24.499-46.165,50.771-67.96,76.177l-9.631,11.218
			c-18.964,22.282-34.648,47.147-46.58,73.846c-9.672,21.357-14.932,44.44-15.468,67.875v0.071
			c-0.087,48.91,18.495,85.88,55.236,109.891c28.569,18.667,58.166,28.021,88.471,28.021c18.575-0.112,36.991-3.435,54.43-9.826
			c11.321-4.043,21.413-7.928,30.851-11.881c33.254-13.918,62.664-36.414,95.358-72.933c19.087-21.313,37.864-43.514,56.035-64.991
			c9.229-10.906,18.48-21.798,27.758-32.663c3.096-3.61,6.377-7.199,9.554-10.676c5.465-5.976,11.118-12.164,16.12-18.757
			c5.158-6.518,8.843-14.067,10.811-22.14c0.611-3.053,0.392-6.219-0.629-9.16c-1.03-2.94-2.824-5.554-5.205-7.574
			c-2.574-2.298-5.709-3.879-9.088-4.585c-3.383-0.702-6.892-0.51-10.171,0.57c-6.032,2.01-11.602,5.203-16.375,9.395
			c-5.774,5.44-11.183,11.261-16.187,17.408l-2.271,2.667c-11.715,13.688-23.404,27.4-35.067,41.125
			c-19.647,23.093-39.965,46.971-60.146,70.28c-31.812,36.732-71.465,59.315-117.907,67.123c-16.335,3.044-33.143,2.446-49.22-1.749
			c-47.61-13.267-66.916-38.854-66.639-88.313c0.142-4.165,0.591-8.311,1.348-12.407L60.432,555.957z"/>
		<path fill="#F8F9F7" d="M631.952,4.059c-21.388-5.051-43.167-4.952-64.24-4.819l-5.015,0.024
			c-24.126,0.093-46.657,7.411-68.871,22.367c-36.063,23.773-69.294,51.563-99.06,82.833
			c-19.987,21.315-40.899,44.704-63.915,71.499c-11.265,13.109-21.654,29.969-13.273,55.523c0.126,0.377,0.327,0.728,0.589,1.028
			c0.263,0.299,0.584,0.544,0.944,0.719c0.362,0.174,0.755,0.276,1.155,0.297c0.401,0.021,0.802-0.036,1.18-0.168
			c20.137-7.223,34.572-15.694,46.778-27.474l0.658-0.638c15.35-14.819,31.229-30.145,46.003-46.043
			c35.994-38.727,68.391-67.683,101.952-91.14c16.581-11.95,36.504-18.396,56.945-18.422c15.785-0.292,31.561,1.031,47.071,3.95
			c22.959,4.617,47.863,21.455,48.865,54.857c0.832,27.365-4.704,48.423-17.427,66.281c-5.18,7.268-10.293,14.601-15.411,21.936
			c-16.279,23.351-33.117,47.483-51.963,69.142c-23.722,27.25-56.419,61.432-99.083,84.136
			c-34.96,18.62-74.675,26.477-114.112,22.582c-16.434-1.075-31.975-7.848-43.938-19.148c-5.134-4.943-10.644-9.479-16.481-13.572
			c-7.956-5.457-17.243-5.202-23.11,0.644c-3.128,2.756-5.242,6.48-5.999,10.575c-0.758,4.097-0.117,8.326,1.819,12.016
			c2.986,6.476,6.563,12.667,10.684,18.493c13.407,17.999,32.687,30.026,58.954,36.763c12.01,3.035,24.358,4.544,36.744,4.488
			c19.075-0.354,38.039-2.985,56.489-7.829c37.65-9.09,72.457-29.176,106.419-61.408c57.334-54.414,103.023-117.844,136.427-167.022
			c14.998-22.102,23.276-48.059,23.834-74.747c0.644-21.169-1.057-48.194-20.069-69.418C675.287,22.07,655.17,9.542,631.952,4.059z"
			/>
	</g>
</g>
</svg>
