<?xml version="1.0" encoding="utf-8"?>
<!-- Generator: Adobe Illustrator 15.0.0, SVG Export Plug-In . SVG Version: 6.00 Build 0)  -->
<!DOCTYPE svg PUBLIC "-//W3C//DTD SVG 1.1//EN" "http://www.w3.org/Graphics/SVG/1.1/DTD/svg11.dtd">
<svg version="1.1" id="Capa_1" xmlns="http://www.w3.org/2000/svg" xmlns:xlink="http://www.w3.org/1999/xlink" x="0px" y="0px"
	 width="800px" height="800px" viewBox="0 0 800 800" enable-background="new 0 0 800 800" xml:space="preserve">
<g>
	<path fill="#F8F9F7" d="M400,0C270.736,0,165.574,105.163,165.574,234.427c0,35.252,7.636,69.132,22.689,100.721
		c0.303,0.676,0.622,1.339,0.961,2.003l177.121,342.943c6.503,12.587,19.486,20.495,33.652,20.495
		c14.169,0,27.152-7.905,33.652-20.495l177.072-342.85c0.307-0.591,0.591-1.188,0.864-1.791
		c15.153-31.68,22.835-65.662,22.835-101.026C634.427,105.163,529.264,0,400,0z M400,357.131
		c-67.659,0-122.704-55.045-122.704-122.704c0-67.656,55.044-122.701,122.704-122.701s122.704,55.045,122.704,122.701
		C522.704,302.086,467.659,357.131,400,357.131z"/>
	<path fill="#F8F9F7" d="M490.3,754.549H309.7c-12.554,0-22.726,10.172-22.726,22.726S297.146,800,309.7,800h180.6
		c12.554,0,22.726-10.172,22.726-22.726S502.851,754.549,490.3,754.549z"/>
</g>
</svg>
