<?xml version="1.0" encoding="utf-8"?>
<!-- Generator: Adobe Illustrator 15.0.0, SVG Export Plug-In . SVG Version: 6.00 Build 0)  -->
<!DOCTYPE svg PUBLIC "-//W3C//DTD SVG 1.1//EN" "http://www.w3.org/Graphics/SVG/1.1/DTD/svg11.dtd">
<svg version="1.1" id="Calque_1" xmlns="http://www.w3.org/2000/svg" xmlns:xlink="http://www.w3.org/1999/xlink" x="0px" y="0px"
	 width="653.067px" height="678.52px" viewBox="0 0 653.067 678.52" enable-background="new 0 0 653.067 678.52"
	 xml:space="preserve">
<path fill="#F8F9F7" d="M326.606,12.158C146.012,12.158-0.42,158.591-0.42,339.186c0,133.879,80.589,248.92,195.778,299.581
	c-0.876-22.774-0.146-50.222,5.694-75.041c6.278-26.571,42.046-178.26,42.046-178.26s-10.512-20.876-10.512-51.683
	c0-48.47,28.031-84.676,63.069-84.676c29.782,0,44.091,22.337,44.091,49.054c0,29.928-19.125,74.604-28.907,116.066
	c-8.175,34.747,17.373,62.923,51.682,62.923c61.901,0,103.655-79.567,103.655-173.88c0-71.684-48.324-125.263-136.067-125.263
	c-99.13,0-161.031,74.019-161.031,156.652c0,28.47,8.467,48.619,21.606,64.093c5.986,7.154,6.862,10.073,4.672,18.249
	c-1.606,5.986-5.109,20.439-6.716,26.279c-2.19,8.321-8.906,11.241-16.351,8.175c-45.697-18.687-67.012-68.616-67.012-124.971
	c0-92.853,78.399-204.246,233.736-204.246c124.826,0,207.02,90.371,207.02,187.311c0,128.329-71.391,224.103-176.506,224.103
	c-35.331,0-68.473-19.126-79.86-40.732c0,0-18.979,75.333-23.066,89.933c-6.863,25.256-20.439,50.367-32.849,70.077
	c30.102,8.88,61.321,13.402,92.706,13.431c180.596,0,327.028-146.431,327.028-327.029
	C653.489,158.737,507.202,12.158,326.606,12.158L326.606,12.158z"/>
</svg>
