<?xml version="1.0" encoding="utf-8"?>
<!-- Generator: Adobe Illustrator 15.0.0, SVG Export Plug-In . SVG Version: 6.00 Build 0)  -->
<!DOCTYPE svg PUBLIC "-//W3C//DTD SVG 1.1//EN" "http://www.w3.org/Graphics/SVG/1.1/DTD/svg11.dtd">
<svg version="1.1" id="Calque_1" xmlns="http://www.w3.org/2000/svg" xmlns:xlink="http://www.w3.org/1999/xlink" x="0px" y="0px"
	 width="800px" height="574.803px" viewBox="0 0 800 574.803" enable-background="new 0 0 800 574.803" xml:space="preserve">
<g>
	<path fill="#96D2CA" d="M682.945,511.145h0.014c64.538,0,117.041-52.505,117.041-117.04c0-64.534-52.503-117.039-117.041-117.039
		c-0.271,0-0.543,0-0.813,0.003c-8.195-48.622-50.612-85.789-101.516-85.789c-18.068,0-35.359,4.585-50.753,13.366
		c-14.465-14.979-31.903-26.271-51.077-33.277C438.412,102.598,364.344,60.03,284.482,60.03
		c-124.197,0-225.238,101.042-225.238,225.235c0,124.374,101.042,225.561,225.238,225.561L682.945,511.145L682.945,511.145z"/>
	<g>
		<path fill="#103653" d="M285.202,48.841c8.801,0,15.936-7.134,15.936-15.936V15.933c0-8.801-7.135-15.936-15.936-15.936
			c-8.802,0-15.936,7.134-15.936,15.936v16.973C269.266,41.707,276.4,48.841,285.202,48.841z M173.93,58.209
			c2.542,6.138,8.475,9.842,14.729,9.842c2.031,0,4.099-0.391,6.092-1.217c8.133-3.367,11.994-12.688,8.625-20.82l-6.494-15.678
			c-3.367-8.131-12.692-11.997-20.82-8.625c-8.133,3.367-11.994,12.69-8.625,20.82L173.93,58.209L173.93,58.209z M95.251,117.787
			c3.113,3.113,7.191,4.667,11.269,4.667s8.158-1.556,11.269-4.667c6.224-6.223,6.224-16.314,0-22.537L97.303,74.764
			c-6.224-6.223-16.314-6.223-22.538,0c-6.224,6.226-6.224,16.314,0,22.538L95.251,117.787z M30.334,196.88l15.678,6.493
			c1.93,0.804,4,1.218,6.092,1.218c6.253,0,12.186-3.705,14.73-9.843c3.367-8.131-0.494-17.453-8.625-20.82l-15.678-6.492
			c-8.13-3.366-17.453,0.492-20.82,8.625C18.341,184.19,22.205,193.51,30.334,196.88z M48.844,285.201
			c0-8.802-7.134-15.938-15.936-15.938H15.936C7.134,269.263,0,276.399,0,285.201c0,8.802,7.134,15.937,15.936,15.937h16.97
			C41.708,301.137,48.844,294.003,48.844,285.201z M46.014,367.023l-15.678,6.494c-8.133,3.367-11.994,12.69-8.625,20.82
			c2.542,6.138,8.475,9.842,14.729,9.842c2.031,0,4.099-0.391,6.092-1.217l15.678-6.494c8.133-3.367,11.992-12.688,8.625-20.82
			C63.469,367.519,54.144,363.655,46.014,367.023L46.014,367.023z M95.534,452.331l-12,12c-6.223,6.224-6.225,16.313,0,22.537
			c3.113,3.111,7.191,4.668,11.269,4.668c4.078,0,8.156-1.559,11.269-4.668l12-12c6.224-6.225,6.225-16.313,0-22.537
			C111.85,446.106,101.759,446.11,95.534,452.331z M194.567,504.008c-8.128-3.368-17.453,0.494-20.82,8.625l-11.991,28.949
			c-3.367,8.133,0.494,17.453,8.625,20.82c1.931,0.802,4.001,1.216,6.092,1.217c6.253,0,12.188-3.705,14.729-9.842l11.991-28.949
			C206.56,516.698,202.698,507.378,194.567,504.008z M277.13,525.961c-8.802,0-15.936,7.134-15.936,15.936v16.973
			c0,8.802,7.134,15.936,15.936,15.936c8.801,0,15.936-7.134,15.936-15.936v-16.973C293.065,533.094,285.931,525.961,277.13,525.961
			z M464.557,121.782c4.229,0.005,8.283-1.675,11.271-4.667l15.239-15.242c6.223-6.223,6.223-16.314,0-22.537
			c-6.228-6.224-16.316-6.224-22.539,0l-15.241,15.242c-6.225,6.223-6.225,16.313,0,22.537
			C456.272,120.108,460.329,121.787,464.557,121.782L464.557,121.782z M375.653,66.834c1.931,0.804,4.001,1.217,6.092,1.217
			c6.253,0,12.186-3.705,14.729-9.842l6.494-15.678c3.367-8.131-0.494-17.453-8.625-20.82c-8.13-3.369-17.453,0.494-20.818,8.625
			l-6.494,15.678C363.659,54.141,367.521,63.465,375.653,66.834z"/>
		<path fill="#103653" d="M682.945,511.145h0.014c64.538,0,117.041-52.505,117.041-117.04c0-64.534-52.503-117.039-117.041-117.039
			c-0.271,0-0.543,0-0.813,0.003c-8.195-48.622-50.612-85.789-101.516-85.789c-18.068,0-35.359,4.585-50.753,13.366
			c-14.465-14.979-31.903-26.271-51.077-33.277C438.412,102.598,364.344,60.03,284.482,60.03
			c-124.197,0-225.238,101.042-225.238,225.235c0,124.374,101.042,225.561,225.238,225.561L682.945,511.145L682.945,511.145z
			 M91.114,285.269c0-106.624,86.744-193.366,193.365-193.366c58.572,0,113.527,26.67,149.922,71.256
			c-0.894-0.019-1.778-0.067-2.675-0.067c-67.567,0-123.983,48.925-134.785,113.997c-63.42,1.297-114.613,53.291-114.613,117.018
			c0,24.974,7.93,48.115,21.374,67.118C137.308,430.517,91.114,363.201,91.114,285.269L91.114,285.269z M682.972,479.272
			l-383.598-0.317c-46.962,0-85.169-38.063-85.169-84.852c0-46.963,38.208-85.167,85.169-85.167c3.325,0.005,6.648,0.205,9.95,0.602
			c8.737,1.021,16.649-5.235,17.671-13.974c0.042-0.355,0.071-0.714,0.089-1.071c2.747-55.813,48.712-99.526,104.646-99.526
			c32.563,0,62.725,14.768,82.753,40.508c2.599,3.345,6.423,5.515,10.626,6.031c4.202,0.52,8.438-0.657,11.773-3.268
			c12.607-9.869,27.734-15.086,43.747-15.086c39.157,0,71.042,31.855,71.073,71.019c0.005,8.8,7.143,15.929,15.941,15.924
			c0.801-0.001,1.599-0.062,2.39-0.182c4.276-0.648,8.598-0.974,12.925-0.974c46.963,0,85.169,38.206,85.169,85.167
			C768.128,441.062,729.925,479.267,682.972,479.272z"/>
		<path fill="#103653" d="M629.713,430.828H447.81c-8.8,0-15.937,7.134-15.937,15.936s7.137,15.938,15.937,15.938h181.904
			c8.8,0,15.938-7.137,15.938-15.938S638.513,430.828,629.713,430.828z M689.859,430.828h-7.336
			c-8.802,0-15.938,7.134-15.938,15.936s7.136,15.938,15.938,15.938h7.336c8.8,0,15.936-7.137,15.936-15.938
			S698.659,430.828,689.859,430.828z"/>
	</g>
</g>
</svg>
