<svg xmlns="http://www.w3.org/2000/svg" xml:space="preserve" width="35.176" height="27.697" viewBox="-159.262 226.662 35.176 27.697"><path fill="#ec407a" d="M-148.009 323.366q-.088 0-.088.087 0 .088.088.088c.088 0 .088-.029.088-.088q0-.086-.088-.087"/><path fill="#96d2ca" d="M-130.682 242.642c-.195.087-.389.177-.586.259-.194.081-.391.153-.586.229a27.2 27.2 0 0 1-9.878 1.867c-3.321 0-6.625-.604-9.761-1.796-.197-.075-.391-.162-.586-.241-.196-.08-.392-.157-.586-.242a27 27 0 0 1-1.817-.858l-.323-.169v1.049a10.2 10.2 0 0 0 1.17 4.751c.096.184.201.36.307.537 1.806 3.006 5.089 5.03 8.842 5.03h5.599c3.756 0 7.042-2.027 8.847-5.037a9.6 9.6 0 0 0 .586-1.119c.565-1.275.885-2.681.885-4.162v-1.106l-1.114.549c-.33.163-.665.31-.999.459"/><path fill="#d8d9da" d="M-129.949 238.63a26.92 26.92 0 0 1-24.271-.322l-1.173-.616v2.932l1.173.615c7.563 3.958 16.591 4.104 24.271.323l1.964-.967v-2.932z"/><path fill="#96d2ca" d="M-155.378 236.948c0 2.59 6.129 4.69 13.689 4.69s13.689-2.1 13.689-4.69-6.129-4.69-13.689-4.69-13.689 2.1-13.689 4.69"/><path fill="#f9faf7" d="M-142.893 238.412c-.499.146-.997.176-1.495.205-1.153.074-2.348.167-3.583 1.632 1.882.454 3.806.701 5.733.734.099-.388.138-.806.166-1.194.029-.176.029-.352.059-.498.029-.176.117-.352.293-.44l14.334-8.149c.352-.234.557-.586.645-.997s0-.85-.264-1.172a1.57 1.57 0 0 0-1.026-.674c-.411-.088-.85 0-1.173.264l-13.484 10.201a.26.26 0 0 1-.205.088"/><path fill="#96d2ca" d="M-155.949 241.157h-.909c-.674 0-1.231.557-1.231 1.231v3.283c0 .674.557 1.231 1.231 1.231h1.691a11.4 11.4 0 0 1-.783-4.133zM-126.49 241.157h-.879v1.583c0 1.47-.286 2.87-.788 4.163h1.667c.674 0 1.231-.557 1.231-1.231v-3.283c0-.675-.556-1.232-1.231-1.232"/><path fill="#103653" d="M-156.858 248.204h2.233c1.927 3.654 5.76 6.156 10.167 6.156h5.569c4.423 0 8.26-2.498 10.19-6.156h2.209c1.319 0 2.404-1.084 2.404-2.433v-3.283a2.414 2.414 0 0 0-2.404-2.403h-.879v-2.228c0-.126-.044-.694-.044-.88 0-1.248-.999-2.341-2.874-3.241l3.592-2.035.029-.029a2.8 2.8 0 0 0 1.144-1.759 2.85 2.85 0 0 0-.44-2.052 2.8 2.8 0 0 0-1.759-1.143 2.66 2.66 0 0 0-2.081.439l-6.492 4.915a38 38 0 0 0-5.395-.373c-3.723 0-7.24.498-9.878 1.407-2.873.997-4.397 2.316-4.397 3.87 0 .207-.015.798-.015.91v2.199h-.879a2.414 2.414 0 0 0-2.404 2.403v3.313a2.415 2.415 0 0 0 2.404 2.403m29.489-5.365v-1.583h.879c.674 0 1.231.557 1.231 1.231v3.283c0 .674-.557 1.231-1.231 1.231h-1.667a11.5 11.5 0 0 0 .788-4.162m-1.216-5.863c0 .208-.075.419-.196.63l-1.402.69a26.2 26.2 0 0 1-10.785 2.646c.077-.39.114-.77.144-1.093v-.147l9.267-5.249c1.885.745 2.972 1.656 2.972 2.523m-13.06 1.847c-.176.088-.264.264-.293.44-.029.146-.029.322-.059.498-.028.388-.067.806-.166 1.194a26.4 26.4 0 0 1-5.733-.734c1.235-1.466 2.43-1.559 3.583-1.632.499-.029.997-.059 1.495-.205a.27.27 0 0 0 .205-.088l13.484-10.201c.323-.264.762-.352 1.173-.264a1.57 1.57 0 0 1 1.026.674c.264.322.352.762.264 1.172s-.293.762-.645.997zm-.043-5.951c1.44 0 2.8.076 4.059.211l-5.568 4.216c-.352.059-.733.088-1.143.118-1.4.075-3.077.179-4.759 2.479-5.274-1.489-5.496-2.289-5.496-2.289-.121-.211-.195-.422-.195-.631-.002-1.935 5.392-4.104 13.102-4.104m-13.089 7.593v-1.296c6.996 3.29 13.356 3.017 13.374 2.987 4.021-.04 8.034-.945 11.719-2.746l1.114-.557v1.613l-.417.205-1.195.586c-.286.14-.578.265-.868.394-.247.11-.494.222-.744.324a26.4 26.4 0 0 1-20.459-.245 26 26 0 0 1-1.673-.794l-.495-.264-.384-.205h.028zm-.029 1.326.323.169a28 28 0 0 0 1.817.858q.291.124.586.242c.196.079.389.167.586.241a27.5 27.5 0 0 0 9.761 1.796c3.357 0 6.71-.63 9.878-1.867.195-.077.393-.148.586-.229.197-.082.391-.172.586-.259.334-.149.668-.295.997-.458l1.114-.549v1.106a10.24 10.24 0 0 1-1.168 4.749q-.144.27-.303.532c-1.805 3.01-5.091 5.037-8.847 5.037h-5.599c-3.753 0-7.037-2.023-8.842-5.03a11 11 0 0 1-.307-.537 10.246 10.246 0 0 1-1.17-4.751v-1.05zm-3.283.696c0-.674.557-1.231 1.231-1.231h.909v1.612c0 1.458.284 2.848.783 4.133h-1.691a1.24 1.24 0 0 1-1.231-1.231z"/></svg>