<?xml version="1.0" encoding="utf-8"?>
<!-- Generator: Adobe Illustrator 15.0.0, SVG Export Plug-In . SVG Version: 6.00 Build 0)  -->
<!DOCTYPE svg PUBLIC "-//W3C//DTD SVG 1.1//EN" "http://www.w3.org/Graphics/SVG/1.1/DTD/svg11.dtd">
<svg version="1.1" id="Calque_1" xmlns="http://www.w3.org/2000/svg" xmlns:xlink="http://www.w3.org/1999/xlink" x="0px" y="0px"
	 width="29.387px" height="29.387px" viewBox="0 0 29.387 29.387" enable-background="new 0 0 29.387 29.387" xml:space="preserve">
<circle fill="#96D2CA" cx="14.695" cy="14.695" r="14.063"/>
<path fill="#F79927" d="M5.328,24.009c2.453,2.482,5.799,3.879,9.29,3.879h0.037c7.314,0,13.214-5.875,13.232-13.114
	C27.91,7.44,22.028,1.522,14.773,1.5c-0.026,0-0.052,0.002-0.077,0.002l0.002,13.858L1.944,8.694
	c-0.359,1.209-0.438,4.659-0.441,5.923C1.492,18.21,2.851,21.516,5.328,24.009z"/>
<path fill="#103653" d="M12.475,16.332l-6.125-3.85c-0.454-0.257-0.65-0.789-0.395-1.246c0.342-0.548,0.962-0.835,1.512-0.493
	l6.452,2.768l0.126-8.748c0-0.506,0.507-1.014,1.014-1.014c0.508,0,1.016,0.381,1.016,1.014l0.254,10.143
	c0,0.507-0.322,1.287-1.057,1.6C13.506,17.194,12.475,16.332,12.475,16.332z"/>
<path fill="#103653" d="M14.734,29.388h-0.042c-3.993-0.01-7.67-1.545-10.43-4.321C1.513,22.317-0.022,18.58,0,14.693
	c0.004-1.532,0.221-2.97,0.644-4.349c0.124-0.396,0.544-0.616,0.939-0.492c0.394,0.122,0.613,0.538,0.495,0.934
	c-0.38,1.24-0.575,2.531-0.578,3.831c-0.01,3.594,1.349,6.899,3.826,9.393c2.453,2.482,5.799,3.879,9.29,3.879h0.037
	c7.314,0,13.214-5.875,13.232-13.114C27.908,7.44,22.026,1.522,14.771,1.5c-2.746-0.031-5.434,0.805-7.678,2.389
	C6.754,4.127,6.286,4.046,6.048,3.707S5.892,2.901,6.23,2.662c2.465-1.738,5.408-2.669,8.425-2.663h0.042
	c8.161,0.023,14.715,6.617,14.691,14.695C29.365,22.843,22.794,29.388,14.734,29.388z M2.209,9.198c-0.414,0-0.749-0.335-0.75-0.749
	c0-0.115,0.026-0.23,0.08-0.336C1.618,7.955,1.7,7.798,1.784,7.643c0.197-0.363,0.653-0.498,1.018-0.3s0.498,0.654,0.3,1.019
	C3.027,8.5,2.953,8.641,2.881,8.784C2.754,9.038,2.493,9.198,2.209,9.198z"/>
</svg>
