<svg xmlns="http://www.w3.org/2000/svg" xml:space="preserve" width="34.207" height="27.732" viewBox="365.793 357.316 34.207 27.732"><path fill="#96D2CA" d="m398.183 357.576-.033.001c-1.645.015-3.771.108-5.638.686a9.87 9.87 0 0 0-.486.165c-1.893-.767-4.733-1.111-9.129-1.111-4.397 0-7.237.345-9.13 1.111a9.87 9.87 0 0 0-.486-.165c-1.866-.577-3.993-.671-5.638-.686l-.033-.001c-1.817 0-1.817 1.588-1.817 2.109V373.351a.58.58 0 0 0 .005.072l.001.016c.004.029.01.058.018.086l.002.007a.868.868 0 0 0 .024.072c.003.009.008.016.011.024l.012.027c.046.094 1.15 2.314 2.778 4.571 2.202 3.054 4.267 4.654 6.14 4.76 2.646 1.501 4.864 2.062 8.112 2.062 1.812 0 3.303-.175 4.728-.59.028-.007.055-.014.082-.023 1.099-.328 2.161-.801 3.303-1.448 1.873-.105 3.937-1.706 6.14-4.76a35.94 35.94 0 0 0 2.777-4.571l.012-.027.011-.024a.468.468 0 0 0 .024-.072l.002-.007a.623.623 0 0 0 .017-.086l.002-.016a.845.845 0 0 0 .004-.072l.001-.011v-13.655c.001-.522.001-2.11-1.816-2.11z"/><g fill="#103653"><path d="m398.183 357.576-.033.001c-1.645.015-3.771.108-5.638.686a9.87 9.87 0 0 0-.486.165c-1.893-.767-4.733-1.111-9.129-1.111-4.397 0-7.237.345-9.13 1.111a9.87 9.87 0 0 0-.486-.165c-1.866-.577-3.993-.671-5.638-.686l-.033-.001c-1.817 0-1.817 1.588-1.817 2.109V373.351a.58.58 0 0 0 .005.072l.001.016c.004.029.01.058.018.086l.002.007a.868.868 0 0 0 .024.072c.003.009.008.016.011.024l.012.027c.046.094 1.15 2.314 2.778 4.571 2.202 3.054 4.267 4.654 6.14 4.76 2.646 1.501 4.864 2.062 8.112 2.062 1.812 0 3.303-.175 4.728-.59.028-.007.055-.014.082-.023 1.099-.328 2.161-.801 3.303-1.448 1.873-.105 3.937-1.706 6.14-4.76a35.94 35.94 0 0 0 2.777-4.571l.012-.027.011-.024a.468.468 0 0 0 .024-.072l.002-.007a.623.623 0 0 0 .017-.086l.002-.016a.845.845 0 0 0 .004-.072l.001-.011v-13.655c.001-.522.001-2.11-1.816-2.11zm-30.965 2.109c0-.537.092-.639.092-.64.001-.001.064-.044.299-.044h.019c1.548.015 3.541.1 5.23.623.22.067.428.142.625.221.005.003.01.003.016.006 1.423.573 2.275 1.437 2.593 2.627.476 1.774-.206 3.481-2.083 5.218-.554.514-1.179 1-1.843 1.465l-.013.009c-1.417.989-3.01 1.877-4.471 2.689l-.465.259v-12.433h.001zm.234 13.937c.298-.168.605-.34.925-.518 1.193-.664 2.505-1.395 3.758-2.208.205.728.391 1.354.561 1.924.745 2.503 1.175 3.947 1.516 8.618-2.574-.822-5.469-5.39-6.76-7.816zm22.672 8.227c-.683.379-1.33.686-1.976.933-.006-1.285.088-2.718.155-3.559a.713.713 0 1 0-1.421-.113c-.076.959-.187 2.668-.153 4.115-1.146.279-2.364.397-3.832.397-2.937 0-4.874-.469-7.228-1.774-.358-5.24-.833-6.835-1.607-9.436-.204-.685-.431-1.447-.685-2.371 2.824-2.065 4.977-4.633 4.093-7.934l-.006-.021c.998-.14 2.421-.248 3.75-.278a.713.713 0 0 0-.033-1.425c-1.574.035-3.239.175-4.311.353a5.087 5.087 0 0 0-1.321-1.382c1.698-.417 4.089-.614 7.347-.614s5.649.198 7.347.614c-.976.707-1.62 1.628-1.921 2.754-.884 3.3 1.269 5.867 4.092 7.934-.253.924-.48 1.688-.684 2.372-.774 2.601-1.249 4.195-1.606 9.435zm5.868-4.456c-1.602 2.222-3.136 3.619-4.41 4.04.34-4.667.77-6.11 1.515-8.613.17-.57.356-1.195.561-1.924 1.253.813 2.565 1.544 3.758 2.208.318.178.625.349.921.516a35.178 35.178 0 0 1-2.345 3.773zm2.582-5.275-.465-.259c-1.457-.811-3.045-1.694-4.459-2.681l-.018-.013a17.216 17.216 0 0 1-1.85-1.47c-1.877-1.736-2.559-3.443-2.083-5.218.319-1.189 1.169-2.053 2.592-2.627.006-.002.012-.003.017-.006.198-.079.406-.153.625-.221 1.69-.523 3.683-.608 5.23-.623h.019c.235 0 .298.043.298.043.001.002.093.104.093.641v12.434h.001z"/><path d="M371.881 365.865c1.179 0 2.138-.959 2.138-2.138s-.959-2.138-2.138-2.138c-1.179 0-2.138.959-2.138 2.138s.959 2.138 2.138 2.138zm0-2.851a.713.713 0 1 1-.001 1.425.713.713 0 0 1 .001-1.425zM393.947 361.59c-1.179 0-2.138.959-2.138 2.138s.959 2.138 2.138 2.138c1.179 0 2.138-.959 2.138-2.138s-.959-2.138-2.138-2.138zm0 2.85a.713.713 0 1 1 .002-1.426.713.713 0 0 1-.002 1.426zM383.33 360.412l-.018-.002a.712.712 0 1 0-.089 1.423l.018.001.043.001a.712.712 0 0 0 .046-1.423zM387.89 376.413a.714.714 0 0 0-.8.613l-.009.067a.712.712 0 1 0 1.414.179l.007-.06a.711.711 0 0 0-.612-.799z"/></g></svg>