<?xml version="1.0" encoding="utf-8"?>
<!-- Generator: Adobe Illustrator 15.0.0, SVG Export Plug-In . SVG Version: 6.00 Build 0)  -->
<!DOCTYPE svg PUBLIC "-//W3C//DTD SVG 1.1//EN" "http://www.w3.org/Graphics/SVG/1.1/DTD/svg11.dtd">
<svg version="1.1" id="Calque_1" xmlns="http://www.w3.org/2000/svg" xmlns:xlink="http://www.w3.org/1999/xlink" x="0px" y="0px"
	 width="29.387px" height="29.387px" viewBox="0 0 29.387 29.387" enable-background="new 0 0 29.387 29.387" xml:space="preserve">
<circle fill="#96D2CA" cx="14.695" cy="14.695" r="14.063"/>
<path fill="#103653" d="M14.734,29.388h-0.042c-3.994-0.01-7.67-1.545-10.43-4.321C1.513,22.317-0.022,18.58,0,14.693
	c0.004-1.533,0.221-2.97,0.644-4.349c0.124-0.396,0.544-0.616,0.939-0.492c0.394,0.122,0.614,0.538,0.495,0.933
	c-0.38,1.241-0.575,2.532-0.578,3.831c-0.01,3.594,1.349,6.9,3.826,9.393c2.454,2.482,5.799,3.879,9.29,3.879h0.038
	c7.314,0,13.213-5.875,13.232-13.114C27.908,7.44,22.026,1.522,14.771,1.5c-2.746-0.031-5.434,0.805-7.678,2.389
	C6.754,4.127,6.286,4.046,6.048,3.707S5.892,2.901,6.23,2.662c2.465-1.738,5.408-2.669,8.425-2.663h0.042
	c8.161,0.024,14.714,6.617,14.691,14.696C29.365,22.843,22.794,29.388,14.734,29.388z M2.209,9.198c-0.414,0-0.749-0.335-0.75-0.749
	c0-0.116,0.027-0.231,0.08-0.336C1.618,7.955,1.7,7.798,1.784,7.643c0.198-0.363,0.654-0.498,1.018-0.3
	c0.364,0.198,0.498,0.654,0.3,1.019C3.027,8.5,2.953,8.641,2.881,8.784C2.754,9.038,2.493,9.198,2.209,9.198z"/>
<line fill="none" x1="15.03" y1="-2.473" x2="15.03" y2="34.194"/>
<path fill="#F79927" d="M27.887,14.777C27.908,7.531,22.164,1.679,15.03,1.518v26.354C22.168,27.673,27.867,21.891,27.887,14.777z"
	/>
<path fill="#103653" d="M16.46,15.894l-0.062,8.479c0.063,0.645-0.469,1.073-1.111,1.136c-0.523,0.025-0.912-0.387-0.939-0.907
	l-0.737-8.637l-0.013-1.058l0.254-10.143c0-0.633,0.508-1.014,1.015-1.014s1.014,0.508,1.014,1.014l0.417,9.929L16.46,15.894z"/>
</svg>
