<svg xmlns="http://www.w3.org/2000/svg" xml:space="preserve" width="30" height="30"><path fill="#96D2CA" d="M8.907 19.999v7.499a1.874 1.874 0 0 0 3.75.001v-7.5a1.88 1.88 0 0 0-1.875-1.874 1.88 1.88 0 0 0-1.875 1.874z"/><path fill="#96D2CA" d="M7.813 15.156a2.97 2.97 0 0 0 5.937 0c0-1.64-1.329-3.853-2.969-3.853-1.639 0-2.968 2.213-2.968 3.853zm8.437 0a2.969 2.969 0 1 0 5.938.002v-.002H16.25z"/><path fill="#96D2CA" d="M19.219 18.125a1.881 1.881 0 0 0-1.875 1.874v7.499a1.877 1.877 0 0 0 1.875 1.874 1.88 1.88 0 0 0 1.874-1.874v-7.499a1.88 1.88 0 0 0-1.874-1.874z"/><path fill="#96D2CA" d="M17.344 25.672a10.9 10.9 0 0 1-4.688 0v1.826c0 .4-.127.773-.345 1.08 1.774.35 3.603.35 5.376 0a1.872 1.872 0 0 1-.345-1.08l.002-1.826z"/><path fill="#96D2CA" d="M8.907 27.498V24.07a10.91 10.91 0 0 1-1.633-1.344c-3.942-3.941-4.228-10.209-.857-14.487l.025-.033c.256-.323.534-.634.832-.933 4.25-4.249 11.203-4.249 15.453 0 4.269 4.268 4.269 11.186 0 15.454a10.933 10.933 0 0 1-1.634 1.344v3.361a13.811 13.811 0 0 0 3.694-2.646c4.221-4.222 5.145-10.489 2.773-15.607l1.467-2.027c.416-.572.5-1.318 0-1.818L24.666.972c-.5-.5-1.246-.415-1.818 0L20.82 2.438C15.701.068 9.434.993 5.213 5.213.993 9.434.068 15.702 2.438 20.82L.971 22.847c-.414.571-.5 1.317 0 1.817l4.363 4.362c.5.5 1.246.414 1.818 0l1.771-1.281a2.022 2.022 0 0 1-.016-.247z"/><path fill="#96D2CA" d="M19.219 18.125a2.969 2.969 0 0 1-2.969-2.969h5.938a2.97 2.97 0 0 1-2.969 2.969zm-8.438 0a2.97 2.97 0 0 1-2.968-2.969c0-1.64 1.329-3.853 2.968-3.853 1.64 0 2.969 2.213 2.969 3.853a2.97 2.97 0 0 1-2.969 2.969zm1.875 1.874v5.673a10.9 10.9 0 0 0 4.688 0v-5.673c0-1.03.844-1.874 1.875-1.874s1.874.844 1.874 1.874v4.071l.179-.123c.516-.36 1.002-.768 1.455-1.221 4.25-4.25 4.25-11.204 0-15.454s-11.204-4.25-15.453 0c-.298.299-.576.61-.832.933l-.025.034c-3.37 4.278-3.084 10.546.857 14.488.5.5 1.047.951 1.634 1.344V20a1.88 1.88 0 0 1 1.875-1.874c1.032 0 1.873.843 1.873 1.873z"/><g fill="#103653"><path d="M29.471 4.893 25.107.53c-.683-.682-1.737-.708-2.627-.064l-1.734 1.255a14.42 14.42 0 0 0-8.17-.982 14.366 14.366 0 0 0-7.805 4.032 14.374 14.374 0 0 0-4.033 7.805c-.473 2.761-.131 5.6.982 8.17L.464 22.48c-.643.89-.617 1.944.064 2.627l4.363 4.363c.354.352.806.53 1.284.53.446 0 .915-.154 1.344-.465l1.096-.793a2.504 2.504 0 0 0 2.167 1.255c.692 0 1.32-.283 1.773-.739 1.618.277 3.273.277 4.89 0 .453.456 1.08.739 1.773.739a2.505 2.505 0 0 0 2.477-2.171 14.457 14.457 0 0 0 3.533-2.598 14.364 14.364 0 0 0 4.033-7.806 14.42 14.42 0 0 0-.982-8.17l1.257-1.735c.642-.887.616-1.942-.065-2.624zM10.781 17.5a2.349 2.349 0 0 1-2.344-2.344c0-1.379 1.159-3.228 2.344-3.228 1.185 0 2.344 1.848 2.344 3.228a2.347 2.347 0 0 1-2.344 2.344zm0 11.247c-.689 0-1.25-.562-1.25-1.249v-7.499c0-.688.561-1.249 1.25-1.249s1.25.561 1.25 1.249v7.499c0 .257-.079.496-.213.695-.009.012-.018.022-.026.035-.234.327-.61.519-1.011.519zm2.427-.653c.047-.191.072-.391.072-.596v-1.076c1.14.176 2.298.176 3.438 0v1.076c0 .205.025.404.072.596-1.19.162-2.39.162-3.582 0zm8.271-12.313c-.274.988-1.184 1.719-2.26 1.719s-1.986-.729-2.26-1.719h4.52zm-2.26 12.966c-.416 0-.783-.204-1.012-.519-.008-.013-.018-.022-.025-.035a1.238 1.238 0 0 1-.213-.695v-7.499c0-.688.561-1.249 1.25-1.249.688 0 1.249.561 1.249 1.249v7.499a1.25 1.25 0 0 1-1.249 1.249zm9.302-21.961-1.467 2.027a.627.627 0 0 0-.062.629c2.319 5.009 1.256 10.998-2.649 14.902a13.15 13.15 0 0 1-2.627 2.039v-1.986a11.503 11.503 0 0 0 1.45-1.229A11.475 11.475 0 0 0 26.55 15c0-3.085-1.201-5.986-3.384-8.168a11.463 11.463 0 0 0-6.618-3.279 11.46 11.46 0 0 0-7.252 1.401.624.624 0 0 0 .618 1.086 10.329 10.329 0 0 1 12.369 1.675 10.237 10.237 0 0 1 3.018 7.284 10.231 10.231 0 0 1-3.584 7.81v-2.812a2.49 2.49 0 0 0-.701-1.733 3.602 3.602 0 0 0 1.797-3.11v-3.853a.625.625 0 1 0-1.25 0v3.228h-1.72v-3.228a.625.625 0 1 0-1.25 0v3.228h-1.719v-3.228a.625.625 0 1 0-1.25 0v3.853c0 1.327.724 2.487 1.795 3.11a2.486 2.486 0 0 0-.701 1.733v5.157c-1.138.194-2.3.195-3.438 0v-5.157c0-.673-.268-1.284-.702-1.733a3.599 3.599 0 0 0 1.796-3.11c0-.947-.368-2.032-.984-2.902-.72-1.016-1.646-1.575-2.609-1.575-.963 0-1.889.56-2.609 1.575-.617.87-.984 1.955-.984 2.902 0 1.327.723 2.487 1.795 3.11a2.492 2.492 0 0 0-.702 1.733v2.812a10.817 10.817 0 0 1-.566-.525c-3.211-3.211-3.934-8.236-1.757-12.221a.625.625 0 0 0-1.098-.598 11.472 11.472 0 0 0-1.295 7.181 11.456 11.456 0 0 0 3.266 6.523c.447.447.934.859 1.45 1.229v3.043l-1.496 1.082c-.288.209-.725.352-1.01.064l-4.363-4.361c-.285-.285-.144-.723.064-1.011l1.467-2.026a.624.624 0 0 0 .061-.629C.686 15.549 1.75 9.56 5.655 5.655c3.904-3.905 9.894-4.97 14.902-2.65a.624.624 0 0 0 .629-.061l2.026-1.467c.288-.208.726-.35 1.011-.064l4.362 4.363c.287.286.145.723-.064 1.01z"/><path d="M6.831 7.716a.626.626 0 0 0-.878.101l-.027.035a.624.624 0 1 0 .981.773l.024-.031a.625.625 0 0 0-.1-.878z"/></g></svg>