<svg xmlns="http://www.w3.org/2000/svg" xml:space="preserve" width="27.66" height="27.652" viewBox="164.195 162.598 27.66 27.652"><path fill="#96D2CA" d="M174.607 179.84c-3.927-3.927-3.927-10.293 0-14.221a9.965 9.965 0 0 1 1.118-.964c-6.506 1.262-10.757 7.56-9.495 14.067 1.262 6.507 7.561 10.758 14.067 9.496a12.004 12.004 0 0 0 9.496-9.496c-.294.395-.617.769-.965 1.118-3.927 3.927-10.294 3.927-14.221 0z"/><path fill="#103653" d="M178.026 190.251c-7.636.003-13.829-6.186-13.832-13.821-.003-7.637 6.185-13.83 13.821-13.832.8-.001 1.598.068 2.386.206a.913.913 0 0 1-.011 1.801 8.22 8.22 0 0 0-6.782 9.443 8.22 8.22 0 0 0 13.927 4.481 8.167 8.167 0 0 0 2.309-4.481.913.913 0 0 1 .897-.768c.443 0 .823.32.898.756 1.319 7.52-3.708 14.687-11.229 16.004-.786.141-1.584.211-2.384.211zm-2.279-25.605c-6.507 1.263-10.758 7.561-9.496 14.068 1.263 6.505 7.561 10.758 14.067 9.495a12.002 12.002 0 0 0 9.495-9.495c-.294.395-.617.769-.965 1.118-3.927 3.927-10.293 3.927-14.22 0-3.927-3.927-3.927-10.294 0-14.221a9.97 9.97 0 0 1 1.119-.965z"/><path fill="#103653" d="M182.594 177.337h-4.567a.913.913 0 0 1-.647-1.559l3.009-3.007h-2.362a.914.914 0 0 1 0-1.828h4.567a.914.914 0 0 1 .646 1.561l-3.009 3.007h2.362a.913.913 0 1 1 .001 1.826zm8.345-8.345h-4.567a.914.914 0 0 1-.646-1.559l3.008-3.009h-2.362a.913.913 0 0 1 0-1.826h4.567a.912.912 0 0 1 .647 1.559l-3.009 3.007h2.361a.915.915 0 0 1 .001 1.828z"/></svg>