<svg xmlns="http://www.w3.org/2000/svg" xml:space="preserve" width="29.387" height="29.387" viewBox="22.217 25.306 29.387 29.387"><circle cx="36.911" cy="40" r="14.063" fill="#96D2CA"/><path fill="#103653" d="M36.95 54.693h-.042c-3.994-.01-7.669-1.545-10.429-4.322a14.555 14.555 0 0 1-4.262-10.374c.004-1.533.221-2.969.644-4.348a.75.75 0 0 1 1.434.44 13.206 13.206 0 0 0-.578 3.831c-.01 3.594 1.349 6.901 3.826 9.393a13.064 13.064 0 0 0 9.29 3.879h.038c7.315 0 13.213-5.875 13.233-13.115.021-7.333-5.862-13.251-13.116-13.272a13.059 13.059 0 0 0-7.678 2.389.75.75 0 0 1-.863-1.227 14.563 14.563 0 0 1 8.424-2.663h.042c8.161.024 14.714 6.617 14.692 14.696-.023 8.148-6.594 14.693-14.655 14.693zm-12.524-20.19a.749.749 0 0 1-.67-1.085c.079-.158.161-.315.245-.47a.75.75 0 0 1 1.318.718c-.076.139-.149.28-.221.423a.75.75 0 0 1-.672.414z"/><path fill="#103653" d="M45.577 42.494c-.128.508-.634.76-1.141.635l-7.099-1.395c-.253 0-.507-.254-.76-.381-.507-.254-.761-.635-.761-1.141l.254-10.142c0-.633.507-1.014 1.014-1.014s1.014.508 1.014 1.014l.126 8.748 6.591 2.282c.634.127.889.761.762 1.394z"/></svg>