<?xml version="1.0" encoding="utf-8"?>
<!-- Generator: Adobe Illustrator 15.0.0, SVG Export Plug-In . SVG Version: 6.00 Build 0)  -->
<!DOCTYPE svg PUBLIC "-//W3C//DTD SVG 1.1//EN" "http://www.w3.org/Graphics/SVG/1.1/DTD/svg11.dtd">
<svg version="1.1" id="Calque_1" xmlns="http://www.w3.org/2000/svg" xmlns:xlink="http://www.w3.org/1999/xlink" x="0px" y="0px"
	 width="30px" height="30px" viewBox="0 0 30 30" enable-background="new 0 0 30 30" xml:space="preserve">
<path fill="#F9EACD" d="M17.344,25.672c-1.544,0.34-3.144,0.34-4.688,0v1.826c0,0.4-0.127,0.773-0.345,1.08
	c1.774,0.35,3.603,0.35,5.376,0c-0.224-0.315-0.344-0.693-0.345-1.08L17.344,25.672L17.344,25.672z"/>
<path fill="#F8F9F6" d="M8.907,27.498V24.07c-0.587-0.395-1.134-0.844-1.633-1.344C3.332,18.785,3.046,12.517,6.417,8.239
	l0.025-0.033c0.256-0.323,0.534-0.634,0.832-0.933c4.25-4.249,11.203-4.249,15.453,0c4.269,4.268,4.269,11.186,0,15.454
	c-0.453,0.453-0.939,0.859-1.455,1.221c-0.059,0.041-0.119,0.082-0.179,0.123v3.361c1.369-0.672,2.617-1.566,3.694-2.646
	c4.221-4.222,5.145-10.489,2.773-15.607l1.467-2.027c0.416-0.572,0.5-1.318,0-1.818l-4.361-4.362c-0.5-0.5-1.246-0.415-1.818,0
	L20.82,2.438C15.701,0.068,9.434,0.993,5.213,5.213C0.993,9.434,0.068,15.702,2.438,20.82l-1.467,2.027
	c-0.414,0.571-0.5,1.317,0,1.817l4.363,4.362c0.5,0.5,1.246,0.414,1.818,0l1.771-1.281C8.913,27.664,8.907,27.581,8.907,27.498z"/>
<g>
	<path fill="#103653" d="M29.471,4.893L25.107,0.53c-0.683-0.682-1.737-0.708-2.627-0.064l-1.734,1.255
		c-2.57-1.114-5.409-1.455-8.17-0.982C9.617,1.235,6.888,2.645,4.771,4.771c-2.126,2.117-3.536,4.846-4.033,7.805
		c-0.473,2.761-0.131,5.6,0.982,8.17L0.464,22.48c-0.643,0.89-0.617,1.944,0.064,2.627l4.363,4.363C5.245,29.822,5.697,30,6.175,30
		c0.446,0,0.915-0.154,1.344-0.465l1.096-0.793c0.446,0.775,1.272,1.254,2.167,1.255c0.692,0,1.32-0.283,1.773-0.739
		c1.618,0.277,3.273,0.277,4.89,0c0.453,0.456,1.08,0.739,1.773,0.739c1.252-0.003,2.311-0.93,2.477-2.171
		c1.304-0.682,2.495-1.558,3.533-2.598c2.127-2.117,3.537-4.847,4.033-7.806c0.473-2.761,0.132-5.6-0.982-8.17l1.257-1.735
		C30.178,6.63,30.152,5.575,29.471,4.893z M10.781,17.5c-1.293-0.002-2.342-1.051-2.344-2.344c0-1.379,1.159-3.228,2.344-3.228
		c1.185,0,2.344,1.848,2.344,3.228C13.124,16.449,12.075,17.498,10.781,17.5z M10.781,28.747c-0.689,0-1.25-0.562-1.25-1.249v-7.499
		c0-0.688,0.561-1.249,1.25-1.249c0.689,0,1.25,0.561,1.25,1.249v7.499c0,0.257-0.079,0.496-0.213,0.695
		c-0.009,0.012-0.018,0.022-0.026,0.035C11.558,28.555,11.182,28.747,10.781,28.747z M13.208,28.094
		c0.047-0.191,0.072-0.391,0.072-0.596v-1.076c1.14,0.176,2.298,0.176,3.438,0v1.076c0,0.205,0.025,0.404,0.072,0.596
		C15.6,28.256,14.4,28.256,13.208,28.094z M21.479,15.781c-0.274,0.988-1.184,1.719-2.26,1.719s-1.986-0.729-2.26-1.719H21.479z
		 M19.219,28.747c-0.416,0-0.783-0.204-1.012-0.519c-0.008-0.013-0.018-0.022-0.025-0.035c-0.139-0.205-0.213-0.447-0.213-0.695
		v-7.499c0-0.688,0.561-1.249,1.25-1.249c0.688,0,1.249,0.561,1.249,1.249v7.499C20.467,28.188,19.908,28.746,19.219,28.747z
		 M28.521,6.786l-1.467,2.027c-0.133,0.184-0.156,0.424-0.062,0.629c2.319,5.009,1.256,10.998-2.649,14.902
		c-0.786,0.788-1.668,1.473-2.627,2.039v-1.986c0.517-0.369,1.002-0.781,1.45-1.229c2.174-2.161,3.392-5.103,3.384-8.168
		c0-3.085-1.201-5.986-3.384-8.168c-1.784-1.793-4.11-2.946-6.618-3.279c-2.505-0.346-5.055,0.146-7.252,1.401
		C8.999,5.127,8.898,5.51,9.073,5.808C9.244,6.101,9.617,6.204,9.914,6.04c4.032-2.278,9.088-1.593,12.369,1.675
		c1.938,1.928,3.025,4.55,3.018,7.284c0.01,3.003-1.301,5.858-3.584,7.81v-2.812c0-0.673-0.268-1.284-0.701-1.733
		c1.109-0.643,1.795-1.826,1.797-3.11v-3.853c0-0.346-0.28-0.625-0.625-0.625c-0.346,0-0.625,0.279-0.625,0.625v3.228h-1.72v-3.228
		c0-0.346-0.28-0.625-0.625-0.625s-0.625,0.279-0.625,0.625v3.228h-1.719v-3.228c0-0.346-0.28-0.625-0.625-0.625
		s-0.625,0.279-0.625,0.625v3.853c0,1.327,0.724,2.487,1.795,3.11c-0.45,0.465-0.702,1.086-0.701,1.733v5.157
		c-1.138,0.194-2.3,0.195-3.438,0v-5.157c0-0.673-0.268-1.284-0.702-1.733c1.11-0.643,1.794-1.826,1.796-3.11
		c0-0.947-0.368-2.032-0.984-2.902c-0.72-1.016-1.646-1.575-2.609-1.575c-0.963,0-1.889,0.56-2.609,1.575
		c-0.617,0.87-0.984,1.955-0.984,2.902c0,1.327,0.723,2.487,1.795,3.11c-0.45,0.465-0.702,1.086-0.702,1.733v2.812
		c-0.195-0.168-0.384-0.344-0.566-0.525c-3.211-3.211-3.934-8.236-1.757-12.221c0.165-0.303,0.053-0.683-0.25-0.848
		s-0.682-0.053-0.848,0.25l0,0c-1.202,2.189-1.656,4.71-1.295,7.181c0.349,2.473,1.496,4.763,3.266,6.523
		c0.447,0.447,0.934,0.859,1.45,1.229v3.043l-1.496,1.082c-0.288,0.209-0.725,0.352-1.01,0.064l-4.363-4.361
		c-0.285-0.285-0.144-0.723,0.064-1.011l1.467-2.026c0.133-0.184,0.156-0.424,0.061-0.629C0.686,15.549,1.75,9.56,5.655,5.655
		c3.904-3.905,9.894-4.97,14.902-2.65c0.205,0.095,0.445,0.072,0.629-0.061l2.026-1.467c0.288-0.208,0.726-0.35,1.011-0.064
		l4.362,4.363C28.872,6.062,28.73,6.499,28.521,6.786z"/>
	<path fill="#103653" d="M6.831,7.716C6.561,7.502,6.168,7.547,5.953,7.817L5.926,7.852C5.712,8.123,5.759,8.516,6.03,8.729
		c0.271,0.213,0.664,0.167,0.877-0.104l0,0l0.024-0.031C7.146,8.324,7.101,7.931,6.831,7.716z"/>
</g>
</svg>
