<svg xmlns="http://www.w3.org/2000/svg" xml:space="preserve" width="36" height="36" viewBox="0 0 36 36"><path fill="#f9faf7" d="M25.052 22.012c-.104.816-.199 1.65-.295 2.518l-.033.303q-.113 1.094-.254 2.186c-.188 1.434-.563 2.725-.959 3.289-.75 1.076-2.16 1.15-3.852 1.24-.27.016-.547.029-.818.051-1.63.127-3.121.049-4.6-.232-1.588-.301-2.85-1.045-3.557-2.094-.362-.539-.584-1.297-.688-2.359l1.098.049a.783.783 0 0 0 .578-1.308.78.78 0 0 0-.544-.254l-1.204-.055-.006-.6c-.005-.244-.002-.512.006-.795.487.012.977.025 1.481.041a.782.782 0 0 0 .022-1.562l-1.42-.039c.03-.4.065-.813.107-1.223l1.479.074a.781.781 0 0 0 .039-1.56l-1.326-.068q.079-.57.17-1.094l1.713.061c.416 0 .76-.328.781-.757a.79.79 0 0 0-.752-.805l-1.412-.05c.205-.791.369-1.106.459-1.23.647-.91 1.907-1.447 3.85-1.642 1.729-.172 3.07-.105 4.581.174 1.87.346 3.633.758 4.627 1.977 1.18 1.44 1.008 3.637.729 5.764"/><path fill="#96d2ca" d="m22.387 13.999.168-3.075q-.82-.1-1.64-.188l.063 2.881c.485.108.958.233 1.409.382"/><path fill="#f79927" d="M13.798 9.795c.218-.012.435-.012.646-.008q.839.017 1.684.049h.019q1.128.046 2.254.125h.008q.016.002.033.003 1.117.075 2.23.188 1.099.111 2.194.251.017.002.03.004c.066.008.135.02.201.026q.136.015.264.038c.272-1.264-.273-2.097-1.297-3.072-.146-.139-.439-.33-.748-.528-.514-.33-1.041-.675-1.264-1.013-.296-.457-.188-1.008-.09-1.496.049-.248.098-.48.094-.686-.007-.582-.523-1.129-1.103-1.174s-1.174.42-1.271.99c-.037.221-.015.465.008.719.034.391.071.791-.098 1.186-.33.766-1.331 1.147-2.063 1.429-.052.019-.104.042-.157.06-1.271.496-2.093 1.594-2.25 2.989q.332-.064.671-.079z"/><path fill="#96d2ca" d="M22.939 14.205c.256.105.498.22.734.353.578-.184.635-.48.732-.994q.03-.18.078-.375c.094-.391.259-1.354-.309-1.834-.267-.225-.642-.301-1.063-.356zm-4.9-1.05.079-2.655a56 56 0 0 0-1.691-.09l.131 2.7q.746-.011 1.481.045m-5.385.521q.433-.151.934-.262l-.053-3.045c-.477.053-.918.184-1.233.494-.341.338-.511.9-.454 1.508l.004.03c.064.691.15 1.129.802 1.275m1.44-3.333.049 2.966c.263-.045.537-.078.825-.108q.522-.052 1.027-.075l-.135-2.744q-.71-.026-1.421-.038zm6.319 3.153c-.188-.037-.371-.07-.563-.108q-.63-.117-1.248-.184l.078-2.667c.559.042 1.113.09 1.672.143z"/><path fill="none" d="M19.15 12.772q.39.053.785.125l-.037-1.751-.697-.06zm-4.905-3.478.243.002q.845.016 1.694.049 2.271.089 4.533.313l.043.004v.001q1.11.113 2.207.253h.002c.02-.71-.33-1.306-1.213-2.146-.119-.112-.453-.328-.674-.471-.637-.409-1.145-.754-1.41-1.158-.408-.633-.266-1.348-.162-1.869.049-.246.088-.438.084-.579-.004-.322-.32-.66-.641-.685h-.004c-.352 0-.684.274-.736.576-.026.153-.008.359.012.579.039.455.081.935-.135 1.439-.413.956-1.523 1.383-2.334 1.695l-.178.068a2.97 2.97 0 0 0-1.791 1.94l.02-.001q.222-.01.44-.01m7.712 4.051.107-1.972-.603-.069.043 1.924q.237.057.453.117m1.994.135q.032-.19.086-.404c.115-.481.139-1.088-.146-1.33a.8.8 0 0 0-.271-.136l-.125 2.287q.127.059.248.122c.12-.072.142-.185.208-.539m-6.361-.846.049-1.657-.651-.036.082 1.677q.26.005.52.016m2.107 1.806c-1.51-.279-2.851-.347-4.581-.174-1.942.195-3.201.732-3.85 1.642-.089.125-.254.44-.459 1.23l1.412.05a.79.79 0 0 1 .752.805.785.785 0 0 1-.781.757l-1.712-.061a32 32 0 0 0-.171 1.095l1.327.067a.78.78 0 0 1-.04 1.561l-1.478-.074q-.062.618-.107 1.223l1.419.039a.783.783 0 0 1-.022 1.563c-.504-.016-.994-.029-1.481-.041-.008.283-.011.551-.006.795l.006.6 1.204.055a.781.781 0 0 1-.034 1.562l-1.098-.048c.103 1.062.325 1.819.688 2.358.706 1.05 1.968 1.793 3.556 2.094 1.479.281 2.97.359 4.6.232.271-.021.55-.035.818-.051 1.69-.09 3.103-.164 3.853-1.24.395-.564.771-1.855.959-3.289.096-.724.176-1.461.254-2.185l.032-.303c.097-.867.188-1.7.295-2.519.279-2.127.451-4.323-.729-5.767-.993-1.218-2.755-1.63-4.626-1.976m-7.023-1.277q.214-.07.442-.13l-.035-2.04q-.244.09-.393.236c-.231.229-.35.653-.308 1.106.059.621.124.764.294.828m1.995-.419.283-.032q.281-.027.555-.047l-.088-1.79a68 68 0 0 0-.781-.02z"/><path fill="#103653" d="M25.529 15.43a5.5 5.5 0 0 0-.484-.512c.291-.375.377-.816.451-1.199l.055-.267c.303-1.234.064-2.29-.646-2.894a2 2 0 0 0-.395-.265 3.44 3.44 0 0 0-.25-1.791c-.264-.616-.689-1.176-1.426-1.871-.223-.21-.566-.433-.922-.663-.27-.176-.83-.542-.93-.692-.062-.091.016-.474.069-.746.056-.275.109-.561.105-.87-.021-1.133-.953-2.126-2.084-2.215-1.128-.088-2.211.764-2.403 1.866-.065.367-.032.72-.004 1.018.023.263.045.512-.017.656-.149.352-.97.666-1.524.877l-.102.041c-1.633.636-2.707 2.053-2.916 3.823q-.287.165-.521.394c-.571.566-.85 1.426-.76 2.392.034.356.083.882.361 1.342q-.73.477-1.205 1.142c-.348.488-.649 1.374-.931 2.756q-.252 1.285-.399 2.587l-.016.106q-.165 1.425-.247 2.857-.04.856-.038 1.713c.012 1.697.026 3.812 1.03 5.301.941 1.396 2.561 2.377 4.562 2.759 1.116.213 2.234.315 3.417.315q.782 0 1.597-.063c.236-.02.479-.032.719-.045l.117-.008c1.787-.096 3.811-.203 4.994-1.904.813-1.172 1.145-3.346 1.227-3.98.107-.841.203-1.69.293-2.52l.023-.219c.082-.75.166-1.517.264-2.269.325-2.461.509-5.029-1.064-6.952m-1.91-3.821a.8.8 0 0 1 .271.136c.284.242.262.849.146 1.33a5 5 0 0 0-.086.404c-.066.354-.089.467-.209.538a8 8 0 0 0-.248-.122zm-8.043-4.243.178-.068c.811-.312 1.921-.739 2.334-1.695.216-.504.174-.984.135-1.439-.02-.219-.038-.426-.012-.579.052-.302.385-.576.736-.576h.004c.32.025.637.362.641.685.004.14-.035.333-.084.579-.104.521-.246 1.236.162 1.869.266.403.773.749 1.41 1.158.221.143.555.358.674.471.883.841 1.232 1.436 1.213 2.146h-.002a86 86 0 0 0-2.207-.253v.001l-.043-.005a70 70 0 0 0-2.245-.188 70 70 0 0 0-2.288-.125 87 87 0 0 0-1.694-.049l-.243-.002q-.218 0-.44.011l-.02.001a2.97 2.97 0 0 1 1.791-1.942m6.488 4.007-.107 1.972q-.217-.06-.451-.118l-.043-1.924zm-2.128 1.524q-.395-.072-.785-.125l.052-1.686q.348.028.696.06zm-2.296-1.919-.049 1.657a15 15 0 0 0-.521-.015l-.082-1.677q.326.014.652.035m-2.133 1.687q-.274.02-.555.047l-.283.032-.031-1.889q.39.008.781.02zm-2.818-1.436q.148-.148.393-.236l.035 2.04q-.229.061-.442.13c-.17-.064-.235-.208-.293-.828-.043-.453.076-.877.307-1.106m12.364 10.955c-.104.817-.199 1.65-.295 2.519l-.033.303q-.113 1.093-.254 2.185c-.188 1.434-.563 2.725-.959 3.289-.75 1.076-2.16 1.15-3.852 1.24-.27.016-.547.03-.818.051-1.63.127-3.121.049-4.6-.232-1.587-.301-2.85-1.044-3.556-2.094-.363-.539-.585-1.297-.688-2.358l1.098.048a.783.783 0 0 0 .578-1.307.79.79 0 0 0-.544-.255l-1.204-.055-.006-.6c-.005-.244-.002-.512.006-.795.487.012.977.025 1.481.041a.783.783 0 0 0 .022-1.562l-1.419-.039c.03-.4.065-.812.107-1.223l1.478.074a.781.781 0 0 0 .039-1.56l-1.327-.067q.08-.57.171-1.095l1.712.061c.417 0 .76-.327.781-.757a.79.79 0 0 0-.752-.805l-1.412-.05c.205-.791.37-1.106.459-1.23.648-.91 1.908-1.447 3.85-1.642 1.729-.172 3.07-.105 4.581.174 1.87.346 3.633.758 4.627 1.977 1.18 1.441 1.008 3.637.729 5.764"/></svg>