<?xml version="1.0" encoding="utf-8"?>
<!-- Generator: Adobe Illustrator 15.0.0, SVG Export Plug-In . SVG Version: 6.00 Build 0)  -->
<!DOCTYPE svg PUBLIC "-//W3C//DTD SVG 1.1//EN" "http://www.w3.org/Graphics/SVG/1.1/DTD/svg11.dtd">
<svg version="1.1" id="Calque_1" xmlns="http://www.w3.org/2000/svg" xmlns:xlink="http://www.w3.org/1999/xlink" x="0px" y="0px"
	 width="89.329px" height="89.33px" viewBox="0 0 89.329 89.33" enable-background="new 0 0 89.329 89.33" xml:space="preserve">
<g>
	<path fill="#FAFBF8" d="M70.353,66.072c0,2.365-1.917,4.282-4.28,4.282H23.256c-2.364,0-4.281-1.917-4.281-4.282V23.257
		c0-2.364,1.917-4.281,4.281-4.281h42.815c2.364,0,4.281,1.917,4.281,4.281V66.072L70.353,66.072z"/>
	<path fill="#133754" d="M66.072,73.012H23.256c-3.826,0-6.938-3.112-6.938-6.939V23.257c0-3.826,3.113-6.939,6.938-6.939h42.815
		c3.826,0,6.939,3.113,6.939,6.939v42.815C73.011,69.899,69.898,73.012,66.072,73.012z M23.256,21.633
		c-0.895,0-1.623,0.729-1.623,1.624v42.815c0,0.896,0.728,1.624,1.624,1.624h42.816c0.896,0,1.623-0.729,1.623-1.624V23.257
		c0-0.895-0.729-1.624-1.623-1.624H23.256z"/>
</g>
</svg>
