<?xml version="1.0" encoding="utf-8"?>
<!-- Generator: Adobe Illustrator 15.0.0, SVG Export Plug-In . SVG Version: 6.00 Build 0)  -->
<!DOCTYPE svg PUBLIC "-//W3C//DTD SVG 1.1//EN" "http://www.w3.org/Graphics/SVG/1.1/DTD/svg11.dtd">
<svg version="1.1" id="Calque_1" xmlns="http://www.w3.org/2000/svg" xmlns:xlink="http://www.w3.org/1999/xlink" x="0px" y="0px"
	 width="89.329px" height="89.33px" viewBox="0 0 89.329 89.33" enable-background="new 0 0 89.329 89.33" xml:space="preserve">
<g>
	<path fill="#D9DADB" d="M70.353,70.071c0,2.365-1.918,4.282-4.281,4.282H23.256c-2.364,0-4.281-1.917-4.281-4.282V27.256
		c0-2.364,1.917-4.281,4.281-4.281H66.07c2.367,0,4.283,1.917,4.283,4.281V70.071L70.353,70.071z"/>
	<path fill="#133754" d="M66.072,77.012H23.256c-3.826,0-6.938-3.114-6.938-6.94V27.256c0-3.826,3.113-6.938,6.938-6.938H66.07
		c3.828,0,6.941,3.113,6.941,6.938v42.815C73.011,73.898,69.898,77.012,66.072,77.012z M23.256,25.633
		c-0.895,0-1.624,0.729-1.624,1.624v42.815c0,0.896,0.729,1.625,1.624,1.625h42.816c0.895,0,1.623-0.729,1.623-1.625V27.256
		c0-0.895-0.729-1.624-1.625-1.624H23.256z"/>
</g>
</svg>
