<?xml version="1.0" encoding="utf-8"?>
<!-- Generator: Adobe Illustrator 15.0.0, SVG Export Plug-In . SVG Version: 6.00 Build 0)  -->
<!DOCTYPE svg PUBLIC "-//W3C//DTD SVG 1.1//EN" "http://www.w3.org/Graphics/SVG/1.1/DTD/svg11.dtd">
<svg version="1.1" id="Calque_1" xmlns="http://www.w3.org/2000/svg" xmlns:xlink="http://www.w3.org/1999/xlink" x="0px" y="0px"
	 width="729.074px" height="578.584px" viewBox="0 0 729.074 578.584" enable-background="new 0 0 729.074 578.584"
	 xml:space="preserve">
<path fill="#103653" d="M528.745,447.548c-38.346,0-76.312-9.887-109.785-28.59c-34.514-19.28-63.426-47.563-83.615-81.794
	c-30.438-51.604-38.958-111.977-23.99-169.99C326.32,109.157,362.985,60.444,414.59,30.006
	c27.988-16.508,58.457-26.575,90.562-29.923c8.239-0.859,15.614,5.123,16.475,13.362c0.375,3.583-0.553,7.181-2.613,10.136
	c-43.396,62.238-46.543,144.66-8.016,209.979c34.787,58.979,98.992,95.616,167.559,95.616c6.689,0,13.449-0.352,20.091-1.044
	c8.237-0.86,15.614,5.119,16.477,13.357c0.375,3.585-0.553,7.185-2.615,10.141c-18.463,26.479-42.014,48.272-70,64.779
	C607.969,436.78,568.631,447.548,528.745,447.548L528.745,447.548z M477.084,35.773c-16.451,4.52-32.26,11.229-47.252,20.071
	c-44.705,26.367-76.465,68.565-89.432,118.821c-12.966,50.256-5.584,102.553,20.782,147.256
	c34.789,58.982,98.994,95.623,167.562,95.623c34.529,0,68.598-9.328,98.518-26.978c14.998-8.846,28.523-19.439,40.439-31.656
	c-34.629-1.683-68.621-11.387-98.935-28.319c-34.51-19.277-63.424-47.563-83.612-81.793
	c-22.261-37.738-32.939-80.727-30.886-124.313C455.733,93.47,463.534,63.329,477.084,35.773L477.084,35.773z"/>
<path fill="#96D2CA" d="M497.639,538.592l-383.599-0.318c-46.962,0-85.169-38.063-85.169-84.85
	c0-46.964,38.208-85.171,85.169-85.171c3.224,0,6.479,0.195,9.95,0.603c8.74,1.021,16.651-5.237,17.672-13.979
	c0.041-0.354,0.071-0.71,0.088-1.066c2.748-55.812,48.712-99.524,104.646-99.524c32.564,0,62.726,14.767,82.752,40.508
	c5.406,6.947,15.422,8.195,22.369,2.788c0.013-0.009,0.021-0.017,0.033-0.024c12.607-9.869,27.734-15.086,43.746-15.086
	c39.158,0,71.043,31.856,71.074,71.019c0.004,8.798,7.139,15.928,15.938,15.923c0.802,0,1.601-0.061,2.394-0.182
	c4.277-0.647,8.598-0.974,12.926-0.974c46.963,0,85.168,38.207,85.168,85.169C582.795,500.383,544.592,538.589,497.639,538.592
	L497.639,538.592z"/>
<path fill="#103653" d="M497.639,553.592h-0.014l-383.598-0.318c-55.221,0-100.156-44.792-100.156-99.85
	c0-55.234,44.936-100.171,100.169-100.171c3.825,0,7.649,0.23,11.693,0.703c0.254,0.022,0.507-0.056,0.705-0.216
	c0.197-0.167,0.316-0.407,0.33-0.665c3.141-63.811,55.688-113.791,119.628-113.791c37.224,0,71.7,16.875,94.59,46.297
	c0.315,0.407,0.901,0.483,1.309,0.168c0.006-0.003,0.01-0.006,0.014-0.01c15.269-11.95,33.593-18.271,52.988-18.271
	c47.424,0,86.035,38.581,86.074,86.006c0,0.274,0.119,0.532,0.326,0.712c0.203,0.177,0.475,0.255,0.739,0.215
	c5-0.761,10.105-1.146,15.188-1.146c55.232,0,100.168,44.938,100.168,100.169C597.795,508.653,552.866,553.588,497.639,553.592
	L497.639,553.592z M114.041,383.254c-38.691,0-70.169,31.479-70.169,70.171c0,38.516,31.478,69.85,70.169,69.85l383.61,0.318
	c38.678-0.007,70.145-31.48,70.145-70.166c0-38.689-31.479-70.169-70.168-70.169c-3.578,0-7.168,0.271-10.672,0.804
	c-8.91,1.354-17.969-1.244-24.805-7.115c-6.84-5.871-10.777-14.437-10.777-23.449c-0.025-30.891-25.182-56.023-56.074-56.023
	c-12.629,0-24.559,4.113-34.5,11.896c-6.412,5.017-14.764,7.342-22.844,6.346c-8.239-1.018-15.565-5.177-20.647-11.713
	c-17.162-22.062-43.009-34.716-70.91-34.716c-47.925,0-87.311,37.452-89.664,85.264c-0.433,8.55-4.377,16.539-10.899,22.082
	c-6.537,5.533-15.073,8.112-23.581,7.124C119.529,383.427,116.786,383.26,114.041,383.254L114.041,383.254z"/>
<path fill="#103653" d="M160.602,503.459h181.903c8.801,0,15.938-7.135,15.938-15.938c0-8.802-7.138-15.938-15.938-15.938H160.601
	c-8.8,0-15.937,7.136-15.937,15.938C144.664,496.324,151.802,503.459,160.602,503.459z M100.455,503.459h7.336
	c8.8,0,15.936-7.135,15.936-15.938c0-8.802-7.136-15.938-15.936-15.938h-7.336c-8.8,0-15.936,7.136-15.936,15.938
	C84.519,496.324,91.656,503.459,100.455,503.459z"/>
</svg>
